<svg width="86" height="27" viewBox="0 0 86 27" fill="none" xmlns="http://www.w3.org/2000/svg">
<path d="M31.2197 12.4122C31.2197 9.77616 32.7545 8.24027 36.338 8.24027C37.6611 8.23973 38.9794 8.39924 40.2642 8.71532L39.9608 11.0727C38.7998 10.8551 37.6226 10.7356 36.4415 10.7155C34.5605 10.7155 33.9431 11.3621 33.9431 12.8979V18.42C33.9431 19.9523 34.5463 20.6024 36.4415 20.6024C37.6226 20.5823 38.7998 20.4628 39.9608 20.2452L40.2642 22.6026C38.9794 22.9187 37.6611 23.0782 36.338 23.0777C32.7688 23.0777 31.2197 21.5418 31.2197 18.9058V12.4122Z" fill="black"/>
<path d="M46.0777 23.0669C42.4692 23.0669 41.502 21.0738 41.502 18.9307V16.259C41.502 14.1159 42.4728 12.1085 46.0813 12.1085C49.6898 12.1085 50.6571 14.098 50.6571 16.259V18.9307C50.6535 21.0738 49.6827 23.0669 46.0777 23.0669ZM46.0777 14.3552C44.6714 14.3552 44.1325 14.9838 44.1325 16.1732V19.0021C44.1325 20.1916 44.6714 20.8166 46.0777 20.8166C47.484 20.8166 48.0194 20.1916 48.0194 19.0021V16.1732C48.0194 15.0017 47.4804 14.3552 46.0777 14.3552Z" fill="black"/>
<path d="M58.6665 22.8597V15.5017C58.6665 14.941 58.4274 14.6588 57.8242 14.6588C57.221 14.6588 56.0395 15.0481 55.0794 15.5446V22.8597H52.4453V12.3264H54.4548L54.7082 13.2158C56.0199 12.5581 57.4545 12.1822 58.9199 12.1121C60.6689 12.1121 61.297 13.3443 61.297 15.2231V22.8597H58.6665Z" fill="black"/>
<path d="M66.7191 23.0669C65.4869 23.0464 64.2646 22.8418 63.0928 22.4597L63.4497 20.4524C64.4681 20.743 65.5209 20.8955 66.5799 20.906C67.7471 20.906 67.9184 20.6452 67.9184 19.8344C67.9184 19.1879 67.7899 18.8629 66.0838 18.4521C63.5139 17.8271 63.2106 17.177 63.2106 15.1446C63.2106 13.0265 64.1386 12.0978 67.1367 12.0978C68.1975 12.0948 69.2551 12.2147 70.2884 12.455L70.0564 14.5731C69.1008 14.3968 68.133 14.2953 67.1617 14.2695C66.016 14.2695 65.8232 14.5303 65.8232 15.1768C65.8232 16.0197 65.8875 16.084 67.3152 16.4519C70.2491 17.2306 70.5275 17.6199 70.5275 19.7809C70.5204 21.8132 69.8957 23.0669 66.7191 23.0669Z" fill="black"/>
<path d="M74.8821 12.3264V19.6737C74.8821 20.2345 75.1177 20.5166 75.7245 20.5166C76.3313 20.5166 77.5091 20.1273 78.4657 19.6308V12.3264H81.0998V22.8598H79.0939L78.8333 21.9739C77.5218 22.6321 76.0871 23.008 74.6216 23.0776C72.8727 23.0776 72.248 21.8454 72.248 19.963V12.3264H74.8821Z" fill="black"/>
<path d="M83.3662 22.8598V8.02592L86.0003 7.66873V22.8598H83.3662Z" fill="black"/>
<path d="M11.3422 26.9995C9.49741 27.0006 7.68024 26.551 6.04842 25.6899C4.41659 24.8288 3.01943 23.5821 1.97821 22.0582C0.936978 20.5342 0.283148 18.7789 0.073465 16.9448C-0.136218 15.1106 0.104584 13.2529 0.774969 11.533C1.44535 9.81307 2.52506 8.28286 3.92038 7.07518C5.3157 5.86751 6.98446 5.01886 8.78183 4.60291C10.5792 4.18696 12.4508 4.21626 14.2343 4.68829C16.0178 5.16031 17.6592 6.06079 19.0161 7.31156V7.31156L16.3356 10.1262C15.2657 9.16086 13.9391 8.52669 12.5165 8.30046C11.0938 8.07423 9.63616 8.26565 8.31999 8.85154C7.00383 9.43742 5.88566 10.3926 5.1009 11.6015C4.31614 12.8103 3.89847 14.221 3.89847 15.6625C3.89847 17.1041 4.31614 18.5147 5.1009 19.7235C5.88566 20.9324 7.00383 21.8876 8.31999 22.4735C9.63616 23.0594 11.0938 23.2508 12.5165 23.0246C13.9391 22.7983 15.2657 22.1642 16.3356 21.1989V21.1989L19.0161 24.0028C16.926 25.9323 14.1858 27.0024 11.3422 26.9995V26.9995Z" fill="black"/>
<path d="M20.4651 21.3239C20.2816 21.3239 20.1022 21.2694 19.9495 21.1674C19.7969 21.0653 19.678 20.9203 19.6078 20.7506C19.5375 20.5809 19.5191 20.3942 19.5549 20.214C19.5907 20.0339 19.6791 19.8684 19.8089 19.7385C19.9387 19.6086 20.1041 19.5202 20.2841 19.4844C20.4641 19.4485 20.6507 19.4669 20.8202 19.5372C20.9898 19.6075 21.1348 19.7265 21.2367 19.8793C21.3387 20.032 21.3931 20.2115 21.3931 20.3952C21.3931 20.6415 21.2953 20.8777 21.1213 21.0519C20.9473 21.226 20.7112 21.3239 20.4651 21.3239V21.3239Z" fill="black"/>
<path d="M11.2711 18.1128C10.7854 18.1128 10.3106 17.9687 9.90679 17.6986C9.50296 17.4286 9.18822 17.0448 9.00236 16.5958C8.81649 16.1467 8.76786 15.6526 8.86262 15.1759C8.95737 14.6992 9.19124 14.2614 9.53467 13.9177C9.8781 13.574 10.3157 13.34 10.792 13.2452C11.2683 13.1503 11.7621 13.199 12.2108 13.385C12.6595 13.571 13.043 13.886 13.3129 14.2901C13.5827 14.6942 13.7267 15.1693 13.7267 15.6554C13.7267 16.3071 13.468 16.9322 13.0075 17.393C12.5469 17.8539 11.9223 18.1128 11.2711 18.1128V18.1128Z" fill="black"/>
<path d="M21.5325 18.1486C21.349 18.1486 21.1695 18.0941 21.0169 17.992C20.8643 17.89 20.7454 17.745 20.6751 17.5753C20.6049 17.4056 20.5865 17.2188 20.6223 17.0387C20.6581 16.8586 20.7465 16.6931 20.8763 16.5632C21.0061 16.4333 21.1714 16.3449 21.3514 16.309C21.5315 16.2732 21.7181 16.2916 21.8876 16.3619C22.0572 16.4322 22.2021 16.5512 22.3041 16.7039C22.4061 16.8567 22.4605 17.0362 22.4605 17.2199C22.4596 17.4659 22.3615 17.7016 22.1877 17.8755C22.0138 18.0495 21.7783 18.1476 21.5325 18.1486Z" fill="black"/>
<path d="M18.7698 18.0414C18.5863 18.0414 18.4068 17.9869 18.2542 17.8849C18.1016 17.7828 17.9827 17.6378 17.9124 17.4681C17.8422 17.2984 17.8238 17.1117 17.8596 16.9315C17.8954 16.7514 17.9838 16.5859 18.1136 16.456C18.2434 16.3261 18.4087 16.2377 18.5888 16.2019C18.7688 16.166 18.9554 16.1844 19.1249 16.2547C19.2945 16.325 19.4394 16.444 19.5414 16.5968C19.6434 16.7495 19.6978 16.929 19.6978 17.1127C19.6978 17.359 19.6 17.5952 19.426 17.7694C19.252 17.9435 19.0159 18.0414 18.7698 18.0414V18.0414Z" fill="black"/>
<path d="M21.5325 15.0232C21.349 15.0232 21.1695 14.9687 21.0169 14.8667C20.8643 14.7646 20.7454 14.6196 20.6751 14.4499C20.6049 14.2802 20.5865 14.0935 20.6223 13.9133C20.6581 13.7332 20.7465 13.5677 20.8763 13.4378C21.0061 13.308 21.1714 13.2195 21.3514 13.1837C21.5315 13.1478 21.7181 13.1662 21.8876 13.2365C22.0572 13.3068 22.2021 13.4258 22.3041 13.5786C22.4061 13.7313 22.4605 13.9108 22.4605 14.0945C22.4596 14.3405 22.3615 14.5762 22.1877 14.7501C22.0138 14.9241 21.7783 15.0222 21.5325 15.0232V15.0232Z" fill="black"/>
<path d="M18.7698 15.1303C18.5863 15.1303 18.4068 15.0758 18.2542 14.9738C18.1016 14.8717 17.9827 14.7267 17.9124 14.557C17.8422 14.3873 17.8238 14.2006 17.8596 14.0204C17.8954 13.8403 17.9838 13.6748 18.1136 13.5449C18.2434 13.415 18.4087 13.3266 18.5888 13.2908C18.7688 13.2549 18.9554 13.2733 19.1249 13.3436C19.2945 13.4139 19.4394 13.5329 19.5414 13.6856C19.6434 13.8384 19.6978 14.0179 19.6978 14.2016C19.6978 14.4479 19.6 14.6841 19.426 14.8583C19.252 15.0324 19.0159 15.1303 18.7698 15.1303V15.1303Z" fill="black"/>
<path d="M20.5188 11.8978C20.3353 11.8978 20.1559 11.8434 20.0033 11.7413C19.8506 11.6393 19.7317 11.4942 19.6615 11.3245C19.5912 11.1548 19.5728 10.9681 19.6087 10.788C19.6445 10.6078 19.7328 10.4423 19.8626 10.3125C19.9924 10.1826 20.1578 10.0941 20.3378 10.0583C20.5178 10.0225 20.7044 10.0409 20.874 10.1112C21.0435 10.1814 21.1885 10.3005 21.2904 10.4532C21.3924 10.6059 21.4468 10.7855 21.4468 10.9691C21.4468 11.2154 21.3491 11.4517 21.175 11.6258C21.001 11.8 20.7649 11.8978 20.5188 11.8978V11.8978Z" fill="black"/>
<path d="M34.1636 4.90771V2.88962H32.3183V4.90771H31.376V0.0571494H32.3183V2.0931H34.1636V0.0571494H35.1058V4.90771H34.1636ZM38.5644 4.90771H37.8149L37.7471 4.67196C37.4254 4.87193 37.055 4.97944 36.6763 4.98271C36.0124 4.98271 35.7269 4.54338 35.7269 3.93974C35.7269 3.22537 36.0481 2.95391 36.7977 2.95391H37.6721V2.59673C37.6721 2.21097 37.5615 2.07524 36.9583 2.07524C36.6189 2.07871 36.2807 2.11459 35.9482 2.18239L35.8375 1.51446C36.2448 1.40384 36.6648 1.3474 37.0868 1.34658C38.2289 1.34658 38.568 1.73591 38.568 2.61101L38.5644 4.90771ZM37.6507 3.57184H36.9761C36.6799 3.57184 36.5978 3.65042 36.5978 3.92902C36.5978 4.20762 36.6799 4.28621 36.9547 4.28621C37.1954 4.28358 37.4319 4.22228 37.6436 4.10761L37.6507 3.57184ZM40.474 5.00057C40.0477 4.9927 39.6246 4.92415 39.2176 4.79698L39.3461 4.12905C39.6952 4.22434 40.055 4.27475 40.4169 4.27906C40.8202 4.27906 40.8809 4.19334 40.8809 3.92188C40.8809 3.65042 40.8345 3.59684 40.2455 3.46111C39.3532 3.25394 39.2497 3.03606 39.2497 2.36099C39.2497 1.68591 39.571 1.34658 40.6096 1.34658C40.977 1.34676 41.3433 1.38749 41.7018 1.46803L41.6126 2.18239C41.2812 2.12399 40.946 2.09056 40.6096 2.08238C40.2134 2.08238 40.1456 2.1681 40.1456 2.38242C40.1456 2.66459 40.1706 2.68602 40.6631 2.80746C41.6804 3.06464 41.7768 3.19322 41.7768 3.91473C41.7768 4.63625 41.5733 5.00057 40.474 5.00057ZM44.6536 4.92556V2.46457C44.6536 2.27883 44.5715 2.18596 44.3609 2.18596C44.0285 2.22149 43.7061 2.32094 43.4115 2.47885V4.90771H42.4977V0L43.4115 0.13573V1.68591C43.827 1.48172 44.2803 1.36617 44.7428 1.34658C45.3496 1.34658 45.5637 1.75734 45.5637 2.38242V4.91842L44.6536 4.92556ZM46.3311 0.93225V0.0750083H47.2448V0.93225H46.3311ZM46.3311 4.92556V1.42516H47.2448V4.92556H46.3311ZM47.973 1.45374C47.973 0.578638 48.5048 0.0678651 49.7576 0.0678651C50.2131 0.0676311 50.667 0.120371 51.1103 0.225025L51.0068 1.01083C50.6039 0.936724 50.1957 0.89492 49.7861 0.885816C49.1365 0.885816 48.926 1.1037 48.926 1.60018V3.43968C48.926 3.95045 49.1365 4.15405 49.7861 4.15405C50.1956 4.14624 50.6038 4.10563 51.0068 4.03261L51.1103 4.81484C50.6672 4.92069 50.2132 4.97463 49.7576 4.97557C48.5155 4.97557 47.973 4.4648 47.973 3.58613V1.45374ZM53.1162 5.00057C51.867 5.00057 51.5315 4.33621 51.5315 3.61827V2.71817C51.5315 2.0038 51.867 1.33587 53.1162 1.33587C54.3655 1.33587 54.7081 1.99666 54.7081 2.71817V3.60041C54.7081 4.31835 54.3512 5.00057 53.1162 5.00057ZM53.1162 2.10381C52.6308 2.10381 52.4417 2.31098 52.4417 2.70745V3.64685C52.4417 4.04332 52.6308 4.25049 53.1162 4.25049C53.6017 4.25049 53.7908 4.04332 53.7908 3.64685V2.68959C53.7908 2.29312 53.6017 2.08595 53.1162 2.08595V2.10381ZM57.2708 2.16096C56.9367 2.3056 56.6145 2.47639 56.3071 2.67173V4.92556H55.3934V1.42516H56.1644L56.2251 1.81449C56.5227 1.62026 56.8442 1.46538 57.1816 1.35373L57.2708 2.16096ZM60.9186 3.76114C60.9186 4.53981 60.5617 5.00057 59.7158 5.00057C59.3885 4.99627 59.0623 4.96159 58.7414 4.89699V6.32572L57.8312 6.46145V1.4073H58.5451L58.6343 1.70377C58.9721 1.46761 59.3751 1.34275 59.7872 1.34658C60.5189 1.34658 60.9079 1.76449 60.9079 2.56101L60.9186 3.76114ZM58.7414 4.15762C59.0079 4.21429 59.2792 4.24539 59.5516 4.25049C59.88 4.25049 60.0085 4.10047 60.0085 3.78258V2.52886C60.0085 2.24311 59.8942 2.08595 59.5587 2.08595C59.2587 2.0955 58.9706 2.20627 58.7414 2.40028V4.15762Z" fill="black"/>
</svg>
