<svg fill="none" height="99" viewBox="0 0 354 99" width="354" xmlns="http://www.w3.org/2000/svg"><rect fill="#d4f2ff" height="20" rx="5" width="36" x="136"/><path d="m146.141 14h-1.203v-6.71387h-2.438v-1.03662h6.074v1.03662h-2.433zm4.265-6.875c-.403 0-.731-.32764-.731-.7251 0-.40283.328-.73047.731-.73047s.73.32764.73.73047c0 .39746-.327.7251-.73.7251zm-.575 6.875v-5.83301h1.149v5.83301zm3.255-7.30469h1.155v1.4878h1.267v.92382h-1.267v3.07767c0 .6284.252.9023.827.9023.177 0 .279-.0107.44-.0268v.9184c-.188.0322-.403.0591-.628.0591-1.284 0-1.794-.4512-1.794-1.5737v-3.35697h-.929v-.92382h.929zm3.835 7.30469v-8.12109h1.155v8.12109zm6.725-1.563h1.111c-.252 1.0313-1.197 1.6758-2.535 1.6758-1.676 0-2.701-1.1548-2.701-3.0186 0-1.85299 1.047-3.04 2.696-3.04 1.627 0 2.61 1.11182 2.61 2.938v.3974h-4.13v.0538c.037 1.0581.634 1.7241 1.557 1.7241.699 0 1.177-.2578 1.392-.7305zm-1.435-3.44286c-.854 0-1.45.62305-1.514 1.56296h2.954c-.027-.94528-.586-1.56296-1.44-1.56296z" fill="#007eb4"/><path d="m154 42.6667c1.473 0 2.667-1.1939 2.667-2.6667s-1.194-2.6667-2.667-2.6667-2.667 1.1939-2.667 2.6667 1.194 2.6667 2.667 2.6667zm-.5-22.6667v20h1v-20z" fill="#007eb4"/><rect fill="#d4f2ff" height="20" rx="5" width="35" x="38" y="41"/><path d="m46.1753 55h-1.2031v-7.7505h1.2031zm6.7622-3.9585h-1.1226c-.1342-.5693-.6069-1.0044-1.3803-1.0044-.9668 0-1.5576.7627-1.5576 2.0249 0 1.2891.5961 2.0679 1.5576 2.0679.7304 0 1.23-.3438 1.3803-.9776h1.1226c-.1504 1.1495-1.0527 1.9605-2.4976 1.9605-1.7026 0-2.7446-1.1602-2.7446-3.0508 0-1.853 1.0366-3.0078 2.7393-3.0078 1.4663 0 2.3525.854 2.5029 1.9873zm3.792 4.0713c-1.7134 0-2.7607-1.144-2.7607-3.0293 0-1.8799 1.0527-3.0293 2.7607-3.0293 1.7026 0 2.7554 1.144 2.7554 3.0293s-1.0474 3.0293-2.7554 3.0293zm0-.9829c.999 0 1.5684-.752 1.5684-2.0464 0-1.2998-.5694-2.0518-1.5684-2.0518-1.0044 0-1.5684.752-1.5684 2.0518s.564 2.0464 1.5684 2.0464zm4.1465.8701v-5.833h1.1118v.9238h.0859c.2847-.6445.8648-1.0366 1.7456-1.0366 1.3052 0 2.0249.7788 2.0249 2.1699v3.7759h-1.1547v-3.502c0-.9668-.4083-1.4394-1.2623-1.4394s-1.3964.5801-1.3964 1.52v3.4214z" fill="#007eb4"/><path d="m105.333 51c0 1.4728 1.194 2.6667 2.667 2.6667s2.667-1.1939 2.667-2.6667-1.194-2.6667-2.667-2.6667-2.667 1.1939-2.667 2.6667zm-32.333.5h35v-1h-35z" fill="#007eb4"/><rect fill="#d4f2ff" height="20" rx="5" width="63" x="3" y="74"/><path d="m17.814 88h-1.1172v-5.6772h-.0752l-2.272 5.5376h-.9131l-2.2719-5.5376h-.0752v5.6772h-1.11723v-7.7505h1.40723l2.4653 6.064h.0913l2.4707-6.064h1.4073zm5.645-1.563h1.1118c-.2524 1.0313-1.1978 1.6758-2.5352 1.6758-1.6757 0-2.7016-1.1548-2.7016-3.0186 0-1.853 1.0473-3.04 2.6963-3.04 1.6274 0 2.6103 1.1118 2.6103 2.938v.3974h-4.1303v.0538c.0376 1.0581.6337 1.7241 1.5576 1.7241.6982 0 1.1762-.2578 1.3911-.7305zm-1.4341-3.4429c-.854 0-1.4502.6231-1.5146 1.563h2.9541c-.0269-.9453-.5855-1.563-1.4395-1.563zm4.4097-2.2988h1.1548v1.4878h1.2675v.9238h-1.2675v3.0777c0 .6284.2524.9023.8271.9023.1773 0 .2793-.0107.4404-.0268v.9184c-.188.0322-.4028.0591-.6284.0591-1.2837 0-1.7939-.4512-1.7939-1.5737v-3.357h-.9292v-.9238h.9292zm5.3979 7.4014c-1.1279 0-1.9497-.6768-1.9497-1.7403 0-1.0473.7842-1.6543 2.1753-1.7402l1.5845-.0967v-.5102c0-.6392-.4082-.999-1.1978-.999-.6445 0-1.0903.2417-1.2192.666h-1.1172c.1182-.9829 1.0635-1.6221 2.3901-1.6221 1.4663 0 2.2935.7305 2.2935 1.9551v3.9907h-1.1118v-.8271h-.0913c-.3492.5908-.9883.9238-1.7564.9238zm.2954-.9292c.8701 0 1.5147-.5694 1.5147-1.3213v-.5049l-1.4287.0967c-.8057.0537-1.1709.3384-1.1709.8701 0 .5425.4565.8594 1.0849.8594zm6.4453.9292c-1.4878 0-2.4277-1.1709-2.4277-3.0186 0-1.8369.9507-3.0132 2.4277-3.0132.8003 0 1.4771.3868 1.794 1.0259h.0859v-3.2119h1.1548v8.1211h-1.1064v-.9238h-.0913c-.3492.6391-1.0313 1.0205-1.837 1.0205zm.3277-5.0435c-.9722 0-1.563.7681-1.563 2.0303 0 1.2676.5854 2.0249 1.563 2.0249.9721 0 1.5737-.7681 1.5737-2.0249 0-1.2461-.6069-2.0303-1.5737-2.0303zm6.0586 5.0435c-1.128 0-1.9497-.6768-1.9497-1.7403 0-1.0473.7841-1.6543 2.1753-1.7402l1.5844-.0967v-.5102c0-.6392-.4082-.999-1.1977-.999-.6446 0-1.0904.2417-1.2193.666h-1.1171c.1181-.9829 1.0634-1.6221 2.3901-1.6221 1.4663 0 2.2934.7305 2.2934 1.9551v3.9907h-1.1118v-.8271h-.0913c-.3491.5908-.9883.9238-1.7563.9238zm.2954-.9292c.8701 0 1.5146-.5694 1.5146-1.3213v-.5049l-1.4287.0967c-.8056.0537-1.1709.3384-1.1709.8701 0 .5425.4566.8594 1.085.8594zm4.7158-6.4722h1.1548v1.4878h1.2676v.9238h-1.2676v3.0777c0 .6284.2524.9023.8271.9023.1773 0 .2793-.0107.4405-.0268v.9184c-.188.0322-.4029.0591-.6285.0591-1.2836 0-1.7939-.4512-1.7939-1.5737v-3.357h-.9292v-.9238h.9292zm5.398 7.4014c-1.128 0-1.9498-.6768-1.9498-1.7403 0-1.0473.7842-1.6543 2.1753-1.7402l1.5845-.0967v-.5102c0-.6392-.4082-.999-1.1977-.999-.6446 0-1.0904.2417-1.2193.666h-1.1172c.1182-.9829 1.0635-1.6221 2.3902-1.6221 1.4663 0 2.2934.7305 2.2934 1.9551v3.9907h-1.1118v-.8271h-.0913c-.3491.5908-.9883.9238-1.7563.9238zm.2954-.9292c.8701 0 1.5146-.5694 1.5146-1.3213v-.5049l-1.4287.0967c-.8057.0537-1.1709.3384-1.1709.8701 0 .5425.4565.8594 1.085.8594z" fill="#007eb4"/><path d="m98.3333 84c0 1.4728 1.1939 2.6667 2.6667 2.6667 1.473 0 2.667-1.1939 2.667-2.6667s-1.194-2.6667-2.667-2.6667c-1.4728 0-2.6667 1.1939-2.6667 2.6667zm-32.3333.5h35v-1h-35z" fill="#007eb4"/><path clip-rule="evenodd" d="m118.834 43.3298c.717-.4344 1.615-.4344 2.332 0l5.25 3.1819c.673.4077 1.084 1.1374 1.084 1.9241v5.1284c0 .7868-.411 1.5165-1.084 1.9242l-5.25 3.1819c-.717.4344-1.615.4344-2.332 0l-5.25-3.1819c-.673-.4077-1.084-1.1374-1.084-1.9242v-5.1284c0-.7867.411-1.5164 1.084-1.9241zm1.555 1.2828c-.239-.1448-.539-.1448-.778 0l-5.25 3.1818c-.224.136-.361.3792-.361.6414v5.1284c0 .2623.137.5055.361.6414l5.25 3.1819c.239.1448.539.1448.778 0l5.25-3.1819c.224-.1359.361-.3791.361-.6414v-5.1284c0-.2622-.137-.5054-.361-.6414z" fill="#000001" fill-rule="evenodd"/><path d="m144.211 57h-2.016v-9.5781h-3.468v-1.6953h8.961v1.6953h-3.477zm6.211-9.9688c-.633 0-1.156-.5078-1.156-1.1484 0-.6328.523-1.1484 1.156-1.1484.64 0 1.164.5156 1.164 1.1484 0 .6406-.524 1.1484-1.164 1.1484zm-.961 9.9688v-8.5391h1.93v8.5391zm4.953-10.6328h1.93v2.1484h1.828v1.5078h-1.828v4.25c0 .8516.359 1.2344 1.172 1.2344.273 0 .422-.0156.656-.039v1.4843c-.281.0547-.641.086-1.016.086-1.961 0-2.742-.6563-2.742-2.3047v-4.711h-1.352v-1.5078h1.352zm5.774 10.6328v-11.8438h1.937v11.8438zm9.96-2.3359h1.836c-.351 1.539-1.781 2.5078-3.796 2.5078-2.516 0-4.032-1.6719-4.032-4.4063 0-2.7422 1.539-4.4687 4.016-4.4687 2.437 0 3.898 1.6172 3.898 4.2969v.6171h-5.968v.1016c.046 1.4453.867 2.3516 2.14 2.3516.961 0 1.625-.3594 1.906-1zm-1.984-4.8594c-1.156 0-1.969.8359-2.055 2.1172h4.024c-.039-1.2969-.805-2.1172-1.969-2.1172z" fill="#0c0c0e"/><g fill="#656a76"><path d="m121.246 86.8926v1.1074h-5.988v-9.8643h1.23v8.7569zm3.869 1.2373c-1.428 0-2.488-.8477-2.488-2.1944 0-1.3193.971-2.0781 2.686-2.1806l2.126-.1299v-.6699c0-.9092-.567-1.4082-1.668-1.4082-.881 0-1.497.3349-1.661.916h-1.189c.157-1.1826 1.319-1.9619 2.891-1.9619 1.798 0 2.803.9228 2.803 2.4541v5.0449h-1.121v-1.0869h-.109c-.479.7861-1.285 1.2168-2.27 1.2168zm.219-1.0322c1.21 0 2.105-.793 2.105-1.8457v-.6768l-1.982.1299c-1.121.0752-1.613.4648-1.613 1.2031 0 .752.635 1.1895 1.49 1.1895zm9.119 1.0322c-1.025 0-1.9-.4854-2.365-1.3057h-.109v1.1758h-1.122v-10.2949h1.176v4.0879h.11c.403-.793 1.298-1.292 2.31-1.292 1.873 0 3.09 1.497 3.09 3.8144 0 2.3037-1.224 3.8145-3.09 3.8145zm-.273-6.5694c-1.34 0-2.174 1.0528-2.174 2.7549 0 1.7022.834 2.7549 2.174 2.7549 1.346 0 2.146-1.0322 2.146-2.7549 0-1.7226-.8-2.7549-2.146-2.7549zm10.09 4.5323h1.175c-.341 1.2578-1.49 2.0371-3.103 2.0371-2.044 0-3.322-1.4766-3.322-3.8076 0-2.3174 1.298-3.8213 3.322-3.8213 1.989 0 3.199 1.415 3.199 3.7051v.4511h-5.298v.0547c.062 1.4561.875 2.3789 2.126 2.3789.95 0 1.593-.3486 1.901-.998zm-1.942-4.5528c-1.176 0-1.996.8614-2.085 2.167h4.061c-.028-1.3056-.807-2.167-1.976-2.167zm5.127 6.46v-10.2949h1.176v10.2949z"/><path clip-rule="evenodd" d="m163.125 77.2473c.538-.3258 1.212-.3258 1.75 0l3.937 2.3863c.505.3059.813.8531.813 1.4432v3.8463c0 .5901-.308 1.1373-.813 1.4431l-3.937 2.3864c-.538.3258-1.212.3258-1.75 0l-3.937-2.3864c-.505-.3058-.813-.853-.813-1.4431v-3.8463c0-.5901.308-1.1373.813-1.4432zm1.167.9621c-.18-.1086-.404-.1086-.584 0l-3.937 2.3863c-.168.102-.271.2844-.271.4811v3.8463c0 .1967.103.3791.271.481l3.937 2.3864c.18.1086.404.1086.584 0l3.937-2.3864c.168-.1019.271-.2843.271-.481v-3.8463c0-.1967-.103-.3791-.271-.4811z" fill-rule="evenodd"/><path d="m176.488 88h-1.23v-9.8643h1.23zm8.463-5.1133h-1.189c-.192-.7314-.841-1.3262-1.901-1.3262-1.326 0-2.16 1.0596-2.16 2.7276 0 1.7021.848 2.7822 2.16 2.7822.992 0 1.682-.458 1.901-1.292h1.189c-.212 1.3535-1.312 2.3516-3.083 2.3516-2.064 0-3.384-1.4971-3.384-3.8418 0-2.2969 1.313-3.7871 3.377-3.7871 1.791 0 2.885 1.0732 3.09 2.3857zm4.765 5.2432c-2.099 0-3.398-1.4492-3.398-3.8145 0-2.372 1.299-3.8144 3.398-3.8144 2.098 0 3.397 1.4424 3.397 3.8144 0 2.3653-1.299 3.8145-3.397 3.8145zm0-1.0596c1.394 0 2.18-1.0117 2.18-2.7549 0-1.75-.786-2.7549-2.18-2.7549-1.395 0-2.181 1.0049-2.181 2.7549 0 1.7432.786 2.7549 2.181 2.7549zm5.243.9297v-7.3691h1.121v1.1621h.109c.37-.8135 1.087-1.292 2.215-1.292 1.655 0 2.577.9775 2.577 2.7275v4.7715h-1.175v-4.4844c0-1.3261-.561-1.9551-1.737-1.9551-1.175 0-1.934.7862-1.934 2.0782v4.3613zm14.314-1.1074v1.1074h-5.988v-9.8643h1.231v8.7569zm3.87 1.2373c-1.429 0-2.489-.8477-2.489-2.1944 0-1.3193.971-2.0781 2.687-2.1806l2.126-.1299v-.6699c0-.9092-.568-1.4082-1.668-1.4082-.882 0-1.497.3349-1.661.916h-1.19c.157-1.1826 1.32-1.9619 2.892-1.9619 1.798 0 2.803.9228 2.803 2.4541v5.0449h-1.122v-1.0869h-.109c-.478.7861-1.285 1.2168-2.269 1.2168zm.218-1.0322c1.21 0 2.106-.793 2.106-1.8457v-.6768l-1.983.1299c-1.121.0752-1.613.4648-1.613 1.2031 0 .752.636 1.1895 1.49 1.1895zm9.119 1.0322c-1.025 0-1.9-.4854-2.365-1.3057h-.109v1.1758h-1.121v-10.2949h1.176v4.0879h.109c.403-.793 1.299-1.292 2.31-1.292 1.874 0 3.09 1.497 3.09 3.8144 0 2.3037-1.223 3.8145-3.09 3.8145zm-.273-6.5694c-1.34 0-2.174 1.0528-2.174 2.7549 0 1.7022.834 2.7549 2.174 2.7549 1.347 0 2.147-1.0322 2.147-2.7549 0-1.7226-.8-2.7549-2.147-2.7549zm10.09 4.5323h1.176c-.342 1.2578-1.491 2.0371-3.104 2.0371-2.044 0-3.322-1.4766-3.322-3.8076 0-2.3174 1.299-3.8213 3.322-3.8213 1.989 0 3.199 1.415 3.199 3.7051v.4511h-5.297v.0547c.061 1.4561.875 2.3789 2.125 2.3789.951 0 1.593-.3486 1.901-.998zm-1.942-4.5528c-1.175 0-1.996.8614-2.084 2.167h4.06c-.027-1.3056-.807-2.167-1.976-2.167zm5.127 6.46v-10.2949h1.176v10.2949z"/></g><rect fill="#f1f2f3" height="24" rx="5" width="76" x="246" y="71"/><path clip-rule="evenodd" d="m260.834 75.3298c.717-.4344 1.615-.4344 2.332 0l5.25 3.1819c.673.4077 1.084 1.1374 1.084 1.9241v5.1284c0 .7868-.411 1.5165-1.084 1.9242l-5.25 3.1819c-.717.4344-1.615.4344-2.332 0l-5.25-3.1819c-.673-.4077-1.084-1.1374-1.084-1.9242v-5.1284c0-.7867.411-1.5164 1.084-1.9241zm1.555 1.2828c-.239-.1448-.539-.1448-.778 0l-5.25 3.1818c-.224.136-.361.3792-.361.6414v5.1284c0 .2623.137.5055.361.6414l5.25 3.1819c.239.1448.539.1448.778 0l5.25-3.1819c.224-.1359.361-.3791.361-.6414v-5.1284c0-.2622-.137-.5054-.361-.6414z" fill="#656a76" fill-rule="evenodd"/><path d="m278.913 88h-3.764v-9.1597h3.682c1.72 0 2.754.876 2.754 2.2852 0 .9585-.704 1.8154-1.606 1.9678v.1079c1.238.1333 2.063 1.0092 2.063 2.209 0 1.6123-1.174 2.5898-3.129 2.5898zm-2.342-7.998v2.7358h1.688c1.257 0 1.911-.4697 1.911-1.3648 0-.8696-.616-1.371-1.67-1.371zm0 6.8364h2.056c1.283 0 1.962-.5269 1.962-1.5171s-.705-1.4981-2.044-1.4981h-1.974zm9.052 1.2759c-1.333 0-2.305-.7998-2.305-2.0567 0-1.2378.927-1.9551 2.571-2.0566l1.873-.1143v-.603c0-.7554-.483-1.1807-1.416-1.1807-.762 0-1.288.2857-1.441.7871h-1.32c.14-1.1616 1.257-1.917 2.825-1.917 1.733 0 2.71.8633 2.71 2.3106v4.7163h-1.314v-.9775h-.108c-.412.6982-1.168 1.0918-2.075 1.0918zm.349-1.0982c1.028 0 1.79-.6728 1.79-1.5615v-.5967l-1.689.1143c-.952.0634-1.384.3999-1.384 1.0283 0 .6411.54 1.0156 1.283 1.0156zm7.617 1.0982c-1.758 0-2.869-1.3838-2.869-3.5674 0-2.1709 1.123-3.5611 2.869-3.5611.946 0 1.745.4571 2.12 1.2124h.102v-3.7959h1.364v9.5977h-1.307v-1.0918h-.108c-.413.7554-1.219 1.2061-2.171 1.2061zm.387-5.9605c-1.149 0-1.847.9077-1.847 2.3994 0 1.4981.692 2.3931 1.847 2.3931 1.149 0 1.86-.9077 1.86-2.3931 0-1.4726-.717-2.3994-1.86-2.3994zm8.163 8.4805c-1.726 0-2.844-.7681-2.99-1.9297h1.397c.114.5205.692.8506 1.612.8506 1.136 0 1.809-.5586 1.809-1.4917v-1.3267h-.101c-.419.749-1.181 1.1616-2.133 1.1616-1.765 0-2.857-1.3647-2.857-3.434 0-2.0884 1.105-3.4786 2.87-3.4786.952 0 1.783.4698 2.171 1.2188h.107v-1.0982h1.308v6.9634c0 1.5679-1.238 2.5645-3.193 2.5645zm-.019-3.8657c1.168 0 1.873-.8951 1.873-2.3042 0-1.4092-.711-2.3106-1.873-2.3106-1.174 0-1.834.9014-1.834 2.3106 0 1.4091.66 2.3042 1.834 2.3042zm9.725-.6158h1.314c-.299 1.2188-1.416 1.9805-2.996 1.9805-1.981 0-3.193-1.3647-3.193-3.5674 0-2.1899 1.238-3.5928 3.186-3.5928 1.924 0 3.085 1.314 3.085 3.4722v.4697h-4.881v.0635c.044 1.2505.749 2.0376 1.841 2.0376.825 0 1.39-.3047 1.644-.8633zm-1.695-4.0688c-1.009 0-1.714.7363-1.79 1.8472h3.491c-.032-1.1172-.692-1.8472-1.701-1.8472z" fill="#656a76"/><path clip-rule="evenodd" d="m335.125 77.2473c.538-.3258 1.212-.3258 1.75 0l3.937 2.3863c.505.3059.813.8531.813 1.4432v3.8463c0 .5901-.308 1.1373-.813 1.4431l-3.937 2.3864c-.538.3258-1.212.3258-1.75 0l-3.937-2.3864c-.505-.3058-.813-.853-.813-1.4431v-3.8463c0-.5901.308-1.1373.813-1.4432zm1.167.9621c-.18-.1086-.404-.1086-.584 0l-3.937 2.3863c-.168.102-.271.2844-.271.4811v3.8463c0 .1967.103.3791.271.481l3.937 2.3864c.18.1086.404.1086.584 0l3.937-2.3864c.168-.1019.271-.2843.271-.481v-3.8463c0-.1967-.103-.3791-.271-.4811z" fill="#656a76" fill-rule="evenodd"/><rect height="24.5" rx="5.25" stroke="#007eb4" stroke-dasharray="2 2" stroke-width="1.5" width="243.5" x="106.75" y="70.75"/></svg>