<svg width="959" height="127" viewBox="0 0 959 127" fill="none" xmlns="http://www.w3.org/2000/svg">
<g filter="url(#filter0_ddd_1672_144041)">
<rect x="6" y="16" width="794" height="80" rx="6" fill="white"/>
<g clip-path="url(#clip0_1672_144041)">
<path fill-rule="evenodd" clip-rule="evenodd" d="M24.8338 32.3297C25.5506 31.8953 26.4494 31.8953 27.1662 32.3297L32.4162 35.5115C33.089 35.9193 33.5 36.6489 33.5 37.4357V42.5641C33.5 43.3509 33.089 44.0805 32.4162 44.4883L27.1662 47.6701C26.4494 48.1045 25.5506 48.1045 24.8338 47.6701L19.5838 44.4883C18.911 44.0805 18.5 43.3509 18.5 42.5641V37.4357C18.5 36.6489 18.911 35.9193 19.5838 35.5115L24.8338 32.3297ZM26.3887 33.6125C26.1498 33.4677 25.8502 33.4677 25.6113 33.6125L20.3613 36.7943C20.137 36.9303 20 37.1735 20 37.4357V42.5641C20 42.8264 20.137 43.0696 20.3613 43.2055L25.6113 46.3873C25.8502 46.5321 26.1498 46.5321 26.3887 46.3873L31.6387 43.2055C31.863 43.0696 32 42.8264 32 42.5641V37.4357C32 37.1735 31.863 36.9303 31.6387 36.7943L26.3887 33.6125Z" fill="#000001"/>
<path d="M50.2109 46H48.1953V36.4219H44.7266V34.7266H53.6875V36.4219H50.2109V46ZM56.4219 36.0312C55.7891 36.0312 55.2656 35.5234 55.2656 34.8828C55.2656 34.25 55.7891 33.7344 56.4219 33.7344C57.0625 33.7344 57.5859 34.25 57.5859 34.8828C57.5859 35.5234 57.0625 36.0312 56.4219 36.0312ZM55.4609 46V37.4609H57.3906V46H55.4609ZM60.4141 35.3672H62.3438V37.5156H64.1719V39.0234H62.3438V43.2734C62.3438 44.125 62.7031 44.5078 63.5156 44.5078C63.7891 44.5078 63.9375 44.4922 64.1719 44.4688V45.9531C63.8906 46.0078 63.5312 46.0391 63.1562 46.0391C61.1953 46.0391 60.4141 45.3828 60.4141 43.7344V39.0234H59.0625V37.5156H60.4141V35.3672ZM66.1875 46V34.1562H68.125V46H66.1875ZM76.1484 43.6641H77.9844C77.6328 45.2031 76.2031 46.1719 74.1875 46.1719C71.6719 46.1719 70.1562 44.5 70.1562 41.7656C70.1562 39.0234 71.6953 37.2969 74.1719 37.2969C76.6094 37.2969 78.0703 38.9141 78.0703 41.5938V42.2109H72.1016V42.3125C72.1484 43.7578 72.9688 44.6641 74.2422 44.6641C75.2031 44.6641 75.8672 44.3047 76.1484 43.6641ZM74.1641 38.8047C73.0078 38.8047 72.1953 39.6406 72.1094 40.9219H76.1328C76.0938 39.625 75.3281 38.8047 74.1641 38.8047Z" fill="#0C0C0E"/>
<path fill-rule="evenodd" clip-rule="evenodd" d="M25.1254 66.2473C25.6629 65.9215 26.3371 65.9215 26.8746 66.2473L30.8121 68.6336C31.3168 68.9395 31.625 69.4867 31.625 70.0768V73.9231C31.625 74.5132 31.3168 75.0604 30.8121 75.3662L26.8746 77.7526C26.3371 78.0784 25.6629 78.0784 25.1254 77.7526L21.1879 75.3662C20.6832 75.0604 20.375 74.5132 20.375 73.9231V70.0768C20.375 69.4867 20.6832 68.9395 21.1879 68.6336L25.1254 66.2473ZM26.2915 67.2094C26.1124 67.1008 25.8876 67.1008 25.7085 67.2094L21.771 69.5957C21.6027 69.6977 21.5 69.8801 21.5 70.0768V73.9231C21.5 74.1198 21.6027 74.3022 21.771 74.4041L25.7085 76.7905C25.8876 76.8991 26.1124 76.8991 26.2915 76.7905L30.229 74.4041C30.3973 74.3022 30.5 74.1198 30.5 73.9231V70.0768C30.5 69.8801 30.3973 69.6977 30.229 69.5957L26.2915 67.2094Z" fill="#656A76"/>
<path d="M38.4883 77H37.2578V67.1357H38.4883V77ZM46.9512 71.8867H45.7617C45.5703 71.1553 44.9209 70.5605 43.8613 70.5605C42.5352 70.5605 41.7012 71.6201 41.7012 73.2881C41.7012 74.9902 42.5488 76.0703 43.8613 76.0703C44.8525 76.0703 45.543 75.6123 45.7617 74.7783H46.9512C46.7393 76.1318 45.6387 77.1299 43.8682 77.1299C41.8037 77.1299 40.4844 75.6328 40.4844 73.2881C40.4844 70.9912 41.7969 69.501 43.8613 69.501C45.6523 69.501 46.7461 70.5742 46.9512 71.8867ZM51.7158 77.1299C49.6172 77.1299 48.3184 75.6807 48.3184 73.3154C48.3184 70.9434 49.6172 69.501 51.7158 69.501C53.8145 69.501 55.1133 70.9434 55.1133 73.3154C55.1133 75.6807 53.8145 77.1299 51.7158 77.1299ZM51.7158 76.0703C53.1104 76.0703 53.8965 75.0586 53.8965 73.3154C53.8965 71.5654 53.1104 70.5605 51.7158 70.5605C50.3213 70.5605 49.5352 71.5654 49.5352 73.3154C49.5352 75.0586 50.3213 76.0703 51.7158 76.0703ZM56.959 77V69.6309H58.0801V70.793H58.1895C58.5586 69.9795 59.2764 69.501 60.4043 69.501C62.0586 69.501 62.9814 70.4785 62.9814 72.2285V77H61.8057V72.5156C61.8057 71.1895 61.2451 70.5605 60.0693 70.5605C58.8936 70.5605 58.1348 71.3467 58.1348 72.6387V77H56.959ZM71.2734 75.8926V77H65.2852V67.1357H66.5156V75.8926H71.2734ZM75.1426 77.1299C73.7139 77.1299 72.6543 76.2822 72.6543 74.9355C72.6543 73.6162 73.625 72.8574 75.3408 72.7549L77.4668 72.625V71.9551C77.4668 71.0459 76.8994 70.5469 75.7988 70.5469C74.917 70.5469 74.3018 70.8818 74.1377 71.4629H72.9482C73.1055 70.2803 74.2676 69.501 75.8398 69.501C77.6377 69.501 78.6426 70.4238 78.6426 71.9551V77H77.5215V75.9131H77.4121C76.9336 76.6992 76.127 77.1299 75.1426 77.1299ZM75.3613 76.0977C76.5713 76.0977 77.4668 75.3047 77.4668 74.252V73.5752L75.4844 73.7051C74.3633 73.7803 73.8711 74.1699 73.8711 74.9082C73.8711 75.6602 74.5068 76.0977 75.3613 76.0977ZM84.4805 77.1299C83.4551 77.1299 82.5801 76.6445 82.1152 75.8242H82.0059V77H80.8848V66.7051H82.0605V70.793H82.1699C82.5732 70 83.4688 69.501 84.4805 69.501C86.3535 69.501 87.5703 70.998 87.5703 73.3154C87.5703 75.6191 86.3467 77.1299 84.4805 77.1299ZM84.207 70.5605C82.8672 70.5605 82.0332 71.6133 82.0332 73.3154C82.0332 75.0176 82.8672 76.0703 84.207 76.0703C85.5537 76.0703 86.3535 75.0381 86.3535 73.3154C86.3535 71.5928 85.5537 70.5605 84.207 70.5605ZM94.2969 75.0928H95.4727C95.1309 76.3506 93.9824 77.1299 92.3691 77.1299C90.3252 77.1299 89.0469 75.6533 89.0469 73.3223C89.0469 71.0049 90.3457 69.501 92.3691 69.501C94.3584 69.501 95.5684 70.916 95.5684 73.2061V73.6572H90.2705V73.7119C90.332 75.168 91.1455 76.0908 92.3965 76.0908C93.3467 76.0908 93.9893 75.7422 94.2969 75.0928ZM92.3555 70.54C91.1797 70.54 90.3594 71.4014 90.2705 72.707H94.3311C94.3037 71.4014 93.5244 70.54 92.3555 70.54ZM97.4824 77V66.7051H98.6582V77H97.4824Z" fill="#656A76"/>
<path fill-rule="evenodd" clip-rule="evenodd" d="M113.125 66.2473C113.663 65.9215 114.337 65.9215 114.875 66.2473L118.812 68.6336C119.317 68.9395 119.625 69.4867 119.625 70.0768V73.9231C119.625 74.5132 119.317 75.0604 118.812 75.3662L114.875 77.7526C114.337 78.0784 113.663 78.0784 113.125 77.7526L109.188 75.3662C108.683 75.0604 108.375 74.5132 108.375 73.9231V70.0768C108.375 69.4867 108.683 68.9395 109.188 68.6336L113.125 66.2473ZM114.292 67.2094C114.112 67.1008 113.888 67.1008 113.708 67.2094L109.771 69.5957C109.603 69.6977 109.5 69.8801 109.5 70.0768V73.9231C109.5 74.1198 109.603 74.3022 109.771 74.4041L113.708 76.7905C113.888 76.8991 114.112 76.8991 114.292 76.7905L118.229 74.4041C118.397 74.3022 118.5 74.1198 118.5 73.9231V70.0768C118.5 69.8801 118.397 69.6977 118.229 69.5957L114.292 67.2094Z" fill="#656A76"/>
<path d="M126.488 77H125.258V67.1357H126.488V77ZM134.951 71.8867H133.762C133.57 71.1553 132.921 70.5605 131.861 70.5605C130.535 70.5605 129.701 71.6201 129.701 73.2881C129.701 74.9902 130.549 76.0703 131.861 76.0703C132.853 76.0703 133.543 75.6123 133.762 74.7783H134.951C134.739 76.1318 133.639 77.1299 131.868 77.1299C129.804 77.1299 128.484 75.6328 128.484 73.2881C128.484 70.9912 129.797 69.501 131.861 69.501C133.652 69.501 134.746 70.5742 134.951 71.8867ZM139.716 77.1299C137.617 77.1299 136.318 75.6807 136.318 73.3154C136.318 70.9434 137.617 69.501 139.716 69.501C141.814 69.501 143.113 70.9434 143.113 73.3154C143.113 75.6807 141.814 77.1299 139.716 77.1299ZM139.716 76.0703C141.11 76.0703 141.896 75.0586 141.896 73.3154C141.896 71.5654 141.11 70.5605 139.716 70.5605C138.321 70.5605 137.535 71.5654 137.535 73.3154C137.535 75.0586 138.321 76.0703 139.716 76.0703ZM144.959 77V69.6309H146.08V70.793H146.189C146.559 69.9795 147.276 69.501 148.404 69.501C150.059 69.501 150.981 70.4785 150.981 72.2285V77H149.806V72.5156C149.806 71.1895 149.245 70.5605 148.069 70.5605C146.894 70.5605 146.135 71.3467 146.135 72.6387V77H144.959ZM159.273 75.8926V77H153.285V67.1357H154.516V75.8926H159.273ZM163.143 77.1299C161.714 77.1299 160.654 76.2822 160.654 74.9355C160.654 73.6162 161.625 72.8574 163.341 72.7549L165.467 72.625V71.9551C165.467 71.0459 164.899 70.5469 163.799 70.5469C162.917 70.5469 162.302 70.8818 162.138 71.4629H160.948C161.105 70.2803 162.268 69.501 163.84 69.501C165.638 69.501 166.643 70.4238 166.643 71.9551V77H165.521V75.9131H165.412C164.934 76.6992 164.127 77.1299 163.143 77.1299ZM163.361 76.0977C164.571 76.0977 165.467 75.3047 165.467 74.252V73.5752L163.484 73.7051C162.363 73.7803 161.871 74.1699 161.871 74.9082C161.871 75.6602 162.507 76.0977 163.361 76.0977ZM172.48 77.1299C171.455 77.1299 170.58 76.6445 170.115 75.8242H170.006V77H168.885V66.7051H170.061V70.793H170.17C170.573 70 171.469 69.501 172.48 69.501C174.354 69.501 175.57 70.998 175.57 73.3154C175.57 75.6191 174.347 77.1299 172.48 77.1299ZM172.207 70.5605C170.867 70.5605 170.033 71.6133 170.033 73.3154C170.033 75.0176 170.867 76.0703 172.207 76.0703C173.554 76.0703 174.354 75.0381 174.354 73.3154C174.354 71.5928 173.554 70.5605 172.207 70.5605ZM182.297 75.0928H183.473C183.131 76.3506 181.982 77.1299 180.369 77.1299C178.325 77.1299 177.047 75.6533 177.047 73.3223C177.047 71.0049 178.346 69.501 180.369 69.501C182.358 69.501 183.568 70.916 183.568 73.2061V73.6572H178.271V73.7119C178.332 75.168 179.146 76.0908 180.396 76.0908C181.347 76.0908 181.989 75.7422 182.297 75.0928ZM180.355 70.54C179.18 70.54 178.359 71.4014 178.271 72.707H182.331C182.304 71.4014 181.524 70.54 180.355 70.54ZM185.482 77V66.7051H186.658V77H185.482Z" fill="#656A76"/>
<rect x="206" y="28" width="82" height="24" rx="5" fill="#F1F2F3"/>
<path fill-rule="evenodd" clip-rule="evenodd" d="M220.834 32.3297C221.551 31.8953 222.449 31.8953 223.166 32.3297L228.416 35.5115C229.089 35.9193 229.5 36.6489 229.5 37.4357V42.5641C229.5 43.3509 229.089 44.0805 228.416 44.4883L223.166 47.6701C222.449 48.1045 221.551 48.1045 220.834 47.6701L215.584 44.4883C214.911 44.0805 214.5 43.3509 214.5 42.5641V37.4357C214.5 36.6489 214.911 35.9193 215.584 35.5115L220.834 32.3297ZM222.389 33.6125C222.15 33.4677 221.85 33.4677 221.611 33.6125L216.361 36.7943C216.137 36.9303 216 37.1735 216 37.4357V42.5641C216 42.8264 216.137 43.0696 216.361 43.2055L221.611 46.3873C221.85 46.5321 222.15 46.5321 222.389 46.3873L227.639 43.2055C227.863 43.0696 228 42.8264 228 42.5641V37.4357C228 37.1735 227.863 36.9303 227.639 36.7943L222.389 33.6125Z" fill="#3B3D45"/>
<path d="M235.149 35.8403H238.456C241.173 35.8403 242.766 37.5161 242.766 40.3979C242.766 43.3115 241.186 45 238.456 45H235.149V35.8403ZM236.571 37.0654V43.7749H238.297C240.214 43.7749 241.319 42.5498 241.319 40.417C241.319 38.3032 240.195 37.0654 238.297 37.0654H236.571ZM249.069 43.1528H250.383C250.085 44.3716 248.968 45.1333 247.387 45.1333C245.407 45.1333 244.194 43.7686 244.194 41.5659C244.194 39.376 245.432 37.9731 247.381 37.9731C249.304 37.9731 250.466 39.2871 250.466 41.4453V41.915H245.584V41.9785C245.629 43.229 246.333 44.0161 247.425 44.0161C248.25 44.0161 248.815 43.7114 249.069 43.1528ZM247.375 39.084C246.365 39.084 245.661 39.8203 245.584 40.9312H249.076C249.044 39.814 248.384 39.084 247.375 39.084ZM252.592 45V39.2173H251.456V38.1255H252.592V37.3828C252.592 36.0117 253.291 35.3389 254.725 35.3389C255.036 35.3389 255.303 35.3643 255.538 35.4023V36.4307C255.411 36.4116 255.227 36.3989 255.011 36.3989C254.249 36.3989 253.938 36.748 253.938 37.4463V38.1255H255.48V39.2173H253.957V45H252.592ZM258.737 45.1143C257.404 45.1143 256.433 44.3145 256.433 43.0576C256.433 41.8198 257.359 41.1025 259.003 41.001L260.876 40.8867V40.2837C260.876 39.5283 260.394 39.103 259.46 39.103C258.699 39.103 258.172 39.3887 258.02 39.8901H256.699C256.839 38.7285 257.956 37.9731 259.524 37.9731C261.257 37.9731 262.234 38.8364 262.234 40.2837V45H260.92V44.0225H260.812C260.4 44.7207 259.645 45.1143 258.737 45.1143ZM259.086 44.0161C260.114 44.0161 260.876 43.3433 260.876 42.4546V41.8579L259.188 41.9722C258.235 42.0356 257.804 42.3721 257.804 43.0005C257.804 43.6416 258.343 44.0161 259.086 44.0161ZM270.004 38.1064V45H268.69V43.9082H268.582C268.246 44.689 267.541 45.1333 266.494 45.1333C264.964 45.1333 264.113 44.2002 264.113 42.5815V38.1064H265.478V42.2451C265.478 43.3877 265.929 43.9336 266.932 43.9336C268.036 43.9336 268.639 43.2607 268.639 42.1499V38.1064H270.004ZM272.048 45V35.4023H273.413V45H272.048ZM275.945 36.3672H277.31V38.1255H278.808V39.2173H277.31V42.8545C277.31 43.5972 277.608 43.9209 278.288 43.9209C278.497 43.9209 278.618 43.9082 278.808 43.8892V44.9746C278.586 45.0127 278.332 45.0444 278.065 45.0444C276.548 45.0444 275.945 44.5112 275.945 43.1846V39.2173H274.847V38.1255H275.945V36.3672Z" fill="#3B3D45"/>
<path fill-rule="evenodd" clip-rule="evenodd" d="M310.834 32.3297C311.551 31.8953 312.449 31.8953 313.166 32.3297L318.416 35.5115C319.089 35.9193 319.5 36.6489 319.5 37.4357V42.5641C319.5 43.3509 319.089 44.0805 318.416 44.4883L313.166 47.6701C312.449 48.1045 311.551 48.1045 310.834 47.6701L305.584 44.4883C304.911 44.0805 304.5 43.3509 304.5 42.5641V37.4357C304.5 36.6489 304.911 35.9193 305.584 35.5115L310.834 32.3297ZM312.389 33.6125C312.15 33.4677 311.85 33.4677 311.611 33.6125L306.361 36.7943C306.137 36.9303 306 37.1735 306 37.4357V42.5641C306 42.8264 306.137 43.0696 306.361 43.2055L311.611 46.3873C311.85 46.5321 312.15 46.5321 312.389 46.3873L317.639 43.2055C317.863 43.0696 318 42.8264 318 42.5641V37.4357C318 37.1735 317.863 36.9303 317.639 36.7943L312.389 33.6125Z" fill="#000001"/>
<path d="M336.211 46H334.195V36.4219H330.727V34.7266H339.688V36.4219H336.211V46ZM342.422 36.0312C341.789 36.0312 341.266 35.5234 341.266 34.8828C341.266 34.25 341.789 33.7344 342.422 33.7344C343.062 33.7344 343.586 34.25 343.586 34.8828C343.586 35.5234 343.062 36.0312 342.422 36.0312ZM341.461 46V37.4609H343.391V46H341.461ZM346.414 35.3672H348.344V37.5156H350.172V39.0234H348.344V43.2734C348.344 44.125 348.703 44.5078 349.516 44.5078C349.789 44.5078 349.938 44.4922 350.172 44.4688V45.9531C349.891 46.0078 349.531 46.0391 349.156 46.0391C347.195 46.0391 346.414 45.3828 346.414 43.7344V39.0234H345.062V37.5156H346.414V35.3672ZM352.188 46V34.1562H354.125V46H352.188ZM362.148 43.6641H363.984C363.633 45.2031 362.203 46.1719 360.188 46.1719C357.672 46.1719 356.156 44.5 356.156 41.7656C356.156 39.0234 357.695 37.2969 360.172 37.2969C362.609 37.2969 364.07 38.9141 364.07 41.5938V42.2109H358.102V42.3125C358.148 43.7578 358.969 44.6641 360.242 44.6641C361.203 44.6641 361.867 44.3047 362.148 43.6641ZM360.164 38.8047C359.008 38.8047 358.195 39.6406 358.109 40.9219H362.133C362.094 39.625 361.328 38.8047 360.164 38.8047Z" fill="#0C0C0E"/>
<path fill-rule="evenodd" clip-rule="evenodd" d="M311.125 66.2473C311.663 65.9215 312.337 65.9215 312.875 66.2473L316.812 68.6336C317.317 68.9395 317.625 69.4867 317.625 70.0768V73.9231C317.625 74.5132 317.317 75.0604 316.812 75.3662L312.875 77.7526C312.337 78.0784 311.663 78.0784 311.125 77.7526L307.188 75.3662C306.683 75.0604 306.375 74.5132 306.375 73.9231V70.0768C306.375 69.4867 306.683 68.9395 307.188 68.6336L311.125 66.2473ZM312.292 67.2094C312.112 67.1008 311.888 67.1008 311.708 67.2094L307.771 69.5957C307.603 69.6977 307.5 69.8801 307.5 70.0768V73.9231C307.5 74.1198 307.603 74.3022 307.771 74.4041L311.708 76.7905C311.888 76.8991 312.112 76.8991 312.292 76.7905L316.229 74.4041C316.397 74.3022 316.5 74.1198 316.5 73.9231V70.0768C316.5 69.8801 316.397 69.6977 316.229 69.5957L312.292 67.2094Z" fill="#656A76"/>
<path d="M324.488 77H323.258V67.1357H324.488V77ZM332.951 71.8867H331.762C331.57 71.1553 330.921 70.5605 329.861 70.5605C328.535 70.5605 327.701 71.6201 327.701 73.2881C327.701 74.9902 328.549 76.0703 329.861 76.0703C330.853 76.0703 331.543 75.6123 331.762 74.7783H332.951C332.739 76.1318 331.639 77.1299 329.868 77.1299C327.804 77.1299 326.484 75.6328 326.484 73.2881C326.484 70.9912 327.797 69.501 329.861 69.501C331.652 69.501 332.746 70.5742 332.951 71.8867ZM337.716 77.1299C335.617 77.1299 334.318 75.6807 334.318 73.3154C334.318 70.9434 335.617 69.501 337.716 69.501C339.814 69.501 341.113 70.9434 341.113 73.3154C341.113 75.6807 339.814 77.1299 337.716 77.1299ZM337.716 76.0703C339.11 76.0703 339.896 75.0586 339.896 73.3154C339.896 71.5654 339.11 70.5605 337.716 70.5605C336.321 70.5605 335.535 71.5654 335.535 73.3154C335.535 75.0586 336.321 76.0703 337.716 76.0703ZM342.959 77V69.6309H344.08V70.793H344.189C344.559 69.9795 345.276 69.501 346.404 69.501C348.059 69.501 348.981 70.4785 348.981 72.2285V77H347.806V72.5156C347.806 71.1895 347.245 70.5605 346.069 70.5605C344.894 70.5605 344.135 71.3467 344.135 72.6387V77H342.959ZM357.273 75.8926V77H351.285V67.1357H352.516V75.8926H357.273ZM361.143 77.1299C359.714 77.1299 358.654 76.2822 358.654 74.9355C358.654 73.6162 359.625 72.8574 361.341 72.7549L363.467 72.625V71.9551C363.467 71.0459 362.899 70.5469 361.799 70.5469C360.917 70.5469 360.302 70.8818 360.138 71.4629H358.948C359.105 70.2803 360.268 69.501 361.84 69.501C363.638 69.501 364.643 70.4238 364.643 71.9551V77H363.521V75.9131H363.412C362.934 76.6992 362.127 77.1299 361.143 77.1299ZM361.361 76.0977C362.571 76.0977 363.467 75.3047 363.467 74.252V73.5752L361.484 73.7051C360.363 73.7803 359.871 74.1699 359.871 74.9082C359.871 75.6602 360.507 76.0977 361.361 76.0977ZM370.48 77.1299C369.455 77.1299 368.58 76.6445 368.115 75.8242H368.006V77H366.885V66.7051H368.061V70.793H368.17C368.573 70 369.469 69.501 370.48 69.501C372.354 69.501 373.57 70.998 373.57 73.3154C373.57 75.6191 372.347 77.1299 370.48 77.1299ZM370.207 70.5605C368.867 70.5605 368.033 71.6133 368.033 73.3154C368.033 75.0176 368.867 76.0703 370.207 76.0703C371.554 76.0703 372.354 75.0381 372.354 73.3154C372.354 71.5928 371.554 70.5605 370.207 70.5605ZM380.297 75.0928H381.473C381.131 76.3506 379.982 77.1299 378.369 77.1299C376.325 77.1299 375.047 75.6533 375.047 73.3223C375.047 71.0049 376.346 69.501 378.369 69.501C380.358 69.501 381.568 70.916 381.568 73.2061V73.6572H376.271V73.7119C376.332 75.168 377.146 76.0908 378.396 76.0908C379.347 76.0908 379.989 75.7422 380.297 75.0928ZM378.355 70.54C377.18 70.54 376.359 71.4014 376.271 72.707H380.331C380.304 71.4014 379.524 70.54 378.355 70.54ZM383.482 77V66.7051H384.658V77H383.482Z" fill="#656A76"/>
<path fill-rule="evenodd" clip-rule="evenodd" d="M399.125 66.2473C399.663 65.9215 400.337 65.9215 400.875 66.2473L404.812 68.6336C405.317 68.9395 405.625 69.4867 405.625 70.0768V73.9231C405.625 74.5132 405.317 75.0604 404.812 75.3662L400.875 77.7526C400.337 78.0784 399.663 78.0784 399.125 77.7526L395.188 75.3662C394.683 75.0604 394.375 74.5132 394.375 73.9231V70.0768C394.375 69.4867 394.683 68.9395 395.188 68.6336L399.125 66.2473ZM400.292 67.2094C400.112 67.1008 399.888 67.1008 399.708 67.2094L395.771 69.5957C395.603 69.6977 395.5 69.8801 395.5 70.0768V73.9231C395.5 74.1198 395.603 74.3022 395.771 74.4041L399.708 76.7905C399.888 76.8991 400.112 76.8991 400.292 76.7905L404.229 74.4041C404.397 74.3022 404.5 74.1198 404.5 73.9231V70.0768C404.5 69.8801 404.397 69.6977 404.229 69.5957L400.292 67.2094Z" fill="#656A76"/>
<path d="M412.488 77H411.258V67.1357H412.488V77ZM420.951 71.8867H419.762C419.57 71.1553 418.921 70.5605 417.861 70.5605C416.535 70.5605 415.701 71.6201 415.701 73.2881C415.701 74.9902 416.549 76.0703 417.861 76.0703C418.853 76.0703 419.543 75.6123 419.762 74.7783H420.951C420.739 76.1318 419.639 77.1299 417.868 77.1299C415.804 77.1299 414.484 75.6328 414.484 73.2881C414.484 70.9912 415.797 69.501 417.861 69.501C419.652 69.501 420.746 70.5742 420.951 71.8867ZM425.716 77.1299C423.617 77.1299 422.318 75.6807 422.318 73.3154C422.318 70.9434 423.617 69.501 425.716 69.501C427.814 69.501 429.113 70.9434 429.113 73.3154C429.113 75.6807 427.814 77.1299 425.716 77.1299ZM425.716 76.0703C427.11 76.0703 427.896 75.0586 427.896 73.3154C427.896 71.5654 427.11 70.5605 425.716 70.5605C424.321 70.5605 423.535 71.5654 423.535 73.3154C423.535 75.0586 424.321 76.0703 425.716 76.0703ZM430.959 77V69.6309H432.08V70.793H432.189C432.559 69.9795 433.276 69.501 434.404 69.501C436.059 69.501 436.981 70.4785 436.981 72.2285V77H435.806V72.5156C435.806 71.1895 435.245 70.5605 434.069 70.5605C432.894 70.5605 432.135 71.3467 432.135 72.6387V77H430.959ZM445.273 75.8926V77H439.285V67.1357H440.516V75.8926H445.273ZM449.143 77.1299C447.714 77.1299 446.654 76.2822 446.654 74.9355C446.654 73.6162 447.625 72.8574 449.341 72.7549L451.467 72.625V71.9551C451.467 71.0459 450.899 70.5469 449.799 70.5469C448.917 70.5469 448.302 70.8818 448.138 71.4629H446.948C447.105 70.2803 448.268 69.501 449.84 69.501C451.638 69.501 452.643 70.4238 452.643 71.9551V77H451.521V75.9131H451.412C450.934 76.6992 450.127 77.1299 449.143 77.1299ZM449.361 76.0977C450.571 76.0977 451.467 75.3047 451.467 74.252V73.5752L449.484 73.7051C448.363 73.7803 447.871 74.1699 447.871 74.9082C447.871 75.6602 448.507 76.0977 449.361 76.0977ZM458.48 77.1299C457.455 77.1299 456.58 76.6445 456.115 75.8242H456.006V77H454.885V66.7051H456.061V70.793H456.17C456.573 70 457.469 69.501 458.48 69.501C460.354 69.501 461.57 70.998 461.57 73.3154C461.57 75.6191 460.347 77.1299 458.48 77.1299ZM458.207 70.5605C456.867 70.5605 456.033 71.6133 456.033 73.3154C456.033 75.0176 456.867 76.0703 458.207 76.0703C459.554 76.0703 460.354 75.0381 460.354 73.3154C460.354 71.5928 459.554 70.5605 458.207 70.5605ZM468.297 75.0928H469.473C469.131 76.3506 467.982 77.1299 466.369 77.1299C464.325 77.1299 463.047 75.6533 463.047 73.3223C463.047 71.0049 464.346 69.501 466.369 69.501C468.358 69.501 469.568 70.916 469.568 73.2061V73.6572H464.271V73.7119C464.332 75.168 465.146 76.0908 466.396 76.0908C467.347 76.0908 467.989 75.7422 468.297 75.0928ZM466.355 70.54C465.18 70.54 464.359 71.4014 464.271 72.707H468.331C468.304 71.4014 467.524 70.54 466.355 70.54ZM471.482 77V66.7051H472.658V77H471.482Z" fill="#656A76"/>
</g>
<rect x="18.75" y="28.75" width="724.5" height="54.5" stroke="#A737FF" stroke-width="1.5" stroke-dasharray="2 2"/>
<rect x="752" y="38" width="36" height="36" rx="5" fill="#FAFAFA"/>
<path d="M763 54C761.895 54 761 54.8954 761 56C761 57.1046 761.895 58 763 58C764.105 58 765 57.1046 765 56C765 54.8954 764.105 54 763 54Z" fill="#0C0C0E"/>
<path d="M770 54C768.895 54 768 54.8954 768 56C768 57.1046 768.895 58 770 58C771.105 58 772 57.1046 772 56C772 54.8954 771.105 54 770 54Z" fill="#0C0C0E"/>
<path d="M777 54C775.895 54 775 54.8954 775 56C775 57.1046 775.895 58 777 58C778.105 58 779 57.1046 779 56C779 54.8954 778.105 54 777 54Z" fill="#0C0C0E"/>
<rect x="752.5" y="38.5" width="35" height="35" rx="4.5" stroke="#3B3D45" stroke-opacity="0.4"/>
</g>
<rect x="5.25" y="15.25" width="795.5" height="81.5" stroke="#1060FF" stroke-width="1.5" stroke-dasharray="2 2"/>
<path d="M806.667 54C806.667 55.4728 805.473 56.6667 804 56.6667C802.527 56.6667 801.333 55.4728 801.333 54C801.333 52.5272 802.527 51.3333 804 51.3333C805.473 51.3333 806.667 52.5272 806.667 54ZM839 54.5H804V53.5H839V54.5Z" fill="#1060FF"/>
<rect x="839" y="44" width="120" height="20" rx="5" fill="#F2F8FF"/>
<path d="M850.806 56.9526V58H845.972V50.2495H847.175V56.9526H850.806ZM852.793 51.125C852.391 51.125 852.063 50.7974 852.063 50.3999C852.063 49.9971 852.391 49.6694 852.793 49.6694C853.196 49.6694 853.524 49.9971 853.524 50.3999C853.524 50.7974 853.196 51.125 852.793 51.125ZM852.219 58V52.167H853.368V58H852.219ZM854.931 53.7998C854.931 52.7847 855.882 52.0542 857.203 52.0542C858.519 52.0542 859.378 52.6665 859.491 53.6763H858.385C858.277 53.2412 857.858 52.9565 857.203 52.9565C856.559 52.9565 856.07 53.2734 856.07 53.7461C856.07 54.106 856.365 54.3315 856.999 54.4819L857.971 54.7075C859.083 54.9653 859.604 55.4434 859.604 56.292C859.604 57.377 858.578 58.1128 857.182 58.1128C855.791 58.1128 854.883 57.4844 854.781 56.4692H855.936C856.081 56.9258 856.51 57.2104 857.208 57.2104C857.928 57.2104 858.438 56.8774 858.438 56.3994C858.438 56.0342 858.165 55.7979 857.579 55.6582L856.559 55.4165C855.447 55.1587 854.931 54.6646 854.931 53.7998ZM861.36 50.6953H862.515V52.1831H863.783V53.1069H862.515V56.1846C862.515 56.813 862.768 57.0869 863.342 57.0869C863.52 57.0869 863.622 57.0762 863.783 57.0601V57.9785C863.595 58.0107 863.38 58.0376 863.154 58.0376C861.871 58.0376 861.36 57.5864 861.36 56.4639V53.1069H860.431V52.1831H861.36V50.6953ZM869.487 58H868.284V50.2495H869.487V58ZM871.705 50.6953H872.86V52.1831H874.127V53.1069H872.86V56.1846C872.86 56.813 873.112 57.0869 873.687 57.0869C873.864 57.0869 873.966 57.0762 874.127 57.0601V57.9785C873.939 58.0107 873.725 58.0376 873.499 58.0376C872.215 58.0376 871.705 57.5864 871.705 56.4639V53.1069H870.776V52.1831H871.705V50.6953ZM879.257 56.437H880.369C880.116 57.4683 879.171 58.1128 877.833 58.1128C876.158 58.1128 875.132 56.958 875.132 55.0942C875.132 53.2412 876.179 52.0542 877.828 52.0542C879.456 52.0542 880.438 53.166 880.438 54.9922V55.3896H876.308V55.4434C876.346 56.5015 876.942 57.1675 877.866 57.1675C878.564 57.1675 879.042 56.9097 879.257 56.437ZM877.823 52.9941C876.969 52.9941 876.373 53.6172 876.308 54.5571H879.262C879.235 53.6118 878.677 52.9941 877.823 52.9941ZM881.824 58V52.167H882.936V53.0962H883.022C883.28 52.4409 883.871 52.0542 884.649 52.0542C885.45 52.0542 886.003 52.4678 886.261 53.0962H886.352C886.647 52.4678 887.319 52.0542 888.13 52.0542C889.312 52.0542 889.999 52.7632 889.999 53.9771V58H888.844V54.2563C888.844 53.4507 888.468 53.0586 887.711 53.0586C886.964 53.0586 886.476 53.6064 886.476 54.3101V58H885.342V54.1382C885.342 53.4722 884.902 53.0586 884.214 53.0586C883.511 53.0586 882.979 53.6548 882.979 54.4175V58H881.824ZM895.053 54.7666C895.053 52.8169 895.558 51.2163 896.605 49.8789H897.626C896.853 50.8618 896.246 52.9297 896.246 54.7612C896.246 56.6035 896.847 58.666 897.626 59.6543H896.605C895.558 58.3115 895.053 56.7163 895.053 54.7666ZM903.889 54.0415H902.766C902.632 53.4722 902.159 53.0371 901.386 53.0371C900.419 53.0371 899.828 53.7998 899.828 55.062C899.828 56.3511 900.424 57.1299 901.386 57.1299C902.116 57.1299 902.616 56.7861 902.766 56.1523H903.889C903.738 57.3018 902.836 58.1128 901.391 58.1128C899.688 58.1128 898.646 56.9526 898.646 55.062C898.646 53.209 899.683 52.0542 901.386 52.0542C902.852 52.0542 903.738 52.9082 903.889 54.0415ZM907.681 58.1128C905.967 58.1128 904.92 56.9688 904.92 55.0835C904.92 53.2036 905.973 52.0542 907.681 52.0542C909.383 52.0542 910.436 53.1982 910.436 55.0835C910.436 56.9688 909.389 58.1128 907.681 58.1128ZM907.681 57.1299C908.68 57.1299 909.249 56.3779 909.249 55.0835C909.249 53.7837 908.68 53.0317 907.681 53.0317C906.676 53.0317 906.112 53.7837 906.112 55.0835C906.112 56.3833 906.676 57.1299 907.681 57.1299ZM911.827 58V52.167H912.939V53.0908H913.025C913.31 52.4463 913.89 52.0542 914.771 52.0542C916.076 52.0542 916.795 52.833 916.795 54.2241V58H915.641V54.498C915.641 53.5312 915.232 53.0586 914.378 53.0586C913.524 53.0586 912.982 53.6387 912.982 54.5786V58H911.827ZM918.831 50.6953H919.986V52.1831H921.253V53.1069H919.986V56.1846C919.986 56.813 920.238 57.0869 920.813 57.0869C920.99 57.0869 921.092 57.0762 921.253 57.0601V57.9785C921.065 58.0107 920.851 58.0376 920.625 58.0376C919.341 58.0376 918.831 57.5864 918.831 56.4639V53.1069H917.902V52.1831H918.831V50.6953ZM924.229 58.0967C923.101 58.0967 922.279 57.4199 922.279 56.3564C922.279 55.3091 923.063 54.7021 924.455 54.6162L926.039 54.5195V54.0093C926.039 53.3701 925.631 53.0103 924.841 53.0103C924.197 53.0103 923.751 53.252 923.622 53.6763H922.505C922.623 52.6934 923.568 52.0542 924.895 52.0542C926.361 52.0542 927.188 52.7847 927.188 54.0093V58H926.077V57.1729H925.985C925.636 57.7637 924.997 58.0967 924.229 58.0967ZM924.524 57.1675C925.395 57.1675 926.039 56.5981 926.039 55.8462V55.3413L924.61 55.438C923.805 55.4917 923.439 55.7764 923.439 56.3081C923.439 56.8506 923.896 57.1675 924.524 57.1675ZM929.428 51.125C929.025 51.125 928.698 50.7974 928.698 50.3999C928.698 49.9971 929.025 49.6694 929.428 49.6694C929.831 49.6694 930.159 49.9971 930.159 50.3999C930.159 50.7974 929.831 51.125 929.428 51.125ZM928.854 58V52.167H930.003V58H928.854ZM931.7 58V52.167H932.812V53.0908H932.898C933.183 52.4463 933.763 52.0542 934.644 52.0542C935.949 52.0542 936.668 52.833 936.668 54.2241V58H935.514V54.498C935.514 53.5312 935.105 53.0586 934.251 53.0586C933.397 53.0586 932.855 53.6387 932.855 54.5786V58H931.7ZM942.131 56.437H943.243C942.99 57.4683 942.045 58.1128 940.708 58.1128C939.032 58.1128 938.006 56.958 938.006 55.0942C938.006 53.2412 939.053 52.0542 940.702 52.0542C942.33 52.0542 943.312 53.166 943.312 54.9922V55.3896H939.182V55.4434C939.22 56.5015 939.816 57.1675 940.74 57.1675C941.438 57.1675 941.916 56.9097 942.131 56.437ZM940.697 52.9941C939.843 52.9941 939.247 53.6172 939.182 54.5571H942.136C942.109 53.6118 941.551 52.9941 940.697 52.9941ZM944.698 58V52.167H945.81V53.0532H945.896C946.062 52.4785 946.712 52.0649 947.475 52.0649C947.647 52.0649 947.867 52.0811 947.991 52.1079V53.1929C947.894 53.166 947.55 53.1284 947.346 53.1284C946.471 53.1284 945.853 53.6924 945.853 54.5142V58H944.698ZM951.385 54.7666C951.385 56.7217 950.88 58.3169 949.838 59.6543H948.818C949.591 58.6714 950.198 56.6089 950.198 54.772C950.198 52.9297 949.591 50.8672 948.818 49.8789H949.838C950.88 51.2217 951.385 52.8223 951.385 54.7666Z" fill="#1060FF"/>
<path d="M703 89.6667C704.473 89.6667 705.667 88.4728 705.667 87C705.667 85.5272 704.473 84.3333 703 84.3333C701.527 84.3333 700.333 85.5272 700.333 87C700.333 88.4728 701.527 89.6667 703 89.6667ZM703.5 107L703.5 87L702.5 87L702.5 107L703.5 107Z" fill="#911CED"/>
<rect x="648" y="107" width="110" height="20" rx="5" fill="#F9F2FF"/>
<path d="M659.806 119.953V121H654.972V113.25H656.175V119.953H659.806ZM661.793 114.125C661.391 114.125 661.063 113.797 661.063 113.4C661.063 112.997 661.391 112.669 661.793 112.669C662.196 112.669 662.524 112.997 662.524 113.4C662.524 113.797 662.196 114.125 661.793 114.125ZM661.219 121V115.167H662.368V121H661.219ZM663.931 116.8C663.931 115.785 664.882 115.054 666.203 115.054C667.519 115.054 668.378 115.667 668.491 116.676H667.385C667.277 116.241 666.858 115.957 666.203 115.957C665.559 115.957 665.07 116.273 665.07 116.746C665.07 117.106 665.365 117.332 665.999 117.482L666.971 117.708C668.083 117.965 668.604 118.443 668.604 119.292C668.604 120.377 667.578 121.113 666.182 121.113C664.791 121.113 663.883 120.484 663.781 119.469H664.936C665.081 119.926 665.51 120.21 666.208 120.21C666.928 120.21 667.438 119.877 667.438 119.399C667.438 119.034 667.165 118.798 666.579 118.658L665.559 118.417C664.447 118.159 663.931 117.665 663.931 116.8ZM670.36 113.695H671.515V115.183H672.783V116.107H671.515V119.185C671.515 119.813 671.768 120.087 672.342 120.087C672.52 120.087 672.622 120.076 672.783 120.06V120.979C672.595 121.011 672.38 121.038 672.154 121.038C670.871 121.038 670.36 120.586 670.36 119.464V116.107H669.431V115.183H670.36V113.695ZM678.487 121H677.284V113.25H678.487V121ZM680.705 113.695H681.86V115.183H683.127V116.107H681.86V119.185C681.86 119.813 682.112 120.087 682.687 120.087C682.864 120.087 682.966 120.076 683.127 120.06V120.979C682.939 121.011 682.725 121.038 682.499 121.038C681.215 121.038 680.705 120.586 680.705 119.464V116.107H679.776V115.183H680.705V113.695ZM688.257 119.437H689.369C689.116 120.468 688.171 121.113 686.833 121.113C685.158 121.113 684.132 119.958 684.132 118.094C684.132 116.241 685.179 115.054 686.828 115.054C688.456 115.054 689.438 116.166 689.438 117.992V118.39H685.308V118.443C685.346 119.501 685.942 120.167 686.866 120.167C687.564 120.167 688.042 119.91 688.257 119.437ZM686.823 115.994C685.969 115.994 685.373 116.617 685.308 117.557H688.262C688.235 116.612 687.677 115.994 686.823 115.994ZM690.824 121V115.167H691.936V116.096H692.022C692.28 115.441 692.871 115.054 693.649 115.054C694.45 115.054 695.003 115.468 695.261 116.096H695.352C695.647 115.468 696.319 115.054 697.13 115.054C698.312 115.054 698.999 115.763 698.999 116.977V121H697.844V117.256C697.844 116.451 697.468 116.059 696.711 116.059C695.964 116.059 695.476 116.606 695.476 117.31V121H694.342V117.138C694.342 116.472 693.902 116.059 693.214 116.059C692.511 116.059 691.979 116.655 691.979 117.417V121H690.824ZM706.932 121H705.729V114.286H703.291V113.25H709.365V114.286H706.932V121ZM713.49 119.437H714.602C714.35 120.468 713.404 121.113 712.067 121.113C710.391 121.113 709.365 119.958 709.365 118.094C709.365 116.241 710.413 115.054 712.062 115.054C713.689 115.054 714.672 116.166 714.672 117.992V118.39H710.542V118.443C710.579 119.501 711.175 120.167 712.099 120.167C712.797 120.167 713.275 119.91 713.49 119.437ZM712.056 115.994C711.202 115.994 710.606 116.617 710.542 117.557H713.496C713.469 116.612 712.91 115.994 712.056 115.994ZM716.058 121V115.167H717.169V116.096H717.255C717.513 115.441 718.104 115.054 718.883 115.054C719.683 115.054 720.236 115.468 720.494 116.096H720.585C720.881 115.468 721.552 115.054 722.363 115.054C723.545 115.054 724.232 115.763 724.232 116.977V121H723.078V117.256C723.078 116.451 722.702 116.059 721.944 116.059C721.198 116.059 720.709 116.606 720.709 117.31V121H719.576V117.138C719.576 116.472 719.135 116.059 718.448 116.059C717.744 116.059 717.212 116.655 717.212 117.417V121H716.058ZM728.889 115.065C730.377 115.065 731.317 116.23 731.317 118.083C731.317 119.926 730.377 121.097 728.9 121.097C728.067 121.097 727.407 120.737 727.101 120.119H727.009V122.944H725.854V115.167H726.966V116.134H727.052C727.407 115.468 728.094 115.065 728.889 115.065ZM728.562 120.108C729.544 120.108 730.13 119.351 730.13 118.083C730.13 116.816 729.544 116.053 728.567 116.053C727.595 116.053 726.988 116.832 726.988 118.083C726.988 119.33 727.595 120.108 728.562 120.108ZM732.762 121V112.879H733.917V121H732.762ZM737.268 121.097C736.14 121.097 735.318 120.42 735.318 119.356C735.318 118.309 736.103 117.702 737.494 117.616L739.078 117.52V117.009C739.078 116.37 738.67 116.01 737.88 116.01C737.236 116.01 736.79 116.252 736.661 116.676H735.544C735.662 115.693 736.607 115.054 737.934 115.054C739.4 115.054 740.228 115.785 740.228 117.009V121H739.116V120.173H739.024C738.675 120.764 738.036 121.097 737.268 121.097ZM737.563 120.167C738.434 120.167 739.078 119.598 739.078 118.846V118.341L737.649 118.438C736.844 118.492 736.479 118.776 736.479 119.308C736.479 119.851 736.935 120.167 737.563 120.167ZM742.279 113.695H743.434V115.183H744.702V116.107H743.434V119.185C743.434 119.813 743.687 120.087 744.261 120.087C744.438 120.087 744.541 120.076 744.702 120.06V120.979C744.514 121.011 744.299 121.038 744.073 121.038C742.79 121.038 742.279 120.586 742.279 119.464V116.107H741.35V115.183H742.279V113.695ZM749.831 119.437H750.943C750.69 120.468 749.745 121.113 748.408 121.113C746.732 121.113 745.706 119.958 745.706 118.094C745.706 116.241 746.753 115.054 748.402 115.054C750.03 115.054 751.013 116.166 751.013 117.992V118.39H746.882V118.443C746.92 119.501 747.516 120.167 748.44 120.167C749.138 120.167 749.616 119.91 749.831 119.437ZM748.397 115.994C747.543 115.994 746.947 116.617 746.882 117.557H749.836C749.81 116.612 749.251 115.994 748.397 115.994Z" fill="#911CED"/>
<defs>
<filter id="filter0_ddd_1672_144041" x="0" y="15" width="806" height="95" filterUnits="userSpaceOnUse" color-interpolation-filters="sRGB">
<feFlood flood-opacity="0" result="BackgroundImageFix"/>
<feColorMatrix in="SourceAlpha" type="matrix" values="0 0 0 0 0 0 0 0 0 0 0 0 0 0 0 0 0 0 127 0" result="hardAlpha"/>
<feMorphology radius="10" operator="erode" in="SourceAlpha" result="effect1_dropShadow_1672_144041"/>
<feOffset dy="8"/>
<feGaussianBlur stdDeviation="8"/>
<feColorMatrix type="matrix" values="0 0 0 0 0.396078 0 0 0 0 0.415686 0 0 0 0 0.462745 0 0 0 0.2 0"/>
<feBlend mode="normal" in2="BackgroundImageFix" result="effect1_dropShadow_1672_144041"/>
<feColorMatrix in="SourceAlpha" type="matrix" values="0 0 0 0 0 0 0 0 0 0 0 0 0 0 0 0 0 0 127 0" result="hardAlpha"/>
<feOffset dy="2"/>
<feGaussianBlur stdDeviation="1.5"/>
<feColorMatrix type="matrix" values="0 0 0 0 0.396078 0 0 0 0 0.415686 0 0 0 0 0.462745 0 0 0 0.1 0"/>
<feBlend mode="normal" in2="effect1_dropShadow_1672_144041" result="effect2_dropShadow_1672_144041"/>
<feColorMatrix in="SourceAlpha" type="matrix" values="0 0 0 0 0 0 0 0 0 0 0 0 0 0 0 0 0 0 127 0" result="hardAlpha"/>
<feMorphology radius="1" operator="dilate" in="SourceAlpha" result="effect3_dropShadow_1672_144041"/>
<feOffset/>
<feColorMatrix type="matrix" values="0 0 0 0 0.396078 0 0 0 0 0.415686 0 0 0 0 0.462745 0 0 0 0.15 0"/>
<feBlend mode="normal" in2="effect2_dropShadow_1672_144041" result="effect3_dropShadow_1672_144041"/>
<feBlend mode="normal" in="SourceGraphic" in2="effect3_dropShadow_1672_144041" result="shape"/>
</filter>
<clipPath id="clip0_1672_144041">
<rect x="18" y="28" width="726" height="56" fill="white"/>
</clipPath>
</defs>
</svg>
