<svg fill="none" height="192" viewBox="0 0 326 192" width="326" xmlns="http://www.w3.org/2000/svg" xmlns:xlink="http://www.w3.org/1999/xlink"><clipPath id="a"><path d="m4 16h318v152h-318z"/></clipPath><g clip-path="url(#a)"><path clip-rule="evenodd" d="m12.8338 20.3298c.7168-.4344 1.6156-.4344 2.3324 0l5.25 3.1818c.6728.4078 1.0838 1.1374 1.0838 1.9242v5.1284c0 .7868-.411 1.5164-1.0838 1.9242l-5.25 3.1818c-.7168.4344-1.6156.4344-2.3324 0l-5.24998-3.1818c-.67285-.4078-1.08382-1.1374-1.08382-1.9242v-5.1284c0-.7868.41097-1.5164 1.08382-1.9242zm1.5549 1.2828c-.2389-.1448-.5385-.1448-.7774 0l-5.25003 3.1818c-.22428.1359-.36127.3791-.36127.6414v5.1284c0 .2622.13699.5055.36127.6414l5.25003 3.1818c.2389.1448.5385.1448.7774 0l5.25-3.1818c.2243-.1359.3613-.3792.3613-.6414v-5.1284c0-.2623-.137-.5055-.3613-.6414z" fill="#000001" fill-rule="evenodd"/><path d="m38.2109 34h-2.0156v-9.5781h-3.4687v-1.6953h8.9609v1.6953h-3.4766zm6.211-9.9688c-.6328 0-1.1563-.5078-1.1563-1.1484 0-.6328.5235-1.1484 1.1563-1.1484.6406 0 1.164.5156 1.164 1.1484 0 .6406-.5234 1.1484-1.164 1.1484zm-.961 9.9688v-8.5391h1.9297v8.5391zm4.9532-10.6328h1.9297v2.1484h1.8281v1.5078h-1.8281v4.25c0 .8516.3593 1.2344 1.1718 1.2344.2735 0 .4219-.0156.6563-.039v1.4843c-.2813.0547-.6407.086-1.0157.086-1.9609 0-2.7421-.6563-2.7421-2.3047v-4.711h-1.3516v-1.5078h1.3516zm5.7734 10.6328v-11.8438h1.9375v11.8438zm9.9609-2.3359h1.836c-.3516 1.539-1.7813 2.5078-3.7969 2.5078-2.5156 0-4.0313-1.6719-4.0313-4.4063 0-2.7422 1.5391-4.4687 4.0157-4.4687 2.4375 0 3.8984 1.6172 3.8984 4.2969v.6171h-5.9687v.1016c.0468 1.4453.8672 2.3516 2.1406 2.3516.9609 0 1.625-.3594 1.9062-1zm-1.9843-4.8594c-1.1563 0-1.9688.8359-2.0547 2.1172h4.0234c-.039-1.2969-.8047-2.1172-1.9687-2.1172z" fill="#0c0c0e"/><g fill="#656a76"><path clip-rule="evenodd" d="m13.1254 54.2473c.5375-.3258 1.2117-.3258 1.7492 0l3.9375 2.3864c.5047.3058.8129.8531.8129 1.4432v3.8463c0 .59-.3082 1.1373-.8129 1.4431l-3.9375 2.3864c-.5375.3258-1.2117.3258-1.7492 0l-3.93753-2.3864c-.50464-.3058-.81287-.8531-.81287-1.4431v-3.8463c0-.5901.30823-1.1374.81287-1.4432zm1.1661.9621c-.1791-.1086-.4039-.1086-.583 0l-3.93754 2.3864c-.16822.102-.27096.2844-.27096.4811v3.8463c0 .1967.10274.3791.27096.481l3.93754 2.3864c.1791.1086.4039.1086.583 0l3.9375-2.3864c.1683-.1019.271-.2843.271-.481v-3.8463c0-.1967-.1027-.3791-.271-.4811z" fill-rule="evenodd"/><path d="m26.4883 65h-1.2305v-9.8643h1.2305zm8.4629-5.1133h-1.1895c-.1914-.7314-.8408-1.3262-1.9004-1.3262-1.3261 0-2.1601 1.0596-2.1601 2.7276 0 1.7021.8476 2.7822 2.1601 2.7822.9912 0 1.6817-.458 1.9004-1.292h1.1895c-.2119 1.3535-1.3125 2.3516-3.083 2.3516-2.0645 0-3.3838-1.4971-3.3838-3.8418 0-2.2969 1.3125-3.7871 3.3769-3.7871 1.791 0 2.8848 1.0732 3.0899 2.3857zm4.7646 5.2432c-2.0986 0-3.3974-1.4492-3.3974-3.8145 0-2.372 1.2988-3.8144 3.3974-3.8144 2.0987 0 3.3975 1.4424 3.3975 3.8144 0 2.3653-1.2988 3.8145-3.3975 3.8145zm0-1.0596c1.3946 0 2.1807-1.0117 2.1807-2.7549 0-1.75-.7861-2.7549-2.1807-2.7549-1.3945 0-2.1806 1.0049-2.1806 2.7549 0 1.7432.7861 2.7549 2.1806 2.7549zm5.2432.9297v-7.3691h1.1211v1.1621h.1094c.3691-.8135 1.0869-1.292 2.2148-1.292 1.6543 0 2.5771.9775 2.5771 2.7275v4.7715h-1.1757v-4.4844c0-1.3261-.5606-1.9551-1.7364-1.9551-1.1757 0-1.9345.7862-1.9345 2.0782v4.3613zm14.3144-1.1074v1.1074h-5.9882v-9.8643h1.2304v8.7569zm3.8692 1.2373c-1.4287 0-2.4883-.8477-2.4883-2.1944 0-1.3193.9707-2.0781 2.6865-2.1806l2.126-.1299v-.6699c0-.9092-.5674-1.4082-1.668-1.4082-.8818 0-1.497.3349-1.6611.916h-1.1895c.1573-1.1826 1.3194-1.9619 2.8916-1.9619 1.7979 0 2.8028.9228 2.8028 2.4541v5.0449h-1.1211v-1.0869h-.1094c-.4785.7861-1.2851 1.2168-2.2695 1.2168zm.2187-1.0322c1.21 0 2.1055-.793 2.1055-1.8457v-.6768l-1.9824.1299c-1.1211.0752-1.6133.4648-1.6133 1.2031 0 .752.6357 1.1895 1.4902 1.1895zm9.1192 1.0322c-1.0254 0-1.9004-.4854-2.3653-1.3057h-.1093v1.1758h-1.1211v-10.2949h1.1757v4.0879h.1094c.4033-.793 1.2989-1.292 2.3106-1.292 1.873 0 3.0898 1.497 3.0898 3.8144 0 2.3037-1.2236 3.8145-3.0898 3.8145zm-.2735-6.5694c-1.3398 0-2.1738 1.0528-2.1738 2.7549 0 1.7022.834 2.7549 2.1738 2.7549 1.3467 0 2.1465-1.0322 2.1465-2.7549 0-1.7226-.7998-2.7549-2.1465-2.7549zm10.0899 4.5323h1.1758c-.3418 1.2578-1.4903 2.0371-3.1036 2.0371-2.0439 0-3.3222-1.4766-3.3222-3.8076 0-2.3174 1.2988-3.8213 3.3222-3.8213 1.9893 0 3.1993 1.415 3.1993 3.7051v.4511h-5.2979v.0547c.0615 1.4561.875 2.3789 2.126 2.3789.9502 0 1.5928-.3486 1.9004-.998zm-1.9414-4.5528c-1.1758 0-1.9961.8614-2.085 2.167h4.0606c-.0274-1.3056-.8067-2.167-1.9756-2.167zm5.1269 6.46v-10.2949h1.1758v10.2949z"/><path clip-rule="evenodd" d="m101.125 54.2473c.538-.3258 1.212-.3258 1.75 0l3.937 2.3864c.505.3058.813.8531.813 1.4432v3.8463c0 .59-.308 1.1373-.813 1.4431l-3.937 2.3864c-.538.3258-1.212.3258-1.75 0l-3.9371-2.3864c-.5047-.3058-.8129-.8531-.8129-1.4431v-3.8463c0-.5901.3082-1.1374.8129-1.4432zm1.167.9621c-.18-.1086-.404-.1086-.584 0l-3.937 2.3864c-.1683.102-.271.2844-.271.4811v3.8463c0 .1967.1027.3791.271.481l3.937 2.3864c.18.1086.404.1086.584 0l3.937-2.3864c.168-.1019.271-.2843.271-.481v-3.8463c0-.1967-.103-.3791-.271-.4811z" fill-rule="evenodd"/><path d="m114.488 65h-1.23v-9.8643h1.23zm8.463-5.1133h-1.189c-.192-.7314-.841-1.3262-1.901-1.3262-1.326 0-2.16 1.0596-2.16 2.7276 0 1.7021.848 2.7822 2.16 2.7822.992 0 1.682-.458 1.901-1.292h1.189c-.212 1.3535-1.312 2.3516-3.083 2.3516-2.064 0-3.384-1.4971-3.384-3.8418 0-2.2969 1.313-3.7871 3.377-3.7871 1.791 0 2.885 1.0732 3.09 2.3857zm4.765 5.2432c-2.099 0-3.398-1.4492-3.398-3.8145 0-2.372 1.299-3.8144 3.398-3.8144 2.098 0 3.397 1.4424 3.397 3.8144 0 2.3653-1.299 3.8145-3.397 3.8145zm0-1.0596c1.394 0 2.18-1.0117 2.18-2.7549 0-1.75-.786-2.7549-2.18-2.7549-1.395 0-2.181 1.0049-2.181 2.7549 0 1.7432.786 2.7549 2.181 2.7549zm5.243.9297v-7.3691h1.121v1.1621h.109c.37-.8135 1.087-1.292 2.215-1.292 1.655 0 2.577.9775 2.577 2.7275v4.7715h-1.175v-4.4844c0-1.3261-.561-1.9551-1.737-1.9551-1.175 0-1.934.7862-1.934 2.0782v4.3613zm14.314-1.1074v1.1074h-5.988v-9.8643h1.231v8.7569zm3.87 1.2373c-1.429 0-2.489-.8477-2.489-2.1944 0-1.3193.971-2.0781 2.687-2.1806l2.126-.1299v-.6699c0-.9092-.568-1.4082-1.668-1.4082-.882 0-1.497.3349-1.661.916h-1.19c.157-1.1826 1.32-1.9619 2.892-1.9619 1.798 0 2.803.9228 2.803 2.4541v5.0449h-1.122v-1.0869h-.109c-.478.7861-1.285 1.2168-2.269 1.2168zm.218-1.0322c1.21 0 2.106-.793 2.106-1.8457v-.6768l-1.983.1299c-1.121.0752-1.613.4648-1.613 1.2031 0 .752.636 1.1895 1.49 1.1895zm9.119 1.0322c-1.025 0-1.9-.4854-2.365-1.3057h-.109v1.1758h-1.121v-10.2949h1.176v4.0879h.109c.403-.793 1.299-1.292 2.31-1.292 1.874 0 3.09 1.497 3.09 3.8144 0 2.3037-1.223 3.8145-3.09 3.8145zm-.273-6.5694c-1.34 0-2.174 1.0528-2.174 2.7549 0 1.7022.834 2.7549 2.174 2.7549 1.347 0 2.147-1.0322 2.147-2.7549 0-1.7226-.8-2.7549-2.147-2.7549zm10.09 4.5323h1.176c-.342 1.2578-1.491 2.0371-3.104 2.0371-2.044 0-3.322-1.4766-3.322-3.8076 0-2.3174 1.299-3.8213 3.322-3.8213 1.989 0 3.199 1.415 3.199 3.7051v.4511h-5.297v.0547c.061 1.4561.875 2.3789 2.125 2.3789.951 0 1.593-.3486 1.901-.998zm-1.942-4.5528c-1.175 0-1.996.8614-2.084 2.167h4.06c-.027-1.3056-.807-2.167-1.976-2.167zm5.127 6.46v-10.2949h1.176v10.2949z"/></g><rect fill="#f1f2f3" height="24" rx="5" width="82" x="6" y="80"/><path clip-rule="evenodd" d="m20.8338 84.3298c.7168-.4344 1.6156-.4344 2.3324 0l5.25 3.1818c.6728.4078 1.0838 1.1374 1.0838 1.9242v5.1284c0 .7868-.411 1.5164-1.0838 1.9242l-5.25 3.1818c-.7168.4348-1.6156.4348-2.3324 0l-5.25-3.1818c-.6728-.4078-1.0838-1.1374-1.0838-1.9242v-5.1284c0-.7868.411-1.5164 1.0838-1.9242zm1.5549 1.2828c-.2389-.1448-.5385-.1448-.7774 0l-5.25 3.1818c-.2243.1359-.3613.3791-.3613.6414v5.1284c0 .2622.137.5055.3613.6414l5.25 3.1818c.2389.1448.5385.1448.7774 0l5.25-3.1818c.2243-.1359.3613-.3792.3613-.6414v-5.1284c0-.2623-.137-.5055-.3613-.6414z" fill="#3b3d45" fill-rule="evenodd"/><path d="m35.1489 87.8403h3.3072c2.7168 0 4.31 1.6758 4.31 4.5576 0 2.9136-1.5806 4.6021-4.31 4.6021h-3.3072zm1.4219 1.2251v6.7095h1.7266c1.917 0 3.0214-1.2251 3.0214-3.3579 0-2.1138-1.1235-3.3516-3.0214-3.3516zm12.4985 6.0874h1.314c-.2983 1.2188-1.4155 1.9805-2.9961 1.9805-1.9805 0-3.1929-1.3647-3.1929-3.5674 0-2.1899 1.2378-3.5928 3.1866-3.5928 1.9233 0 3.0849 1.314 3.0849 3.4722v.4697h-4.8813v.0635c.0444 1.2505.749 2.0376 1.8408 2.0376.8252 0 1.3901-.3047 1.644-.8633zm-1.6948-4.0688c-1.0093 0-1.7139.7363-1.79 1.8472h3.4912c-.0318-1.1172-.6919-1.8472-1.7012-1.8472zm5.2178 5.916v-5.7827h-1.1362v-1.0918h1.1362v-.7427c0-1.3711.6982-2.0439 2.1328-2.0439.311 0 .5776.0254.8125.0634v1.0284c-.127-.0191-.311-.0318-.5269-.0318-.7617 0-1.0727.3491-1.0727 1.0474v.6792h1.5425v1.0918h-1.5235v5.7827zm6.1445.1143c-1.333 0-2.3042-.7998-2.3042-2.0567 0-1.2378.9268-1.9551 2.5708-2.0566l1.8726-.1143v-.603c0-.7554-.4824-1.1807-1.4156-1.1807-.7617 0-1.2885.2857-1.4409.7871h-1.3203c.1397-1.1616 1.2569-1.917 2.8247-1.917 1.7329 0 2.7105.8633 2.7105 2.3106v4.7163h-1.314v-.9775h-.1079c-.4126.6982-1.168 1.0918-2.0757 1.0918zm.3491-1.0982c1.0284 0 1.7901-.6728 1.7901-1.5615v-.5967l-1.6885.1143c-.9521.0634-1.3838.3999-1.3838 1.0283 0 .6411.5396 1.0156 1.2822 1.0156zm10.918-5.9097v6.8936h-1.314v-1.0918h-.1079c-.3364.7808-1.041 1.2251-2.0883 1.2251-1.5298 0-2.3804-.9331-2.3804-2.5518v-4.4751h1.3647v4.1387c0 1.1426.4507 1.6885 1.4536 1.6885 1.1045 0 1.7076-.6729 1.7076-1.7837v-4.0435zm2.044 6.8936v-9.5977h1.3647v9.5977zm3.8974-8.6328h1.3648v1.7583h1.498v1.0918h-1.498v3.6372c0 .7427.2983 1.0664.9775 1.0664.2095 0 .3301-.0127.5205-.0317v1.0854c-.2222.0381-.4761.0698-.7427.0698-1.5171 0-2.1201-.5332-2.1201-1.8598v-3.9673h-1.0981v-1.0918h1.0981z" fill="#3b3d45"/><path clip-rule="evenodd" d="m12.8338 116.33c.7168-.435 1.6156-.435 2.3324 0l5.25 3.182c.6728.407 1.0838 1.137 1.0838 1.924v5.128c0 .787-.411 1.517-1.0838 1.924l-5.25 3.182c-.7168.435-1.6156.435-2.3324 0l-5.24998-3.182c-.67285-.407-1.08382-1.137-1.08382-1.924v-5.128c0-.787.41097-1.517 1.08382-1.924zm1.5549 1.283c-.2389-.145-.5385-.145-.7774 0l-5.25003 3.181c-.22428.136-.36127.38-.36127.642v5.128c0 .262.13699.506.36127.642l5.25003 3.181c.2389.145.5385.145.7774 0l5.25-3.181c.2243-.136.3613-.38.3613-.642v-5.128c0-.262-.137-.506-.3613-.642z" fill="#000001" fill-rule="evenodd"/><path d="m38.2109 130h-2.0156v-9.578h-3.4687v-1.695h8.9609v1.695h-3.4766zm6.211-9.969c-.6328 0-1.1563-.508-1.1563-1.148 0-.633.5235-1.149 1.1563-1.149.6406 0 1.164.516 1.164 1.149 0 .64-.5234 1.148-1.164 1.148zm-.961 9.969v-8.539h1.9297v8.539zm4.9532-10.633h1.9297v2.149h1.8281v1.507h-1.8281v4.25c0 .852.3593 1.235 1.1718 1.235.2735 0 .4219-.016.6563-.039v1.484c-.2813.055-.6407.086-1.0157.086-1.9609 0-2.7421-.656-2.7421-2.305v-4.711h-1.3516v-1.507h1.3516zm5.7734 10.633v-11.844h1.9375v11.844zm9.9609-2.336h1.836c-.3516 1.539-1.7813 2.508-3.7969 2.508-2.5156 0-4.0313-1.672-4.0313-4.406 0-2.743 1.5391-4.469 4.0157-4.469 2.4375 0 3.8984 1.617 3.8984 4.297v.617h-5.9687v.101c.0468 1.446.8672 2.352 2.1406 2.352.9609 0 1.625-.359 1.9062-1zm-1.9843-4.859c-1.1563 0-1.9688.836-2.0547 2.117h4.0234c-.039-1.297-.8047-2.117-1.9687-2.117z" fill="#0c0c0e"/><path clip-rule="evenodd" d="m13.1254 150.247c.5375-.325 1.2117-.325 1.7492 0l3.9375 2.387c.5047.306.8129.853.8129 1.443v3.846c0 .59-.3082 1.137-.8129 1.443l-3.9375 2.387c-.5375.325-1.2117.325-1.7492 0l-3.93753-2.387c-.50464-.306-.81287-.853-.81287-1.443v-3.846c0-.59.30823-1.137.81287-1.443zm1.1661.962c-.1791-.108-.4039-.108-.583 0l-3.93754 2.387c-.16822.102-.27096.284-.27096.481v3.846c0 .197.10274.379.27096.481l3.93754 2.387c.1791.108.4039.108.583 0l3.9375-2.387c.1683-.102.271-.284.271-.481v-3.846c0-.197-.1027-.379-.271-.481z" fill="#656a76" fill-rule="evenodd"/><path d="m26.4883 161h-1.2305v-9.864h1.2305zm8.4629-5.113h-1.1895c-.1914-.732-.8408-1.326-1.9004-1.326-1.3261 0-2.1601 1.059-2.1601 2.727 0 1.702.8476 2.782 2.1601 2.782.9912 0 1.6817-.458 1.9004-1.292h1.1895c-.2119 1.354-1.3125 2.352-3.083 2.352-2.0645 0-3.3838-1.497-3.3838-3.842 0-2.297 1.3125-3.787 3.3769-3.787 1.791 0 2.8848 1.073 3.0899 2.386zm4.7646 5.243c-2.0986 0-3.3974-1.449-3.3974-3.815 0-2.372 1.2988-3.814 3.3974-3.814 2.0987 0 3.3975 1.442 3.3975 3.814 0 2.366-1.2988 3.815-3.3975 3.815zm0-1.06c1.3946 0 2.1807-1.011 2.1807-2.755 0-1.75-.7861-2.754-2.1807-2.754-1.3945 0-2.1806 1.004-2.1806 2.754 0 1.744.7861 2.755 2.1806 2.755zm5.2432.93v-7.369h1.1211v1.162h.1094c.3691-.814 1.0869-1.292 2.2148-1.292 1.6543 0 2.5771.978 2.5771 2.728v4.771h-1.1757v-4.484c0-1.327-.5606-1.955-1.7364-1.955-1.1757 0-1.9345.786-1.9345 2.078v4.361zm14.3144-1.107v1.107h-5.9882v-9.864h1.2304v8.757zm3.8692 1.237c-1.4287 0-2.4883-.848-2.4883-2.194 0-1.32.9707-2.079 2.6865-2.181l2.126-.13v-.67c0-.909-.5674-1.408-1.668-1.408-.8818 0-1.497.335-1.6611.916h-1.1895c.1573-1.183 1.3194-1.962 2.8916-1.962 1.7979 0 2.8028.923 2.8028 2.454v5.045h-1.1211v-1.087h-.1094c-.4785.786-1.2851 1.217-2.2695 1.217zm.2187-1.032c1.21 0 2.1055-.793 2.1055-1.846v-.677l-1.9824.13c-1.1211.075-1.6133.465-1.6133 1.203 0 .752.6357 1.19 1.4902 1.19zm9.1192 1.032c-1.0254 0-1.9004-.485-2.3653-1.306h-.1093v1.176h-1.1211v-10.295h1.1757v4.088h.1094c.4033-.793 1.2989-1.292 2.3106-1.292 1.873 0 3.0898 1.497 3.0898 3.814 0 2.304-1.2236 3.815-3.0898 3.815zm-.2735-6.569c-1.3398 0-2.1738 1.052-2.1738 2.754 0 1.703.834 2.755 2.1738 2.755 1.3467 0 2.1465-1.032 2.1465-2.755 0-1.722-.7998-2.754-2.1465-2.754zm10.0899 4.532h1.1758c-.3418 1.258-1.4903 2.037-3.1036 2.037-2.0439 0-3.3222-1.477-3.3222-3.808 0-2.317 1.2988-3.821 3.3222-3.821 1.9893 0 3.1993 1.415 3.1993 3.705v.451h-5.2979v.055c.0615 1.456.875 2.379 2.126 2.379.9502 0 1.5928-.349 1.9004-.998zm-1.9414-4.553c-1.1758 0-1.9961.861-2.085 2.167h4.0606c-.0274-1.306-.8067-2.167-1.9756-2.167zm5.1269 6.46v-10.295h1.1758v10.295z" fill="#656a76"/><path clip-rule="evenodd" d="m101.125 150.247c.538-.325 1.212-.325 1.75 0l3.937 2.387c.505.306.813.853.813 1.443v3.846c0 .59-.308 1.137-.813 1.443l-3.937 2.387c-.538.325-1.212.325-1.75 0l-3.9371-2.387c-.5047-.306-.8129-.853-.8129-1.443v-3.846c0-.59.3082-1.137.8129-1.443zm1.167.962c-.18-.108-.404-.108-.584 0l-3.937 2.387c-.1683.102-.271.284-.271.481v3.846c0 .197.1027.379.271.481l3.937 2.387c.18.108.404.108.584 0l3.937-2.387c.168-.102.271-.284.271-.481v-3.846c0-.197-.103-.379-.271-.481z" fill="#656a76" fill-rule="evenodd"/><path d="m114.488 161h-1.23v-9.864h1.23zm8.463-5.113h-1.189c-.192-.732-.841-1.326-1.901-1.326-1.326 0-2.16 1.059-2.16 2.727 0 1.702.848 2.782 2.16 2.782.992 0 1.682-.458 1.901-1.292h1.189c-.212 1.354-1.312 2.352-3.083 2.352-2.064 0-3.384-1.497-3.384-3.842 0-2.297 1.313-3.787 3.377-3.787 1.791 0 2.885 1.073 3.09 2.386zm4.765 5.243c-2.099 0-3.398-1.449-3.398-3.815 0-2.372 1.299-3.814 3.398-3.814 2.098 0 3.397 1.442 3.397 3.814 0 2.366-1.299 3.815-3.397 3.815zm0-1.06c1.394 0 2.18-1.011 2.18-2.755 0-1.75-.786-2.754-2.18-2.754-1.395 0-2.181 1.004-2.181 2.754 0 1.744.786 2.755 2.181 2.755zm5.243.93v-7.369h1.121v1.162h.109c.37-.814 1.087-1.292 2.215-1.292 1.655 0 2.577.978 2.577 2.728v4.771h-1.175v-4.484c0-1.327-.561-1.955-1.737-1.955-1.175 0-1.934.786-1.934 2.078v4.361zm14.314-1.107v1.107h-5.988v-9.864h1.231v8.757zm3.87 1.237c-1.429 0-2.489-.848-2.489-2.194 0-1.32.971-2.079 2.687-2.181l2.126-.13v-.67c0-.909-.568-1.408-1.668-1.408-.882 0-1.497.335-1.661.916h-1.19c.157-1.183 1.32-1.962 2.892-1.962 1.798 0 2.803.923 2.803 2.454v5.045h-1.122v-1.087h-.109c-.478.786-1.285 1.217-2.269 1.217zm.218-1.032c1.21 0 2.106-.793 2.106-1.846v-.677l-1.983.13c-1.121.075-1.613.465-1.613 1.203 0 .752.636 1.19 1.49 1.19zm9.119 1.032c-1.025 0-1.9-.485-2.365-1.306h-.109v1.176h-1.121v-10.295h1.176v4.088h.109c.403-.793 1.299-1.292 2.31-1.292 1.874 0 3.09 1.497 3.09 3.814 0 2.304-1.223 3.815-3.09 3.815zm-.273-6.569c-1.34 0-2.174 1.052-2.174 2.754 0 1.703.834 2.755 2.174 2.755 1.347 0 2.147-1.032 2.147-2.755 0-1.722-.8-2.754-2.147-2.754zm10.09 4.532h1.176c-.342 1.258-1.491 2.037-3.104 2.037-2.044 0-3.322-1.477-3.322-3.808 0-2.317 1.299-3.821 3.322-3.821 1.989 0 3.199 1.415 3.199 3.705v.451h-5.297v.055c.061 1.456.875 2.379 2.125 2.379.951 0 1.593-.349 1.901-.998zm-1.942-4.553c-1.175 0-1.996.861-2.084 2.167h4.06c-.027-1.306-.807-2.167-1.976-2.167zm5.127 6.46v-10.295h1.176v10.295z" fill="#656a76"/></g><path d="m3.5 15.5h319v153h-319z" stroke="#a737ff"/><path d="m0 182c0 2.209 1.79086 4 4 4s4-1.791 4-4-1.79086-4-4-4-4 1.791-4 4zm318 0c0 2.209 1.791 4 4 4s4-1.791 4-4-1.791-4-4-4-4 1.791-4 4zm-314 .75h.99375v-1.5h-.99375zm2.98125 0h1.9875v-1.5h-1.9875zm3.97505 0h1.9875v-1.5h-1.9875zm3.975 0h1.9875v-1.5h-1.9875zm3.975 0h1.9875v-1.5h-1.9875zm3.975 0h1.9874v-1.5h-1.9874zm3.9749 0h1.9875v-1.5h-1.9875zm3.975 0h1.9875v-1.5h-1.9875zm3.975 0h1.9875v-1.5h-1.9875zm3.975 0h1.9875v-1.5h-1.9875zm3.975 0h1.9875v-1.5h-1.9875zm3.975 0h1.9875v-1.5h-1.9875zm3.975 0h1.9875v-1.5h-1.9875zm3.975 0h1.9875v-1.5h-1.9875zm3.975 0h1.9875v-1.5h-1.9875zm3.975 0h1.9875v-1.5h-1.9875zm3.975 0h1.9875v-1.5h-1.9875zm3.975 0h1.9875v-1.5h-1.9875zm3.975 0h1.9875v-1.5h-1.9875zm3.975 0h1.9876v-1.5h-1.9876zm3.9751 0h1.9875v-1.5h-1.9875zm3.975 0h1.9875v-1.5h-1.9875zm3.975 0h1.9875v-1.5h-1.9875zm3.975 0h1.9875v-1.5h-1.9875zm3.975 0h1.9877v-1.5h-1.9877zm3.9747 0h1.988v-1.5h-1.988zm3.975 0h1.988v-1.5h-1.988zm3.975 0h1.988v-1.5h-1.988zm3.975 0h1.988v-1.5h-1.988zm3.975 0h1.988v-1.5h-1.988zm3.975 0h1.988v-1.5h-1.988zm3.975 0h1.988v-1.5h-1.988zm3.975 0h1.988v-1.5h-1.988zm3.975 0h1.988v-1.5h-1.988zm3.975 0h1.988v-1.5h-1.988zm3.975 0h1.988v-1.5h-1.988zm3.975 0h1.988v-1.5h-1.988zm3.975 0h1.988v-1.5h-1.988zm3.975 0h1.988v-1.5h-1.988zm3.975 0h1.988v-1.5h-1.988zm3.975 0h1.988v-1.5h-1.988zm3.975 0h1.988v-1.5h-1.988zm3.975 0h1.988v-1.5h-1.988zm3.975 0h1.988v-1.5h-1.988zm3.975 0h1.988v-1.5h-1.988zm3.975 0h1.988v-1.5h-1.988zm3.975 0h1.988v-1.5h-1.988zm3.975 0h1.988v-1.5h-1.988zm3.975 0h1.988v-1.5h-1.988zm3.975 0h1.988v-1.5h-1.988zm3.975 0h1.988v-1.5h-1.988zm3.975 0h1.988v-1.5h-1.988zm3.975 0h1.988v-1.5h-1.988zm3.975 0h1.988v-1.5h-1.988zm3.975 0h1.988v-1.5h-1.988zm3.975 0h1.988v-1.5h-1.988zm3.975 0h1.988v-1.5h-1.988zm3.975 0h1.988v-1.5h-1.988zm3.975 0h1.988v-1.5h-1.988zm3.975 0h1.988v-1.5h-1.988zm3.975 0h1.988v-1.5h-1.988zm3.976 0h1.987v-1.5h-1.987zm3.974 0h1.988v-1.5h-1.988zm3.976 0h1.987v-1.5h-1.987zm3.975 0h1.987v-1.5h-1.987zm3.975 0h1.987v-1.5h-1.987zm3.975 0h1.987v-1.5h-1.987zm3.974 0h1.988v-1.5h-1.988zm3.975 0h1.988v-1.5h-1.988zm3.975 0h1.988v-1.5h-1.988zm3.975 0h1.988v-1.5h-1.988zm3.975 0h1.988v-1.5h-1.988zm3.975 0h1.988v-1.5h-1.988zm3.975 0h1.988v-1.5h-1.988zm3.975 0h1.988v-1.5h-1.988zm3.975 0h1.988v-1.5h-1.988zm3.975 0h1.988v-1.5h-1.988zm3.975 0h1.988v-1.5h-1.988zm3.975 0h1.988v-1.5h-1.988zm3.975 0h1.988v-1.5h-1.988zm3.975 0h.994v-1.5h-.994z" fill="#911ced"/><rect fill="#f9f2ff" height="20" rx="5" width="45" x="133" y="172"/><path d="m141.551 182.493h.967c1.01 0 1.633.515 1.633 1.342 0 .806-.666 1.343-1.617 1.343-.94 0-1.59-.489-1.659-1.251h-1.155c.064 1.364 1.192 2.261 2.83 2.261 1.617 0 2.836-.967 2.836-2.288 0-1.064-.666-1.751-1.697-1.907v-.091c.811-.226 1.396-.843 1.402-1.778.005-1.101-.903-2.062-2.503-2.062-1.633 0-2.643.939-2.723 2.255h1.138c.07-.811.634-1.267 1.515-1.267.87 0 1.386.542 1.386 1.224 0 .747-.58 1.273-1.418 1.273h-.935zm7.214 3.507h1.203v-7.75h-1.198l-2.041 1.45v1.181l1.944-1.391h.092zm6.241.188c1.724 0 2.916-.929 2.916-2.267 0-.999-.655-1.783-1.649-1.971v-.091c.817-.21 1.332-.87 1.332-1.713 0-1.22-1.079-2.084-2.599-2.084s-2.6.864-2.6 2.084c0 .837.527 1.509 1.332 1.713v.091c-.993.199-1.643.983-1.643 1.977 0 1.337 1.187 2.261 2.911 2.261zm0-4.7c-.843 0-1.413-.494-1.413-1.23 0-.746.564-1.246 1.413-1.246.848 0 1.418.5 1.418 1.246 0 .736-.575 1.23-1.418 1.23zm0 3.744c-.994 0-1.681-.575-1.681-1.402s.687-1.396 1.681-1.396 1.681.569 1.681 1.396-.687 1.402-1.681 1.402zm7.503-5.167c-.795 0-1.482.403-1.837 1.069h-.086v-.967h-1.111v7.777h1.154v-2.825h.092c.306.618.967.978 1.799.978 1.477 0 2.417-1.171 2.417-3.014 0-1.853-.94-3.018-2.428-3.018zm-.327 5.043c-.967 0-1.574-.778-1.574-2.025 0-1.251.607-2.03 1.579-2.03.978 0 1.563.763 1.563 2.03 0 1.268-.585 2.025-1.568 2.025zm6.037-1.197 1.278 2.1h1.327l-1.95-2.949 1.928-2.884h-1.289l-1.246 2.084h-.091l-1.257-2.084h-1.348l1.955 2.927-1.939 2.906h1.267l1.279-2.1z" fill="#911ced"/></svg>