<svg fill="none" height="202" viewBox="0 0 806 202" width="806" xmlns="http://www.w3.org/2000/svg" xmlns:xlink="http://www.w3.org/1999/xlink"><filter id="a" color-interpolation-filters="sRGB" filterUnits="userSpaceOnUse" height="103" width="806" x="0" y="51"><feFlood flood-opacity="0" result="BackgroundImageFix"/><feColorMatrix in="SourceAlpha" result="hardAlpha" type="matrix" values="0 0 0 0 0 0 0 0 0 0 0 0 0 0 0 0 0 0 127 0"/><feMorphology in="SourceAlpha" operator="erode" radius="10" result="effect1_dropShadow_778_128910"/><feOffset dy="16"/><feGaussianBlur stdDeviation="8"/><feColorMatrix type="matrix" values="0 0 0 0 0.396078 0 0 0 0 0.415686 0 0 0 0 0.462745 0 0 0 0.2 0"/><feBlend in2="BackgroundImageFix" mode="normal" result="effect1_dropShadow_778_128910"/><feColorMatrix in="SourceAlpha" result="hardAlpha" type="matrix" values="0 0 0 0 0 0 0 0 0 0 0 0 0 0 0 0 0 0 127 0"/><feOffset dy="2"/><feGaussianBlur stdDeviation="1.5"/><feColorMatrix type="matrix" values="0 0 0 0 0.396078 0 0 0 0 0.415686 0 0 0 0 0.462745 0 0 0 0.15 0"/><feBlend in2="effect1_dropShadow_778_128910" mode="normal" result="effect2_dropShadow_778_128910"/><feColorMatrix in="SourceAlpha" result="hardAlpha" type="matrix" values="0 0 0 0 0 0 0 0 0 0 0 0 0 0 0 0 0 0 127 0"/><feMorphology in="SourceAlpha" operator="dilate" radius="1" result="effect3_dropShadow_778_128910"/><feOffset/><feColorMatrix type="matrix" values="0 0 0 0 0.396078 0 0 0 0 0.415686 0 0 0 0 0.462745 0 0 0 0.25 0"/><feBlend in2="effect2_dropShadow_778_128910" mode="normal" result="effect3_dropShadow_778_128910"/><feBlend in="SourceGraphic" in2="effect3_dropShadow_778_128910" mode="normal" result="shape"/></filter><filter id="b" color-interpolation-filters="sRGB" filterUnits="userSpaceOnUse" height="92" width="248" x="102" y="110"><feFlood flood-opacity="0" result="BackgroundImageFix"/><feColorMatrix in="SourceAlpha" result="hardAlpha" type="matrix" values="0 0 0 0 0 0 0 0 0 0 0 0 0 0 0 0 0 0 127 0"/><feOffset dy="12"/><feGaussianBlur stdDeviation="14"/><feColorMatrix type="matrix" values="0 0 0 0 0.396078 0 0 0 0 0.415686 0 0 0 0 0.462745 0 0 0 0.25 0"/><feBlend in2="BackgroundImageFix" mode="normal" result="effect1_dropShadow_778_128910"/><feColorMatrix in="SourceAlpha" result="hardAlpha" type="matrix" values="0 0 0 0 0 0 0 0 0 0 0 0 0 0 0 0 0 0 127 0"/><feOffset dy="2"/><feGaussianBlur stdDeviation="1.5"/><feColorMatrix type="matrix" values="0 0 0 0 0.396078 0 0 0 0 0.415686 0 0 0 0 0.462745 0 0 0 0.1 0"/><feBlend in2="effect1_dropShadow_778_128910" mode="normal" result="effect2_dropShadow_778_128910"/><feBlend in="SourceGraphic" in2="effect2_dropShadow_778_128910" mode="normal" result="shape"/></filter><filter id="c" color-interpolation-filters="sRGB" filterUnits="userSpaceOnUse" height="92" width="248" x="261" y="0"><feFlood flood-opacity="0" result="BackgroundImageFix"/><feColorMatrix in="SourceAlpha" result="hardAlpha" type="matrix" values="0 0 0 0 0 0 0 0 0 0 0 0 0 0 0 0 0 0 127 0"/><feOffset dy="12"/><feGaussianBlur stdDeviation="14"/><feColorMatrix type="matrix" values="0 0 0 0 0.396078 0 0 0 0 0.415686 0 0 0 0 0.462745 0 0 0 0.25 0"/><feBlend in2="BackgroundImageFix" mode="normal" result="effect1_dropShadow_778_128910"/><feColorMatrix in="SourceAlpha" result="hardAlpha" type="matrix" values="0 0 0 0 0 0 0 0 0 0 0 0 0 0 0 0 0 0 127 0"/><feOffset dy="2"/><feGaussianBlur stdDeviation="1.5"/><feColorMatrix type="matrix" values="0 0 0 0 0.396078 0 0 0 0 0.415686 0 0 0 0 0.462745 0 0 0 0.1 0"/><feBlend in2="effect1_dropShadow_778_128910" mode="normal" result="effect2_dropShadow_778_128910"/><feBlend in="SourceGraphic" in2="effect2_dropShadow_778_128910" mode="normal" result="shape"/></filter><clipPath id="d"><path d="m18 64h726v56h-726z"/></clipPath><g filter="url(#a)"><rect fill="#fff" height="80" rx="6" width="794" x="6" y="52"/><g clip-path="url(#d)"><path clip-rule="evenodd" d="m24.8338 68.3297c.7168-.4344 1.6156-.4344 2.3324 0l5.25 3.1818c.6728.4078 1.0838 1.1374 1.0838 1.9242v5.1284c0 .7868-.411 1.5164-1.0838 1.9242l-5.25 3.1818c-.7168.4344-1.6156.4344-2.3324 0l-5.25-3.1818c-.6728-.4078-1.0838-1.1374-1.0838-1.9242v-5.1284c0-.7868.411-1.5164 1.0838-1.9242zm1.5549 1.2828c-.2389-.1448-.5385-.1448-.7774 0l-5.25 3.1818c-.2243.136-.3613.3792-.3613.6414v5.1284c0 .2623.137.5055.3613.6414l5.25 3.1818c.2389.1448.5385.1448.7774 0l5.25-3.1818c.2243-.1359.3613-.3791.3613-.6414v-5.1284c0-.2622-.137-.5054-.3613-.6414z" fill="#000001" fill-rule="evenodd"/><path d="m50.2109 82h-2.0156v-9.5781h-3.4687v-1.6953h8.9609v1.6953h-3.4766zm6.211-9.9688c-.6328 0-1.1563-.5078-1.1563-1.1484 0-.6328.5235-1.1484 1.1563-1.1484.6406 0 1.164.5156 1.164 1.1484 0 .6406-.5234 1.1484-1.164 1.1484zm-.961 9.9688v-8.5391h1.9297v8.5391zm4.9532-10.6328h1.9297v2.1484h1.8281v1.5078h-1.8281v4.25c0 .8516.3593 1.2344 1.1718 1.2344.2735 0 .4219-.0156.6563-.039v1.4843c-.2813.0547-.6407.086-1.0157.086-1.9609 0-2.7421-.6563-2.7421-2.3047v-4.711h-1.3516v-1.5078h1.3516zm5.7734 10.6328v-11.8438h1.9375v11.8438zm9.9609-2.3359h1.836c-.3516 1.539-1.7813 2.5078-3.7969 2.5078-2.5156 0-4.0313-1.6719-4.0313-4.4063 0-2.7422 1.5391-4.4687 4.0157-4.4687 2.4375 0 3.8984 1.6172 3.8984 4.2969v.6171h-5.9687v.1016c.0468 1.4453.8672 2.3516 2.1406 2.3516.9609 0 1.625-.3594 1.9062-1zm-1.9843-4.8594c-1.1563 0-1.9688.8359-2.0547 2.1172h4.0234c-.039-1.2969-.8047-2.1172-1.9687-2.1172z" fill="#0c0c0e"/><g fill="#656a76"><path clip-rule="evenodd" d="m25.1254 102.247c.5375-.326 1.2117-.326 1.7492 0l3.9375 2.387c.5047.305.8129.853.8129 1.443v3.846c0 .59-.3082 1.137-.8129 1.443l-3.9375 2.387c-.5375.325-1.2117.325-1.7492 0l-3.9375-2.387c-.5047-.306-.8129-.853-.8129-1.443v-3.846c0-.59.3082-1.138.8129-1.443zm1.1661.962c-.1791-.108-.4039-.108-.583 0l-3.9375 2.387c-.1683.102-.271.284-.271.481v3.846c0 .197.1027.379.271.481l3.9375 2.387c.1791.108.4039.108.583 0l3.9375-2.387c.1683-.102.271-.284.271-.481v-3.846c0-.197-.1027-.379-.271-.481z" fill-rule="evenodd"/><path d="m38.4883 113h-1.2305v-9.864h1.2305zm8.4629-5.113h-1.1895c-.1914-.732-.8408-1.326-1.9004-1.326-1.3261 0-2.1601 1.059-2.1601 2.727 0 1.702.8476 2.782 2.1601 2.782.9912 0 1.6817-.458 1.9004-1.292h1.1895c-.2119 1.354-1.3125 2.352-3.083 2.352-2.0645 0-3.3838-1.497-3.3838-3.842 0-2.297 1.3125-3.787 3.3769-3.787 1.791 0 2.8848 1.073 3.0899 2.386zm4.7646 5.243c-2.0986 0-3.3974-1.449-3.3974-3.815 0-2.372 1.2988-3.814 3.3974-3.814 2.0987 0 3.3975 1.442 3.3975 3.814 0 2.366-1.2988 3.815-3.3975 3.815zm0-1.06c1.3946 0 2.1807-1.011 2.1807-2.755 0-1.75-.7861-2.754-2.1807-2.754-1.3945 0-2.1806 1.004-2.1806 2.754 0 1.744.7861 2.755 2.1806 2.755zm5.2432.93v-7.369h1.1211v1.162h.1094c.3691-.814 1.0869-1.292 2.2148-1.292 1.6543 0 2.5771.978 2.5771 2.728v4.771h-1.1757v-4.484c0-1.327-.5606-1.955-1.7364-1.955-1.1757 0-1.9345.786-1.9345 2.078v4.361zm14.3144-1.107v1.107h-5.9882v-9.864h1.2304v8.757zm3.8692 1.237c-1.4287 0-2.4883-.848-2.4883-2.194 0-1.32.9707-2.079 2.6865-2.181l2.126-.13v-.67c0-.909-.5674-1.408-1.668-1.408-.8818 0-1.497.335-1.6611.916h-1.1895c.1573-1.183 1.3194-1.962 2.8916-1.962 1.7979 0 2.8028.923 2.8028 2.454v5.045h-1.1211v-1.087h-.1094c-.4785.786-1.2851 1.217-2.2695 1.217zm.2187-1.032c1.21 0 2.1055-.793 2.1055-1.846v-.677l-1.9824.13c-1.1211.075-1.6133.465-1.6133 1.203 0 .752.6357 1.19 1.4902 1.19zm9.1192 1.032c-1.0254 0-1.9004-.485-2.3653-1.306h-.1093v1.176h-1.1211v-10.295h1.1757v4.088h.1094c.4033-.793 1.2989-1.292 2.3106-1.292 1.873 0 3.0898 1.497 3.0898 3.814 0 2.304-1.2236 3.815-3.0898 3.815zm-.2735-6.569c-1.3398 0-2.1738 1.052-2.1738 2.754 0 1.703.834 2.755 2.1738 2.755 1.3467 0 2.1465-1.032 2.1465-2.755 0-1.722-.7998-2.754-2.1465-2.754zm10.0899 4.532h1.1758c-.3418 1.258-1.4903 2.037-3.1036 2.037-2.0439 0-3.3222-1.477-3.3222-3.808 0-2.317 1.2988-3.821 3.3222-3.821 1.9893 0 3.1993 1.415 3.1993 3.705v.451h-5.2979v.055c.0615 1.456.875 2.379 2.126 2.379.9502 0 1.5928-.349 1.9004-.998zm-1.9414-4.553c-1.1758 0-1.9961.861-2.085 2.167h4.0606c-.0274-1.306-.8067-2.167-1.9756-2.167zm5.1269 6.46v-10.295h1.1758v10.295z"/><path clip-rule="evenodd" d="m113.125 102.247c.538-.326 1.212-.326 1.75 0l3.937 2.387c.505.305.813.853.813 1.443v3.846c0 .59-.308 1.137-.813 1.443l-3.937 2.387c-.538.325-1.212.325-1.75 0l-3.937-2.387c-.505-.306-.813-.853-.813-1.443v-3.846c0-.59.308-1.138.813-1.443zm1.167.962c-.18-.108-.404-.108-.584 0l-3.937 2.387c-.168.102-.271.284-.271.481v3.846c0 .197.103.379.271.481l3.937 2.387c.18.108.404.108.584 0l3.937-2.387c.168-.102.271-.284.271-.481v-3.846c0-.197-.103-.379-.271-.481z" fill-rule="evenodd"/><path d="m126.488 113h-1.23v-9.864h1.23zm8.463-5.113h-1.189c-.192-.732-.841-1.326-1.901-1.326-1.326 0-2.16 1.059-2.16 2.727 0 1.702.848 2.782 2.16 2.782.992 0 1.682-.458 1.901-1.292h1.189c-.212 1.354-1.312 2.352-3.083 2.352-2.064 0-3.384-1.497-3.384-3.842 0-2.297 1.313-3.787 3.377-3.787 1.791 0 2.885 1.073 3.09 2.386zm4.765 5.243c-2.099 0-3.398-1.449-3.398-3.815 0-2.372 1.299-3.814 3.398-3.814 2.098 0 3.397 1.442 3.397 3.814 0 2.366-1.299 3.815-3.397 3.815zm0-1.06c1.394 0 2.18-1.011 2.18-2.755 0-1.75-.786-2.754-2.18-2.754-1.395 0-2.181 1.004-2.181 2.754 0 1.744.786 2.755 2.181 2.755zm5.243.93v-7.369h1.121v1.162h.109c.37-.814 1.087-1.292 2.215-1.292 1.655 0 2.577.978 2.577 2.728v4.771h-1.175v-4.484c0-1.327-.561-1.955-1.737-1.955-1.175 0-1.934.786-1.934 2.078v4.361zm14.314-1.107v1.107h-5.988v-9.864h1.231v8.757zm3.87 1.237c-1.429 0-2.489-.848-2.489-2.194 0-1.32.971-2.079 2.687-2.181l2.126-.13v-.67c0-.909-.568-1.408-1.668-1.408-.882 0-1.497.335-1.661.916h-1.19c.157-1.183 1.32-1.962 2.892-1.962 1.798 0 2.803.923 2.803 2.454v5.045h-1.122v-1.087h-.109c-.478.786-1.285 1.217-2.269 1.217zm.218-1.032c1.21 0 2.106-.793 2.106-1.846v-.677l-1.983.13c-1.121.075-1.613.465-1.613 1.203 0 .752.636 1.19 1.49 1.19zm9.119 1.032c-1.025 0-1.9-.485-2.365-1.306h-.109v1.176h-1.121v-10.295h1.176v4.088h.109c.403-.793 1.299-1.292 2.31-1.292 1.874 0 3.09 1.497 3.09 3.814 0 2.304-1.223 3.815-3.09 3.815zm-.273-6.569c-1.34 0-2.174 1.052-2.174 2.754 0 1.703.834 2.755 2.174 2.755 1.347 0 2.147-1.032 2.147-2.755 0-1.722-.8-2.754-2.147-2.754zm10.09 4.532h1.176c-.342 1.258-1.491 2.037-3.104 2.037-2.044 0-3.322-1.477-3.322-3.808 0-2.317 1.299-3.821 3.322-3.821 1.989 0 3.199 1.415 3.199 3.705v.451h-5.297v.055c.061 1.456.875 2.379 2.125 2.379.951 0 1.593-.349 1.901-.998zm-1.942-4.553c-1.175 0-1.996.861-2.084 2.167h4.06c-.027-1.306-.807-2.167-1.976-2.167zm5.127 6.46v-10.295h1.176v10.295z"/></g><rect fill="#f1f2f3" height="24" rx="5" width="82" x="206" y="64"/><path clip-rule="evenodd" d="m220.834 68.3297c.717-.4344 1.615-.4344 2.332 0l5.25 3.1818c.673.4078 1.084 1.1374 1.084 1.9242v5.1284c0 .7868-.411 1.5164-1.084 1.9242l-5.25 3.1818c-.717.4344-1.615.4344-2.332 0l-5.25-3.1818c-.673-.4078-1.084-1.1374-1.084-1.9242v-5.1284c0-.7868.411-1.5164 1.084-1.9242zm1.555 1.2828c-.239-.1448-.539-.1448-.778 0l-5.25 3.1818c-.224.136-.361.3792-.361.6414v5.1284c0 .2623.137.5055.361.6414l5.25 3.1818c.239.1448.539.1448.778 0l5.25-3.1818c.224-.1359.361-.3791.361-.6414v-5.1284c0-.2622-.137-.5054-.361-.6414z" fill="#3b3d45" fill-rule="evenodd"/><path d="m235.149 71.8403h3.307c2.717 0 4.31 1.6758 4.31 4.5576 0 2.9136-1.58 4.6021-4.31 4.6021h-3.307zm1.422 1.2251v6.7095h1.726c1.917 0 3.022-1.2251 3.022-3.3579 0-2.1138-1.124-3.3516-3.022-3.3516zm12.498 6.0874h1.314c-.298 1.2188-1.415 1.9805-2.996 1.9805-1.98 0-3.193-1.3647-3.193-3.5674 0-2.1899 1.238-3.5928 3.187-3.5928 1.923 0 3.085 1.314 3.085 3.4722v.4697h-4.882v.0635c.045 1.2505.749 2.0376 1.841 2.0376.825 0 1.39-.3047 1.644-.8633zm-1.694-4.0688c-1.01 0-1.714.7363-1.791 1.8472h3.492c-.032-1.1172-.692-1.8472-1.701-1.8472zm5.217 5.916v-5.7827h-1.136v-1.0918h1.136v-.7427c0-1.3711.699-2.0439 2.133-2.0439.311 0 .578.0254.813.0634v1.0284c-.127-.0191-.311-.0318-.527-.0318-.762 0-1.073.3491-1.073 1.0474v.6792h1.542v1.0918h-1.523v5.7827zm6.145.1143c-1.333 0-2.304-.7998-2.304-2.0567 0-1.2378.926-1.9551 2.57-2.0566l1.873-.1143v-.603c0-.7554-.482-1.1807-1.416-1.1807-.761 0-1.288.2857-1.44.7871h-1.321c.14-1.1616 1.257-1.917 2.825-1.917 1.733 0 2.71.8633 2.71 2.3106v4.7163h-1.314v-.9775h-.108c-.412.6982-1.167 1.0918-2.075 1.0918zm.349-1.0982c1.028 0 1.79-.6728 1.79-1.5615v-.5967l-1.688.1143c-.953.0634-1.384.3999-1.384 1.0283 0 .6411.539 1.0156 1.282 1.0156zm10.918-5.9097v6.8936h-1.314v-1.0918h-.108c-.336.7808-1.041 1.2251-2.088 1.2251-1.53 0-2.381-.9331-2.381-2.5518v-4.4751h1.365v4.1387c0 1.1426.451 1.6885 1.454 1.6885 1.104 0 1.707-.6729 1.707-1.7837v-4.0435zm2.044 6.8936v-9.5977h1.365v9.5977zm3.897-8.6328h1.365v1.7583h1.498v1.0918h-1.498v3.6372c0 .7427.298 1.0664.978 1.0664.209 0 .33-.0127.52-.0317v1.0854c-.222.0381-.476.0698-.743.0698-1.517 0-2.12-.5332-2.12-1.8598v-3.9673h-1.098v-1.0918h1.098z" fill="#3b3d45"/><path clip-rule="evenodd" d="m310.834 68.3297c.717-.4344 1.615-.4344 2.332 0l5.25 3.1818c.673.4078 1.084 1.1374 1.084 1.9242v5.1284c0 .7868-.411 1.5164-1.084 1.9242l-5.25 3.1818c-.717.4344-1.615.4344-2.332 0l-5.25-3.1818c-.673-.4078-1.084-1.1374-1.084-1.9242v-5.1284c0-.7868.411-1.5164 1.084-1.9242zm1.555 1.2828c-.239-.1448-.539-.1448-.778 0l-5.25 3.1818c-.224.136-.361.3792-.361.6414v5.1284c0 .2623.137.5055.361.6414l5.25 3.1818c.239.1448.539.1448.778 0l5.25-3.1818c.224-.1359.361-.3791.361-.6414v-5.1284c0-.2622-.137-.5054-.361-.6414z" fill="#000001" fill-rule="evenodd"/><path d="m336.211 82h-2.016v-9.5781h-3.468v-1.6953h8.961v1.6953h-3.477zm6.211-9.9688c-.633 0-1.156-.5078-1.156-1.1484 0-.6328.523-1.1484 1.156-1.1484.64 0 1.164.5156 1.164 1.1484 0 .6406-.524 1.1484-1.164 1.1484zm-.961 9.9688v-8.5391h1.93v8.5391zm4.953-10.6328h1.93v2.1484h1.828v1.5078h-1.828v4.25c0 .8516.359 1.2344 1.172 1.2344.273 0 .422-.0156.656-.039v1.4843c-.281.0547-.641.086-1.016.086-1.961 0-2.742-.6563-2.742-2.3047v-4.711h-1.352v-1.5078h1.352zm5.774 10.6328v-11.8438h1.937v11.8438zm9.96-2.3359h1.836c-.351 1.539-1.781 2.5078-3.796 2.5078-2.516 0-4.032-1.6719-4.032-4.4063 0-2.7422 1.539-4.4687 4.016-4.4687 2.437 0 3.898 1.6172 3.898 4.2969v.6171h-5.968v.1016c.046 1.4453.867 2.3516 2.14 2.3516.961 0 1.625-.3594 1.906-1zm-1.984-4.8594c-1.156 0-1.969.8359-2.055 2.1172h4.024c-.039-1.2969-.805-2.1172-1.969-2.1172z" fill="#0c0c0e"/><path clip-rule="evenodd" d="m311.125 102.247c.538-.326 1.212-.326 1.75 0l3.937 2.387c.505.305.813.853.813 1.443v3.846c0 .59-.308 1.137-.813 1.443l-3.937 2.387c-.538.325-1.212.325-1.75 0l-3.937-2.387c-.505-.306-.813-.853-.813-1.443v-3.846c0-.59.308-1.138.813-1.443zm1.167.962c-.18-.108-.404-.108-.584 0l-3.937 2.387c-.168.102-.271.284-.271.481v3.846c0 .197.103.379.271.481l3.937 2.387c.18.108.404.108.584 0l3.937-2.387c.168-.102.271-.284.271-.481v-3.846c0-.197-.103-.379-.271-.481z" fill="#656a76" fill-rule="evenodd"/><path d="m324.488 113h-1.23v-9.864h1.23zm8.463-5.113h-1.189c-.192-.732-.841-1.326-1.901-1.326-1.326 0-2.16 1.059-2.16 2.727 0 1.702.848 2.782 2.16 2.782.992 0 1.682-.458 1.901-1.292h1.189c-.212 1.354-1.312 2.352-3.083 2.352-2.064 0-3.384-1.497-3.384-3.842 0-2.297 1.313-3.787 3.377-3.787 1.791 0 2.885 1.073 3.09 2.386zm4.765 5.243c-2.099 0-3.398-1.449-3.398-3.815 0-2.372 1.299-3.814 3.398-3.814 2.098 0 3.397 1.442 3.397 3.814 0 2.366-1.299 3.815-3.397 3.815zm0-1.06c1.394 0 2.18-1.011 2.18-2.755 0-1.75-.786-2.754-2.18-2.754-1.395 0-2.181 1.004-2.181 2.754 0 1.744.786 2.755 2.181 2.755zm5.243.93v-7.369h1.121v1.162h.109c.37-.814 1.087-1.292 2.215-1.292 1.655 0 2.577.978 2.577 2.728v4.771h-1.175v-4.484c0-1.327-.561-1.955-1.737-1.955-1.175 0-1.934.786-1.934 2.078v4.361zm14.314-1.107v1.107h-5.988v-9.864h1.231v8.757zm3.87 1.237c-1.429 0-2.489-.848-2.489-2.194 0-1.32.971-2.079 2.687-2.181l2.126-.13v-.67c0-.909-.568-1.408-1.668-1.408-.882 0-1.497.335-1.661.916h-1.19c.157-1.183 1.32-1.962 2.892-1.962 1.798 0 2.803.923 2.803 2.454v5.045h-1.122v-1.087h-.109c-.478.786-1.285 1.217-2.269 1.217zm.218-1.032c1.21 0 2.106-.793 2.106-1.846v-.677l-1.983.13c-1.121.075-1.613.465-1.613 1.203 0 .752.636 1.19 1.49 1.19zm9.119 1.032c-1.025 0-1.9-.485-2.365-1.306h-.109v1.176h-1.121v-10.295h1.176v4.088h.109c.403-.793 1.299-1.292 2.31-1.292 1.874 0 3.09 1.497 3.09 3.814 0 2.304-1.223 3.815-3.09 3.815zm-.273-6.569c-1.34 0-2.174 1.052-2.174 2.754 0 1.703.834 2.755 2.174 2.755 1.347 0 2.147-1.032 2.147-2.755 0-1.722-.8-2.754-2.147-2.754zm10.09 4.532h1.176c-.342 1.258-1.491 2.037-3.104 2.037-2.044 0-3.322-1.477-3.322-3.808 0-2.317 1.299-3.821 3.322-3.821 1.989 0 3.199 1.415 3.199 3.705v.451h-5.297v.055c.061 1.456.875 2.379 2.125 2.379.951 0 1.593-.349 1.901-.998zm-1.942-4.553c-1.175 0-1.996.861-2.084 2.167h4.06c-.027-1.306-.807-2.167-1.976-2.167zm5.127 6.46v-10.295h1.176v10.295z" fill="#656a76"/><path clip-rule="evenodd" d="m399.125 102.247c.538-.326 1.212-.326 1.75 0l3.937 2.387c.505.305.813.853.813 1.443v3.846c0 .59-.308 1.137-.813 1.443l-3.937 2.387c-.538.325-1.212.325-1.75 0l-3.937-2.387c-.505-.306-.813-.853-.813-1.443v-3.846c0-.59.308-1.138.813-1.443zm1.167.962c-.18-.108-.404-.108-.584 0l-3.937 2.387c-.168.102-.271.284-.271.481v3.846c0 .197.103.379.271.481l3.937 2.387c.18.108.404.108.584 0l3.937-2.387c.168-.102.271-.284.271-.481v-3.846c0-.197-.103-.379-.271-.481z" fill="#656a76" fill-rule="evenodd"/><path d="m412.488 113h-1.23v-9.864h1.23zm8.463-5.113h-1.189c-.192-.732-.841-1.326-1.901-1.326-1.326 0-2.16 1.059-2.16 2.727 0 1.702.848 2.782 2.16 2.782.992 0 1.682-.458 1.901-1.292h1.189c-.212 1.354-1.312 2.352-3.083 2.352-2.064 0-3.384-1.497-3.384-3.842 0-2.297 1.313-3.787 3.377-3.787 1.791 0 2.885 1.073 3.09 2.386zm4.765 5.243c-2.099 0-3.398-1.449-3.398-3.815 0-2.372 1.299-3.814 3.398-3.814 2.098 0 3.397 1.442 3.397 3.814 0 2.366-1.299 3.815-3.397 3.815zm0-1.06c1.394 0 2.18-1.011 2.18-2.755 0-1.75-.786-2.754-2.18-2.754-1.395 0-2.181 1.004-2.181 2.754 0 1.744.786 2.755 2.181 2.755zm5.243.93v-7.369h1.121v1.162h.109c.37-.814 1.087-1.292 2.215-1.292 1.655 0 2.577.978 2.577 2.728v4.771h-1.175v-4.484c0-1.327-.561-1.955-1.737-1.955-1.175 0-1.934.786-1.934 2.078v4.361zm14.314-1.107v1.107h-5.988v-9.864h1.231v8.757zm3.87 1.237c-1.429 0-2.489-.848-2.489-2.194 0-1.32.971-2.079 2.687-2.181l2.126-.13v-.67c0-.909-.568-1.408-1.668-1.408-.882 0-1.497.335-1.661.916h-1.19c.157-1.183 1.32-1.962 2.892-1.962 1.798 0 2.803.923 2.803 2.454v5.045h-1.122v-1.087h-.109c-.478.786-1.285 1.217-2.269 1.217zm.218-1.032c1.21 0 2.106-.793 2.106-1.846v-.677l-1.983.13c-1.121.075-1.613.465-1.613 1.203 0 .752.636 1.19 1.49 1.19zm9.119 1.032c-1.025 0-1.9-.485-2.365-1.306h-.109v1.176h-1.121v-10.295h1.176v4.088h.109c.403-.793 1.299-1.292 2.31-1.292 1.874 0 3.09 1.497 3.09 3.814 0 2.304-1.223 3.815-3.09 3.815zm-.273-6.569c-1.34 0-2.174 1.052-2.174 2.754 0 1.703.834 2.755 2.174 2.755 1.347 0 2.147-1.032 2.147-2.755 0-1.722-.8-2.754-2.147-2.754zm10.09 4.532h1.176c-.342 1.258-1.491 2.037-3.104 2.037-2.044 0-3.322-1.477-3.322-3.808 0-2.317 1.299-3.821 3.322-3.821 1.989 0 3.199 1.415 3.199 3.705v.451h-5.297v.055c.061 1.456.875 2.379 2.125 2.379.951 0 1.593-.349 1.901-.998zm-1.942-4.553c-1.175 0-1.996.861-2.084 2.167h4.06c-.027-1.306-.807-2.167-1.976-2.167zm5.127 6.46v-10.295h1.176v10.295z" fill="#656a76"/></g><rect fill="#fafafa" height="36" rx="5" width="36" x="752" y="74"/><g fill="#0c0c0e"><path d="m763 90c-1.105 0-2 .8954-2 2s.895 2 2 2 2-.8954 2-2-.895-2-2-2z"/><path d="m770 90c-1.105 0-2 .8954-2 2s.895 2 2 2 2-.8954 2-2-.895-2-2-2z"/><path d="m777 90c-1.105 0-2 .8954-2 2s.895 2 2 2 2-.8954 2-2-.895-2-2-2z"/></g><rect height="35" rx="4.5" stroke="#3b3d45" stroke-opacity=".4" width="35" x="752.5" y="74.5"/></g><path d="m142 126h16l-6.88-6.555c-.622-.593-1.618-.593-2.24 0z" fill="#0c0c0e"/><g filter="url(#b)"><rect fill="#0c0c0e" height="36" rx="5" width="192" x="130" y="126"/><path d="m147.052 149v-8.757h3.178v-1.107h-7.587v1.107h3.178v8.757zm6.59.13c2.098 0 3.397-1.449 3.397-3.815 0-2.372-1.299-3.814-3.397-3.814-2.099 0-3.398 1.442-3.398 3.814 0 2.366 1.299 3.815 3.398 3.815zm0-1.06c-1.395 0-2.181-1.011-2.181-2.755 0-1.75.786-2.754 2.181-2.754 1.394 0 2.18 1.004 2.18 2.754 0 1.744-.786 2.755-2.18 2.755zm8.271 1.06c2.099 0 3.398-1.449 3.398-3.815 0-2.372-1.299-3.814-3.398-3.814s-3.397 1.442-3.397 3.814c0 2.366 1.298 3.815 3.397 3.815zm0-1.06c-1.394 0-2.181-1.011-2.181-2.755 0-1.75.787-2.754 2.181-2.754 1.395 0 2.181 1.004 2.181 2.754 0 1.744-.786 2.755-2.181 2.755zm5.312.93h1.175v-10.295h-1.175zm3.951-9.276v1.907h-1.19v.984h1.19v4.471c0 1.408.608 1.969 2.126 1.969.232 0 .458-.028.69-.069v-.991c-.219.021-.335.027-.547.027-.765 0-1.093-.369-1.093-1.237v-4.17h1.64v-.984h-1.64v-1.907zm5.209.485c.451 0 .82-.369.82-.82s-.369-.821-.82-.821-.821.37-.821.821.37.82.821.82zm-.588 8.791h1.176v-7.369h-1.176zm7.007-7.499c-1.005 0-1.887.513-2.359 1.36h-.109v-1.23h-1.121v9.83h1.176v-3.568h.109c.403.779 1.251 1.237 2.304 1.237 1.873 0 3.096-1.511 3.096-3.815 0-2.317-1.216-3.814-3.096-3.814zm-.281 6.569c-1.326 0-2.167-1.066-2.167-2.755 0-1.695.841-2.754 2.174-2.754 1.347 0 2.154 1.032 2.154 2.754 0 1.723-.807 2.755-2.161 2.755zm15.272-4.183c-.205-1.313-1.299-2.386-3.09-2.386-2.064 0-3.377 1.49-3.377 3.787 0 2.345 1.319 3.842 3.384 3.842 1.77 0 2.871-.998 3.083-2.352h-1.19c-.218.834-.909 1.292-1.9 1.292-1.312 0-2.16-1.08-2.16-2.782 0-1.668.834-2.727 2.16-2.727 1.06 0 1.709.594 1.9 1.326zm4.765 5.243c2.098 0 3.397-1.449 3.397-3.815 0-2.372-1.299-3.814-3.397-3.814-2.099 0-3.398 1.442-3.398 3.814 0 2.366 1.299 3.815 3.398 3.815zm0-1.06c-1.395 0-2.181-1.011-2.181-2.755 0-1.75.786-2.754 2.181-2.754 1.394 0 2.18 1.004 2.18 2.754 0 1.744-.786 2.755-2.18 2.755zm5.243.93h1.176v-4.361c0-1.292.758-2.078 1.934-2.078s1.736.628 1.736 1.955v4.484h1.176v-4.771c0-1.75-.923-2.728-2.577-2.728-1.128 0-1.846.478-2.215 1.292h-.109v-1.162h-1.121zm8.668-9.276v1.907h-1.19v.984h1.19v4.471c0 1.408.608 1.969 2.126 1.969.232 0 .458-.028.69-.069v-.991c-.219.021-.335.027-.547.027-.765 0-1.094-.369-1.094-1.237v-4.17h1.641v-.984h-1.641v-1.907zm9.365 7.369c-.308.649-.95.998-1.9.998-1.251 0-2.065-.923-2.126-2.379v-.055h5.297v-.451c0-2.29-1.21-3.705-3.199-3.705-2.023 0-3.322 1.504-3.322 3.821 0 2.331 1.278 3.808 3.322 3.808 1.613 0 2.762-.779 3.104-2.037zm-1.941-4.553c1.168 0 1.948.861 1.975 2.167h-4.06c.088-1.306.909-2.167 2.085-2.167zm5.058 6.46h1.176v-4.361c0-1.292.759-2.078 1.934-2.078 1.176 0 1.737.628 1.737 1.955v4.484h1.176v-4.771c0-1.75-.923-2.728-2.578-2.728-1.127 0-1.845.478-2.214 1.292h-.11v-1.162h-1.121zm8.668-9.276v1.907h-1.189v.984h1.189v4.471c0 1.408.608 1.969 2.126 1.969.232 0 .458-.028.691-.069v-.991c-.219.021-.335.027-.547.027-.766 0-1.094-.369-1.094-1.237v-4.17h1.641v-.984h-1.641v-1.907z" fill="#fff"/></g><g filter="url(#c)"><rect fill="#0c0c0e" height="36" rx="5" width="192" x="289" y="16"/><path d="m306.052 39v-8.7568h3.178v-1.1075h-7.587v1.1075h3.178v8.7568zm6.59.1299c2.098 0 3.397-1.4492 3.397-3.8145 0-2.372-1.299-3.8144-3.397-3.8144-2.099 0-3.398 1.4424-3.398 3.8144 0 2.3653 1.299 3.8145 3.398 3.8145zm0-1.0596c-1.395 0-2.181-1.0117-2.181-2.7549 0-1.75.786-2.7549 2.181-2.7549 1.394 0 2.18 1.0049 2.18 2.7549 0 1.7432-.786 2.7549-2.18 2.7549zm8.271 1.0596c2.099 0 3.398-1.4492 3.398-3.8145 0-2.372-1.299-3.8144-3.398-3.8144s-3.397 1.4424-3.397 3.8144c0 2.3653 1.298 3.8145 3.397 3.8145zm0-1.0596c-1.394 0-2.181-1.0117-2.181-2.7549 0-1.75.787-2.7549 2.181-2.7549 1.395 0 2.181 1.0049 2.181 2.7549 0 1.7432-.786 2.7549-2.181 2.7549zm5.312.9297h1.175v-10.2949h-1.175zm3.951-9.2764v1.9073h-1.19v.9843h1.19v4.4707c0 1.4082.608 1.9688 2.126 1.9688.232 0 .458-.0274.69-.0684v-.9912c-.219.0205-.335.0274-.547.0274-.765 0-1.093-.3692-1.093-1.2373v-4.17h1.64v-.9843h-1.64v-1.9073zm5.209.4854c.451 0 .82-.3692.82-.8203 0-.4512-.369-.8203-.82-.8203s-.821.3691-.821.8203c0 .4511.37.8203.821.8203zm-.588 8.791h1.176v-7.3691h-1.176zm7.007-7.499c-1.005 0-1.887.5127-2.359 1.3603h-.109v-1.2304h-1.121v9.83h1.176v-3.5683h.109c.403.7793 1.251 1.2373 2.304 1.2373 1.873 0 3.096-1.5108 3.096-3.8145 0-2.3174-1.216-3.8144-3.096-3.8144zm-.281 6.5693c-1.326 0-2.167-1.0664-2.167-2.7549 0-1.6953.841-2.7549 2.174-2.7549 1.347 0 2.154 1.0323 2.154 2.7549 0 1.7227-.807 2.7549-2.161 2.7549zm15.272-4.1836c-.205-1.3125-1.299-2.3857-3.09-2.3857-2.064 0-3.377 1.4902-3.377 3.7871 0 2.3447 1.319 3.8418 3.384 3.8418 1.77 0 2.871-.9981 3.083-2.3516h-1.19c-.218.834-.909 1.292-1.9 1.292-1.312 0-2.16-1.0801-2.16-2.7822 0-1.668.834-2.7276 2.16-2.7276 1.06 0 1.709.5948 1.9 1.3262zm4.765 5.2432c2.098 0 3.397-1.4492 3.397-3.8145 0-2.372-1.299-3.8144-3.397-3.8144-2.099 0-3.398 1.4424-3.398 3.8144 0 2.3653 1.299 3.8145 3.398 3.8145zm0-1.0596c-1.395 0-2.181-1.0117-2.181-2.7549 0-1.75.786-2.7549 2.181-2.7549 1.394 0 2.18 1.0049 2.18 2.7549 0 1.7432-.786 2.7549-2.18 2.7549zm5.243.9297h1.176v-4.3613c0-1.292.758-2.0782 1.934-2.0782s1.736.629 1.736 1.9551v4.4844h1.176v-4.7715c0-1.75-.923-2.7275-2.577-2.7275-1.128 0-1.846.4785-2.215 1.292h-.109v-1.1621h-1.121zm8.668-9.2764v1.9073h-1.19v.9843h1.19v4.4707c0 1.4082.608 1.9688 2.126 1.9688.232 0 .458-.0274.69-.0684v-.9912c-.219.0205-.335.0274-.547.0274-.765 0-1.094-.3692-1.094-1.2373v-4.17h1.641v-.9843h-1.641v-1.9073zm9.365 7.3692c-.308.6494-.95.998-1.9.998-1.251 0-2.065-.9228-2.126-2.3789v-.0547h5.297v-.4511c0-2.2901-1.21-3.7051-3.199-3.7051-2.023 0-3.322 1.5039-3.322 3.8213 0 2.331 1.278 3.8076 3.322 3.8076 1.613 0 2.762-.7793 3.104-2.0371zm-1.941-4.5528c1.168 0 1.948.8614 1.975 2.167h-4.06c.088-1.3056.909-2.167 2.085-2.167zm5.058 6.46h1.176v-4.3613c0-1.292.759-2.0782 1.934-2.0782 1.176 0 1.737.629 1.737 1.9551v4.4844h1.176v-4.7715c0-1.75-.923-2.7275-2.578-2.7275-1.127 0-1.845.4785-2.214 1.292h-.11v-1.1621h-1.121zm8.668-9.2764v1.9073h-1.189v.9843h1.189v4.4707c0 1.4082.608 1.9688 2.126 1.9688.232 0 .458-.0274.691-.0684v-.9912c-.219.0205-.335.0274-.547.0274-.766 0-1.094-.3692-1.094-1.2373v-4.17h1.641v-.9843h-1.641v-1.9073z" fill="#fff"/></g><path d="m301 52h16l-6.88 6.5554c-.622.5928-1.618.5928-2.24 0z" fill="#0c0c0e"/></svg>