<svg width="806" height="92" viewBox="0 0 806 92" fill="none" xmlns="http://www.w3.org/2000/svg">
<g filter="url(#filter0_ddd_642_85837)">
<rect x="6" y="1.78784" width="794" height="76" rx="6" fill="white"/>
<rect x="18.5" y="14.2878" width="725" height="51" rx="5.5" fill="#FFD8D8"/>
<path d="M318.949 44.6003C318.219 44.8464 317.523 44.9695 316.863 44.9695C316.207 44.9695 315.623 44.8191 315.111 44.5183C314.604 44.2136 314.207 43.8035 313.922 43.2878C313.637 42.7683 313.494 42.1785 313.494 41.5183C313.494 40.5261 313.816 39.7019 314.461 39.0457C315.109 38.3894 315.891 38.0613 316.805 38.0613C317.48 38.0613 318.195 38.1882 318.949 38.4421V39.491C318.188 39.1433 317.506 38.9695 316.904 38.9695C316.506 38.9695 316.131 39.0691 315.779 39.2683C315.428 39.4636 315.156 39.7703 314.965 40.1882C314.773 40.6062 314.678 41.0359 314.678 41.4773C314.678 42.0671 314.861 42.6296 315.229 43.1648C315.6 43.7 316.18 43.9675 316.969 43.9675C317.207 43.9675 317.441 43.9519 317.672 43.9207C317.902 43.8855 318.328 43.7625 318.949 43.5515V44.6003ZM323.344 44.9695C322.406 44.9695 321.656 44.6433 321.094 43.991C320.531 43.3347 320.25 42.5085 320.25 41.5125C320.25 40.5164 320.531 39.6921 321.094 39.0398C321.656 38.3875 322.406 38.0613 323.344 38.0613C324.277 38.0613 325.025 38.3875 325.588 39.0398C326.15 39.6921 326.432 40.5164 326.432 41.5125C326.432 42.5085 326.15 43.3347 325.588 43.991C325.025 44.6433 324.277 44.9695 323.344 44.9695ZM323.344 44.0613C323.926 44.0613 324.389 43.8347 324.732 43.3816C325.076 42.9285 325.248 42.3054 325.248 41.5125C325.248 40.7234 325.076 40.1023 324.732 39.6492C324.389 39.196 323.926 38.9695 323.344 38.9695C322.758 38.9695 322.293 39.196 321.949 39.6492C321.605 40.1023 321.434 40.7234 321.434 41.5125C321.434 42.3054 321.605 42.9285 321.949 43.3816C322.293 43.8347 322.758 44.0613 323.344 44.0613ZM327.855 44.7878V38.2429H328.945V39.6726C329.258 39.1687 329.635 38.7742 330.076 38.489C330.518 38.2039 330.959 38.0613 331.4 38.0613C331.787 38.0613 332.139 38.1648 332.455 38.3718C332.771 38.575 332.992 38.8425 333.117 39.1746C333.246 39.5066 333.311 40.1589 333.311 41.1316V44.7878H332.221V40.9968C332.221 40.3679 332.189 39.9539 332.127 39.7546C332.068 39.5515 331.957 39.3855 331.793 39.2566C331.633 39.1277 331.457 39.0632 331.266 39.0632C330.883 39.0632 330.471 39.2449 330.029 39.6082C329.592 39.9714 329.23 40.4265 328.945 40.9734V44.7878H327.855ZM340.535 44.5242C340.023 44.739 339.652 44.866 339.422 44.905C339.191 44.948 338.969 44.9695 338.754 44.9695C338.297 44.9695 337.879 44.8816 337.5 44.7058C337.121 44.53 336.834 44.2703 336.639 43.9265C336.447 43.5828 336.352 43.0515 336.352 42.3328V39.696H334.717V38.7878H336.352V36.1511H337.441V38.7878H340.354V39.696H337.441V42.3152C337.441 42.8425 337.504 43.2156 337.629 43.4343C337.754 43.6492 337.92 43.8074 338.127 43.9089C338.338 44.0105 338.586 44.0613 338.871 44.0613C339.398 44.0613 339.953 43.8953 340.535 43.5632V44.5242ZM347.713 44.3542C346.842 44.7683 346.018 44.9753 345.24 44.9753C344.65 44.9753 344.123 44.8289 343.658 44.5359C343.193 44.2429 342.82 43.825 342.539 43.282C342.262 42.7351 342.123 42.1511 342.123 41.53C342.123 40.9324 342.256 40.3582 342.521 39.8074C342.787 39.2566 343.158 38.8289 343.635 38.5242C344.111 38.2156 344.643 38.0613 345.229 38.0613C346.006 38.0613 346.629 38.3386 347.098 38.8933C347.57 39.448 347.807 40.3035 347.807 41.4597V41.6941H343.295C343.295 42.1472 343.389 42.5613 343.576 42.9363C343.768 43.3113 344.018 43.5925 344.326 43.78C344.635 43.9675 344.986 44.0613 345.381 44.0613C346.084 44.0613 346.861 43.8269 347.713 43.3582V44.3542ZM343.359 40.8796H346.623V40.7214C346.623 40.1863 346.492 39.7605 346.23 39.4441C345.969 39.1277 345.619 38.9695 345.182 38.9695C344.74 38.9695 344.357 39.1316 344.033 39.4558C343.713 39.7761 343.488 40.2507 343.359 40.8796ZM349.477 44.7878V38.2429H350.566V39.6726C350.879 39.1687 351.256 38.7742 351.697 38.489C352.139 38.2039 352.58 38.0613 353.021 38.0613C353.408 38.0613 353.76 38.1648 354.076 38.3718C354.393 38.575 354.613 38.8425 354.738 39.1746C354.867 39.5066 354.932 40.1589 354.932 41.1316V44.7878H353.842V40.9968C353.842 40.3679 353.811 39.9539 353.748 39.7546C353.689 39.5515 353.578 39.3855 353.414 39.2566C353.254 39.1277 353.078 39.0632 352.887 39.0632C352.504 39.0632 352.092 39.2449 351.65 39.6082C351.213 39.9714 350.852 40.4265 350.566 40.9734V44.7878H349.477ZM362.156 44.5242C361.645 44.739 361.273 44.866 361.043 44.905C360.812 44.948 360.59 44.9695 360.375 44.9695C359.918 44.9695 359.5 44.8816 359.121 44.7058C358.742 44.53 358.455 44.2703 358.26 43.9265C358.068 43.5828 357.973 43.0515 357.973 42.3328V39.696H356.338V38.7878H357.973V36.1511H359.062V38.7878H361.975V39.696H359.062V42.3152C359.062 42.8425 359.125 43.2156 359.25 43.4343C359.375 43.6492 359.541 43.8074 359.748 43.9089C359.959 44.0105 360.207 44.0613 360.492 44.0613C361.02 44.0613 361.574 43.8953 362.156 43.5632V44.5242ZM372.105 39.7136C372.441 39.1667 372.842 38.7546 373.307 38.4773C373.771 38.2 374.199 38.0613 374.59 38.0613C375.137 38.0613 375.629 38.2976 376.066 38.7703C376.504 39.2429 376.723 39.9597 376.723 40.9207C376.723 41.6785 376.576 42.3562 376.283 42.9539C375.994 43.5476 375.607 44.0183 375.123 44.366C374.639 44.7097 374.039 44.8816 373.324 44.8816C373.121 44.8816 372.809 44.8601 372.387 44.8171C372.324 44.8093 372.23 44.7996 372.105 44.7878V47.3308H371.016V38.2429H372.105V39.7136ZM372.105 41.0085V43.8152C372.5 43.9167 372.863 43.9675 373.195 43.9675C373.855 43.9675 374.41 43.7097 374.859 43.1941C375.312 42.6746 375.539 41.9656 375.539 41.0671C375.539 40.4148 375.416 39.9246 375.17 39.5964C374.924 39.2683 374.645 39.1042 374.332 39.1042C373.992 39.1042 373.617 39.2761 373.207 39.6199C372.801 39.9636 372.434 40.4265 372.105 41.0085ZM380.062 44.7878V36.2449H378.105V35.3308H381.152V43.8796H383.197V44.7878H380.062ZM389.812 43.3171C389.48 43.864 389.08 44.2761 388.611 44.5535C388.146 44.8308 387.719 44.9695 387.328 44.9695C386.781 44.9695 386.289 44.7332 385.852 44.2605C385.418 43.7878 385.201 43.071 385.201 42.1101C385.201 41.3523 385.346 40.6765 385.635 40.0828C385.924 39.4851 386.311 39.0144 386.795 38.6707C387.279 38.323 387.879 38.1492 388.594 38.1492C388.801 38.1492 389.113 38.1707 389.531 38.2136C389.594 38.2214 389.688 38.2312 389.812 38.2429H390.908V42.866C390.908 43.655 390.99 44.2957 391.154 44.7878H390.018C389.932 44.4285 389.863 43.9382 389.812 43.3171ZM389.812 42.0222V39.2156C389.426 39.114 389.066 39.0632 388.734 39.0632C388.062 39.0632 387.502 39.323 387.053 39.8425C386.607 40.3621 386.385 41.0691 386.385 41.9636C386.385 42.6121 386.506 43.1023 386.748 43.4343C386.994 43.7625 387.273 43.9265 387.586 43.9265C387.926 43.9265 388.301 43.7546 388.711 43.4109C389.121 43.0671 389.488 42.6042 389.812 42.0222ZM398.227 44.6003C397.496 44.8464 396.801 44.9695 396.141 44.9695C395.484 44.9695 394.9 44.8191 394.389 44.5183C393.881 44.2136 393.484 43.8035 393.199 43.2878C392.914 42.7683 392.771 42.1785 392.771 41.5183C392.771 40.5261 393.094 39.7019 393.738 39.0457C394.387 38.3894 395.168 38.0613 396.082 38.0613C396.758 38.0613 397.473 38.1882 398.227 38.4421V39.491C397.465 39.1433 396.783 38.9695 396.182 38.9695C395.783 38.9695 395.408 39.0691 395.057 39.2683C394.705 39.4636 394.434 39.7703 394.242 40.1882C394.051 40.6062 393.955 41.0359 393.955 41.4773C393.955 42.0671 394.139 42.6296 394.506 43.1648C394.877 43.7 395.457 43.9675 396.246 43.9675C396.484 43.9675 396.719 43.9519 396.949 43.9207C397.18 43.8855 397.605 43.7625 398.227 43.5515V44.6003ZM405.369 44.3542C404.498 44.7683 403.674 44.9753 402.896 44.9753C402.307 44.9753 401.779 44.8289 401.314 44.5359C400.85 44.2429 400.477 43.825 400.195 43.282C399.918 42.7351 399.779 42.1511 399.779 41.53C399.779 40.9324 399.912 40.3582 400.178 39.8074C400.443 39.2566 400.814 38.8289 401.291 38.5242C401.768 38.2156 402.299 38.0613 402.885 38.0613C403.662 38.0613 404.285 38.3386 404.754 38.8933C405.227 39.448 405.463 40.3035 405.463 41.4597V41.6941H400.951C400.951 42.1472 401.045 42.5613 401.232 42.9363C401.424 43.3113 401.674 43.5925 401.982 43.78C402.291 43.9675 402.643 44.0613 403.037 44.0613C403.74 44.0613 404.518 43.8269 405.369 43.3582V44.3542ZM401.016 40.8796H404.279V40.7214C404.279 40.1863 404.148 39.7605 403.887 39.4441C403.625 39.1277 403.275 38.9695 402.838 38.9695C402.396 38.9695 402.014 39.1316 401.689 39.4558C401.369 39.7761 401.145 40.2507 401.016 40.8796ZM407.133 44.7878V35.3308H408.223V39.6726C408.535 39.1687 408.912 38.7742 409.354 38.489C409.795 38.2039 410.236 38.0613 410.678 38.0613C411.049 38.0613 411.387 38.157 411.691 38.3484C412 38.5359 412.215 38.7644 412.336 39.0339C412.434 39.241 412.5 39.4617 412.535 39.696C412.57 39.9265 412.588 40.405 412.588 41.1316V44.7878H411.498V40.9968C411.498 40.3679 411.467 39.9539 411.404 39.7546C411.346 39.5515 411.234 39.3855 411.07 39.2566C410.91 39.1277 410.734 39.0632 410.543 39.0632C410.16 39.0632 409.748 39.2449 409.307 39.6082C408.869 39.9714 408.508 40.4265 408.223 40.9734V44.7878H407.133ZM417.035 44.9695C416.098 44.9695 415.348 44.6433 414.785 43.991C414.223 43.3347 413.941 42.5085 413.941 41.5125C413.941 40.5164 414.223 39.6921 414.785 39.0398C415.348 38.3875 416.098 38.0613 417.035 38.0613C417.969 38.0613 418.717 38.3875 419.279 39.0398C419.842 39.6921 420.123 40.5164 420.123 41.5125C420.123 42.5085 419.842 43.3347 419.279 43.991C418.717 44.6433 417.969 44.9695 417.035 44.9695ZM417.035 44.0613C417.617 44.0613 418.08 43.8347 418.424 43.3816C418.768 42.9285 418.939 42.3054 418.939 41.5125C418.939 40.7234 418.768 40.1023 418.424 39.6492C418.08 39.196 417.617 38.9695 417.035 38.9695C416.449 38.9695 415.984 39.196 415.641 39.6492C415.297 40.1023 415.125 40.7234 415.125 41.5125C415.125 42.3054 415.297 42.9285 415.641 43.3816C415.984 43.8347 416.449 44.0613 417.035 44.0613ZM423.305 44.7878V36.2449H421.348V35.3308H424.395V43.8796H426.439V44.7878H423.305ZM433.125 43.3171C432.793 43.864 432.393 44.2761 431.924 44.5535C431.459 44.8308 431.031 44.9695 430.641 44.9695C430.094 44.9695 429.602 44.7332 429.164 44.2605C428.73 43.7878 428.514 43.071 428.514 42.1101C428.514 41.3523 428.658 40.6765 428.947 40.0828C429.236 39.4851 429.623 39.0144 430.107 38.6707C430.592 38.323 431.191 38.1492 431.906 38.1492C432.113 38.1492 432.426 38.1707 432.844 38.2136C432.906 38.2214 433 38.2312 433.125 38.2429V35.3308H434.221V44.7878H433.125V43.3171ZM433.125 42.0222V39.2156C432.738 39.114 432.379 39.0632 432.047 39.0632C431.375 39.0632 430.814 39.323 430.365 39.8425C429.92 40.3621 429.697 41.0691 429.697 41.9636C429.697 42.6121 429.818 43.1023 430.061 43.4343C430.307 43.7625 430.586 43.9265 430.898 43.9265C431.238 43.9265 431.613 43.7546 432.023 43.4109C432.434 43.0671 432.801 42.6042 433.125 42.0222ZM441.404 44.3542C440.533 44.7683 439.709 44.9753 438.932 44.9753C438.342 44.9753 437.814 44.8289 437.35 44.5359C436.885 44.2429 436.512 43.825 436.23 43.282C435.953 42.7351 435.814 42.1511 435.814 41.53C435.814 40.9324 435.947 40.3582 436.213 39.8074C436.479 39.2566 436.85 38.8289 437.326 38.5242C437.803 38.2156 438.334 38.0613 438.92 38.0613C439.697 38.0613 440.32 38.3386 440.789 38.8933C441.262 39.448 441.498 40.3035 441.498 41.4597V41.6941H436.986C436.986 42.1472 437.08 42.5613 437.268 42.9363C437.459 43.3113 437.709 43.5925 438.018 43.78C438.326 43.9675 438.678 44.0613 439.072 44.0613C439.775 44.0613 440.553 43.8269 441.404 43.3582V44.3542ZM437.051 40.8796H440.314V40.7214C440.314 40.1863 440.184 39.7605 439.922 39.4441C439.66 39.1277 439.311 38.9695 438.873 38.9695C438.432 38.9695 438.049 39.1316 437.725 39.4558C437.404 39.7761 437.18 40.2507 437.051 40.8796ZM443.725 44.7878V38.2429H444.814V39.6726C445.154 39.1335 445.543 38.7312 445.98 38.4656C446.422 38.196 446.912 38.0613 447.451 38.0613C447.846 38.0613 448.24 38.1218 448.635 38.2429V40.6042H447.586V39.1101C447.402 39.0789 447.258 39.0632 447.152 39.0632C446.746 39.0632 446.348 39.2234 445.957 39.5437C445.566 39.864 445.186 40.3445 444.814 40.9851V44.7878H443.725Z" fill="#C70000"/>
<rect x="18.5" y="14.2878" width="725" height="51" rx="5.5" stroke="#C70000" stroke-dasharray="2 2"/>
<rect x="752" y="21.7878" width="36" height="36" rx="5" fill="#FAFAFA"/>
<path d="M763 37.7878C761.895 37.7878 761 38.6833 761 39.7878C761 40.8924 761.895 41.7878 763 41.7878C764.105 41.7878 765 40.8924 765 39.7878C765 38.6833 764.105 37.7878 763 37.7878Z" fill="#0C0C0E"/>
<path d="M770 37.7878C768.895 37.7878 768 38.6833 768 39.7878C768 40.8924 768.895 41.7878 770 41.7878C771.105 41.7878 772 40.8924 772 39.7878C772 38.6833 771.105 37.7878 770 37.7878Z" fill="#0C0C0E"/>
<path d="M777 37.7878C775.895 37.7878 775 38.6833 775 39.7878C775 40.8924 775.895 41.7878 777 41.7878C778.105 41.7878 779 40.8924 779 39.7878C779 38.6833 778.105 37.7878 777 37.7878Z" fill="#0C0C0E"/>
<rect x="752.5" y="22.2878" width="35" height="35" rx="4.5" stroke="#3B3D45" stroke-opacity="0.4"/>
<rect x="752.25" y="14.0378" width="35.5" height="51.5" stroke="#A737FF" stroke-width="0.5"/>
</g>
<g opacity="0.9">
<rect x="6.5" y="66.2878" width="793" height="11" fill="#F9F2FF"/>
<path d="M398.764 74.0452L400.144 74.0452L400.144 69.0881L398.491 69.8835L398.491 69.031L400.135 68.2488L401.022 68.2488L401.022 74.0452L402.385 74.0452L402.385 74.7878L398.764 74.7878L398.764 74.0452ZM404.639 74.0408L407.654 74.0408L407.654 74.7878L403.668 74.7878L403.668 74.0408C404.216 73.4636 404.695 72.9539 405.105 72.5115C405.515 72.0691 405.798 71.7571 405.953 71.5754C406.246 71.218 406.444 70.9294 406.546 70.7097C406.649 70.4871 406.7 70.26 406.7 70.0286C406.7 69.6624 406.592 69.3752 406.375 69.1672C406.161 68.9592 405.867 68.8552 405.492 68.8552C405.225 68.8552 404.945 68.9036 404.652 69.0002C404.359 69.0969 404.049 69.2434 403.721 69.4397L403.721 68.5432C404.022 68.3997 404.318 68.2913 404.608 68.218C404.901 68.1448 405.19 68.1082 405.474 68.1082C406.116 68.1082 406.631 68.2795 407.021 68.6223C407.414 68.9622 407.61 69.4089 407.61 69.9626C407.61 70.2439 407.544 70.5251 407.412 70.8064C407.283 71.0876 407.072 71.3982 406.779 71.738C406.615 71.9285 406.376 72.1921 406.063 72.5291C405.752 72.866 405.278 73.3699 404.639 74.0408Z" fill="#7B00DB"/>
<rect x="6.5" y="66.2878" width="793" height="11" stroke="#EAD2FE"/>
</g>
<g opacity="0.9">
<rect x="6.5" y="2.28784" width="793" height="11" fill="#F9F2FF"/>
<path d="M398.764 10.0452L400.144 10.0452L400.144 5.08813L398.491 5.88354L398.491 5.03101L400.135 4.24878L401.022 4.24878L401.022 10.0452L402.385 10.0452L402.385 10.7878L398.764 10.7878L398.764 10.0452ZM404.639 10.0408L407.654 10.0408L407.654 10.7878L403.668 10.7878L403.668 10.0408C404.216 9.46362 404.695 8.95386 405.105 8.51147C405.515 8.06909 405.798 7.75708 405.953 7.57544C406.246 7.21802 406.444 6.92944 406.546 6.70972C406.649 6.48706 406.7 6.26001 406.7 6.02856C406.7 5.66235 406.592 5.37524 406.375 5.16724C406.161 4.95923 405.867 4.85522 405.492 4.85522C405.225 4.85522 404.945 4.90356 404.652 5.00024C404.359 5.09692 404.049 5.24341 403.721 5.4397L403.721 4.54321C404.022 4.39966 404.318 4.29126 404.608 4.21802C404.901 4.14478 405.19 4.10815 405.474 4.10815C406.116 4.10815 406.631 4.27954 407.021 4.62231C407.414 4.96216 407.61 5.40894 407.61 5.96265C407.61 6.2439 407.544 6.52515 407.412 6.8064C407.283 7.08765 407.072 7.39819 406.779 7.73804C406.615 7.92847 406.376 8.19214 406.063 8.52905C405.752 8.86597 405.278 9.36987 404.639 10.0408Z" fill="#7B00DB"/>
<rect x="6.5" y="2.28784" width="793" height="11" stroke="#EAD2FE"/>
</g>
<g opacity="0.9">
<rect x="6.5" y="13.2878" width="11" height="53" fill="#F9F2FF"/>
<path d="M7.76368 42.0452L9.14356 42.0452L9.14356 37.0881L7.49122 37.8835L7.49122 37.031L9.13477 36.2488L10.0225 36.2488L10.0225 42.0452L11.3848 42.0452L11.3848 42.7878L7.76368 42.7878L7.76368 42.0452ZM13.6392 42.0408L16.6538 42.0408L16.6538 42.7878L12.668 42.7878L12.668 42.0408C13.2158 41.4636 13.6948 40.9539 14.105 40.5115C14.5151 40.0691 14.7979 39.7571 14.9531 39.5754C15.2461 39.218 15.4439 38.9294 15.5464 38.7097C15.6489 38.4871 15.7002 38.26 15.7002 38.0286C15.7002 37.6624 15.5918 37.3752 15.375 37.1672C15.1611 36.9592 14.8667 36.8552 14.4917 36.8552C14.2251 36.8552 13.9453 36.9036 13.6523 37.0002C13.3594 37.0969 13.0488 37.2434 12.7207 37.4397L12.7207 36.5432C13.0225 36.3997 13.3184 36.2913 13.6084 36.218C13.9014 36.1448 14.1899 36.1082 14.4741 36.1082C15.1157 36.1082 15.6314 36.2795 16.021 36.6223C16.4136 36.9622 16.6099 37.4089 16.6099 37.9626C16.6099 38.2439 16.544 38.5251 16.4121 38.8064C16.2832 39.0876 16.0723 39.3982 15.7793 39.738C15.6152 39.9285 15.3765 40.1921 15.063 40.5291C14.7524 40.866 14.2778 41.3699 13.6392 42.0408Z" fill="#7B00DB"/>
<rect x="6.5" y="13.2878" width="11" height="53" stroke="#EAD2FE"/>
</g>
<g opacity="0.9">
<rect x="788.5" y="13.2878" width="11" height="53" fill="#F9F2FF"/>
<path d="M789.764 42.0452L791.144 42.0452L791.144 37.0881L789.491 37.8835L789.491 37.031L791.135 36.2488L792.022 36.2488L792.022 42.0452L793.385 42.0452L793.385 42.7878L789.764 42.7878L789.764 42.0452ZM795.639 42.0408L798.654 42.0408L798.654 42.7878L794.668 42.7878L794.668 42.0408C795.216 41.4636 795.695 40.9539 796.105 40.5115C796.515 40.0691 796.798 39.7571 796.953 39.5754C797.246 39.218 797.444 38.9294 797.546 38.7097C797.649 38.4871 797.7 38.26 797.7 38.0286C797.7 37.6624 797.592 37.3752 797.375 37.1672C797.161 36.9592 796.867 36.8552 796.492 36.8552C796.225 36.8552 795.945 36.9036 795.652 37.0002C795.359 37.0969 795.049 37.2434 794.721 37.4397L794.721 36.5432C795.022 36.3997 795.318 36.2913 795.608 36.218C795.901 36.1448 796.19 36.1082 796.474 36.1082C797.116 36.1082 797.631 36.2795 798.021 36.6223C798.414 36.9622 798.61 37.4089 798.61 37.9626C798.61 38.2439 798.544 38.5251 798.412 38.8064C798.283 39.0876 798.072 39.3982 797.779 39.738C797.615 39.9285 797.376 40.1921 797.063 40.5291C796.752 40.866 796.278 41.3699 795.639 42.0408Z" fill="#7B00DB"/>
<rect x="788.5" y="13.2878" width="11" height="53" stroke="#EAD2FE"/>
</g>
<g opacity="0.9">
<rect x="744.5" y="13.2878" width="7" height="53" fill="#F9F2FF"/>
<path d="M747.996 39.6721C747.6 39.6721 747.294 39.7834 747.077 40.0061C746.863 40.2258 746.756 40.5378 746.756 40.9421C746.756 41.3464 746.865 41.6614 747.082 41.887C747.301 42.1096 747.606 42.2209 747.996 42.2209C748.394 42.2209 748.7 42.1111 748.914 41.8914C749.131 41.6687 749.239 41.3523 749.239 40.9421C749.239 40.5408 749.129 40.2288 748.91 40.0061C748.693 39.7834 748.388 39.6721 747.996 39.6721ZM747.222 39.303C746.844 39.2063 746.548 39.0261 746.334 38.7625C746.124 38.4988 746.018 38.1809 746.018 37.8088C746.018 37.2874 746.195 36.8743 746.55 36.5696C746.904 36.262 747.386 36.1082 747.996 36.1082C748.608 36.1082 749.091 36.262 749.446 36.5696C749.8 36.8743 749.978 37.2874 749.978 37.8088C749.978 38.1809 749.871 38.4988 749.657 38.7625C749.446 39.0261 749.151 39.2063 748.773 39.303C749.213 39.3997 749.548 39.5945 749.78 39.8875C750.014 40.1804 750.131 40.5598 750.131 41.0256C750.131 41.6174 749.942 42.0803 749.564 42.4143C749.187 42.7483 748.664 42.9153 747.996 42.9153C747.328 42.9153 746.805 42.7498 746.427 42.4187C746.052 42.0847 745.864 41.6233 745.864 41.0344C745.864 40.5657 745.98 40.1848 746.211 39.8918C746.446 39.5959 746.783 39.3997 747.222 39.303ZM746.901 37.8923C746.901 38.2439 746.995 38.512 747.183 38.6965C747.37 38.8811 747.641 38.9734 747.996 38.9734C748.353 38.9734 748.625 38.8811 748.813 38.6965C749 38.512 749.094 38.2439 749.094 37.8923C749.094 37.5349 749 37.2625 748.813 37.075C748.628 36.8875 748.356 36.7937 747.996 36.7937C747.641 36.7937 747.37 36.8889 747.183 37.0793C746.995 37.2668 746.901 37.5378 746.901 37.8923Z" fill="#7B00DB"/>
<rect x="744.5" y="13.2878" width="7" height="53" stroke="#EAD2FE"/>
</g>
<rect x="5.75" y="1.53784" width="794.5" height="76.5" stroke="#A737FF" stroke-width="0.5"/>
<defs>
<filter id="filter0_ddd_642_85837" x="0" y="0.787842" width="806" height="91" filterUnits="userSpaceOnUse" color-interpolation-filters="sRGB">
<feFlood flood-opacity="0" result="BackgroundImageFix"/>
<feColorMatrix in="SourceAlpha" type="matrix" values="0 0 0 0 0 0 0 0 0 0 0 0 0 0 0 0 0 0 127 0" result="hardAlpha"/>
<feMorphology radius="10" operator="erode" in="SourceAlpha" result="effect1_dropShadow_642_85837"/>
<feOffset dy="8"/>
<feGaussianBlur stdDeviation="8"/>
<feColorMatrix type="matrix" values="0 0 0 0 0.396078 0 0 0 0 0.415686 0 0 0 0 0.462745 0 0 0 0.2 0"/>
<feBlend mode="normal" in2="BackgroundImageFix" result="effect1_dropShadow_642_85837"/>
<feColorMatrix in="SourceAlpha" type="matrix" values="0 0 0 0 0 0 0 0 0 0 0 0 0 0 0 0 0 0 127 0" result="hardAlpha"/>
<feOffset dy="2"/>
<feGaussianBlur stdDeviation="1.5"/>
<feColorMatrix type="matrix" values="0 0 0 0 0.396078 0 0 0 0 0.415686 0 0 0 0 0.462745 0 0 0 0.1 0"/>
<feBlend mode="normal" in2="effect1_dropShadow_642_85837" result="effect2_dropShadow_642_85837"/>
<feColorMatrix in="SourceAlpha" type="matrix" values="0 0 0 0 0 0 0 0 0 0 0 0 0 0 0 0 0 0 127 0" result="hardAlpha"/>
<feMorphology radius="1" operator="dilate" in="SourceAlpha" result="effect3_dropShadow_642_85837"/>
<feOffset/>
<feColorMatrix type="matrix" values="0 0 0 0 0.396078 0 0 0 0 0.415686 0 0 0 0 0.462745 0 0 0 0.15 0"/>
<feBlend mode="normal" in2="effect2_dropShadow_642_85837" result="effect3_dropShadow_642_85837"/>
<feBlend mode="normal" in="SourceGraphic" in2="effect3_dropShadow_642_85837" result="shape"/>
</filter>
</defs>
</svg>
