<svg fill="none" height="92" viewBox="0 0 806 92" width="806" xmlns="http://www.w3.org/2000/svg" xmlns:xlink="http://www.w3.org/1999/xlink"><filter id="a" color-interpolation-filters="sRGB" filterUnits="userSpaceOnUse" height="91" width="806" x="0" y=".787842"><feFlood flood-opacity="0" result="BackgroundImageFix"/><feColorMatrix in="SourceAlpha" result="hardAlpha" type="matrix" values="0 0 0 0 0 0 0 0 0 0 0 0 0 0 0 0 0 0 127 0"/><feMorphology in="SourceAlpha" operator="erode" radius="10" result="effect1_dropShadow_642_85837"/><feOffset dy="8"/><feGaussianBlur stdDeviation="8"/><feColorMatrix type="matrix" values="0 0 0 0 0.396078 0 0 0 0 0.415686 0 0 0 0 0.462745 0 0 0 0.2 0"/><feBlend in2="BackgroundImageFix" mode="normal" result="effect1_dropShadow_642_85837"/><feColorMatrix in="SourceAlpha" result="hardAlpha" type="matrix" values="0 0 0 0 0 0 0 0 0 0 0 0 0 0 0 0 0 0 127 0"/><feOffset dy="2"/><feGaussianBlur stdDeviation="1.5"/><feColorMatrix type="matrix" values="0 0 0 0 0.396078 0 0 0 0 0.415686 0 0 0 0 0.462745 0 0 0 0.1 0"/><feBlend in2="effect1_dropShadow_642_85837" mode="normal" result="effect2_dropShadow_642_85837"/><feColorMatrix in="SourceAlpha" result="hardAlpha" type="matrix" values="0 0 0 0 0 0 0 0 0 0 0 0 0 0 0 0 0 0 127 0"/><feMorphology in="SourceAlpha" operator="dilate" radius="1" result="effect3_dropShadow_642_85837"/><feOffset/><feColorMatrix type="matrix" values="0 0 0 0 0.396078 0 0 0 0 0.415686 0 0 0 0 0.462745 0 0 0 0.15 0"/><feBlend in2="effect2_dropShadow_642_85837" mode="normal" result="effect3_dropShadow_642_85837"/><feBlend in="SourceGraphic" in2="effect3_dropShadow_642_85837" mode="normal" result="shape"/></filter><g filter="url(#a)"><rect fill="#fff" height="76" rx="6" width="794" x="6" y="1.78784"/><rect fill="#ffd8d8" height="51" rx="5.5" width="725" x="18.5" y="14.2878"/><path d="m318.949 44.6003c-.73.2461-1.426.3692-2.086.3692-.656 0-1.24-.1504-1.752-.4512-.507-.3047-.904-.7148-1.189-1.2305-.285-.5195-.428-1.1093-.428-1.7695 0-.9922.322-1.8164.967-2.4726.648-.6563 1.43-.9844 2.344-.9844.675 0 1.39.1269 2.144.3808v1.0489c-.761-.3477-1.443-.5215-2.045-.5215-.398 0-.773.0996-1.125.2988-.351.1953-.623.502-.814.9199-.192.418-.287.8477-.287 1.2891 0 .5898.183 1.1523.551 1.6875.371.5352.951.8027 1.74.8027.238 0 .472-.0156.703-.0468.23-.0352.656-.1582 1.277-.3692zm4.395.3692c-.938 0-1.688-.3262-2.25-.9785-.563-.6563-.844-1.4825-.844-2.4785 0-.9961.281-1.8204.844-2.4727.562-.6523 1.312-.9785 2.25-.9785.933 0 1.681.3262 2.244.9785.562.6523.844 1.4766.844 2.4727 0 .996-.282 1.8222-.844 2.4785-.563.6523-1.311.9785-2.244.9785zm0-.9082c.582 0 1.045-.2266 1.388-.6797.344-.4531.516-1.0762.516-1.8691 0-.7891-.172-1.4102-.516-1.8633-.343-.4532-.806-.6797-1.388-.6797-.586 0-1.051.2265-1.395.6797-.344.4531-.515 1.0742-.515 1.8633 0 .7929.171 1.416.515 1.8691s.809.6797 1.395.6797zm4.511.7265v-6.5449h1.09v1.4297c.313-.5039.69-.8984 1.131-1.1836.442-.2851.883-.4277 1.324-.4277.387 0 .739.1035 1.055.3105.316.2032.537.4707.662.8028.129.332.194.9843.194 1.957v3.6562h-1.09v-3.791c0-.6289-.032-1.0429-.094-1.2422-.059-.2031-.17-.3691-.334-.498-.16-.1289-.336-.1934-.527-.1934-.383 0-.795.1817-1.237.545-.437.3632-.799.8183-1.084 1.3652v3.8144zm12.68-.2636c-.512.2148-.883.3418-1.113.3808-.231.043-.453.0645-.668.0645-.457 0-.875-.0879-1.254-.2637s-.666-.4355-.861-.7793c-.192-.3437-.287-.875-.287-1.5937v-2.6368h-1.635v-.9082h1.635v-2.6367h1.089v2.6367h2.913v.9082h-2.913v2.6192c0 .5273.063.9004.188 1.1191.125.2149.291.3731.498.4746.211.1016.459.1524.744.1524.527 0 1.082-.166 1.664-.4981zm7.178-.17c-.871.4141-1.695.6211-2.473.6211-.59 0-1.117-.1464-1.582-.4394s-.838-.7109-1.119-1.2539c-.277-.5469-.416-1.1309-.416-1.752 0-.5976.133-1.1718.398-1.7226.266-.5508.637-.9785 1.114-1.2832.476-.3086 1.008-.4629 1.594-.4629.777 0 1.4.2773 1.869.832.472.5547.709 1.4102.709 2.5664v.2344h-4.512c0 .4531.094.8672.281 1.2422.192.375.442.6562.75.8437.309.1875.66.2813 1.055.2813.703 0 1.48-.2344 2.332-.7031zm-4.354-3.4746h3.264v-.1582c0-.5351-.131-.9609-.393-1.2773-.261-.3164-.611-.4746-1.048-.4746-.442 0-.825.1621-1.149.4863-.32.3203-.545.7949-.674 1.4238zm6.118 3.9082v-6.5449h1.089v1.4297c.313-.5039.69-.8984 1.131-1.1836.442-.2851.883-.4277 1.324-.4277.387 0 .739.1035 1.055.3105.317.2032.537.4707.662.8028.129.332.194.9843.194 1.957v3.6562h-1.09v-3.791c0-.6289-.031-1.0429-.094-1.2422-.059-.2031-.17-.3691-.334-.498-.16-.1289-.336-.1934-.527-.1934-.383 0-.795.1817-1.237.545-.437.3632-.798.8183-1.084 1.3652v3.8144zm12.679-.2636c-.511.2148-.883.3418-1.113.3808-.231.043-.453.0645-.668.0645-.457 0-.875-.0879-1.254-.2637s-.666-.4355-.861-.7793c-.192-.3437-.287-.875-.287-1.5937v-2.6368h-1.635v-.9082h1.635v-2.6367h1.089v2.6367h2.913v.9082h-2.913v2.6192c0 .5273.063.9004.188 1.1191.125.2149.291.3731.498.4746.211.1016.459.1524.744.1524.528 0 1.082-.166 1.664-.4981zm9.949-4.8106c.336-.5469.737-.959 1.202-1.2363.464-.2773.892-.416 1.283-.416.547 0 1.039.2363 1.476.709.438.4726.657 1.1894.657 2.1504 0 .7578-.147 1.4355-.44 2.0332-.289.5937-.676 1.0644-1.16 1.4121-.484.3437-1.084.5156-1.799.5156-.203 0-.515-.0215-.937-.0645-.063-.0078-.157-.0175-.282-.0293v2.543h-1.089v-9.0879h1.089zm0 1.2949v2.8067c.395.1015.758.1523 1.09.1523.66 0 1.215-.2578 1.664-.7734.453-.5195.68-1.2285.68-2.127 0-.6523-.123-1.1425-.369-1.4707-.246-.3281-.525-.4922-.838-.4922-.34 0-.715.1719-1.125.5157-.406.3437-.773.8066-1.102 1.3886zm7.957 3.7793v-8.5429h-1.957v-.9141h3.047v8.5488h2.045v.9082zm9.75-1.4707c-.332.5469-.732.959-1.201 1.2364-.465.2773-.892.416-1.283.416-.547 0-1.039-.2363-1.476-.709-.434-.4727-.651-1.1895-.651-2.1504 0-.7578.145-1.4336.434-2.0273.289-.5977.676-1.0684 1.16-1.4121.484-.3477 1.084-.5215 1.799-.5215.207 0 .519.0215.937.0644.063.0078.157.0176.281.0293h1.096v4.6231c0 .789.082 1.4297.246 1.9218h-1.136c-.086-.3593-.155-.8496-.206-1.4707zm0-1.2949v-2.8066c-.386-.1016-.746-.1524-1.078-.1524-.672 0-1.232.2598-1.681.7793-.446.5196-.668 1.2266-.668 2.1211 0 .6485.121 1.1387.363 1.4707.246.3282.525.4922.838.4922.34 0 .715-.1719 1.125-.5156.41-.3438.777-.8067 1.101-1.3887zm8.415 2.5781c-.731.2461-1.426.3692-2.086.3692-.657 0-1.241-.1504-1.752-.4512-.508-.3047-.905-.7148-1.19-1.2305-.285-.5195-.428-1.1093-.428-1.7695 0-.9922.323-1.8164.967-2.4726.649-.6563 1.43-.9844 2.344-.9844.676 0 1.391.1269 2.145.3808v1.0489c-.762-.3477-1.444-.5215-2.045-.5215-.399 0-.774.0996-1.125.2988-.352.1953-.623.502-.815.9199-.191.418-.287.8477-.287 1.2891 0 .5898.184 1.1523.551 1.6875.371.5352.951.8027 1.74.8027.238 0 .473-.0156.703-.0468.231-.0352.656-.1582 1.278-.3692zm7.142-.2461c-.871.4141-1.695.6211-2.473.6211-.589 0-1.117-.1464-1.582-.4394-.464-.293-.837-.7109-1.119-1.2539-.277-.5469-.416-1.1309-.416-1.752 0-.5976.133-1.1718.399-1.7226.265-.5508.636-.9785 1.113-1.2832.477-.3086 1.008-.4629 1.594-.4629.777 0 1.4.2773 1.869.832.473.5547.709 1.4102.709 2.5664v.2344h-4.512c0 .4531.094.8672.281 1.2422.192.375.442.6562.75.8437.309.1875.661.2813 1.055.2813.703 0 1.481-.2344 2.332-.7031zm-4.353-3.4746h3.263v-.1582c0-.5351-.131-.9609-.392-1.2773-.262-.3164-.612-.4746-1.049-.4746-.442 0-.824.1621-1.149.4863-.32.3203-.544.7949-.673 1.4238zm6.117 3.9082v-9.457h1.09v4.3418c.312-.5039.689-.8984 1.131-1.1836.441-.2851.882-.4277 1.324-.4277.371 0 .709.0957 1.013.2871.309.1875.524.416.645.6855.098.2071.164.4278.199.6621.035.2305.053.709.053 1.4356v3.6562h-1.09v-3.791c0-.6289-.031-1.0429-.094-1.2422-.058-.2031-.17-.3691-.334-.498-.16-.1289-.336-.1934-.527-.1934-.383 0-.795.1817-1.236.545-.438.3632-.799.8183-1.084 1.3652v3.8144zm9.902.1817c-.937 0-1.687-.3262-2.25-.9785-.562-.6563-.844-1.4825-.844-2.4785 0-.9961.282-1.8204.844-2.4727.563-.6523 1.313-.9785 2.25-.9785.934 0 1.682.3262 2.244.9785.563.6523.844 1.4766.844 2.4727 0 .996-.281 1.8222-.844 2.4785-.562.6523-1.31.9785-2.244.9785zm0-.9082c.582 0 1.045-.2266 1.389-.6797s.515-1.0762.515-1.8691c0-.7891-.171-1.4102-.515-1.8633-.344-.4532-.807-.6797-1.389-.6797-.586 0-1.051.2265-1.394.6797-.344.4531-.516 1.0742-.516 1.8633 0 .7929.172 1.416.516 1.8691.343.4531.808.6797 1.394.6797zm6.27.7265v-8.5429h-1.957v-.9141h3.047v8.5488h2.044v.9082zm9.82-1.4707c-.332.5469-.732.959-1.201 1.2364-.465.2773-.893.416-1.283.416-.547 0-1.039-.2363-1.477-.709-.434-.4727-.65-1.1895-.65-2.1504 0-.7578.144-1.4336.433-2.0273.289-.5977.676-1.0684 1.16-1.4121.485-.3477 1.084-.5215 1.799-.5215.207 0 .52.0215.938.0644.062.0078.156.0176.281.0293v-2.9121h1.096v9.457h-1.096zm0-1.2949v-2.8066c-.387-.1016-.746-.1524-1.078-.1524-.672 0-1.233.2598-1.682.7793-.445.5196-.668 1.2266-.668 2.1211 0 .6485.121 1.1387.364 1.4707.246.3282.525.4922.837.4922.34 0 .715-.1719 1.125-.5156.411-.3438.778-.8067 1.102-1.3887zm8.279 2.332c-.871.4141-1.695.6211-2.472.6211-.59 0-1.118-.1464-1.582-.4394-.465-.293-.838-.7109-1.12-1.2539-.277-.5469-.416-1.1309-.416-1.752 0-.5976.133-1.1718.399-1.7226s.637-.9785 1.113-1.2832c.477-.3086 1.008-.4629 1.594-.4629.777 0 1.4.2773 1.869.832.473.5547.709 1.4102.709 2.5664v.2344h-4.512c0 .4531.094.8672.282 1.2422.191.375.441.6562.75.8437.308.1875.66.2813 1.054.2813.703 0 1.481-.2344 2.332-.7031zm-4.353-3.4746h3.263v-.1582c0-.5351-.13-.9609-.392-1.2773s-.611-.4746-1.049-.4746c-.441 0-.824.1621-1.148.4863-.321.3203-.545.7949-.674 1.4238zm6.674 3.9082v-6.5449h1.089v1.4297c.34-.5391.729-.9414 1.166-1.207.442-.2696.932-.4043 1.471-.4043.395 0 .789.0605 1.184.1816v2.3613h-1.049v-1.4941c-.184-.0312-.328-.0469-.434-.0469-.406 0-.804.1602-1.195.4805s-.771.8008-1.143 1.4414v3.8027z" fill="#c70000"/><rect height="51" rx="5.5" stroke="#c70000" stroke-dasharray="2 2" width="725" x="18.5" y="14.2878"/><rect fill="#fafafa" height="36" rx="5" width="36" x="752" y="21.7878"/><g fill="#0c0c0e"><path d="m763 37.7878c-1.105 0-2 .8955-2 2 0 1.1046.895 2 2 2s2-.8954 2-2c0-1.1045-.895-2-2-2z"/><path d="m770 37.7878c-1.105 0-2 .8955-2 2 0 1.1046.895 2 2 2s2-.8954 2-2c0-1.1045-.895-2-2-2z"/><path d="m777 37.7878c-1.105 0-2 .8955-2 2 0 1.1046.895 2 2 2s2-.8954 2-2c0-1.1045-.895-2-2-2z"/></g><rect height="35" rx="4.5" stroke="#3b3d45" stroke-opacity=".4" width="35" x="752.5" y="22.2878"/><path d="m752.25 14.0378h35.5v51.5h-35.5z" stroke="#a737ff" stroke-width=".5"/></g><g opacity=".9"><path d="m6.5 66.2878h793v11h-793z" fill="#f9f2ff"/><path d="m398.764 74.0452h1.38v-4.9571l-1.653.7954v-.8525l1.644-.7822h.887v5.7964h1.363v.7426h-3.621zm5.875-.0044h3.015v.747h-3.986v-.747c.548-.5772 1.027-1.0869 1.437-1.5293s.693-.7544.848-.9361c.293-.3574.491-.646.593-.8657.103-.2226.154-.4497.154-.6811 0-.3662-.108-.6534-.325-.8614-.214-.208-.508-.312-.883-.312-.267 0-.547.0484-.84.145-.293.0967-.603.2432-.931.4395v-.8965c.301-.1435.597-.2519.887-.3252.293-.0732.582-.1098.866-.1098.642 0 1.157.1713 1.547.5141.393.3399.589.7866.589 1.3403 0 .2813-.066.5625-.198.8438-.129.2812-.34.5918-.633.9316-.164.1905-.403.4541-.716.7911-.311.3369-.785.8408-1.424 1.5117z" fill="#7b00db"/><path d="m6.5 66.2878h793v11h-793z" stroke="#ead2fe"/></g><g opacity=".9"><path d="m6.5 2.28784h793v11h-793z" fill="#f9f2ff"/><path d="m398.764 10.0452h1.38v-4.95707l-1.653.79541v-.85253l1.644-.78223h.887v5.79642h1.363v.7426h-3.621zm5.875-.0044h3.015v.747h-3.986v-.747c.548-.57718 1.027-1.08694 1.437-1.52933.41-.44238.693-.75439.848-.93603.293-.35742.491-.646.593-.86572.103-.22266.154-.44971.154-.68116 0-.36621-.108-.65332-.325-.86132-.214-.20801-.508-.31202-.883-.31202-.267 0-.547.04834-.84.14502s-.603.24317-.931.43946v-.89649c.301-.14355.597-.25195.887-.32519.293-.07324.582-.10987.866-.10987.642 0 1.157.17139 1.547.51416.393.33985.589.78663.589 1.34034 0 .28125-.066.5625-.198.84375-.129.28125-.34.59179-.633.93164-.164.19043-.403.4541-.716.79101-.311.33692-.785.84082-1.424 1.51175z" fill="#7b00db"/><path d="m6.5 2.28784h793v11h-793z" stroke="#ead2fe"/></g><g opacity=".9"><path d="m6.5 13.2878h11v53h-11z" fill="#f9f2ff"/><path d="m7.76368 42.0452h1.37988v-4.9571l-1.65234.7954v-.8525l1.64355-.7822h.88773v5.7964h1.3623v.7426h-3.62112zm5.87552-.0044h3.0146v.747h-3.9858v-.747c.5478-.5772 1.0268-1.0869 1.437-1.5293.4101-.4424.6929-.7544.8481-.9361.293-.3574.4908-.646.5933-.8657.1025-.2226.1538-.4497.1538-.6811 0-.3662-.1084-.6534-.3252-.8614-.2139-.208-.5083-.312-.8833-.312-.2666 0-.5464.0484-.8394.145-.2929.0967-.6035.2432-.9316.4395v-.8965c.3018-.1435.5977-.2519.8877-.3252.293-.0732.5815-.1098.8657-.1098.6416 0 1.1573.1713 1.5469.5141.3926.3399.5889.7866.5889 1.3403 0 .2813-.0659.5625-.1978.8438-.1289.2812-.3398.5918-.6328.9316-.1641.1905-.4028.4541-.7163.7911-.3106.3369-.7852.8408-1.4238 1.5117z" fill="#7b00db"/><path d="m6.5 13.2878h11v53h-11z" stroke="#ead2fe"/></g><g opacity=".9"><path d="m788.5 13.2878h11v53h-11z" fill="#f9f2ff"/><path d="m789.764 42.0452h1.38v-4.9571l-1.653.7954v-.8525l1.644-.7822h.887v5.7964h1.363v.7426h-3.621zm5.875-.0044h3.015v.747h-3.986v-.747c.548-.5772 1.027-1.0869 1.437-1.5293s.693-.7544.848-.9361c.293-.3574.491-.646.593-.8657.103-.2226.154-.4497.154-.6811 0-.3662-.108-.6534-.325-.8614-.214-.208-.508-.312-.883-.312-.267 0-.547.0484-.84.145-.293.0967-.603.2432-.931.4395v-.8965c.301-.1435.597-.2519.887-.3252.293-.0732.582-.1098.866-.1098.642 0 1.157.1713 1.547.5141.393.3399.589.7866.589 1.3403 0 .2813-.066.5625-.198.8438-.129.2812-.34.5918-.633.9316-.164.1905-.403.4541-.716.7911-.311.3369-.785.8408-1.424 1.5117z" fill="#7b00db"/><path d="m788.5 13.2878h11v53h-11z" stroke="#ead2fe"/></g><g opacity=".9"><path d="m744.5 13.2878h7v53h-7z" fill="#f9f2ff"/><path d="m747.996 39.6721c-.396 0-.702.1113-.919.334-.214.2197-.321.5317-.321.936s.109.7193.326.9449c.219.2226.524.3339.914.3339.398 0 .704-.1098.918-.3295.217-.2227.325-.5391.325-.9493 0-.4013-.11-.7133-.329-.936-.217-.2227-.522-.334-.914-.334zm-.774-.3691c-.378-.0967-.674-.2769-.888-.5405-.21-.2637-.316-.5816-.316-.9537 0-.5214.177-.9345.532-1.2392.354-.3076.836-.4614 1.446-.4614.612 0 1.095.1538 1.45.4614.354.3047.532.7178.532 1.2392 0 .3721-.107.69-.321.9537-.211.2636-.506.4438-.884.5405.44.0967.775.2915 1.007.5845.234.2929.351.6723.351 1.1381 0 .5918-.189 1.0547-.567 1.3887-.377.334-.9.501-1.568.501s-1.191-.1655-1.569-.4966c-.375-.334-.563-.7954-.563-1.3843 0-.4687.116-.8496.347-1.1426.235-.2959.572-.4921 1.011-.5888zm-.321-1.4107c0 .3516.094.6197.282.8042.187.1846.458.2769.813.2769.357 0 .629-.0923.817-.2769.187-.1845.281-.4526.281-.8042 0-.3574-.094-.6298-.281-.8173-.185-.1875-.457-.2813-.817-.2813-.355 0-.626.0952-.813.2856-.188.1875-.282.4585-.282.813z" fill="#7b00db"/><path d="m744.5 13.2878h7v53h-7z" stroke="#ead2fe"/></g><path d="m5.75 1.53784h794.5v76.5h-794.5z" stroke="#a737ff" stroke-width=".5"/></svg>