<svg width="196" height="157" viewBox="0 0 196 157" fill="none" xmlns="http://www.w3.org/2000/svg">
<g filter="url(#filter0_dd_689_136596)">
<rect x="6" y="1" width="184" height="80" rx="6" fill="white"/>
</g>
<path d="M6.85547 103H8.56055V99.1094C8.56055 98.3711 9.03516 97.832 9.70312 97.832C10.3711 97.832 10.7695 98.2305 10.7695 98.9219V103H12.4102V99.0332C12.4102 98.3359 12.8555 97.832 13.5469 97.832C14.2676 97.832 14.625 98.2188 14.625 98.998V103H16.3301V98.5703C16.3301 97.2402 15.5273 96.4082 14.2383 96.4082C13.3359 96.4082 12.5918 96.8828 12.293 97.5977H12.1875C11.9297 96.8594 11.3086 96.4082 10.4004 96.4082C9.55078 96.4082 8.87695 96.8594 8.61328 97.5977H8.50781V96.5488H6.85547V103ZM18.8555 95.5586C19.3828 95.5586 19.8164 95.1367 19.8164 94.6094C19.8164 94.0762 19.3828 93.6543 18.8555 93.6543C18.3281 93.6543 17.8887 94.0762 17.8887 94.6094C17.8887 95.1367 18.3281 95.5586 18.8555 95.5586ZM18 103H19.7051V96.5488H18V103ZM23.748 103.1C24.6445 103.1 25.377 102.684 25.7227 101.986H25.8281V103H27.4805V94.082H25.7754V97.5801H25.6758C25.3418 96.8652 24.6211 96.4434 23.748 96.4434C22.125 96.4434 21.1172 97.7148 21.1172 99.7656C21.1172 101.822 22.1191 103.1 23.748 103.1ZM24.3281 97.8262C25.2363 97.8262 25.793 98.5703 25.793 99.7773C25.793 100.984 25.2422 101.723 24.3281 101.723C23.4141 101.723 22.8691 100.99 22.8691 99.7715C22.8691 98.5586 23.4199 97.8262 24.3281 97.8262Z" fill="#0C0C0E"/>
<path d="M8.79492 131V122.545H7.02539V131H8.79492ZM10.6758 131H12.3809V127.268C12.3809 126.395 12.8672 125.832 13.6582 125.832C14.4668 125.832 14.8477 126.307 14.8477 127.215V131H16.5527V126.828C16.5527 125.287 15.7793 124.408 14.3438 124.408C13.3887 124.408 12.7324 124.859 12.4336 125.586H12.3281V124.549H10.6758V131ZM18.6973 123.008V124.607H17.6895V125.902H18.6973V129.26C18.6973 130.514 19.3184 131.023 20.8887 131.023C21.2168 131.023 21.5332 130.988 21.7441 130.947V129.688C21.5801 129.705 21.4629 129.717 21.2402 129.717C20.6602 129.717 20.4023 129.447 20.4023 128.867V125.902H21.7441V124.607H20.4023V123.008H18.6973ZM27.2988 129.178C27.1172 129.617 26.6543 129.863 25.9805 129.863C25.0898 129.863 24.5273 129.248 24.5039 128.264V128.176H28.9395V127.666C28.9395 125.627 27.8145 124.408 25.9102 124.408C23.9883 124.408 22.8047 125.709 22.8047 127.807C22.8047 129.893 23.9648 131.135 25.9336 131.135C27.5156 131.135 28.6348 130.379 28.8867 129.178H27.2988ZM25.916 125.68C26.7129 125.68 27.2285 126.23 27.2637 127.115H24.5098C24.5684 126.248 25.125 125.68 25.916 125.68ZM30.3398 131H32.0449V127.391C32.0449 126.482 32.6836 125.926 33.6152 125.926C33.8906 125.926 34.2891 125.973 34.4238 126.02V124.52C34.2773 124.473 33.9902 124.443 33.7559 124.443C32.9355 124.443 32.2676 124.93 32.0977 125.574H31.9922V124.549H30.3398V131ZM37.2188 131.1C38.0566 131.1 38.7598 130.742 39.0938 130.145H39.1992V131H40.8516V126.594C40.8516 125.217 39.8848 124.408 38.1738 124.408C36.5508 124.408 35.4551 125.152 35.3438 126.336H36.9141C37.0547 125.932 37.4648 125.715 38.0801 125.715C38.7832 125.715 39.1699 126.037 39.1699 126.594V127.127L37.6055 127.221C36 127.314 35.1035 127.994 35.1035 129.16C35.1035 130.338 35.9766 131.1 37.2188 131.1ZM37.7812 129.852C37.1895 129.852 36.7734 129.553 36.7734 129.055C36.7734 128.58 37.1309 128.305 37.8633 128.258L39.1699 128.17V128.65C39.1699 129.33 38.5723 129.852 37.7812 129.852ZM48.2461 126.799C48.1055 125.357 47.0801 124.408 45.3691 124.408C43.3477 124.408 42.2109 125.633 42.2109 127.76C42.2109 129.91 43.3535 131.135 45.3691 131.135C47.0508 131.135 48.1055 130.209 48.2461 128.791H46.6523C46.5234 129.436 46.0664 129.781 45.3691 129.781C44.4551 129.781 43.9336 129.061 43.9336 127.76C43.9336 126.477 44.4492 125.768 45.3691 125.768C46.0957 125.768 46.5352 126.178 46.6523 126.799H48.2461ZM50.127 123.008V124.607H49.1191V125.902H50.127V129.26C50.127 130.514 50.748 131.023 52.3184 131.023C52.6465 131.023 52.9629 130.988 53.1738 130.947V129.688C53.0098 129.705 52.8926 129.717 52.6699 129.717C52.0898 129.717 51.832 129.447 51.832 128.867V125.902H53.1738V124.607H51.832V123.008H50.127ZM55.4648 123.559C55.9922 123.559 56.4258 123.137 56.4258 122.609C56.4258 122.076 55.9922 121.654 55.4648 121.654C54.9375 121.654 54.498 122.076 54.498 122.609C54.498 123.137 54.9375 123.559 55.4648 123.559ZM54.6094 131H56.3145V124.549H54.6094V131ZM63.8848 124.549H62.0859L60.7617 129.4H60.6562L59.3203 124.549H57.4863L59.7305 131H61.6523L63.8848 124.549ZM68.9473 129.178C68.7656 129.617 68.3027 129.863 67.6289 129.863C66.7383 129.863 66.1758 129.248 66.1523 128.264V128.176H70.5879V127.666C70.5879 125.627 69.4629 124.408 67.5586 124.408C65.6367 124.408 64.4531 125.709 64.4531 127.807C64.4531 129.893 65.6133 131.135 67.582 131.135C69.1641 131.135 70.2832 130.379 70.5352 129.178H68.9473ZM67.5645 125.68C68.3613 125.68 68.877 126.23 68.9121 127.115H66.1582C66.2168 126.248 66.7734 125.68 67.5645 125.68ZM80.8008 126.799C80.6602 125.357 79.6348 124.408 77.9238 124.408C75.9023 124.408 74.7656 125.633 74.7656 127.76C74.7656 129.91 75.9082 131.135 77.9238 131.135C79.6055 131.135 80.6602 130.209 80.8008 128.791H79.207C79.0781 129.436 78.6211 129.781 77.9238 129.781C77.0098 129.781 76.4883 129.061 76.4883 127.76C76.4883 126.477 77.0039 125.768 77.9238 125.768C78.6504 125.768 79.0898 126.178 79.207 126.799H80.8008ZM83.9062 131.1C84.7441 131.1 85.4473 130.742 85.7812 130.145H85.8867V131H87.5391V126.594C87.5391 125.217 86.5723 124.408 84.8613 124.408C83.2383 124.408 82.1426 125.152 82.0312 126.336H83.6016C83.7422 125.932 84.1523 125.715 84.7676 125.715C85.4707 125.715 85.8574 126.037 85.8574 126.594V127.127L84.293 127.221C82.6875 127.314 81.791 127.994 81.791 129.16C81.791 130.338 82.6641 131.1 83.9062 131.1ZM84.4688 129.852C83.877 129.852 83.4609 129.553 83.4609 129.055C83.4609 128.58 83.8184 128.305 84.5508 128.258L85.8574 128.17V128.65C85.8574 129.33 85.2598 129.852 84.4688 129.852ZM89.2148 131H90.9199V127.391C90.9199 126.482 91.5586 125.926 92.4902 125.926C92.7656 125.926 93.1641 125.973 93.2988 126.02V124.52C93.1523 124.473 92.8652 124.443 92.6309 124.443C91.8105 124.443 91.1426 124.93 90.9727 125.574H90.8672V124.549H89.2148V131ZM96.6035 131.1C97.5 131.1 98.2324 130.684 98.5781 129.986H98.6836V131H100.336V122.082H98.6309V125.58H98.5312C98.1973 124.865 97.4766 124.443 96.6035 124.443C94.9805 124.443 93.9727 125.715 93.9727 127.766C93.9727 129.822 94.9746 131.1 96.6035 131.1ZM97.1836 125.826C98.0918 125.826 98.6484 126.57 98.6484 127.777C98.6484 128.984 98.0977 129.723 97.1836 129.723C96.2695 129.723 95.7246 128.99 95.7246 127.771C95.7246 126.559 96.2754 125.826 97.1836 125.826ZM101.959 126.43C101.959 127.42 102.568 128.012 103.822 128.287L104.994 128.551C105.562 128.68 105.809 128.879 105.809 129.207C105.809 129.635 105.352 129.928 104.689 129.928C104.01 129.928 103.594 129.664 103.465 129.219H101.801C101.918 130.438 102.949 131.135 104.654 131.135C106.348 131.135 107.502 130.303 107.502 129.025C107.502 128.064 106.939 127.537 105.686 127.262L104.473 126.998C103.875 126.863 103.6 126.658 103.6 126.33C103.6 125.908 104.051 125.621 104.66 125.621C105.293 125.621 105.686 125.885 105.773 126.312H107.35C107.256 125.094 106.289 124.408 104.648 124.408C103.037 124.408 101.959 125.223 101.959 126.43ZM109.939 126.688C110.438 126.688 110.801 126.318 110.801 125.844C110.801 125.369 110.438 125 109.939 125C109.447 125 109.078 125.369 109.078 125.844C109.078 126.318 109.447 126.688 109.939 126.688ZM109.939 131.088C110.438 131.088 110.801 130.719 110.801 130.244C110.801 129.77 110.438 129.4 109.939 129.4C109.447 129.4 109.078 129.77 109.078 130.244C109.078 130.719 109.447 131.088 109.939 131.088ZM121.406 124.637H120.146V128.369C120.146 129.395 119.59 130.016 118.57 130.016C117.645 130.016 117.229 129.512 117.229 128.457V124.637H115.969V128.768C115.969 130.262 116.754 131.123 118.166 131.123C119.133 131.123 119.783 130.713 120.094 129.992H120.193V131H121.406V124.637ZM123.088 126.418C123.088 127.361 123.65 127.9 124.863 128.182L125.977 128.445C126.615 128.598 126.914 128.855 126.914 129.254C126.914 129.775 126.357 130.139 125.572 130.139C124.811 130.139 124.342 129.828 124.184 129.33H122.924C123.035 130.438 124.025 131.123 125.543 131.123C127.066 131.123 128.186 130.32 128.186 129.137C128.186 128.211 127.617 127.689 126.404 127.408L125.344 127.162C124.652 126.998 124.33 126.752 124.33 126.359C124.33 125.844 124.863 125.498 125.566 125.498C126.281 125.498 126.738 125.809 126.855 126.283H128.062C127.939 125.182 127.002 124.514 125.566 124.514C124.125 124.514 123.088 125.311 123.088 126.418ZM133.887 129.295C133.652 129.811 133.131 130.092 132.369 130.092C131.361 130.092 130.711 129.365 130.67 128.211V128.152H135.176V127.719C135.176 125.727 134.104 124.514 132.328 124.514C130.529 124.514 129.387 125.809 129.387 127.83C129.387 129.863 130.506 131.123 132.334 131.123C133.793 131.123 134.824 130.42 135.1 129.295H133.887ZM132.322 125.539C133.254 125.539 133.863 126.213 133.893 127.244H130.67C130.74 126.219 131.391 125.539 132.322 125.539ZM140.42 131H141.68V125.662H143.086V124.654H141.662V124.027C141.662 123.383 141.949 123.061 142.652 123.061C142.852 123.061 143.021 123.072 143.139 123.09V122.141C142.922 122.105 142.676 122.082 142.389 122.082C141.064 122.082 140.42 122.703 140.42 123.969V124.654H139.371V125.662H140.42V131ZM146.965 131.123C148.828 131.123 149.971 129.875 149.971 127.818C149.971 125.762 148.822 124.514 146.965 124.514C145.102 124.514 143.953 125.768 143.953 127.818C143.953 129.875 145.096 131.123 146.965 131.123ZM146.965 130.051C145.869 130.051 145.254 129.236 145.254 127.818C145.254 126.4 145.869 125.58 146.965 125.58C148.055 125.58 148.676 126.4 148.676 127.818C148.676 129.23 148.055 130.051 146.965 130.051ZM151.488 131H152.748V127.197C152.748 126.301 153.422 125.686 154.377 125.686C154.6 125.686 154.975 125.727 155.08 125.756V124.572C154.945 124.543 154.705 124.525 154.518 124.525C153.686 124.525 152.977 124.977 152.795 125.604H152.701V124.637H151.488V131ZM160.02 123.031V124.654H159.006V125.662H160.02V129.324C160.02 130.549 160.576 131.041 161.977 131.041C162.223 131.041 162.457 131.012 162.662 130.977V129.975C162.486 129.992 162.375 130.004 162.182 130.004C161.555 130.004 161.279 129.705 161.279 129.02V125.662H162.662V124.654H161.279V123.031H160.02ZM164.203 131H165.463V127.273C165.463 126.277 166.037 125.615 167.068 125.615C167.959 125.615 168.434 126.137 168.434 127.186V131H169.693V126.887C169.693 125.381 168.855 124.52 167.496 124.52C166.535 124.52 165.861 124.941 165.551 125.65H165.451V122.141H164.203V131ZM175.652 129.295C175.418 129.811 174.896 130.092 174.135 130.092C173.127 130.092 172.477 129.365 172.436 128.211V128.152H176.941V127.719C176.941 125.727 175.869 124.514 174.094 124.514C172.295 124.514 171.152 125.809 171.152 127.83C171.152 129.863 172.271 131.123 174.1 131.123C175.559 131.123 176.59 130.42 176.865 129.295H175.652ZM174.088 125.539C175.02 125.539 175.629 126.213 175.658 127.244H172.436C172.506 126.219 173.156 125.539 174.088 125.539ZM9.24609 151.105C10.125 151.105 10.8691 150.689 11.25 149.992H11.3496V151H12.5566V142.141H11.2969V145.645H11.2031C10.8574 144.947 10.1191 144.525 9.24609 144.525C7.63477 144.525 6.59766 145.809 6.59766 147.812C6.59766 149.828 7.62305 151.105 9.24609 151.105ZM9.60352 145.604C10.6582 145.604 11.3203 146.459 11.3203 147.818C11.3203 149.189 10.6641 150.027 9.60352 150.027C8.53711 150.027 7.89844 149.201 7.89844 147.818C7.89844 146.441 8.54297 145.604 9.60352 145.604ZM18.6328 149.295C18.3984 149.811 17.877 150.092 17.1152 150.092C16.1074 150.092 15.457 149.365 15.416 148.211V148.152H19.9219V147.719C19.9219 145.727 18.8496 144.514 17.0742 144.514C15.2754 144.514 14.1328 145.809 14.1328 147.83C14.1328 149.863 15.252 151.123 17.0801 151.123C18.5391 151.123 19.5703 150.42 19.8457 149.295H18.6328ZM17.0684 145.539C18 145.539 18.6094 146.213 18.6387 147.244H15.416C15.4863 146.219 16.1367 145.539 17.0684 145.539ZM21.8848 151H23.1445V145.662H24.5508V144.654H23.127V144.027C23.127 143.383 23.4141 143.061 24.1172 143.061C24.3164 143.061 24.4863 143.072 24.6035 143.09V142.141C24.3867 142.105 24.1406 142.082 23.8535 142.082C22.5293 142.082 21.8848 142.703 21.8848 143.969V144.654H20.8359V145.662H21.8848V151ZM27.5566 151.105C28.3945 151.105 29.0918 150.742 29.4727 150.098H29.5723V151H30.7852V146.646C30.7852 145.311 29.8828 144.514 28.2832 144.514C26.8359 144.514 25.8047 145.211 25.6758 146.283H26.8945C27.0352 145.82 27.5215 145.557 28.2246 145.557C29.0859 145.557 29.5312 145.949 29.5312 146.646V147.203L27.8027 147.309C26.2852 147.402 25.4297 148.064 25.4297 149.207C25.4297 150.367 26.3262 151.105 27.5566 151.105ZM27.8789 150.092C27.1934 150.092 26.6953 149.746 26.6953 149.154C26.6953 148.574 27.0938 148.264 27.9727 148.205L29.5312 148.1V148.65C29.5312 149.471 28.8281 150.092 27.8789 150.092ZM37.957 144.637H36.6973V148.369C36.6973 149.395 36.1406 150.016 35.1211 150.016C34.1953 150.016 33.7793 149.512 33.7793 148.457V144.637H32.5195V148.768C32.5195 150.262 33.3047 151.123 34.7168 151.123C35.6836 151.123 36.334 150.713 36.6445 149.992H36.7441V151H37.957V144.637ZM39.8438 151H41.1035V142.141H39.8438V151ZM43.4414 143.031V144.654H42.4277V145.662H43.4414V149.324C43.4414 150.549 43.998 151.041 45.3984 151.041C45.6445 151.041 45.8789 151.012 46.084 150.977V149.975C45.9082 149.992 45.7969 150.004 45.6035 150.004C44.9766 150.004 44.7012 149.705 44.7012 149.02V145.662H46.084V144.654H44.7012V143.031H43.4414ZM50.7012 146.418C50.7012 147.361 51.2637 147.9 52.4766 148.182L53.5898 148.445C54.2285 148.598 54.5273 148.855 54.5273 149.254C54.5273 149.775 53.9707 150.139 53.1855 150.139C52.4238 150.139 51.9551 149.828 51.7969 149.33H50.5371C50.6484 150.438 51.6387 151.123 53.1562 151.123C54.6797 151.123 55.7988 150.32 55.7988 149.137C55.7988 148.211 55.2305 147.689 54.0176 147.408L52.957 147.162C52.2656 146.998 51.9434 146.752 51.9434 146.359C51.9434 145.844 52.4766 145.498 53.1797 145.498C53.8945 145.498 54.3516 145.809 54.4688 146.283H55.6758C55.5527 145.182 54.6152 144.514 53.1797 144.514C51.7383 144.514 50.7012 145.311 50.7012 146.418ZM57.7148 143.031V144.654H56.7012V145.662H57.7148V149.324C57.7148 150.549 58.2715 151.041 59.6719 151.041C59.918 151.041 60.1523 151.012 60.3574 150.977V149.975C60.1816 149.992 60.0703 150.004 59.877 150.004C59.25 150.004 58.9746 149.705 58.9746 149.02V145.662H60.3574V144.654H58.9746V143.031H57.7148ZM63.6035 151.105C64.4414 151.105 65.1387 150.742 65.5195 150.098H65.6191V151H66.832V146.646C66.832 145.311 65.9297 144.514 64.3301 144.514C62.8828 144.514 61.8516 145.211 61.7227 146.283H62.9414C63.082 145.82 63.5684 145.557 64.2715 145.557C65.1328 145.557 65.5781 145.949 65.5781 146.646V147.203L63.8496 147.309C62.332 147.402 61.4766 148.064 61.4766 149.207C61.4766 150.367 62.373 151.105 63.6035 151.105ZM63.9258 150.092C63.2402 150.092 62.7422 149.746 62.7422 149.154C62.7422 148.574 63.1406 148.264 64.0195 148.205L65.5781 148.1V148.65C65.5781 149.471 64.875 150.092 63.9258 150.092ZM69.0703 143.031V144.654H68.0566V145.662H69.0703V149.324C69.0703 150.549 69.627 151.041 71.0273 151.041C71.2734 151.041 71.5078 151.012 71.7129 150.977V149.975C71.5371 149.992 71.4258 150.004 71.2324 150.004C70.6055 150.004 70.3301 149.705 70.3301 149.02V145.662H71.7129V144.654H70.3301V143.031H69.0703ZM77.3086 149.295C77.0742 149.811 76.5527 150.092 75.791 150.092C74.7832 150.092 74.1328 149.365 74.0918 148.211V148.152H78.5977V147.719C78.5977 145.727 77.5254 144.514 75.75 144.514C73.9512 144.514 72.8086 145.809 72.8086 147.83C72.8086 149.863 73.9277 151.123 75.7559 151.123C77.2148 151.123 78.2461 150.42 78.5215 149.295H77.3086ZM75.7441 145.539C76.6758 145.539 77.2852 146.213 77.3145 147.244H74.0918C74.1621 146.219 74.8125 145.539 75.7441 145.539Z" fill="#656A76"/>
<defs>
<filter id="filter0_dd_689_136596" x="0" y="0" width="196" height="95" filterUnits="userSpaceOnUse" color-interpolation-filters="sRGB">
<feFlood flood-opacity="0" result="BackgroundImageFix"/>
<feColorMatrix in="SourceAlpha" type="matrix" values="0 0 0 0 0 0 0 0 0 0 0 0 0 0 0 0 0 0 127 0" result="hardAlpha"/>
<feMorphology radius="10" operator="erode" in="SourceAlpha" result="effect1_dropShadow_689_136596"/>
<feOffset dy="8"/>
<feGaussianBlur stdDeviation="8"/>
<feColorMatrix type="matrix" values="0 0 0 0 0.396078 0 0 0 0 0.415686 0 0 0 0 0.462745 0 0 0 0.2 0"/>
<feBlend mode="normal" in2="BackgroundImageFix" result="effect1_dropShadow_689_136596"/>
<feColorMatrix in="SourceAlpha" type="matrix" values="0 0 0 0 0 0 0 0 0 0 0 0 0 0 0 0 0 0 127 0" result="hardAlpha"/>
<feOffset dy="2"/>
<feGaussianBlur stdDeviation="1.5"/>
<feColorMatrix type="matrix" values="0 0 0 0 0.396078 0 0 0 0 0.415686 0 0 0 0 0.462745 0 0 0 0.1 0"/>
<feBlend mode="normal" in2="effect1_dropShadow_689_136596" result="effect2_dropShadow_689_136596"/>
<feBlend mode="normal" in="SourceGraphic" in2="effect2_dropShadow_689_136596" result="shape"/>
</filter>
</defs>
</svg>
