<svg fill="none" height="86" viewBox="0 0 944 86" width="944" xmlns="http://www.w3.org/2000/svg" xmlns:xlink="http://www.w3.org/1999/xlink"><filter id="a" color-interpolation-filters="sRGB" filterUnits="userSpaceOnUse" height="86" width="944" x="0" y="0"><feFlood flood-opacity="0" result="BackgroundImageFix"/><feColorMatrix in="SourceAlpha" result="hardAlpha" type="matrix" values="0 0 0 0 0 0 0 0 0 0 0 0 0 0 0 0 0 0 127 0"/><feMorphology in="SourceAlpha" operator="dilate" radius="1" result="effect1_dropShadow_976_125640"/><feOffset/><feColorMatrix type="matrix" values="0 0 0 0 0.396078 0 0 0 0 0.415686 0 0 0 0 0.462745 0 0 0 0.2 0"/><feBlend in2="BackgroundImageFix" mode="normal" result="effect1_dropShadow_976_125640"/><feBlend in="SourceGraphic" in2="effect1_dropShadow_976_125640" mode="normal" result="shape"/></filter><clipPath id="b"><path d="m13 13h874v60h-874z"/></clipPath><g filter="url(#a)"><rect fill="#fff" height="84" rx="6" width="942" x="1" y="1"/><g clip-path="url(#b)"><path clip-rule="evenodd" d="m19.8338 17.3297c.7168-.4344 1.6156-.4344 2.3324 0l5.25 3.1818c.6728.4078 1.0838 1.1374 1.0838 1.9242v5.1284c0 .7868-.411 1.5164-1.0838 1.9242l-5.25 3.1818c-.7168.4344-1.6156.4344-2.3324 0l-5.25-3.1818c-.6728-.4078-1.0838-1.1374-1.0838-1.9242v-5.1284c0-.7868.411-1.5164 1.0838-1.9242zm1.5549 1.2828c-.2389-.1448-.5385-.1448-.7774 0l-5.25 3.1818c-.2243.136-.3613.3792-.3613.6414v5.1284c0 .2623.137.5055.3613.6414l5.25 3.1818c.2389.1448.5385.1448.7774 0l5.25-3.1818c.2243-.1359.3613-.3791.3613-.6414v-5.1284c0-.2622-.137-.5054-.3613-.6414z" fill="#000001" fill-rule="evenodd"/><rect fill="#f1f2f3" height="24" rx="5" width="55" x="37" y="13"/><path d="m45.2109 31h-2.0156v-9.5781h-3.4687v-1.6953h8.9609v1.6953h-3.4766zm6.211-9.9688c-.6328 0-1.1563-.5078-1.1563-1.1484 0-.6328.5235-1.1484 1.1563-1.1484.6406 0 1.164.5156 1.164 1.1484 0 .6406-.5234 1.1484-1.164 1.1484zm-.961 9.9688v-8.5391h1.9297v8.5391zm4.9532-10.6328h1.9297v2.1484h1.8281v1.5078h-1.8281v4.25c0 .8516.3593 1.2344 1.1718 1.2344.2735 0 .4219-.0156.6563-.039v1.4843c-.2813.0547-.6407.086-1.0157.086-1.9609 0-2.7421-.6563-2.7421-2.3047v-4.711h-1.3516v-1.5078h1.3516zm5.7734 10.6328v-11.8438h1.9375v11.8438zm9.9609-2.3359h1.836c-.3516 1.539-1.7813 2.5078-3.7969 2.5078-2.5156 0-4.0313-1.6719-4.0313-4.4063 0-2.7422 1.5391-4.4687 4.0157-4.4687 2.4375 0 3.8984 1.6172 3.8984 4.2969v.6171h-5.9687v.1016c.0468 1.4453.8672 2.3516 2.1406 2.3516.9609 0 1.625-.3594 1.9062-1zm-1.9843-4.8594c-1.1563 0-1.9688.8359-2.0547 2.1172h4.0234c-.039-1.2969-.8047-2.1172-1.9687-2.1172z" fill="#0c0c0e"/><g fill="#1060ff"><path clip-rule="evenodd" d="m80.4375 20.875h.5625v.1875c0 .5178.4197.9375.9375.9375h4.125c.5178 0 .9375-.4197.9375-.9375v-.1875h.5625c.3107 0 .5625.2518.5625.5625v2.25c0 .3107.2518.5625.5625.5625s.5625-.2518.5625-.5625v-2.25c0-.932-.7555-1.6875-1.6875-1.6875h-.5813c-.0868-.4279-.4651-.75-.9187-.75h-4.125c-.4536 0-.8319.3221-.9187.75h-.5813c-.932 0-1.6875.7555-1.6875 1.6875v7.875c0 .932.7555 1.6875 1.6875 1.6875h7.125c.932 0 1.6875-.7555 1.6875-1.6875v-.75c0-.3107-.2518-.5625-.5625-.5625s-.5625.2518-.5625.5625v.75c0 .3107-.2518.5625-.5625.5625h-7.125c-.3107 0-.5625-.2518-.5625-.5625v-7.875c0-.3107.2518-.5625.5625-.5625zm1.6875-.75v.75h3.75v-.75z" fill-rule="evenodd"/><path d="m81.5625 23.125c-.3107 0-.5625.2518-.5625.5625s.2518.5625.5625.5625h2.25c.3107 0 .5625-.2518.5625-.5625s-.2518-.5625-.5625-.5625z"/><path d="m81 28.1875c0-.3107.2518-.5625.5625-.5625h2.25c.3107 0 .5625.2518.5625.5625s-.2518.5625-.5625.5625h-2.25c-.3107 0-.5625-.2518-.5625-.5625z"/><path d="m81.5625 25.375c-.3107 0-.5625.2518-.5625.5625s.2518.5625.5625.5625h1.5c.3107 0 .5625-.2518.5625-.5625s-.2518-.5625-.5625-.5625z"/><path d="m90 25.9375c0 .3107-.2518.5625-.5625.5625h-3.142l.9147.9148c.2197.2196.2197.5758 0 .7954-.2196.2197-.5758.2197-.7954 0l-1.8746-1.8745c-.1055-.1055-.1652-.249-.1652-.3982s.0593-.2923.1648-.3977l1.875-1.875c.2196-.2197.5758-.2197.7954 0 .2197.2196.2197.5758 0 .7954l-.9147.9148h3.142c.3107 0 .5625.2518.5625.5625z"/></g><path clip-rule="evenodd" d="m20.1254 53.2473c.5375-.3258 1.2117-.3258 1.7492 0l3.9375 2.3863c.5047.3059.8129.8531.8129 1.4432v3.8463c0 .5901-.3082 1.1373-.8129 1.4431l-3.9375 2.3864c-.5375.3258-1.2117.3258-1.7492 0l-3.9375-2.3864c-.5047-.3058-.8129-.853-.8129-1.4431v-3.8463c0-.5901.3082-1.1373.8129-1.4432zm1.1661.9621c-.1791-.1086-.4039-.1086-.583 0l-3.9375 2.3863c-.1683.102-.271.2844-.271.4811v3.8463c0 .1967.1027.3791.271.481l3.9375 2.3864c.1791.1086.4039.1086.583 0l3.9375-2.3864c.1683-.1019.271-.2843.271-.481v-3.8463c0-.1967-.1027-.3791-.271-.4811z" fill="#656a76" fill-rule="evenodd"/><path d="m33.4883 64h-1.2305v-9.8643h1.2305zm8.4629-5.1133h-1.1895c-.1914-.7314-.8408-1.3262-1.9004-1.3262-1.3261 0-2.1601 1.0596-2.1601 2.7276 0 1.7021.8476 2.7822 2.1601 2.7822.9912 0 1.6817-.458 1.9004-1.292h1.1895c-.2119 1.3535-1.3125 2.3516-3.083 2.3516-2.0645 0-3.3838-1.4971-3.3838-3.8418 0-2.2969 1.3125-3.7871 3.3769-3.7871 1.791 0 2.8848 1.0732 3.0899 2.3857zm4.7646 5.2432c-2.0986 0-3.3974-1.4492-3.3974-3.8145 0-2.372 1.2988-3.8144 3.3974-3.8144 2.0987 0 3.3975 1.4424 3.3975 3.8144 0 2.3653-1.2988 3.8145-3.3975 3.8145zm0-1.0596c1.3946 0 2.1807-1.0117 2.1807-2.7549 0-1.75-.7861-2.7549-2.1807-2.7549-1.3945 0-2.1806 1.0049-2.1806 2.7549 0 1.7432.7861 2.7549 2.1806 2.7549zm5.2432.9297v-7.3691h1.1211v1.1621h.1094c.3691-.8135 1.0869-1.292 2.2148-1.292 1.6543 0 2.5771.9775 2.5771 2.7275v4.7715h-1.1757v-4.4844c0-1.3261-.5606-1.9551-1.7364-1.9551-1.1757 0-1.9345.7862-1.9345 2.0782v4.3613zm14.3144-1.1074v1.1074h-5.9882v-9.8643h1.2304v8.7569zm3.8692 1.2373c-1.4287 0-2.4883-.8477-2.4883-2.1944 0-1.3193.9707-2.0781 2.6865-2.1806l2.126-.1299v-.6699c0-.9092-.5674-1.4082-1.668-1.4082-.8818 0-1.497.3349-1.6611.916h-1.1895c.1573-1.1826 1.3194-1.9619 2.8916-1.9619 1.7979 0 2.8028.9228 2.8028 2.4541v5.0449h-1.1211v-1.0869h-.1094c-.4785.7861-1.2851 1.2168-2.2695 1.2168zm.2187-1.0322c1.21 0 2.1055-.793 2.1055-1.8457v-.6768l-1.9824.1299c-1.1211.0752-1.6133.4648-1.6133 1.2031 0 .752.6357 1.1895 1.4902 1.1895zm9.1192 1.0322c-1.0254 0-1.9004-.4854-2.3653-1.3057h-.1093v1.1758h-1.1211v-10.2949h1.1757v4.0879h.1094c.4033-.793 1.2989-1.292 2.3106-1.292 1.873 0 3.0898 1.497 3.0898 3.8144 0 2.3037-1.2236 3.8145-3.0898 3.8145zm-.2735-6.5694c-1.3398 0-2.1738 1.0528-2.1738 2.7549 0 1.7022.834 2.7549 2.1738 2.7549 1.3467 0 2.1465-1.0322 2.1465-2.7549 0-1.7226-.7998-2.7549-2.1465-2.7549zm10.0899 4.5323h1.1758c-.3418 1.2578-1.4903 2.0371-3.1036 2.0371-2.0439 0-3.3222-1.4766-3.3222-3.8076 0-2.3174 1.2988-3.8213 3.3222-3.8213 1.9893 0 3.1993 1.415 3.1993 3.7051v.4511h-5.2979v.0547c.0615 1.4561.875 2.3789 2.126 2.3789.9502 0 1.5928-.3486 1.9004-.998zm-1.9414-4.5528c-1.1758 0-1.9961.8614-2.085 2.167h4.0606c-.0274-1.3056-.8067-2.167-1.9756-2.167zm5.1269 6.46v-10.2949h1.1758v10.2949z" fill="#656a76"/><rect fill="#f1f2f3" height="28" rx="5" width="106" x="101" y="45"/><path clip-rule="evenodd" d="m110.125 53.2473c.538-.3258 1.212-.3258 1.75 0l3.937 2.3863c.505.3059.813.8531.813 1.4432v3.8463c0 .5901-.308 1.1373-.813 1.4431l-3.937 2.3864c-.538.3258-1.212.3258-1.75 0l-3.937-2.3864c-.505-.3058-.813-.853-.813-1.4431v-3.8463c0-.5901.308-1.1373.813-1.4432zm1.167.9621c-.18-.1086-.404-.1086-.584 0l-3.937 2.3863c-.168.102-.271.2844-.271.4811v3.8463c0 .1967.103.3791.271.481l3.937 2.3864c.18.1086.404.1086.584 0l3.937-2.3864c.168-.1019.271-.2843.271-.481v-3.8463c0-.1967-.103-.3791-.271-.4811z" fill="#656a76" fill-rule="evenodd"/><path d="m123.769 64h-1.532v-9.8643h1.532zm8.606-5.0381h-1.429c-.171-.7246-.772-1.2783-1.757-1.2783-1.23 0-1.982.9707-1.982 2.5771 0 1.6407.759 2.6319 1.982 2.6319.93 0 1.566-.4375 1.757-1.2442h1.429c-.191 1.4629-1.34 2.4952-3.179 2.4952-2.167 0-3.493-1.4766-3.493-3.8829 0-2.3584 1.319-3.8281 3.486-3.8281 1.867 0 2.995 1.0869 3.186 2.5293zm4.826 5.1817c-2.18 0-3.513-1.4561-3.513-3.8555 0-2.3926 1.339-3.8555 3.513-3.8555 2.167 0 3.507 1.4561 3.507 3.8555s-1.333 3.8555-3.507 3.8555zm0-1.251c1.272 0 1.996-.9571 1.996-2.6045 0-1.6543-.724-2.6113-1.996-2.6113-1.278 0-1.996.957-1.996 2.6113s.718 2.6045 1.996 2.6045zm5.278 1.1074v-7.4238h1.415v1.1758h.109c.362-.8204 1.101-1.3194 2.222-1.3194 1.661 0 2.577.9912 2.577 2.7617v4.8057h-1.47v-4.457c0-1.2305-.52-1.8321-1.606-1.8321-1.087 0-1.778.7383-1.778 1.9346v4.3545zm14.717-1.333v1.333h-6.152v-9.8643h1.531v8.5313zm3.828 1.456c-1.435 0-2.481-.8613-2.481-2.2148 0-1.333.998-2.1055 2.769-2.2148l2.016-.1231v-.6494c0-.8135-.519-1.2715-1.524-1.2715-.821 0-1.388.3076-1.552.8477h-1.422c.15-1.251 1.354-2.0645 3.042-2.0645 1.866 0 2.919.9297 2.919 2.4883v5.0791h-1.415v-1.0527h-.116c-.445.7519-1.258 1.1757-2.236 1.1757zm.376-1.1826c1.108 0 1.928-.7246 1.928-1.6816v-.6426l-1.818.1231c-1.026.0683-1.49.4306-1.49 1.1074 0 .6904.581 1.0937 1.38 1.0937zm9.427 1.1826c-1.039 0-1.907-.4785-2.351-1.2988h-.11v1.1758h-1.415v-10.3359h1.47v4.0879h.116c.397-.8067 1.272-1.3057 2.29-1.3057 1.887 0 3.076 1.4834 3.076 3.8418 0 2.3379-1.196 3.8349-3.076 3.8349zm-.424-6.4189c-1.23 0-2.003.9912-2.009 2.584.006 1.5928.772 2.5771 2.009 2.5771 1.244 0 1.99-.9707 1.99-2.5771 0-1.6065-.746-2.584-1.99-2.584zm10.152 4.3066h1.415c-.322 1.3125-1.525 2.1329-3.227 2.1329-2.133 0-3.438-1.4698-3.438-3.8418 0-2.3584 1.333-3.8692 3.431-3.8692 2.072 0 3.323 1.4151 3.323 3.7393v.5058h-5.257v.0684c.048 1.3467.806 2.1943 1.982 2.1943.889 0 1.497-.3281 1.771-.9297zm-1.826-4.3818c-1.086 0-1.845.793-1.927 1.9893h3.76c-.035-1.2032-.746-1.9893-1.833-1.9893zm5.162 6.3711v-10.3359h1.469v10.3359z" fill="#656a76"/><path clip-rule="evenodd" d="m193.438 54.875h.562v.1875c0 .5178.42.9375.938.9375h4.124c.518 0 .938-.4197.938-.9375v-.1875h.563c.31 0 .562.2518.562.5625v2.25c0 .3107.252.5625.563.5625.31 0 .562-.2518.562-.5625v-2.25c0-.932-.756-1.6875-1.687-1.6875h-.582c-.087-.4279-.465-.75-.919-.75h-4.124c-.454 0-.832.3221-.919.75h-.581c-.932 0-1.688.7555-1.688 1.6875v7.875c0 .932.756 1.6875 1.688 1.6875h7.124c.932 0 1.688-.7555 1.688-1.6875v-.75c0-.3107-.252-.5625-.562-.5625-.311 0-.563.2518-.563.5625v.75c0 .3107-.252.5625-.563.5625h-7.124c-.311 0-.563-.2518-.563-.5625v-7.875c0-.3107.252-.5625.563-.5625zm1.687-.75v.75h3.75v-.75z" fill="#1060ff" fill-rule="evenodd"/><path d="m194.562 57.125c-.31 0-.562.2518-.562.5625s.252.5625.562.5625h2.25c.311 0 .563-.2518.563-.5625s-.252-.5625-.563-.5625z" fill="#1060ff"/><path d="m194 62.1875c0-.3107.252-.5625.562-.5625h2.25c.311 0 .563.2518.563.5625s-.252.5625-.563.5625h-2.25c-.31 0-.562-.2518-.562-.5625z" fill="#1060ff"/><path d="m194.562 59.375c-.31 0-.562.2518-.562.5625s.252.5625.562.5625h1.5c.311 0 .563-.2518.563-.5625s-.252-.5625-.563-.5625z" fill="#1060ff"/><path d="m203 59.9375c0 .3107-.252.5625-.562.5625h-3.143l.915.9148c.22.2196.22.5758 0 .7954-.219.2197-.576.2197-.795 0l-1.875-1.8745c-.105-.1055-.165-.249-.165-.3982s.059-.2923.165-.3977l1.875-1.875c.219-.2197.576-.2197.795 0 .22.2196.22.5758 0 .7954l-.915.9148h3.143c.31 0 .562.2518.562.5625z" fill="#1060ff"/><rect fill="#f1f2f3" height="24" rx="5" width="82" x="223" y="13"/><path clip-rule="evenodd" d="m237.834 17.3297c.717-.4344 1.615-.4344 2.332 0l5.25 3.1818c.673.4078 1.084 1.1374 1.084 1.9242v5.1284c0 .7868-.411 1.5164-1.084 1.9242l-5.25 3.1818c-.717.4344-1.615.4344-2.332 0l-5.25-3.1818c-.673-.4078-1.084-1.1374-1.084-1.9242v-5.1284c0-.7868.411-1.5164 1.084-1.9242zm1.555 1.2828c-.239-.1448-.539-.1448-.778 0l-5.25 3.1818c-.224.136-.361.3792-.361.6414v5.1284c0 .2623.137.5055.361.6414l5.25 3.1818c.239.1448.539.1448.778 0l5.25-3.1818c.224-.1359.361-.3791.361-.6414v-5.1284c0-.2622-.137-.5054-.361-.6414z" fill="#3b3d45" fill-rule="evenodd"/><path d="m252.149 20.8403h3.307c2.717 0 4.31 1.6758 4.31 4.5576 0 2.9136-1.58 4.6021-4.31 4.6021h-3.307zm1.422 1.2251v6.7095h1.726c1.917 0 3.022-1.2251 3.022-3.3579 0-2.1138-1.124-3.3516-3.022-3.3516zm12.498 6.0874h1.314c-.298 1.2188-1.415 1.9805-2.996 1.9805-1.98 0-3.193-1.3647-3.193-3.5674 0-2.1899 1.238-3.5928 3.187-3.5928 1.923 0 3.085 1.314 3.085 3.4722v.4697h-4.882v.0635c.045 1.2505.749 2.0376 1.841 2.0376.825 0 1.39-.3047 1.644-.8633zm-1.694-4.0688c-1.01 0-1.714.7363-1.791 1.8472h3.492c-.032-1.1172-.692-1.8472-1.701-1.8472zm5.217 5.916v-5.7827h-1.136v-1.0918h1.136v-.7427c0-1.3711.699-2.0439 2.133-2.0439.311 0 .578.0254.813.0634v1.0284c-.127-.0191-.311-.0318-.527-.0318-.762 0-1.073.3491-1.073 1.0474v.6792h1.542v1.0918h-1.523v5.7827zm6.145.1143c-1.333 0-2.304-.7998-2.304-2.0567 0-1.2378.926-1.9551 2.57-2.0566l1.873-.1143v-.603c0-.7554-.482-1.1807-1.416-1.1807-.761 0-1.288.2857-1.44.7871h-1.321c.14-1.1616 1.257-1.917 2.825-1.917 1.733 0 2.71.8633 2.71 2.3106v4.7163h-1.314v-.9775h-.108c-.412.6982-1.167 1.0918-2.075 1.0918zm.349-1.0982c1.028 0 1.79-.6728 1.79-1.5615v-.5967l-1.688.1143c-.953.0634-1.384.3999-1.384 1.0283 0 .6411.539 1.0156 1.282 1.0156zm10.918-5.9097v6.8936h-1.314v-1.0918h-.108c-.336.7808-1.041 1.2251-2.088 1.2251-1.53 0-2.381-.9331-2.381-2.5518v-4.4751h1.365v4.1387c0 1.1426.451 1.6885 1.454 1.6885 1.104 0 1.707-.6729 1.707-1.7837v-4.0435zm2.044 6.8936v-9.5977h1.365v9.5977zm3.897-8.6328h1.365v1.7583h1.498v1.0918h-1.498v3.6372c0 .7427.298 1.0664.978 1.0664.209 0 .33-.0127.52-.0317v1.0854c-.222.0381-.476.0698-.743.0698-1.517 0-2.12-.5332-2.12-1.8598v-3.9673h-1.098v-1.0918h1.098z" fill="#3b3d45"/><path clip-rule="evenodd" d="m327.834 17.3297c.717-.4344 1.615-.4344 2.332 0l5.25 3.1818c.673.4078 1.084 1.1374 1.084 1.9242v5.1284c0 .7868-.411 1.5164-1.084 1.9242l-5.25 3.1818c-.717.4344-1.615.4344-2.332 0l-5.25-3.1818c-.673-.4078-1.084-1.1374-1.084-1.9242v-5.1284c0-.7868.411-1.5164 1.084-1.9242zm1.555 1.2828c-.239-.1448-.539-.1448-.778 0l-5.25 3.1818c-.224.136-.361.3792-.361.6414v5.1284c0 .2623.137.5055.361.6414l5.25 3.1818c.239.1448.539.1448.778 0l5.25-3.1818c.224-.1359.361-.3791.361-.6414v-5.1284c0-.2622-.137-.5054-.361-.6414z" fill="#000001" fill-rule="evenodd"/><path d="m353.211 31h-2.016v-9.5781h-3.468v-1.6953h8.961v1.6953h-3.477zm6.211-9.9688c-.633 0-1.156-.5078-1.156-1.1484 0-.6328.523-1.1484 1.156-1.1484.64 0 1.164.5156 1.164 1.1484 0 .6406-.524 1.1484-1.164 1.1484zm-.961 9.9688v-8.5391h1.93v8.5391zm4.953-10.6328h1.93v2.1484h1.828v1.5078h-1.828v4.25c0 .8516.359 1.2344 1.172 1.2344.273 0 .422-.0156.656-.039v1.4843c-.281.0547-.641.086-1.016.086-1.961 0-2.742-.6563-2.742-2.3047v-4.711h-1.352v-1.5078h1.352zm5.774 10.6328v-11.8438h1.937v11.8438zm9.96-2.3359h1.836c-.351 1.539-1.781 2.5078-3.796 2.5078-2.516 0-4.032-1.6719-4.032-4.4063 0-2.7422 1.539-4.4687 4.016-4.4687 2.437 0 3.898 1.6172 3.898 4.2969v.6171h-5.968v.1016c.046 1.4453.867 2.3516 2.14 2.3516.961 0 1.625-.3594 1.906-1zm-1.984-4.8594c-1.156 0-1.969.8359-2.055 2.1172h4.024c-.039-1.2969-.805-2.1172-1.969-2.1172z" fill="#0c0c0e"/><rect fill="#f1f2f3" height="28" rx="5" width="60" x="321" y="45"/><path d="m332.246 62.8926v1.1074h-5.988v-9.8643h1.23v8.7569zm3.869 1.2373c-1.428 0-2.488-.8477-2.488-2.1944 0-1.3193.971-2.0781 2.686-2.1806l2.126-.1299v-.6699c0-.9092-.567-1.4082-1.668-1.4082-.881 0-1.497.3349-1.661.916h-1.189c.157-1.1826 1.319-1.9619 2.891-1.9619 1.798 0 2.803.9228 2.803 2.4541v5.0449h-1.121v-1.0869h-.109c-.479.7861-1.285 1.2168-2.27 1.2168zm.219-1.0322c1.21 0 2.105-.793 2.105-1.8457v-.6768l-1.982.1299c-1.121.0752-1.613.4648-1.613 1.2031 0 .752.635 1.1895 1.49 1.1895zm9.119 1.0322c-1.025 0-1.9-.4854-2.365-1.3057h-.109v1.1758h-1.122v-10.2949h1.176v4.0879h.11c.403-.793 1.298-1.292 2.31-1.292 1.873 0 3.09 1.497 3.09 3.8144 0 2.3037-1.224 3.8145-3.09 3.8145zm-.273-6.5694c-1.34 0-2.174 1.0528-2.174 2.7549 0 1.7022.834 2.7549 2.174 2.7549 1.346 0 2.146-1.0322 2.146-2.7549 0-1.7226-.8-2.7549-2.146-2.7549zm10.09 4.5323h1.175c-.341 1.2578-1.49 2.0371-3.103 2.0371-2.044 0-3.322-1.4766-3.322-3.8076 0-2.3174 1.298-3.8213 3.322-3.8213 1.989 0 3.199 1.415 3.199 3.7051v.4511h-5.298v.0547c.062 1.4561.875 2.3789 2.126 2.3789.95 0 1.593-.3486 1.901-.998zm-1.942-4.5528c-1.176 0-1.996.8614-2.085 2.167h4.061c-.028-1.3056-.807-2.167-1.976-2.167zm5.127 6.46v-10.2949h1.176v10.2949z" fill="#656a76"/><path clip-rule="evenodd" d="m367.438 54.875h.562v.1875c0 .5178.42.9375.938.9375h4.124c.518 0 .938-.4197.938-.9375v-.1875h.563c.31 0 .562.2518.562.5625v2.25c0 .3107.252.5625.563.5625.31 0 .562-.2518.562-.5625v-2.25c0-.932-.756-1.6875-1.687-1.6875h-.582c-.087-.4279-.465-.75-.919-.75h-4.124c-.454 0-.832.3221-.919.75h-.581c-.932 0-1.688.7555-1.688 1.6875v7.875c0 .932.756 1.6875 1.688 1.6875h7.124c.932 0 1.688-.7555 1.688-1.6875v-.75c0-.3107-.252-.5625-.562-.5625-.311 0-.563.2518-.563.5625v.75c0 .3107-.252.5625-.563.5625h-7.124c-.311 0-.563-.2518-.563-.5625v-7.875c0-.3107.252-.5625.563-.5625zm1.687-.75v.75h3.75v-.75z" fill="#1060ff" fill-rule="evenodd"/><path d="m368.562 57.125c-.31 0-.562.2518-.562.5625s.252.5625.562.5625h2.25c.311 0 .563-.2518.563-.5625s-.252-.5625-.563-.5625z" fill="#1060ff"/><path d="m368 62.1875c0-.3107.252-.5625.562-.5625h2.25c.311 0 .563.2518.563.5625s-.252.5625-.563.5625h-2.25c-.31 0-.562-.2518-.562-.5625z" fill="#1060ff"/><path d="m368.562 59.375c-.31 0-.562.2518-.562.5625s.252.5625.562.5625h1.5c.311 0 .563-.2518.563-.5625s-.252-.5625-.563-.5625z" fill="#1060ff"/><path d="m377 59.9375c0 .3107-.252.5625-.562.5625h-3.143l.915.9148c.22.2196.22.5758 0 .7954-.219.2197-.576.2197-.795 0l-1.875-1.8745c-.105-.1055-.165-.249-.165-.3982s.059-.2923.165-.3977l1.875-1.875c.219-.2197.576-.2197.795 0 .22.2196.22.5758 0 .7954l-.915.9148h3.143c.31 0 .562.2518.562.5625z" fill="#1060ff"/><path clip-rule="evenodd" d="m392.125 53.2473c.538-.3258 1.212-.3258 1.75 0l3.937 2.3863c.505.3059.813.8531.813 1.4432v3.8463c0 .5901-.308 1.1373-.813 1.4431l-3.937 2.3864c-.538.3258-1.212.3258-1.75 0l-3.937-2.3864c-.505-.3058-.813-.853-.813-1.4431v-3.8463c0-.5901.308-1.1373.813-1.4432zm1.167.9621c-.18-.1086-.404-.1086-.584 0l-3.937 2.3863c-.168.102-.271.2844-.271.4811v3.8463c0 .1967.103.3791.271.481l3.937 2.3864c.18.1086.404.1086.584 0l3.937-2.3864c.168-.1019.271-.2843.271-.481v-3.8463c0-.1967-.103-.3791-.271-.4811z" fill="#656a76" fill-rule="evenodd"/><path d="m405.488 64h-1.23v-9.8643h1.23zm8.463-5.1133h-1.189c-.192-.7314-.841-1.3262-1.901-1.3262-1.326 0-2.16 1.0596-2.16 2.7276 0 1.7021.848 2.7822 2.16 2.7822.992 0 1.682-.458 1.901-1.292h1.189c-.212 1.3535-1.312 2.3516-3.083 2.3516-2.064 0-3.384-1.4971-3.384-3.8418 0-2.2969 1.313-3.7871 3.377-3.7871 1.791 0 2.885 1.0732 3.09 2.3857zm4.765 5.2432c-2.099 0-3.398-1.4492-3.398-3.8145 0-2.372 1.299-3.8144 3.398-3.8144 2.098 0 3.397 1.4424 3.397 3.8144 0 2.3653-1.299 3.8145-3.397 3.8145zm0-1.0596c1.394 0 2.18-1.0117 2.18-2.7549 0-1.75-.786-2.7549-2.18-2.7549-1.395 0-2.181 1.0049-2.181 2.7549 0 1.7432.786 2.7549 2.181 2.7549zm5.243.9297v-7.3691h1.121v1.1621h.109c.37-.8135 1.087-1.292 2.215-1.292 1.655 0 2.577.9775 2.577 2.7275v4.7715h-1.175v-4.4844c0-1.3261-.561-1.9551-1.737-1.9551-1.175 0-1.934.7862-1.934 2.0782v4.3613zm14.314-1.1074v1.1074h-5.988v-9.8643h1.231v8.7569zm3.87 1.2373c-1.429 0-2.489-.8477-2.489-2.1944 0-1.3193.971-2.0781 2.687-2.1806l2.126-.1299v-.6699c0-.9092-.568-1.4082-1.668-1.4082-.882 0-1.497.3349-1.661.916h-1.19c.157-1.1826 1.32-1.9619 2.892-1.9619 1.798 0 2.803.9228 2.803 2.4541v5.0449h-1.122v-1.0869h-.109c-.478.7861-1.285 1.2168-2.269 1.2168zm.218-1.0322c1.21 0 2.106-.793 2.106-1.8457v-.6768l-1.983.1299c-1.121.0752-1.613.4648-1.613 1.2031 0 .752.636 1.1895 1.49 1.1895zm9.119 1.0322c-1.025 0-1.9-.4854-2.365-1.3057h-.109v1.1758h-1.121v-10.2949h1.176v4.0879h.109c.403-.793 1.299-1.292 2.31-1.292 1.874 0 3.09 1.497 3.09 3.8144 0 2.3037-1.223 3.8145-3.09 3.8145zm-.273-6.5694c-1.34 0-2.174 1.0528-2.174 2.7549 0 1.7022.834 2.7549 2.174 2.7549 1.347 0 2.147-1.0322 2.147-2.7549 0-1.7226-.8-2.7549-2.147-2.7549zm10.09 4.5323h1.176c-.342 1.2578-1.491 2.0371-3.104 2.0371-2.044 0-3.322-1.4766-3.322-3.8076 0-2.3174 1.299-3.8213 3.322-3.8213 1.989 0 3.199 1.415 3.199 3.7051v.4511h-5.297v.0547c.061 1.4561.875 2.3789 2.125 2.3789.951 0 1.593-.3486 1.901-.998zm-1.942-4.5528c-1.175 0-1.996.8614-2.084 2.167h4.06c-.027-1.3056-.807-2.167-1.976-2.167zm5.127 6.46v-10.2949h1.176v10.2949z" fill="#656a76"/></g><rect fill="#fafafa" height="36" rx="5" width="36" x="895" y="25"/><g fill="#0c0c0e"><path d="m906 41c-1.105 0-2 .8954-2 2s.895 2 2 2 2-.8954 2-2-.895-2-2-2z"/><path d="m913 41c-1.105 0-2 .8954-2 2s.895 2 2 2 2-.8954 2-2-.895-2-2-2z"/><path d="m920 41c-1.105 0-2 .8954-2 2s.895 2 2 2 2-.8954 2-2-.895-2-2-2z"/></g><rect height="35" rx="4.5" stroke="#3b3d45" stroke-opacity=".4" width="35" x="895.5" y="25.5"/></g></svg>