<svg width="196" height="157" viewBox="0 0 196 157" fill="none" xmlns="http://www.w3.org/2000/svg">
<g filter="url(#filter0_dd_689_136597)">
<rect x="6" y="1" width="184" height="80" rx="6" fill="white"/>
</g>
<path d="M6.91406 103H8.61914V99.2852C8.61914 98.4297 9.11133 97.8496 9.9668 97.8496C10.7402 97.8496 11.1562 98.3184 11.1562 99.2324V103H12.8613V98.8457C12.8613 97.2988 12.0352 96.4258 10.6465 96.4258C9.69727 96.4258 8.99414 96.8711 8.69531 97.6035H8.58984V94.082H6.91406V103ZM15.3867 95.5586C15.9141 95.5586 16.3477 95.1367 16.3477 94.6094C16.3477 94.0762 15.9141 93.6543 15.3867 93.6543C14.8594 93.6543 14.4199 94.0762 14.4199 94.6094C14.4199 95.1367 14.8594 95.5586 15.3867 95.5586ZM14.5312 103H16.2363V96.5488H14.5312V103ZM20.8125 105.443C22.7637 105.443 24 104.494 24 102.988V96.5488H22.3477V97.5801H22.2422C21.8965 96.877 21.1523 96.4434 20.2793 96.4434C18.6387 96.4434 17.6309 97.7207 17.6309 99.7188C17.6309 101.652 18.6328 102.906 20.2441 102.906C21.1523 102.906 21.832 102.537 22.1895 101.857H22.2949V103.059C22.2949 103.803 21.7617 104.236 20.8477 104.236C20.1094 104.236 19.6289 103.979 19.541 103.568H17.8535C17.959 104.699 19.0957 105.443 20.8125 105.443ZM20.8359 101.6C19.9102 101.6 19.3828 100.873 19.3828 99.7129C19.3828 98.5527 19.916 97.8262 20.8359 97.8262C21.7559 97.8262 22.3125 98.5527 22.3125 99.7129C22.3125 100.873 21.7617 101.6 20.8359 101.6ZM25.7695 103H27.4746V99.2852C27.4746 98.4297 27.9668 97.8496 28.8223 97.8496C29.5957 97.8496 30.0117 98.3184 30.0117 99.2324V103H31.7168V98.8457C31.7168 97.2988 30.8906 96.4258 29.502 96.4258C28.5527 96.4258 27.8496 96.8711 27.5508 97.6035H27.4453V94.082H25.7695V103Z" fill="#0C0C0E"/>
<path d="M8.79492 131V122.545H7.02539V131H8.79492ZM10.6758 131H12.3809V127.268C12.3809 126.395 12.8672 125.832 13.6582 125.832C14.4668 125.832 14.8477 126.307 14.8477 127.215V131H16.5527V126.828C16.5527 125.287 15.7793 124.408 14.3438 124.408C13.3887 124.408 12.7324 124.859 12.4336 125.586H12.3281V124.549H10.6758V131ZM18.6973 123.008V124.607H17.6895V125.902H18.6973V129.26C18.6973 130.514 19.3184 131.023 20.8887 131.023C21.2168 131.023 21.5332 130.988 21.7441 130.947V129.688C21.5801 129.705 21.4629 129.717 21.2402 129.717C20.6602 129.717 20.4023 129.447 20.4023 128.867V125.902H21.7441V124.607H20.4023V123.008H18.6973ZM27.2988 129.178C27.1172 129.617 26.6543 129.863 25.9805 129.863C25.0898 129.863 24.5273 129.248 24.5039 128.264V128.176H28.9395V127.666C28.9395 125.627 27.8145 124.408 25.9102 124.408C23.9883 124.408 22.8047 125.709 22.8047 127.807C22.8047 129.893 23.9648 131.135 25.9336 131.135C27.5156 131.135 28.6348 130.379 28.8867 129.178H27.2988ZM25.916 125.68C26.7129 125.68 27.2285 126.23 27.2637 127.115H24.5098C24.5684 126.248 25.125 125.68 25.916 125.68ZM30.3398 131H32.0449V127.391C32.0449 126.482 32.6836 125.926 33.6152 125.926C33.8906 125.926 34.2891 125.973 34.4238 126.02V124.52C34.2773 124.473 33.9902 124.443 33.7559 124.443C32.9355 124.443 32.2676 124.93 32.0977 125.574H31.9922V124.549H30.3398V131ZM37.2188 131.1C38.0566 131.1 38.7598 130.742 39.0938 130.145H39.1992V131H40.8516V126.594C40.8516 125.217 39.8848 124.408 38.1738 124.408C36.5508 124.408 35.4551 125.152 35.3438 126.336H36.9141C37.0547 125.932 37.4648 125.715 38.0801 125.715C38.7832 125.715 39.1699 126.037 39.1699 126.594V127.127L37.6055 127.221C36 127.314 35.1035 127.994 35.1035 129.16C35.1035 130.338 35.9766 131.1 37.2188 131.1ZM37.7812 129.852C37.1895 129.852 36.7734 129.553 36.7734 129.055C36.7734 128.58 37.1309 128.305 37.8633 128.258L39.1699 128.17V128.65C39.1699 129.33 38.5723 129.852 37.7812 129.852ZM48.2461 126.799C48.1055 125.357 47.0801 124.408 45.3691 124.408C43.3477 124.408 42.2109 125.633 42.2109 127.76C42.2109 129.91 43.3535 131.135 45.3691 131.135C47.0508 131.135 48.1055 130.209 48.2461 128.791H46.6523C46.5234 129.436 46.0664 129.781 45.3691 129.781C44.4551 129.781 43.9336 129.061 43.9336 127.76C43.9336 126.477 44.4492 125.768 45.3691 125.768C46.0957 125.768 46.5352 126.178 46.6523 126.799H48.2461ZM50.127 123.008V124.607H49.1191V125.902H50.127V129.26C50.127 130.514 50.748 131.023 52.3184 131.023C52.6465 131.023 52.9629 130.988 53.1738 130.947V129.688C53.0098 129.705 52.8926 129.717 52.6699 129.717C52.0898 129.717 51.832 129.447 51.832 128.867V125.902H53.1738V124.607H51.832V123.008H50.127ZM55.4648 123.559C55.9922 123.559 56.4258 123.137 56.4258 122.609C56.4258 122.076 55.9922 121.654 55.4648 121.654C54.9375 121.654 54.498 122.076 54.498 122.609C54.498 123.137 54.9375 123.559 55.4648 123.559ZM54.6094 131H56.3145V124.549H54.6094V131ZM63.8848 124.549H62.0859L60.7617 129.4H60.6562L59.3203 124.549H57.4863L59.7305 131H61.6523L63.8848 124.549ZM68.9473 129.178C68.7656 129.617 68.3027 129.863 67.6289 129.863C66.7383 129.863 66.1758 129.248 66.1523 128.264V128.176H70.5879V127.666C70.5879 125.627 69.4629 124.408 67.5586 124.408C65.6367 124.408 64.4531 125.709 64.4531 127.807C64.4531 129.893 65.6133 131.135 67.582 131.135C69.1641 131.135 70.2832 130.379 70.5352 129.178H68.9473ZM67.5645 125.68C68.3613 125.68 68.877 126.23 68.9121 127.115H66.1582C66.2168 126.248 66.7734 125.68 67.5645 125.68ZM80.8008 126.799C80.6602 125.357 79.6348 124.408 77.9238 124.408C75.9023 124.408 74.7656 125.633 74.7656 127.76C74.7656 129.91 75.9082 131.135 77.9238 131.135C79.6055 131.135 80.6602 130.209 80.8008 128.791H79.207C79.0781 129.436 78.6211 129.781 77.9238 129.781C77.0098 129.781 76.4883 129.061 76.4883 127.76C76.4883 126.477 77.0039 125.768 77.9238 125.768C78.6504 125.768 79.0898 126.178 79.207 126.799H80.8008ZM83.9062 131.1C84.7441 131.1 85.4473 130.742 85.7812 130.145H85.8867V131H87.5391V126.594C87.5391 125.217 86.5723 124.408 84.8613 124.408C83.2383 124.408 82.1426 125.152 82.0312 126.336H83.6016C83.7422 125.932 84.1523 125.715 84.7676 125.715C85.4707 125.715 85.8574 126.037 85.8574 126.594V127.127L84.293 127.221C82.6875 127.314 81.791 127.994 81.791 129.16C81.791 130.338 82.6641 131.1 83.9062 131.1ZM84.4688 129.852C83.877 129.852 83.4609 129.553 83.4609 129.055C83.4609 128.58 83.8184 128.305 84.5508 128.258L85.8574 128.17V128.65C85.8574 129.33 85.2598 129.852 84.4688 129.852ZM89.2148 131H90.9199V127.391C90.9199 126.482 91.5586 125.926 92.4902 125.926C92.7656 125.926 93.1641 125.973 93.2988 126.02V124.52C93.1523 124.473 92.8652 124.443 92.6309 124.443C91.8105 124.443 91.1426 124.93 90.9727 125.574H90.8672V124.549H89.2148V131ZM96.6035 131.1C97.5 131.1 98.2324 130.684 98.5781 129.986H98.6836V131H100.336V122.082H98.6309V125.58H98.5312C98.1973 124.865 97.4766 124.443 96.6035 124.443C94.9805 124.443 93.9727 125.715 93.9727 127.766C93.9727 129.822 94.9746 131.1 96.6035 131.1ZM97.1836 125.826C98.0918 125.826 98.6484 126.57 98.6484 127.777C98.6484 128.984 98.0977 129.723 97.1836 129.723C96.2695 129.723 95.7246 128.99 95.7246 127.771C95.7246 126.559 96.2754 125.826 97.1836 125.826ZM101.959 126.43C101.959 127.42 102.568 128.012 103.822 128.287L104.994 128.551C105.562 128.68 105.809 128.879 105.809 129.207C105.809 129.635 105.352 129.928 104.689 129.928C104.01 129.928 103.594 129.664 103.465 129.219H101.801C101.918 130.438 102.949 131.135 104.654 131.135C106.348 131.135 107.502 130.303 107.502 129.025C107.502 128.064 106.939 127.537 105.686 127.262L104.473 126.998C103.875 126.863 103.6 126.658 103.6 126.33C103.6 125.908 104.051 125.621 104.66 125.621C105.293 125.621 105.686 125.885 105.773 126.312H107.35C107.256 125.094 106.289 124.408 104.648 124.408C103.037 124.408 101.959 125.223 101.959 126.43ZM109.939 126.688C110.438 126.688 110.801 126.318 110.801 125.844C110.801 125.369 110.438 125 109.939 125C109.447 125 109.078 125.369 109.078 125.844C109.078 126.318 109.447 126.688 109.939 126.688ZM109.939 131.088C110.438 131.088 110.801 130.719 110.801 130.244C110.801 129.77 110.438 129.4 109.939 129.4C109.447 129.4 109.078 129.77 109.078 130.244C109.078 130.719 109.447 131.088 109.939 131.088ZM121.406 124.637H120.146V128.369C120.146 129.395 119.59 130.016 118.57 130.016C117.645 130.016 117.229 129.512 117.229 128.457V124.637H115.969V128.768C115.969 130.262 116.754 131.123 118.166 131.123C119.133 131.123 119.783 130.713 120.094 129.992H120.193V131H121.406V124.637ZM123.088 126.418C123.088 127.361 123.65 127.9 124.863 128.182L125.977 128.445C126.615 128.598 126.914 128.855 126.914 129.254C126.914 129.775 126.357 130.139 125.572 130.139C124.811 130.139 124.342 129.828 124.184 129.33H122.924C123.035 130.438 124.025 131.123 125.543 131.123C127.066 131.123 128.186 130.32 128.186 129.137C128.186 128.211 127.617 127.689 126.404 127.408L125.344 127.162C124.652 126.998 124.33 126.752 124.33 126.359C124.33 125.844 124.863 125.498 125.566 125.498C126.281 125.498 126.738 125.809 126.855 126.283H128.062C127.939 125.182 127.002 124.514 125.566 124.514C124.125 124.514 123.088 125.311 123.088 126.418ZM133.887 129.295C133.652 129.811 133.131 130.092 132.369 130.092C131.361 130.092 130.711 129.365 130.67 128.211V128.152H135.176V127.719C135.176 125.727 134.104 124.514 132.328 124.514C130.529 124.514 129.387 125.809 129.387 127.83C129.387 129.863 130.506 131.123 132.334 131.123C133.793 131.123 134.824 130.42 135.1 129.295H133.887ZM132.322 125.539C133.254 125.539 133.863 126.213 133.893 127.244H130.67C130.74 126.219 131.391 125.539 132.322 125.539ZM140.42 131H141.68V125.662H143.086V124.654H141.662V124.027C141.662 123.383 141.949 123.061 142.652 123.061C142.852 123.061 143.021 123.072 143.139 123.09V122.141C142.922 122.105 142.676 122.082 142.389 122.082C141.064 122.082 140.42 122.703 140.42 123.969V124.654H139.371V125.662H140.42V131ZM146.965 131.123C148.828 131.123 149.971 129.875 149.971 127.818C149.971 125.762 148.822 124.514 146.965 124.514C145.102 124.514 143.953 125.768 143.953 127.818C143.953 129.875 145.096 131.123 146.965 131.123ZM146.965 130.051C145.869 130.051 145.254 129.236 145.254 127.818C145.254 126.4 145.869 125.58 146.965 125.58C148.055 125.58 148.676 126.4 148.676 127.818C148.676 129.23 148.055 130.051 146.965 130.051ZM151.488 131H152.748V127.197C152.748 126.301 153.422 125.686 154.377 125.686C154.6 125.686 154.975 125.727 155.08 125.756V124.572C154.945 124.543 154.705 124.525 154.518 124.525C153.686 124.525 152.977 124.977 152.795 125.604H152.701V124.637H151.488V131ZM160.02 123.031V124.654H159.006V125.662H160.02V129.324C160.02 130.549 160.576 131.041 161.977 131.041C162.223 131.041 162.457 131.012 162.662 130.977V129.975C162.486 129.992 162.375 130.004 162.182 130.004C161.555 130.004 161.279 129.705 161.279 129.02V125.662H162.662V124.654H161.279V123.031H160.02ZM164.203 131H165.463V127.273C165.463 126.277 166.037 125.615 167.068 125.615C167.959 125.615 168.434 126.137 168.434 127.186V131H169.693V126.887C169.693 125.381 168.855 124.52 167.496 124.52C166.535 124.52 165.861 124.941 165.551 125.65H165.451V122.141H164.203V131ZM175.652 129.295C175.418 129.811 174.896 130.092 174.135 130.092C173.127 130.092 172.477 129.365 172.436 128.211V128.152H176.941V127.719C176.941 125.727 175.869 124.514 174.094 124.514C172.295 124.514 171.152 125.809 171.152 127.83C171.152 129.863 172.271 131.123 174.1 131.123C175.559 131.123 176.59 130.42 176.865 129.295H175.652ZM174.088 125.539C175.02 125.539 175.629 126.213 175.658 127.244H172.436C172.506 126.219 173.156 125.539 174.088 125.539ZM6.97266 151H8.23242V147.273C8.23242 146.277 8.80664 145.615 9.83789 145.615C10.7285 145.615 11.2031 146.137 11.2031 147.186V151H12.4629V146.887C12.4629 145.381 11.625 144.52 10.2656 144.52C9.30469 144.52 8.63086 144.941 8.32031 145.65H8.2207V142.141H6.97266V151ZM16.9336 151.123C18.7969 151.123 19.9395 149.875 19.9395 147.818C19.9395 145.762 18.791 144.514 16.9336 144.514C15.0703 144.514 13.9219 145.768 13.9219 147.818C13.9219 149.875 15.0645 151.123 16.9336 151.123ZM16.9336 150.051C15.8379 150.051 15.2227 149.236 15.2227 147.818C15.2227 146.4 15.8379 145.58 16.9336 145.58C18.0234 145.58 18.6445 146.4 18.6445 147.818C18.6445 149.23 18.0234 150.051 16.9336 150.051ZM26.6133 144.637H25.2773L23.6953 149.711H23.5957L22.0078 144.637H20.6602L22.9629 151H24.3164L26.6133 144.637ZM31.8281 149.295C31.5938 149.811 31.0723 150.092 30.3105 150.092C29.3027 150.092 28.6523 149.365 28.6113 148.211V148.152H33.1172V147.719C33.1172 145.727 32.0449 144.514 30.2695 144.514C28.4707 144.514 27.3281 145.809 27.3281 147.83C27.3281 149.863 28.4473 151.123 30.2754 151.123C31.7344 151.123 32.7656 150.42 33.041 149.295H31.8281ZM30.2637 145.539C31.1953 145.539 31.8047 146.213 31.834 147.244H28.6113C28.6816 146.219 29.332 145.539 30.2637 145.539ZM34.6289 151H35.8887V147.197C35.8887 146.301 36.5625 145.686 37.5176 145.686C37.7402 145.686 38.1152 145.727 38.2207 145.756V144.572C38.0859 144.543 37.8457 144.525 37.6582 144.525C36.8262 144.525 36.1172 144.977 35.9355 145.604H35.8418V144.637H34.6289V151ZM43.4531 149.295C43.2188 149.811 42.6973 150.092 41.9355 150.092C40.9277 150.092 40.2773 149.365 40.2363 148.211V148.152H44.7422V147.719C44.7422 145.727 43.6699 144.514 41.8945 144.514C40.0957 144.514 38.9531 145.809 38.9531 147.83C38.9531 149.863 40.0723 151.123 41.9004 151.123C43.3594 151.123 44.3906 150.42 44.666 149.295H43.4531ZM41.8887 145.539C42.8203 145.539 43.4297 146.213 43.459 147.244H40.2363C40.3066 146.219 40.957 145.539 41.8887 145.539ZM48.5859 151.105C49.4648 151.105 50.209 150.689 50.5898 149.992H50.6895V151H51.8965V142.141H50.6367V145.645H50.543C50.1973 144.947 49.459 144.525 48.5859 144.525C46.9746 144.525 45.9375 145.809 45.9375 147.812C45.9375 149.828 46.9629 151.105 48.5859 151.105ZM48.9434 145.604C49.998 145.604 50.6602 146.459 50.6602 147.818C50.6602 149.189 50.0039 150.027 48.9434 150.027C47.877 150.027 47.2383 149.201 47.2383 147.818C47.2383 146.441 47.8828 145.604 48.9434 145.604ZM56.9238 146.418C56.9238 147.361 57.4863 147.9 58.6992 148.182L59.8125 148.445C60.4512 148.598 60.75 148.855 60.75 149.254C60.75 149.775 60.1934 150.139 59.4082 150.139C58.6465 150.139 58.1777 149.828 58.0195 149.33H56.7598C56.8711 150.438 57.8613 151.123 59.3789 151.123C60.9023 151.123 62.0215 150.32 62.0215 149.137C62.0215 148.211 61.4531 147.689 60.2402 147.408L59.1797 147.162C58.4883 146.998 58.166 146.752 58.166 146.359C58.166 145.844 58.6992 145.498 59.4023 145.498C60.1172 145.498 60.5742 145.809 60.6914 146.283H61.8984C61.7754 145.182 60.8379 144.514 59.4023 144.514C57.9609 144.514 56.9238 145.311 56.9238 146.418ZM63.9375 143.031V144.654H62.9238V145.662H63.9375V149.324C63.9375 150.549 64.4941 151.041 65.8945 151.041C66.1406 151.041 66.375 151.012 66.5801 150.977V149.975C66.4043 149.992 66.293 150.004 66.0996 150.004C65.4727 150.004 65.1973 149.705 65.1973 149.02V145.662H66.5801V144.654H65.1973V143.031H63.9375ZM69.8262 151.105C70.6641 151.105 71.3613 150.742 71.7422 150.098H71.8418V151H73.0547V146.646C73.0547 145.311 72.1523 144.514 70.5527 144.514C69.1055 144.514 68.0742 145.211 67.9453 146.283H69.1641C69.3047 145.82 69.791 145.557 70.4941 145.557C71.3555 145.557 71.8008 145.949 71.8008 146.646V147.203L70.0723 147.309C68.5547 147.402 67.6992 148.064 67.6992 149.207C67.6992 150.367 68.5957 151.105 69.8262 151.105ZM70.1484 150.092C69.4629 150.092 68.9648 149.746 68.9648 149.154C68.9648 148.574 69.3633 148.264 70.2422 148.205L71.8008 148.1V148.65C71.8008 149.471 71.0977 150.092 70.1484 150.092ZM75.293 143.031V144.654H74.2793V145.662H75.293V149.324C75.293 150.549 75.8496 151.041 77.25 151.041C77.4961 151.041 77.7305 151.012 77.9355 150.977V149.975C77.7598 149.992 77.6484 150.004 77.4551 150.004C76.8281 150.004 76.5527 149.705 76.5527 149.02V145.662H77.9355V144.654H76.5527V143.031H75.293ZM83.5312 149.295C83.2969 149.811 82.7754 150.092 82.0137 150.092C81.0059 150.092 80.3555 149.365 80.3145 148.211V148.152H84.8203V147.719C84.8203 145.727 83.748 144.514 81.9727 144.514C80.1738 144.514 79.0312 145.809 79.0312 147.83C79.0312 149.863 80.1504 151.123 81.9785 151.123C83.4375 151.123 84.4688 150.42 84.7441 149.295H83.5312ZM81.9668 145.539C82.8984 145.539 83.5078 146.213 83.5371 147.244H80.3145C80.3848 146.219 81.0352 145.539 81.9668 145.539Z" fill="#656A76"/>
<defs>
<filter id="filter0_dd_689_136597" x="0" y="0" width="196" height="103" filterUnits="userSpaceOnUse" color-interpolation-filters="sRGB">
<feFlood flood-opacity="0" result="BackgroundImageFix"/>
<feColorMatrix in="SourceAlpha" type="matrix" values="0 0 0 0 0 0 0 0 0 0 0 0 0 0 0 0 0 0 127 0" result="hardAlpha"/>
<feMorphology radius="10" operator="erode" in="SourceAlpha" result="effect1_dropShadow_689_136597"/>
<feOffset dy="16"/>
<feGaussianBlur stdDeviation="8"/>
<feColorMatrix type="matrix" values="0 0 0 0 0.396078 0 0 0 0 0.415686 0 0 0 0 0.462745 0 0 0 0.2 0"/>
<feBlend mode="normal" in2="BackgroundImageFix" result="effect1_dropShadow_689_136597"/>
<feColorMatrix in="SourceAlpha" type="matrix" values="0 0 0 0 0 0 0 0 0 0 0 0 0 0 0 0 0 0 127 0" result="hardAlpha"/>
<feOffset dy="2"/>
<feGaussianBlur stdDeviation="1.5"/>
<feColorMatrix type="matrix" values="0 0 0 0 0.396078 0 0 0 0 0.415686 0 0 0 0 0.462745 0 0 0 0.15 0"/>
<feBlend mode="normal" in2="effect1_dropShadow_689_136597" result="effect2_dropShadow_689_136597"/>
<feBlend mode="normal" in="SourceGraphic" in2="effect2_dropShadow_689_136597" result="shape"/>
</filter>
</defs>
</svg>
