<svg width="186" height="137" viewBox="0 0 186 137" fill="none" xmlns="http://www.w3.org/2000/svg">
<g filter="url(#filter0_d_689_136595)">
<rect x="1" y="1" width="184" height="80" rx="6" fill="white"/>
</g>
<path d="M5.66406 103.1C7.28711 103.1 8.2832 101.84 8.2832 99.7715C8.2832 97.6914 7.29883 96.4434 5.66406 96.4434C4.7793 96.4434 4.05273 96.8711 3.72461 97.5801H3.61914V94.082H1.91406V103H3.56641V101.986H3.67188C4.01758 102.689 4.75 103.1 5.66406 103.1ZM5.07227 97.8262C5.97461 97.8262 6.53125 98.5703 6.53125 99.7715C6.53125 100.984 5.98047 101.723 5.07227 101.723C4.16992 101.723 3.60742 100.979 3.60156 99.7773C3.60742 98.5762 4.17578 97.8262 5.07227 97.8262ZM11.4414 103.1C12.2793 103.1 12.9824 102.742 13.3164 102.145H13.4219V103H15.0742V98.5938C15.0742 97.2168 14.1074 96.4082 12.3965 96.4082C10.7734 96.4082 9.67773 97.1523 9.56641 98.3359H11.1367C11.2773 97.9316 11.6875 97.7148 12.3027 97.7148C13.0059 97.7148 13.3926 98.0371 13.3926 98.5938V99.127L11.8281 99.2207C10.2227 99.3145 9.32617 99.9941 9.32617 101.16C9.32617 102.338 10.1992 103.1 11.4414 103.1ZM12.0039 101.852C11.4121 101.852 10.9961 101.553 10.9961 101.055C10.9961 100.58 11.3535 100.305 12.0859 100.258L13.3926 100.17V100.65C13.3926 101.33 12.7949 101.852 12.0039 101.852ZM16.6035 98.4297C16.6035 99.4199 17.2129 100.012 18.4668 100.287L19.6387 100.551C20.207 100.68 20.4531 100.879 20.4531 101.207C20.4531 101.635 19.9961 101.928 19.334 101.928C18.6543 101.928 18.2383 101.664 18.1094 101.219H16.4453C16.5625 102.438 17.5938 103.135 19.2988 103.135C20.9922 103.135 22.1465 102.303 22.1465 101.025C22.1465 100.064 21.584 99.5371 20.3301 99.2617L19.1172 98.998C18.5195 98.8633 18.2441 98.6582 18.2441 98.3301C18.2441 97.9082 18.6953 97.6211 19.3047 97.6211C19.9375 97.6211 20.3301 97.8848 20.418 98.3125H21.9941C21.9004 97.0938 20.9336 96.4082 19.293 96.4082C17.6816 96.4082 16.6035 97.2227 16.6035 98.4297ZM27.7246 101.178C27.543 101.617 27.0801 101.863 26.4062 101.863C25.5156 101.863 24.9531 101.248 24.9297 100.264V100.176H29.3652V99.666C29.3652 97.627 28.2402 96.4082 26.3359 96.4082C24.4141 96.4082 23.2305 97.709 23.2305 99.8066C23.2305 101.893 24.3906 103.135 26.3594 103.135C27.9414 103.135 29.0605 102.379 29.3125 101.178H27.7246ZM26.3418 97.6797C27.1387 97.6797 27.6543 98.2305 27.6895 99.1152H24.9355C24.9941 98.248 25.5508 97.6797 26.3418 97.6797Z" fill="#0C0C0E"/>
<path d="M5.66406 122.34C3.23828 122.34 1.71484 124.045 1.71484 126.77C1.71484 129.488 3.20312 131.205 5.66406 131.205C8.10742 131.205 9.60742 129.482 9.60742 126.77C9.60742 124.051 8.0957 122.34 5.66406 122.34ZM5.66406 123.5C7.26367 123.5 8.26562 124.766 8.26562 126.77C8.26562 128.756 7.26953 130.045 5.66406 130.045C4.03516 130.045 3.05664 128.756 3.05664 126.77C3.05664 124.766 4.06445 123.5 5.66406 123.5ZM11.2422 131H12.502V127.268C12.502 126.242 13.0938 125.609 14.0254 125.609C14.957 125.609 15.4023 126.125 15.4023 127.18V131H16.6621V126.881C16.6621 125.363 15.877 124.514 14.4531 124.514C13.4922 124.514 12.8594 124.941 12.5488 125.645H12.4551V124.637H11.2422V131ZM18.4961 131H19.7559V122.141H18.4961V131ZM22.2812 133.309C23.582 133.309 24.1855 132.822 24.7305 131.293L27.1094 124.637H25.7734L24.1797 129.734H24.0801L22.4805 124.637H21.1094L23.418 131.018L23.3242 131.346C23.1074 132.02 22.7676 132.271 22.1699 132.271C22.0527 132.271 21.8594 132.266 21.7598 132.248V133.279C21.877 133.297 22.1758 133.309 22.2812 133.309ZM37.0586 124.637H35.7988V128.369C35.7988 129.395 35.2422 130.016 34.2227 130.016C33.2969 130.016 32.8809 129.512 32.8809 128.457V124.637H31.6211V128.768C31.6211 130.262 32.4062 131.123 33.8184 131.123C34.7852 131.123 35.4355 130.713 35.7461 129.992H35.8457V131H37.0586V124.637ZM38.7402 126.418C38.7402 127.361 39.3027 127.9 40.5156 128.182L41.6289 128.445C42.2676 128.598 42.5664 128.855 42.5664 129.254C42.5664 129.775 42.0098 130.139 41.2246 130.139C40.4629 130.139 39.9941 129.828 39.8359 129.33H38.5762C38.6875 130.438 39.6777 131.123 41.1953 131.123C42.7188 131.123 43.8379 130.32 43.8379 129.137C43.8379 128.211 43.2695 127.689 42.0566 127.408L40.9961 127.162C40.3047 126.998 39.9824 126.752 39.9824 126.359C39.9824 125.844 40.5156 125.498 41.2188 125.498C41.9336 125.498 42.3906 125.809 42.5078 126.283H43.7148C43.5918 125.182 42.6543 124.514 41.2188 124.514C39.7773 124.514 38.7402 125.311 38.7402 126.418ZM49.5391 129.295C49.3047 129.811 48.7832 130.092 48.0215 130.092C47.0137 130.092 46.3633 129.365 46.3223 128.211V128.152H50.8281V127.719C50.8281 125.727 49.7559 124.514 47.9805 124.514C46.1816 124.514 45.0391 125.809 45.0391 127.83C45.0391 129.863 46.1582 131.123 47.9863 131.123C49.4453 131.123 50.4766 130.42 50.752 129.295H49.5391ZM47.9746 125.539C48.9062 125.539 49.5156 126.213 49.5449 127.244H46.3223C46.3926 126.219 47.043 125.539 47.9746 125.539ZM56.0723 131H57.332V125.662H58.7383V124.654H57.3145V124.027C57.3145 123.383 57.6016 123.061 58.3047 123.061C58.5039 123.061 58.6738 123.072 58.791 123.09V122.141C58.5742 122.105 58.3281 122.082 58.041 122.082C56.7168 122.082 56.0723 122.703 56.0723 123.969V124.654H55.0234V125.662H56.0723V131ZM62.6172 131.123C64.4805 131.123 65.623 129.875 65.623 127.818C65.623 125.762 64.4746 124.514 62.6172 124.514C60.7539 124.514 59.6055 125.768 59.6055 127.818C59.6055 129.875 60.748 131.123 62.6172 131.123ZM62.6172 130.051C61.5215 130.051 60.9062 129.236 60.9062 127.818C60.9062 126.4 61.5215 125.58 62.6172 125.58C63.707 125.58 64.3281 126.4 64.3281 127.818C64.3281 129.23 63.707 130.051 62.6172 130.051ZM67.1406 131H68.4004V127.197C68.4004 126.301 69.0742 125.686 70.0293 125.686C70.252 125.686 70.627 125.727 70.7324 125.756V124.572C70.5977 124.543 70.3574 124.525 70.1699 124.525C69.3379 124.525 68.6289 124.977 68.4473 125.604H68.3535V124.637H67.1406V131ZM74.957 128.662C75.0215 130.227 76.3281 131.217 78.3438 131.217C80.4648 131.217 81.7715 130.174 81.7715 128.486C81.7715 127.18 81.0391 126.447 79.3398 126.084L78.3203 125.867C77.3301 125.65 76.9258 125.34 76.9258 124.807C76.9258 124.145 77.5117 123.717 78.3965 123.717C79.252 123.717 79.873 124.168 79.9551 124.859H81.6191C81.5664 123.365 80.248 122.328 78.3848 122.328C76.4336 122.328 75.1504 123.371 75.1504 124.947C75.1504 126.23 75.9062 127.021 77.4473 127.35L78.5488 127.59C79.5859 127.818 80.0078 128.141 80.0078 128.697C80.0078 129.354 79.3574 129.816 78.4375 129.816C77.4414 129.816 76.75 129.365 76.668 128.662H74.957ZM83.7637 123.008V124.607H82.7559V125.902H83.7637V129.26C83.7637 130.514 84.3848 131.023 85.9551 131.023C86.2832 131.023 86.5996 130.988 86.8105 130.947V129.688C86.6465 129.705 86.5293 129.717 86.3066 129.717C85.7266 129.717 85.4688 129.447 85.4688 128.867V125.902H86.8105V124.607H85.4688V123.008H83.7637ZM90.0039 131.1C90.8418 131.1 91.5449 130.742 91.8789 130.145H91.9844V131H93.6367V126.594C93.6367 125.217 92.6699 124.408 90.959 124.408C89.3359 124.408 88.2402 125.152 88.1289 126.336H89.6992C89.8398 125.932 90.25 125.715 90.8652 125.715C91.5684 125.715 91.9551 126.037 91.9551 126.594V127.127L90.3906 127.221C88.7852 127.314 87.8887 127.994 87.8887 129.16C87.8887 130.338 88.7617 131.1 90.0039 131.1ZM90.5664 129.852C89.9746 129.852 89.5586 129.553 89.5586 129.055C89.5586 128.58 89.916 128.305 90.6484 128.258L91.9551 128.17V128.65C91.9551 129.33 91.3574 129.852 90.5664 129.852ZM95.7988 123.008V124.607H94.791V125.902H95.7988V129.26C95.7988 130.514 96.4199 131.023 97.9902 131.023C98.3184 131.023 98.6348 130.988 98.8457 130.947V129.688C98.6816 129.705 98.5645 129.717 98.3418 129.717C97.7617 129.717 97.5039 129.447 97.5039 128.867V125.902H98.8457V124.607H97.5039V123.008H95.7988ZM101.137 123.559C101.664 123.559 102.098 123.137 102.098 122.609C102.098 122.076 101.664 121.654 101.137 121.654C100.609 121.654 100.17 122.076 100.17 122.609C100.17 123.137 100.609 123.559 101.137 123.559ZM100.281 131H101.986V124.549H100.281V131ZM109.434 126.799C109.293 125.357 108.268 124.408 106.557 124.408C104.535 124.408 103.398 125.633 103.398 127.76C103.398 129.91 104.541 131.135 106.557 131.135C108.238 131.135 109.293 130.209 109.434 128.791H107.84C107.711 129.436 107.254 129.781 106.557 129.781C105.643 129.781 105.121 129.061 105.121 127.76C105.121 126.477 105.637 125.768 106.557 125.768C107.283 125.768 107.723 126.178 107.84 126.799H109.434ZM119.582 126.799C119.441 125.357 118.416 124.408 116.705 124.408C114.684 124.408 113.547 125.633 113.547 127.76C113.547 129.91 114.689 131.135 116.705 131.135C118.387 131.135 119.441 130.209 119.582 128.791H117.988C117.859 129.436 117.402 129.781 116.705 129.781C115.791 129.781 115.27 129.061 115.27 127.76C115.27 126.477 115.785 125.768 116.705 125.768C117.432 125.768 117.871 126.178 117.988 126.799H119.582ZM122.688 131.1C123.525 131.1 124.229 130.742 124.562 130.145H124.668V131H126.32V126.594C126.32 125.217 125.354 124.408 123.643 124.408C122.02 124.408 120.924 125.152 120.812 126.336H122.383C122.523 125.932 122.934 125.715 123.549 125.715C124.252 125.715 124.639 126.037 124.639 126.594V127.127L123.074 127.221C121.469 127.314 120.572 127.994 120.572 129.16C120.572 130.338 121.445 131.1 122.688 131.1ZM123.25 129.852C122.658 129.852 122.242 129.553 122.242 129.055C122.242 128.58 122.6 128.305 123.332 128.258L124.639 128.17V128.65C124.639 129.33 124.041 129.852 123.25 129.852ZM127.996 131H129.701V127.391C129.701 126.482 130.34 125.926 131.271 125.926C131.547 125.926 131.945 125.973 132.08 126.02V124.52C131.934 124.473 131.646 124.443 131.412 124.443C130.592 124.443 129.924 124.93 129.754 125.574H129.648V124.549H127.996V131ZM135.385 131.1C136.281 131.1 137.014 130.684 137.359 129.986H137.465V131H139.117V122.082H137.412V125.58H137.312C136.979 124.865 136.258 124.443 135.385 124.443C133.762 124.443 132.754 125.715 132.754 127.766C132.754 129.822 133.756 131.1 135.385 131.1ZM135.965 125.826C136.873 125.826 137.43 126.57 137.43 127.777C137.43 128.984 136.879 129.723 135.965 129.723C135.051 129.723 134.506 128.99 134.506 127.771C134.506 126.559 135.057 125.826 135.965 125.826ZM140.74 126.43C140.74 127.42 141.35 128.012 142.604 128.287L143.775 128.551C144.344 128.68 144.59 128.879 144.59 129.207C144.59 129.635 144.133 129.928 143.471 129.928C142.791 129.928 142.375 129.664 142.246 129.219H140.582C140.699 130.438 141.73 131.135 143.436 131.135C145.129 131.135 146.283 130.303 146.283 129.025C146.283 128.064 145.721 127.537 144.467 127.262L143.254 126.998C142.656 126.863 142.381 126.658 142.381 126.33C142.381 125.908 142.832 125.621 143.441 125.621C144.074 125.621 144.467 125.885 144.555 126.312H146.131C146.037 125.094 145.07 124.408 143.43 124.408C141.818 124.408 140.74 125.223 140.74 126.43Z" fill="#656A76"/>
<defs>
<filter id="filter0_d_689_136595" x="0" y="0" width="186" height="82" filterUnits="userSpaceOnUse" color-interpolation-filters="sRGB">
<feFlood flood-opacity="0" result="BackgroundImageFix"/>
<feColorMatrix in="SourceAlpha" type="matrix" values="0 0 0 0 0 0 0 0 0 0 0 0 0 0 0 0 0 0 127 0" result="hardAlpha"/>
<feMorphology radius="1" operator="dilate" in="SourceAlpha" result="effect1_dropShadow_689_136595"/>
<feOffset/>
<feColorMatrix type="matrix" values="0 0 0 0 0.396078 0 0 0 0 0.415686 0 0 0 0 0.462745 0 0 0 0.2 0"/>
<feBlend mode="normal" in2="BackgroundImageFix" result="effect1_dropShadow_689_136595"/>
<feBlend mode="normal" in="SourceGraphic" in2="effect1_dropShadow_689_136595" result="shape"/>
</filter>
</defs>
</svg>
