<svg width="1212" height="392" viewBox="0 0 1212 392" fill="none" xmlns="http://www.w3.org/2000/svg">
<path d="M10.9131 14C12.8682 14 14.0425 13.0225 14.0425 11.4102C14.0425 10.2104 13.2173 9.33447 11.9795 9.20117V9.09326C12.8809 8.94092 13.5854 8.08398 13.5854 7.12549C13.5854 5.71631 12.5508 4.84033 10.8306 4.84033H7.14893V14H10.9131ZM8.5708 6.00195H10.5005C11.5542 6.00195 12.1699 6.50342 12.1699 7.37305C12.1699 8.26807 11.5161 8.73779 10.2593 8.73779H8.5708V6.00195ZM8.5708 12.8384V9.82324H10.5449C11.8843 9.82324 12.5889 10.3311 12.5889 11.3213C12.5889 12.3115 11.9097 12.8384 10.6274 12.8384H8.5708ZM21.5391 7.10645H20.1743V11.1499C20.1743 12.2607 19.5713 12.9336 18.4668 12.9336C17.4639 12.9336 17.0132 12.3877 17.0132 11.2451V7.10645H15.6484V11.5815C15.6484 13.2002 16.499 14.1333 18.0288 14.1333C19.0762 14.1333 19.7808 13.689 20.1172 12.9082H20.2251V14H21.5391V7.10645ZM24.002 5.36719V7.12549H22.9038V8.21729H24.002V12.1846C24.002 13.5112 24.605 14.0444 26.1221 14.0444C26.3887 14.0444 26.6426 14.0127 26.8647 13.9746V12.8892C26.6743 12.9082 26.5537 12.9209 26.3442 12.9209C25.665 12.9209 25.3667 12.5972 25.3667 11.8545V8.21729H26.8647V7.12549H25.3667V5.36719H24.002ZM28.9785 5.36719V7.12549H27.8804V8.21729H28.9785V12.1846C28.9785 13.5112 29.5815 14.0444 31.0986 14.0444C31.3652 14.0444 31.6191 14.0127 31.8413 13.9746V12.8892C31.6509 12.9082 31.5303 12.9209 31.3208 12.9209C30.6416 12.9209 30.3433 12.5972 30.3433 11.8545V8.21729H31.8413V7.12549H30.3433V5.36719H28.9785ZM36.291 14.1333C38.3096 14.1333 39.5474 12.7812 39.5474 10.5532C39.5474 8.3252 38.3032 6.97314 36.291 6.97314C34.2725 6.97314 33.0283 8.33154 33.0283 10.5532C33.0283 12.7812 34.2661 14.1333 36.291 14.1333ZM36.291 12.9717C35.104 12.9717 34.4375 12.0894 34.4375 10.5532C34.4375 9.01709 35.104 8.12842 36.291 8.12842C37.4717 8.12842 38.1445 9.01709 38.1445 10.5532C38.1445 12.083 37.4717 12.9717 36.291 12.9717ZM41.1914 14H42.5562V9.95654C42.5562 8.8457 43.1973 8.16016 44.2065 8.16016C45.2158 8.16016 45.6982 8.71875 45.6982 9.86133V14H47.063V9.5376C47.063 7.89355 46.2124 6.97314 44.6699 6.97314C43.6289 6.97314 42.9434 7.43652 42.6069 8.19824H42.5054V7.10645H41.1914V14Z" fill="#0C0C0E"/>
<g filter="url(#filter0_ddd_640_83411)">
<rect x="6" y="34" width="580" height="76" rx="6" fill="white"/>
<rect x="18.5" y="46.5" width="481" height="51" rx="5.5" fill="#FFD8D8"/>
<path d="M196.949 76.8125C196.219 77.0586 195.523 77.1816 194.863 77.1816C194.207 77.1816 193.623 77.0312 193.111 76.7305C192.604 76.4258 192.207 76.0156 191.922 75.5C191.637 74.9805 191.494 74.3906 191.494 73.7305C191.494 72.7383 191.816 71.9141 192.461 71.2578C193.109 70.6016 193.891 70.2734 194.805 70.2734C195.48 70.2734 196.195 70.4004 196.949 70.6543V71.7031C196.188 71.3555 195.506 71.1816 194.904 71.1816C194.506 71.1816 194.131 71.2812 193.779 71.4805C193.428 71.6758 193.156 71.9824 192.965 72.4004C192.773 72.8184 192.678 73.248 192.678 73.6895C192.678 74.2793 192.861 74.8418 193.229 75.377C193.6 75.9121 194.18 76.1797 194.969 76.1797C195.207 76.1797 195.441 76.1641 195.672 76.1328C195.902 76.0977 196.328 75.9746 196.949 75.7637V76.8125ZM201.344 77.1816C200.406 77.1816 199.656 76.8555 199.094 76.2031C198.531 75.5469 198.25 74.7207 198.25 73.7246C198.25 72.7285 198.531 71.9043 199.094 71.252C199.656 70.5996 200.406 70.2734 201.344 70.2734C202.277 70.2734 203.025 70.5996 203.588 71.252C204.15 71.9043 204.432 72.7285 204.432 73.7246C204.432 74.7207 204.15 75.5469 203.588 76.2031C203.025 76.8555 202.277 77.1816 201.344 77.1816ZM201.344 76.2734C201.926 76.2734 202.389 76.0469 202.732 75.5938C203.076 75.1406 203.248 74.5176 203.248 73.7246C203.248 72.9355 203.076 72.3145 202.732 71.8613C202.389 71.4082 201.926 71.1816 201.344 71.1816C200.758 71.1816 200.293 71.4082 199.949 71.8613C199.605 72.3145 199.434 72.9355 199.434 73.7246C199.434 74.5176 199.605 75.1406 199.949 75.5938C200.293 76.0469 200.758 76.2734 201.344 76.2734ZM205.855 77V70.4551H206.945V71.8848C207.258 71.3809 207.635 70.9863 208.076 70.7012C208.518 70.416 208.959 70.2734 209.4 70.2734C209.787 70.2734 210.139 70.377 210.455 70.584C210.771 70.7871 210.992 71.0547 211.117 71.3867C211.246 71.7188 211.311 72.3711 211.311 73.3438V77H210.221V73.209C210.221 72.5801 210.189 72.166 210.127 71.9668C210.068 71.7637 209.957 71.5977 209.793 71.4688C209.633 71.3398 209.457 71.2754 209.266 71.2754C208.883 71.2754 208.471 71.457 208.029 71.8203C207.592 72.1836 207.23 72.6387 206.945 73.1855V77H205.855ZM218.535 76.7363C218.023 76.9512 217.652 77.0781 217.422 77.1172C217.191 77.1602 216.969 77.1816 216.754 77.1816C216.297 77.1816 215.879 77.0938 215.5 76.918C215.121 76.7422 214.834 76.4824 214.639 76.1387C214.447 75.7949 214.352 75.2637 214.352 74.5449V71.9082H212.717V71H214.352V68.3633H215.441V71H218.354V71.9082H215.441V74.5273C215.441 75.0547 215.504 75.4277 215.629 75.6465C215.754 75.8613 215.92 76.0195 216.127 76.1211C216.338 76.2227 216.586 76.2734 216.871 76.2734C217.398 76.2734 217.953 76.1074 218.535 75.7754V76.7363ZM225.713 76.5664C224.842 76.9805 224.018 77.1875 223.24 77.1875C222.65 77.1875 222.123 77.041 221.658 76.748C221.193 76.4551 220.82 76.0371 220.539 75.4941C220.262 74.9473 220.123 74.3633 220.123 73.7422C220.123 73.1445 220.256 72.5703 220.521 72.0195C220.787 71.4688 221.158 71.041 221.635 70.7363C222.111 70.4277 222.643 70.2734 223.229 70.2734C224.006 70.2734 224.629 70.5508 225.098 71.1055C225.57 71.6602 225.807 72.5156 225.807 73.6719V73.9062H221.295C221.295 74.3594 221.389 74.7734 221.576 75.1484C221.768 75.5234 222.018 75.8047 222.326 75.9922C222.635 76.1797 222.986 76.2734 223.381 76.2734C224.084 76.2734 224.861 76.0391 225.713 75.5703V76.5664ZM221.359 73.0918H224.623V72.9336C224.623 72.3984 224.492 71.9727 224.23 71.6562C223.969 71.3398 223.619 71.1816 223.182 71.1816C222.74 71.1816 222.357 71.3438 222.033 71.668C221.713 71.9883 221.488 72.4629 221.359 73.0918ZM227.477 77V70.4551H228.566V71.8848C228.879 71.3809 229.256 70.9863 229.697 70.7012C230.139 70.416 230.58 70.2734 231.021 70.2734C231.408 70.2734 231.76 70.377 232.076 70.584C232.393 70.7871 232.613 71.0547 232.738 71.3867C232.867 71.7188 232.932 72.3711 232.932 73.3438V77H231.842V73.209C231.842 72.5801 231.811 72.166 231.748 71.9668C231.689 71.7637 231.578 71.5977 231.414 71.4688C231.254 71.3398 231.078 71.2754 230.887 71.2754C230.504 71.2754 230.092 71.457 229.65 71.8203C229.213 72.1836 228.852 72.6387 228.566 73.1855V77H227.477ZM240.156 76.7363C239.645 76.9512 239.273 77.0781 239.043 77.1172C238.812 77.1602 238.59 77.1816 238.375 77.1816C237.918 77.1816 237.5 77.0938 237.121 76.918C236.742 76.7422 236.455 76.4824 236.26 76.1387C236.068 75.7949 235.973 75.2637 235.973 74.5449V71.9082H234.338V71H235.973V68.3633H237.062V71H239.975V71.9082H237.062V74.5273C237.062 75.0547 237.125 75.4277 237.25 75.6465C237.375 75.8613 237.541 76.0195 237.748 76.1211C237.959 76.2227 238.207 76.2734 238.492 76.2734C239.02 76.2734 239.574 76.1074 240.156 75.7754V76.7363ZM250.105 71.9258C250.441 71.3789 250.842 70.9668 251.307 70.6895C251.771 70.4121 252.199 70.2734 252.59 70.2734C253.137 70.2734 253.629 70.5098 254.066 70.9824C254.504 71.4551 254.723 72.1719 254.723 73.1328C254.723 73.8906 254.576 74.5684 254.283 75.166C253.994 75.7598 253.607 76.2305 253.123 76.5781C252.639 76.9219 252.039 77.0938 251.324 77.0938C251.121 77.0938 250.809 77.0723 250.387 77.0293C250.324 77.0215 250.23 77.0117 250.105 77V79.543H249.016V70.4551H250.105V71.9258ZM250.105 73.2207V76.0273C250.5 76.1289 250.863 76.1797 251.195 76.1797C251.855 76.1797 252.41 75.9219 252.859 75.4062C253.312 74.8867 253.539 74.1777 253.539 73.2793C253.539 72.627 253.416 72.1367 253.17 71.8086C252.924 71.4805 252.645 71.3164 252.332 71.3164C251.992 71.3164 251.617 71.4883 251.207 71.832C250.801 72.1758 250.434 72.6387 250.105 73.2207ZM258.062 77V68.457H256.105V67.543H259.152V76.0918H261.197V77H258.062ZM267.812 75.5293C267.48 76.0762 267.08 76.4883 266.611 76.7656C266.146 77.043 265.719 77.1816 265.328 77.1816C264.781 77.1816 264.289 76.9453 263.852 76.4727C263.418 76 263.201 75.2832 263.201 74.3223C263.201 73.5645 263.346 72.8887 263.635 72.2949C263.924 71.6973 264.311 71.2266 264.795 70.8828C265.279 70.5352 265.879 70.3613 266.594 70.3613C266.801 70.3613 267.113 70.3828 267.531 70.4258C267.594 70.4336 267.688 70.4434 267.812 70.4551H268.908V75.0781C268.908 75.8672 268.99 76.5078 269.154 77H268.018C267.932 76.6406 267.863 76.1504 267.812 75.5293ZM267.812 74.2344V71.4277C267.426 71.3262 267.066 71.2754 266.734 71.2754C266.062 71.2754 265.502 71.5352 265.053 72.0547C264.607 72.5742 264.385 73.2812 264.385 74.1758C264.385 74.8242 264.506 75.3145 264.748 75.6465C264.994 75.9746 265.273 76.1387 265.586 76.1387C265.926 76.1387 266.301 75.9668 266.711 75.623C267.121 75.2793 267.488 74.8164 267.812 74.2344ZM276.227 76.8125C275.496 77.0586 274.801 77.1816 274.141 77.1816C273.484 77.1816 272.9 77.0312 272.389 76.7305C271.881 76.4258 271.484 76.0156 271.199 75.5C270.914 74.9805 270.771 74.3906 270.771 73.7305C270.771 72.7383 271.094 71.9141 271.738 71.2578C272.387 70.6016 273.168 70.2734 274.082 70.2734C274.758 70.2734 275.473 70.4004 276.227 70.6543V71.7031C275.465 71.3555 274.783 71.1816 274.182 71.1816C273.783 71.1816 273.408 71.2812 273.057 71.4805C272.705 71.6758 272.434 71.9824 272.242 72.4004C272.051 72.8184 271.955 73.248 271.955 73.6895C271.955 74.2793 272.139 74.8418 272.506 75.377C272.877 75.9121 273.457 76.1797 274.246 76.1797C274.484 76.1797 274.719 76.1641 274.949 76.1328C275.18 76.0977 275.605 75.9746 276.227 75.7637V76.8125ZM283.369 76.5664C282.498 76.9805 281.674 77.1875 280.896 77.1875C280.307 77.1875 279.779 77.041 279.314 76.748C278.85 76.4551 278.477 76.0371 278.195 75.4941C277.918 74.9473 277.779 74.3633 277.779 73.7422C277.779 73.1445 277.912 72.5703 278.178 72.0195C278.443 71.4688 278.814 71.041 279.291 70.7363C279.768 70.4277 280.299 70.2734 280.885 70.2734C281.662 70.2734 282.285 70.5508 282.754 71.1055C283.227 71.6602 283.463 72.5156 283.463 73.6719V73.9062H278.951C278.951 74.3594 279.045 74.7734 279.232 75.1484C279.424 75.5234 279.674 75.8047 279.982 75.9922C280.291 76.1797 280.643 76.2734 281.037 76.2734C281.74 76.2734 282.518 76.0391 283.369 75.5703V76.5664ZM279.016 73.0918H282.279V72.9336C282.279 72.3984 282.148 71.9727 281.887 71.6562C281.625 71.3398 281.275 71.1816 280.838 71.1816C280.396 71.1816 280.014 71.3438 279.689 71.668C279.369 71.9883 279.145 72.4629 279.016 73.0918ZM285.133 77V67.543H286.223V71.8848C286.535 71.3809 286.912 70.9863 287.354 70.7012C287.795 70.416 288.236 70.2734 288.678 70.2734C289.049 70.2734 289.387 70.3691 289.691 70.5605C290 70.748 290.215 70.9766 290.336 71.2461C290.434 71.4531 290.5 71.6738 290.535 71.9082C290.57 72.1387 290.588 72.6172 290.588 73.3438V77H289.498V73.209C289.498 72.5801 289.467 72.166 289.404 71.9668C289.346 71.7637 289.234 71.5977 289.07 71.4688C288.91 71.3398 288.734 71.2754 288.543 71.2754C288.16 71.2754 287.748 71.457 287.307 71.8203C286.869 72.1836 286.508 72.6387 286.223 73.1855V77H285.133ZM295.035 77.1816C294.098 77.1816 293.348 76.8555 292.785 76.2031C292.223 75.5469 291.941 74.7207 291.941 73.7246C291.941 72.7285 292.223 71.9043 292.785 71.252C293.348 70.5996 294.098 70.2734 295.035 70.2734C295.969 70.2734 296.717 70.5996 297.279 71.252C297.842 71.9043 298.123 72.7285 298.123 73.7246C298.123 74.7207 297.842 75.5469 297.279 76.2031C296.717 76.8555 295.969 77.1816 295.035 77.1816ZM295.035 76.2734C295.617 76.2734 296.08 76.0469 296.424 75.5938C296.768 75.1406 296.939 74.5176 296.939 73.7246C296.939 72.9355 296.768 72.3145 296.424 71.8613C296.08 71.4082 295.617 71.1816 295.035 71.1816C294.449 71.1816 293.984 71.4082 293.641 71.8613C293.297 72.3145 293.125 72.9355 293.125 73.7246C293.125 74.5176 293.297 75.1406 293.641 75.5938C293.984 76.0469 294.449 76.2734 295.035 76.2734ZM301.305 77V68.457H299.348V67.543H302.395V76.0918H304.439V77H301.305ZM311.125 75.5293C310.793 76.0762 310.393 76.4883 309.924 76.7656C309.459 77.043 309.031 77.1816 308.641 77.1816C308.094 77.1816 307.602 76.9453 307.164 76.4727C306.73 76 306.514 75.2832 306.514 74.3223C306.514 73.5645 306.658 72.8887 306.947 72.2949C307.236 71.6973 307.623 71.2266 308.107 70.8828C308.592 70.5352 309.191 70.3613 309.906 70.3613C310.113 70.3613 310.426 70.3828 310.844 70.4258C310.906 70.4336 311 70.4434 311.125 70.4551V67.543H312.221V77H311.125V75.5293ZM311.125 74.2344V71.4277C310.738 71.3262 310.379 71.2754 310.047 71.2754C309.375 71.2754 308.814 71.5352 308.365 72.0547C307.92 72.5742 307.697 73.2812 307.697 74.1758C307.697 74.8242 307.818 75.3145 308.061 75.6465C308.307 75.9746 308.586 76.1387 308.898 76.1387C309.238 76.1387 309.613 75.9668 310.023 75.623C310.434 75.2793 310.801 74.8164 311.125 74.2344ZM319.404 76.5664C318.533 76.9805 317.709 77.1875 316.932 77.1875C316.342 77.1875 315.814 77.041 315.35 76.748C314.885 76.4551 314.512 76.0371 314.23 75.4941C313.953 74.9473 313.814 74.3633 313.814 73.7422C313.814 73.1445 313.947 72.5703 314.213 72.0195C314.479 71.4688 314.85 71.041 315.326 70.7363C315.803 70.4277 316.334 70.2734 316.92 70.2734C317.697 70.2734 318.32 70.5508 318.789 71.1055C319.262 71.6602 319.498 72.5156 319.498 73.6719V73.9062H314.986C314.986 74.3594 315.08 74.7734 315.268 75.1484C315.459 75.5234 315.709 75.8047 316.018 75.9922C316.326 76.1797 316.678 76.2734 317.072 76.2734C317.775 76.2734 318.553 76.0391 319.404 75.5703V76.5664ZM315.051 73.0918H318.314V72.9336C318.314 72.3984 318.184 71.9727 317.922 71.6562C317.66 71.3398 317.311 71.1816 316.873 71.1816C316.432 71.1816 316.049 71.3438 315.725 71.668C315.404 71.9883 315.18 72.4629 315.051 73.0918ZM321.725 77V70.4551H322.814V71.8848C323.154 71.3457 323.543 70.9434 323.98 70.6777C324.422 70.4082 324.912 70.2734 325.451 70.2734C325.846 70.2734 326.24 70.334 326.635 70.4551V72.8164H325.586V71.3223C325.402 71.291 325.258 71.2754 325.152 71.2754C324.746 71.2754 324.348 71.4355 323.957 71.7559C323.566 72.0762 323.186 72.5566 322.814 73.1973V77H321.725Z" fill="#C70000"/>
<rect x="18.5" y="46.5" width="481" height="51" rx="5.5" stroke="#C70000" stroke-dasharray="2 2"/>
<g filter="url(#filter1_dd_640_83411)">
<rect x="508" y="58" width="66" height="28" rx="5" fill="#1060FF"/>
<path d="M524.915 77H521.151V67.8403H524.833C526.553 67.8403 527.587 68.7163 527.587 70.1255C527.587 71.084 526.883 71.9409 525.981 72.0933V72.2012C527.219 72.3345 528.044 73.2104 528.044 74.4102C528.044 76.0225 526.87 77 524.915 77ZM522.573 69.002V71.7378H524.261C525.518 71.7378 526.172 71.2681 526.172 70.373C526.172 69.5034 525.556 69.002 524.502 69.002H522.573ZM522.573 75.8384H524.629C525.912 75.8384 526.591 75.3115 526.591 74.3213C526.591 73.3311 525.886 72.8232 524.547 72.8232H522.573V75.8384ZM535.541 70.1064V77H534.227V75.9082H534.119C533.783 76.689 533.078 77.1333 532.031 77.1333C530.501 77.1333 529.65 76.2002 529.65 74.5815V70.1064H531.015V74.2451C531.015 75.3877 531.466 75.9336 532.469 75.9336C533.573 75.9336 534.176 75.2607 534.176 74.1499V70.1064H535.541ZM538.004 68.3672H539.369V70.1255H540.867V71.2173H539.369V74.8545C539.369 75.5972 539.667 75.9209 540.346 75.9209C540.556 75.9209 540.676 75.9082 540.867 75.8892V76.9746C540.645 77.0127 540.391 77.0444 540.124 77.0444C538.607 77.0444 538.004 76.5112 538.004 75.1846V71.2173H536.906V70.1255H538.004V68.3672ZM542.98 68.3672H544.345V70.1255H545.843V71.2173H544.345V74.8545C544.345 75.5972 544.644 75.9209 545.323 75.9209C545.532 75.9209 545.653 75.9082 545.843 75.8892V76.9746C545.621 77.0127 545.367 77.0444 545.101 77.0444C543.583 77.0444 542.98 76.5112 542.98 75.1846V71.2173H541.882V70.1255H542.98V68.3672ZM550.293 77.1333C548.268 77.1333 547.03 75.7812 547.03 73.5532C547.03 71.3315 548.274 69.9731 550.293 69.9731C552.305 69.9731 553.549 71.3252 553.549 73.5532C553.549 75.7812 552.312 77.1333 550.293 77.1333ZM550.293 75.9717C551.474 75.9717 552.146 75.083 552.146 73.5532C552.146 72.0171 551.474 71.1284 550.293 71.1284C549.106 71.1284 548.439 72.0171 548.439 73.5532C548.439 75.0894 549.106 75.9717 550.293 75.9717ZM555.193 77V70.1064H556.507V71.1982H556.609C556.945 70.4365 557.631 69.9731 558.672 69.9731C560.214 69.9731 561.065 70.8936 561.065 72.5376V77H559.7V72.8613C559.7 71.7188 559.218 71.1602 558.208 71.1602C557.199 71.1602 556.558 71.8457 556.558 72.9565V77H555.193Z" fill="white"/>
<rect x="508.5" y="58.5" width="65" height="27" rx="4.5" stroke="#0C56E9"/>
</g>
</g>
<path d="M10.894 148V140.065H13.7695V138.84H6.59033V140.065H9.47217V148H10.894ZM17.0322 148.133C19.0508 148.133 20.2886 146.781 20.2886 144.553C20.2886 142.325 19.0444 140.973 17.0322 140.973C15.0137 140.973 13.7695 142.332 13.7695 144.553C13.7695 146.781 15.0073 148.133 17.0322 148.133ZM17.0322 146.972C15.8452 146.972 15.1787 146.089 15.1787 144.553C15.1787 143.017 15.8452 142.128 17.0322 142.128C18.2129 142.128 18.8857 143.017 18.8857 144.553C18.8857 146.083 18.2129 146.972 17.0322 146.972ZM24.8462 150.634C26.8013 150.634 28.0391 149.638 28.0391 148.07V141.106H26.7314V142.205H26.6235C26.2363 141.456 25.4048 140.986 24.4526 140.986C22.688 140.986 21.5835 142.376 21.5835 144.464C21.5835 146.534 22.6753 147.898 24.4399 147.898C25.3921 147.898 26.1538 147.486 26.5728 146.737H26.6743V148.063C26.6743 148.997 26.0015 149.555 24.8652 149.555C23.9448 149.555 23.3672 149.225 23.2529 148.705H21.8564C22.0024 149.866 23.1196 150.634 24.8462 150.634ZM24.8271 146.769C23.6528 146.769 22.9927 145.874 22.9927 144.464C22.9927 143.055 23.6528 142.154 24.8271 142.154C25.9888 142.154 26.6997 143.055 26.6997 144.464C26.6997 145.874 25.9951 146.769 24.8271 146.769ZM32.9331 150.634C34.8882 150.634 36.126 149.638 36.126 148.07V141.106H34.8184V142.205H34.7104C34.3232 141.456 33.4917 140.986 32.5396 140.986C30.7749 140.986 29.6704 142.376 29.6704 144.464C29.6704 146.534 30.7622 147.898 32.5269 147.898C33.479 147.898 34.2407 147.486 34.6597 146.737H34.7612V148.063C34.7612 148.997 34.0884 149.555 32.9521 149.555C32.0317 149.555 31.4541 149.225 31.3398 148.705H29.9434C30.0894 149.866 31.2065 150.634 32.9331 150.634ZM32.9141 146.769C31.7397 146.769 31.0796 145.874 31.0796 144.464C31.0796 143.055 31.7397 142.154 32.9141 142.154C34.0757 142.154 34.7866 143.055 34.7866 144.464C34.7866 145.874 34.082 146.769 32.9141 146.769ZM38.1699 148H39.5347V138.402H38.1699V148ZM46.1172 146.153C45.8633 146.711 45.2983 147.016 44.4731 147.016C43.3813 147.016 42.6768 146.229 42.6323 144.979V144.915H47.5137V144.445C47.5137 142.287 46.3521 140.973 44.4287 140.973C42.48 140.973 41.2422 142.376 41.2422 144.566C41.2422 146.769 42.4546 148.133 44.4351 148.133C46.0156 148.133 47.1328 147.372 47.4312 146.153H46.1172ZM44.4224 142.084C45.4316 142.084 46.0918 142.814 46.1235 143.931H42.6323C42.7085 142.82 43.4131 142.084 44.4224 142.084ZM54.2866 148V138.84H52.8647V148H54.2866ZM62.2783 143.322C62.1006 141.982 61.0532 140.973 59.3203 140.973C57.3081 140.973 56.083 142.338 56.083 144.528C56.083 146.762 57.3145 148.133 59.3267 148.133C61.0342 148.133 62.1006 147.175 62.2783 145.816H60.9517C60.7739 146.565 60.1836 146.972 59.3203 146.972C58.1841 146.972 57.4795 146.051 57.4795 144.528C57.4795 143.036 58.1777 142.135 59.3203 142.135C60.2344 142.135 60.793 142.649 60.9517 143.322H62.2783ZM66.7598 148.133C68.7783 148.133 70.0161 146.781 70.0161 144.553C70.0161 142.325 68.772 140.973 66.7598 140.973C64.7412 140.973 63.4971 142.332 63.4971 144.553C63.4971 146.781 64.7349 148.133 66.7598 148.133ZM66.7598 146.972C65.5728 146.972 64.9062 146.089 64.9062 144.553C64.9062 143.017 65.5728 142.128 66.7598 142.128C67.9404 142.128 68.6133 143.017 68.6133 144.553C68.6133 146.083 67.9404 146.972 66.7598 146.972ZM71.6602 148H73.0249V143.957C73.0249 142.846 73.666 142.16 74.6753 142.16C75.6846 142.16 76.167 142.719 76.167 143.861V148H77.5317V143.538C77.5317 141.894 76.6812 140.973 75.1387 140.973C74.0977 140.973 73.4121 141.437 73.0757 142.198H72.9741V141.106H71.6602V148Z" fill="#0C0C0E"/>
<g filter="url(#filter2_ddd_640_83411)">
<rect x="6" y="168" width="580" height="76" rx="6" fill="white"/>
<rect x="18.5" y="180.5" width="511" height="51" rx="5.5" fill="#FFD8D8"/>
<path d="M211.949 210.812C211.219 211.059 210.523 211.182 209.863 211.182C209.207 211.182 208.623 211.031 208.111 210.73C207.604 210.426 207.207 210.016 206.922 209.5C206.637 208.98 206.494 208.391 206.494 207.73C206.494 206.738 206.816 205.914 207.461 205.258C208.109 204.602 208.891 204.273 209.805 204.273C210.48 204.273 211.195 204.4 211.949 204.654V205.703C211.188 205.355 210.506 205.182 209.904 205.182C209.506 205.182 209.131 205.281 208.779 205.48C208.428 205.676 208.156 205.982 207.965 206.4C207.773 206.818 207.678 207.248 207.678 207.689C207.678 208.279 207.861 208.842 208.229 209.377C208.6 209.912 209.18 210.18 209.969 210.18C210.207 210.18 210.441 210.164 210.672 210.133C210.902 210.098 211.328 209.975 211.949 209.764V210.812ZM216.344 211.182C215.406 211.182 214.656 210.855 214.094 210.203C213.531 209.547 213.25 208.721 213.25 207.725C213.25 206.729 213.531 205.904 214.094 205.252C214.656 204.6 215.406 204.273 216.344 204.273C217.277 204.273 218.025 204.6 218.588 205.252C219.15 205.904 219.432 206.729 219.432 207.725C219.432 208.721 219.15 209.547 218.588 210.203C218.025 210.855 217.277 211.182 216.344 211.182ZM216.344 210.273C216.926 210.273 217.389 210.047 217.732 209.594C218.076 209.141 218.248 208.518 218.248 207.725C218.248 206.936 218.076 206.314 217.732 205.861C217.389 205.408 216.926 205.182 216.344 205.182C215.758 205.182 215.293 205.408 214.949 205.861C214.605 206.314 214.434 206.936 214.434 207.725C214.434 208.518 214.605 209.141 214.949 209.594C215.293 210.047 215.758 210.273 216.344 210.273ZM220.855 211V204.455H221.945V205.885C222.258 205.381 222.635 204.986 223.076 204.701C223.518 204.416 223.959 204.273 224.4 204.273C224.787 204.273 225.139 204.377 225.455 204.584C225.771 204.787 225.992 205.055 226.117 205.387C226.246 205.719 226.311 206.371 226.311 207.344V211H225.221V207.209C225.221 206.58 225.189 206.166 225.127 205.967C225.068 205.764 224.957 205.598 224.793 205.469C224.633 205.34 224.457 205.275 224.266 205.275C223.883 205.275 223.471 205.457 223.029 205.82C222.592 206.184 222.23 206.639 221.945 207.186V211H220.855ZM233.535 210.736C233.023 210.951 232.652 211.078 232.422 211.117C232.191 211.16 231.969 211.182 231.754 211.182C231.297 211.182 230.879 211.094 230.5 210.918C230.121 210.742 229.834 210.482 229.639 210.139C229.447 209.795 229.352 209.264 229.352 208.545V205.908H227.717V205H229.352V202.363H230.441V205H233.354V205.908H230.441V208.527C230.441 209.055 230.504 209.428 230.629 209.646C230.754 209.861 230.92 210.02 231.127 210.121C231.338 210.223 231.586 210.273 231.871 210.273C232.398 210.273 232.953 210.107 233.535 209.775V210.736ZM240.713 210.566C239.842 210.98 239.018 211.188 238.24 211.188C237.65 211.188 237.123 211.041 236.658 210.748C236.193 210.455 235.82 210.037 235.539 209.494C235.262 208.947 235.123 208.363 235.123 207.742C235.123 207.145 235.256 206.57 235.521 206.02C235.787 205.469 236.158 205.041 236.635 204.736C237.111 204.428 237.643 204.273 238.229 204.273C239.006 204.273 239.629 204.551 240.098 205.105C240.57 205.66 240.807 206.516 240.807 207.672V207.906H236.295C236.295 208.359 236.389 208.773 236.576 209.148C236.768 209.523 237.018 209.805 237.326 209.992C237.635 210.18 237.986 210.273 238.381 210.273C239.084 210.273 239.861 210.039 240.713 209.57V210.566ZM236.359 207.092H239.623V206.934C239.623 206.398 239.492 205.973 239.23 205.656C238.969 205.34 238.619 205.182 238.182 205.182C237.74 205.182 237.357 205.344 237.033 205.668C236.713 205.988 236.488 206.463 236.359 207.092ZM242.477 211V204.455H243.566V205.885C243.879 205.381 244.256 204.986 244.697 204.701C245.139 204.416 245.58 204.273 246.021 204.273C246.408 204.273 246.76 204.377 247.076 204.584C247.393 204.787 247.613 205.055 247.738 205.387C247.867 205.719 247.932 206.371 247.932 207.344V211H246.842V207.209C246.842 206.58 246.811 206.166 246.748 205.967C246.689 205.764 246.578 205.598 246.414 205.469C246.254 205.34 246.078 205.275 245.887 205.275C245.504 205.275 245.092 205.457 244.65 205.82C244.213 206.184 243.852 206.639 243.566 207.186V211H242.477ZM255.156 210.736C254.645 210.951 254.273 211.078 254.043 211.117C253.812 211.16 253.59 211.182 253.375 211.182C252.918 211.182 252.5 211.094 252.121 210.918C251.742 210.742 251.455 210.482 251.26 210.139C251.068 209.795 250.973 209.264 250.973 208.545V205.908H249.338V205H250.973V202.363H252.062V205H254.975V205.908H252.062V208.527C252.062 209.055 252.125 209.428 252.25 209.646C252.375 209.861 252.541 210.02 252.748 210.121C252.959 210.223 253.207 210.273 253.492 210.273C254.02 210.273 254.574 210.107 255.156 209.775V210.736ZM265.105 205.926C265.441 205.379 265.842 204.967 266.307 204.689C266.771 204.412 267.199 204.273 267.59 204.273C268.137 204.273 268.629 204.51 269.066 204.982C269.504 205.455 269.723 206.172 269.723 207.133C269.723 207.891 269.576 208.568 269.283 209.166C268.994 209.76 268.607 210.23 268.123 210.578C267.639 210.922 267.039 211.094 266.324 211.094C266.121 211.094 265.809 211.072 265.387 211.029C265.324 211.021 265.23 211.012 265.105 211V213.543H264.016V204.455H265.105V205.926ZM265.105 207.221V210.027C265.5 210.129 265.863 210.18 266.195 210.18C266.855 210.18 267.41 209.922 267.859 209.406C268.312 208.887 268.539 208.178 268.539 207.279C268.539 206.627 268.416 206.137 268.17 205.809C267.924 205.48 267.645 205.316 267.332 205.316C266.992 205.316 266.617 205.488 266.207 205.832C265.801 206.176 265.434 206.639 265.105 207.221ZM273.062 211V202.457H271.105V201.543H274.152V210.092H276.197V211H273.062ZM282.812 209.529C282.48 210.076 282.08 210.488 281.611 210.766C281.146 211.043 280.719 211.182 280.328 211.182C279.781 211.182 279.289 210.945 278.852 210.473C278.418 210 278.201 209.283 278.201 208.322C278.201 207.564 278.346 206.889 278.635 206.295C278.924 205.697 279.311 205.227 279.795 204.883C280.279 204.535 280.879 204.361 281.594 204.361C281.801 204.361 282.113 204.383 282.531 204.426C282.594 204.434 282.688 204.443 282.812 204.455H283.908V209.078C283.908 209.867 283.99 210.508 284.154 211H283.018C282.932 210.641 282.863 210.15 282.812 209.529ZM282.812 208.234V205.428C282.426 205.326 282.066 205.275 281.734 205.275C281.062 205.275 280.502 205.535 280.053 206.055C279.607 206.574 279.385 207.281 279.385 208.176C279.385 208.824 279.506 209.314 279.748 209.646C279.994 209.975 280.273 210.139 280.586 210.139C280.926 210.139 281.301 209.967 281.711 209.623C282.121 209.279 282.488 208.816 282.812 208.234ZM291.227 210.812C290.496 211.059 289.801 211.182 289.141 211.182C288.484 211.182 287.9 211.031 287.389 210.73C286.881 210.426 286.484 210.016 286.199 209.5C285.914 208.98 285.771 208.391 285.771 207.73C285.771 206.738 286.094 205.914 286.738 205.258C287.387 204.602 288.168 204.273 289.082 204.273C289.758 204.273 290.473 204.4 291.227 204.654V205.703C290.465 205.355 289.783 205.182 289.182 205.182C288.783 205.182 288.408 205.281 288.057 205.48C287.705 205.676 287.434 205.982 287.242 206.4C287.051 206.818 286.955 207.248 286.955 207.689C286.955 208.279 287.139 208.842 287.506 209.377C287.877 209.912 288.457 210.18 289.246 210.18C289.484 210.18 289.719 210.164 289.949 210.133C290.18 210.098 290.605 209.975 291.227 209.764V210.812ZM298.369 210.566C297.498 210.98 296.674 211.188 295.896 211.188C295.307 211.188 294.779 211.041 294.314 210.748C293.85 210.455 293.477 210.037 293.195 209.494C292.918 208.947 292.779 208.363 292.779 207.742C292.779 207.145 292.912 206.57 293.178 206.02C293.443 205.469 293.814 205.041 294.291 204.736C294.768 204.428 295.299 204.273 295.885 204.273C296.662 204.273 297.285 204.551 297.754 205.105C298.227 205.66 298.463 206.516 298.463 207.672V207.906H293.951C293.951 208.359 294.045 208.773 294.232 209.148C294.424 209.523 294.674 209.805 294.982 209.992C295.291 210.18 295.643 210.273 296.037 210.273C296.74 210.273 297.518 210.039 298.369 209.57V210.566ZM294.016 207.092H297.279V206.934C297.279 206.398 297.148 205.973 296.887 205.656C296.625 205.34 296.275 205.182 295.838 205.182C295.396 205.182 295.014 205.344 294.689 205.668C294.369 205.988 294.145 206.463 294.016 207.092ZM300.133 211V201.543H301.223V205.885C301.535 205.381 301.912 204.986 302.354 204.701C302.795 204.416 303.236 204.273 303.678 204.273C304.049 204.273 304.387 204.369 304.691 204.561C305 204.748 305.215 204.977 305.336 205.246C305.434 205.453 305.5 205.674 305.535 205.908C305.57 206.139 305.588 206.617 305.588 207.344V211H304.498V207.209C304.498 206.58 304.467 206.166 304.404 205.967C304.346 205.764 304.234 205.598 304.07 205.469C303.91 205.34 303.734 205.275 303.543 205.275C303.16 205.275 302.748 205.457 302.307 205.82C301.869 206.184 301.508 206.639 301.223 207.186V211H300.133ZM310.035 211.182C309.098 211.182 308.348 210.855 307.785 210.203C307.223 209.547 306.941 208.721 306.941 207.725C306.941 206.729 307.223 205.904 307.785 205.252C308.348 204.6 309.098 204.273 310.035 204.273C310.969 204.273 311.717 204.6 312.279 205.252C312.842 205.904 313.123 206.729 313.123 207.725C313.123 208.721 312.842 209.547 312.279 210.203C311.717 210.855 310.969 211.182 310.035 211.182ZM310.035 210.273C310.617 210.273 311.08 210.047 311.424 209.594C311.768 209.141 311.939 208.518 311.939 207.725C311.939 206.936 311.768 206.314 311.424 205.861C311.08 205.408 310.617 205.182 310.035 205.182C309.449 205.182 308.984 205.408 308.641 205.861C308.297 206.314 308.125 206.936 308.125 207.725C308.125 208.518 308.297 209.141 308.641 209.594C308.984 210.047 309.449 210.273 310.035 210.273ZM316.305 211V202.457H314.348V201.543H317.395V210.092H319.439V211H316.305ZM326.125 209.529C325.793 210.076 325.393 210.488 324.924 210.766C324.459 211.043 324.031 211.182 323.641 211.182C323.094 211.182 322.602 210.945 322.164 210.473C321.73 210 321.514 209.283 321.514 208.322C321.514 207.564 321.658 206.889 321.947 206.295C322.236 205.697 322.623 205.227 323.107 204.883C323.592 204.535 324.191 204.361 324.906 204.361C325.113 204.361 325.426 204.383 325.844 204.426C325.906 204.434 326 204.443 326.125 204.455V201.543H327.221V211H326.125V209.529ZM326.125 208.234V205.428C325.738 205.326 325.379 205.275 325.047 205.275C324.375 205.275 323.814 205.535 323.365 206.055C322.92 206.574 322.697 207.281 322.697 208.176C322.697 208.824 322.818 209.314 323.061 209.646C323.307 209.975 323.586 210.139 323.898 210.139C324.238 210.139 324.613 209.967 325.023 209.623C325.434 209.279 325.801 208.816 326.125 208.234ZM334.404 210.566C333.533 210.98 332.709 211.188 331.932 211.188C331.342 211.188 330.814 211.041 330.35 210.748C329.885 210.455 329.512 210.037 329.23 209.494C328.953 208.947 328.814 208.363 328.814 207.742C328.814 207.145 328.947 206.57 329.213 206.02C329.479 205.469 329.85 205.041 330.326 204.736C330.803 204.428 331.334 204.273 331.92 204.273C332.697 204.273 333.32 204.551 333.789 205.105C334.262 205.66 334.498 206.516 334.498 207.672V207.906H329.986C329.986 208.359 330.08 208.773 330.268 209.148C330.459 209.523 330.709 209.805 331.018 209.992C331.326 210.18 331.678 210.273 332.072 210.273C332.775 210.273 333.553 210.039 334.404 209.57V210.566ZM330.051 207.092H333.314V206.934C333.314 206.398 333.184 205.973 332.922 205.656C332.66 205.34 332.311 205.182 331.873 205.182C331.432 205.182 331.049 205.344 330.725 205.668C330.404 205.988 330.18 206.463 330.051 207.092ZM336.725 211V204.455H337.814V205.885C338.154 205.346 338.543 204.943 338.98 204.678C339.422 204.408 339.912 204.273 340.451 204.273C340.846 204.273 341.24 204.334 341.635 204.455V206.816H340.586V205.322C340.402 205.291 340.258 205.275 340.152 205.275C339.746 205.275 339.348 205.436 338.957 205.756C338.566 206.076 338.186 206.557 337.814 207.197V211H336.725Z" fill="#C70000"/>
<rect x="18.5" y="180.5" width="511" height="51" rx="5.5" stroke="#C70000" stroke-dasharray="2 2"/>
<rect x="538" y="188" width="36" height="36" rx="5" fill="#FAFAFA"/>
<path d="M549 204C547.895 204 547 204.895 547 206C547 207.105 547.895 208 549 208C550.105 208 551 207.105 551 206C551 204.895 550.105 204 549 204Z" fill="#0C0C0E"/>
<path d="M556 204C554.895 204 554 204.895 554 206C554 207.105 554.895 208 556 208C557.105 208 558 207.105 558 206C558 204.895 557.105 204 556 204Z" fill="#0C0C0E"/>
<path d="M563 204C561.895 204 561 204.895 561 206C561 207.105 561.895 208 563 208C564.105 208 565 207.105 565 206C565 204.895 564.105 204 563 204Z" fill="#0C0C0E"/>
<rect x="538.5" y="188.5" width="35" height="35" rx="4.5" stroke="#3B3D45" stroke-opacity="0.4"/>
</g>
<path d="M630.894 148V140.065H633.77V138.84H626.59V140.065H629.472V148H630.894ZM637.032 148.133C639.051 148.133 640.289 146.781 640.289 144.553C640.289 142.325 639.044 140.973 637.032 140.973C635.014 140.973 633.77 142.332 633.77 144.553C633.77 146.781 635.007 148.133 637.032 148.133ZM637.032 146.972C635.845 146.972 635.179 146.089 635.179 144.553C635.179 143.017 635.845 142.128 637.032 142.128C638.213 142.128 638.886 143.017 638.886 144.553C638.886 146.083 638.213 146.972 637.032 146.972ZM644.846 150.634C646.801 150.634 648.039 149.638 648.039 148.07V141.106H646.731V142.205H646.624C646.236 141.456 645.405 140.986 644.453 140.986C642.688 140.986 641.583 142.376 641.583 144.464C641.583 146.534 642.675 147.898 644.44 147.898C645.392 147.898 646.154 147.486 646.573 146.737H646.674V148.063C646.674 148.997 646.001 149.555 644.865 149.555C643.945 149.555 643.367 149.225 643.253 148.705H641.856C642.002 149.866 643.12 150.634 644.846 150.634ZM644.827 146.769C643.653 146.769 642.993 145.874 642.993 144.464C642.993 143.055 643.653 142.154 644.827 142.154C645.989 142.154 646.7 143.055 646.7 144.464C646.7 145.874 645.995 146.769 644.827 146.769ZM652.933 150.634C654.888 150.634 656.126 149.638 656.126 148.07V141.106H654.818V142.205H654.71C654.323 141.456 653.492 140.986 652.54 140.986C650.775 140.986 649.67 142.376 649.67 144.464C649.67 146.534 650.762 147.898 652.527 147.898C653.479 147.898 654.241 147.486 654.66 146.737H654.761V148.063C654.761 148.997 654.088 149.555 652.952 149.555C652.032 149.555 651.454 149.225 651.34 148.705H649.943C650.089 149.866 651.207 150.634 652.933 150.634ZM652.914 146.769C651.74 146.769 651.08 145.874 651.08 144.464C651.08 143.055 651.74 142.154 652.914 142.154C654.076 142.154 654.787 143.055 654.787 144.464C654.787 145.874 654.082 146.769 652.914 146.769ZM658.17 148H659.535V138.402H658.17V148ZM666.117 146.153C665.863 146.711 665.298 147.016 664.473 147.016C663.381 147.016 662.677 146.229 662.632 144.979V144.915H667.514V144.445C667.514 142.287 666.352 140.973 664.429 140.973C662.48 140.973 661.242 142.376 661.242 144.566C661.242 146.769 662.455 148.133 664.435 148.133C666.016 148.133 667.133 147.372 667.431 146.153H666.117ZM664.422 142.084C665.432 142.084 666.092 142.814 666.124 143.931H662.632C662.708 142.82 663.413 142.084 664.422 142.084ZM674.287 148V138.84H672.865V148H674.287ZM682.278 143.322C682.101 141.982 681.053 140.973 679.32 140.973C677.308 140.973 676.083 142.338 676.083 144.528C676.083 146.762 677.314 148.133 679.327 148.133C681.034 148.133 682.101 147.175 682.278 145.816H680.952C680.774 146.565 680.184 146.972 679.32 146.972C678.184 146.972 677.479 146.051 677.479 144.528C677.479 143.036 678.178 142.135 679.32 142.135C680.234 142.135 680.793 142.649 680.952 143.322H682.278ZM686.76 148.133C688.778 148.133 690.016 146.781 690.016 144.553C690.016 142.325 688.772 140.973 686.76 140.973C684.741 140.973 683.497 142.332 683.497 144.553C683.497 146.781 684.735 148.133 686.76 148.133ZM686.76 146.972C685.573 146.972 684.906 146.089 684.906 144.553C684.906 143.017 685.573 142.128 686.76 142.128C687.94 142.128 688.613 143.017 688.613 144.553C688.613 146.083 687.94 146.972 686.76 146.972ZM691.66 148H693.025V143.957C693.025 142.846 693.666 142.16 694.675 142.16C695.685 142.16 696.167 142.719 696.167 143.861V148H697.532V143.538C697.532 141.894 696.681 140.973 695.139 140.973C694.098 140.973 693.412 141.437 693.076 142.198H692.974V141.106H691.66V148ZM700.515 143.328C701.055 143.328 701.448 142.928 701.448 142.414C701.448 141.9 701.055 141.5 700.515 141.5C699.982 141.5 699.582 141.9 699.582 142.414C699.582 142.928 699.982 143.328 700.515 143.328ZM700.515 148.095C701.055 148.095 701.448 147.695 701.448 147.181C701.448 146.667 701.055 146.267 700.515 146.267C699.982 146.267 699.582 146.667 699.582 147.181C699.582 147.695 699.982 148.095 700.515 148.095ZM709.637 148.114C710.589 148.114 711.395 147.664 711.808 146.908H711.916V148H713.223V138.402H711.858V142.198H711.757C711.382 141.443 710.583 140.986 709.637 140.986C707.891 140.986 706.768 142.376 706.768 144.547C706.768 146.73 707.878 148.114 709.637 148.114ZM710.024 142.154C711.167 142.154 711.884 143.081 711.884 144.553C711.884 146.039 711.173 146.946 710.024 146.946C708.869 146.946 708.177 146.051 708.177 144.553C708.177 143.062 708.875 142.154 710.024 142.154ZM715.273 148H716.638V143.88C716.638 142.909 717.368 142.243 718.403 142.243C718.644 142.243 719.05 142.287 719.165 142.319V141.037C719.019 141.005 718.758 140.986 718.555 140.986C717.654 140.986 716.886 141.475 716.689 142.154H716.587V141.106H715.273V148ZM723.221 148.133C725.239 148.133 726.477 146.781 726.477 144.553C726.477 142.325 725.233 140.973 723.221 140.973C721.202 140.973 719.958 142.332 719.958 144.553C719.958 146.781 721.196 148.133 723.221 148.133ZM723.221 146.972C722.034 146.972 721.367 146.089 721.367 144.553C721.367 143.017 722.034 142.128 723.221 142.128C724.401 142.128 725.074 143.017 725.074 144.553C725.074 146.083 724.401 146.972 723.221 146.972ZM731.708 140.986C730.768 140.986 729.956 141.462 729.537 142.249H729.435V141.106H728.121V150.298H729.486V146.959H729.594C729.956 147.689 730.736 148.114 731.72 148.114C733.466 148.114 734.577 146.73 734.577 144.553C734.577 142.363 733.466 140.986 731.708 140.986ZM731.32 146.946C730.178 146.946 729.46 146.026 729.46 144.553C729.46 143.074 730.178 142.154 731.327 142.154C732.482 142.154 733.174 143.055 733.174 144.553C733.174 146.051 732.482 146.946 731.32 146.946ZM738.747 148.114C739.699 148.114 740.505 147.664 740.918 146.908H741.026V148H742.333V138.402H740.969V142.198H740.867C740.493 141.443 739.693 140.986 738.747 140.986C737.001 140.986 735.878 142.376 735.878 144.547C735.878 146.73 736.989 148.114 738.747 148.114ZM739.134 142.154C740.277 142.154 740.994 143.081 740.994 144.553C740.994 146.039 740.283 146.946 739.134 146.946C737.979 146.946 737.287 146.051 737.287 144.553C737.287 143.062 737.985 142.154 739.134 142.154ZM747.304 148.133C749.322 148.133 750.56 146.781 750.56 144.553C750.56 142.325 749.316 140.973 747.304 140.973C745.285 140.973 744.041 142.332 744.041 144.553C744.041 146.781 745.279 148.133 747.304 148.133ZM747.304 146.972C746.117 146.972 745.45 146.089 745.45 144.553C745.45 143.017 746.117 142.128 747.304 142.128C748.484 142.128 749.157 143.017 749.157 144.553C749.157 146.083 748.484 146.972 747.304 146.972ZM760.938 141.106H759.574L758.342 146.426H758.234L756.812 141.106H755.505L754.083 146.426H753.981L752.744 141.106H751.36L753.264 148H754.667L756.089 142.858H756.197L757.625 148H759.041L760.938 141.106ZM762.348 148H763.712V143.957C763.712 142.846 764.354 142.16 765.363 142.16C766.372 142.16 766.854 142.719 766.854 143.861V148H768.219V143.538C768.219 141.894 767.369 140.973 765.826 140.973C764.785 140.973 764.1 141.437 763.763 142.198H763.662V141.106H762.348V148ZM778.229 146.153C777.976 146.711 777.411 147.016 776.585 147.016C775.494 147.016 774.789 146.229 774.745 144.979V144.915H779.626V144.445C779.626 142.287 778.464 140.973 776.541 140.973C774.592 140.973 773.354 142.376 773.354 144.566C773.354 146.769 774.567 148.133 776.547 148.133C778.128 148.133 779.245 147.372 779.543 146.153H778.229ZM776.535 142.084C777.544 142.084 778.204 142.814 778.236 143.931H774.745C774.821 142.82 775.525 142.084 776.535 142.084ZM781.264 148H782.628V143.957C782.628 142.846 783.27 142.16 784.279 142.16C785.288 142.16 785.771 142.719 785.771 143.861V148H787.135V143.538C787.135 141.894 786.285 140.973 784.742 140.973C783.701 140.973 783.016 141.437 782.679 142.198H782.578V141.106H781.264V148ZM791.972 150.634C793.927 150.634 795.165 149.638 795.165 148.07V141.106H793.857V142.205H793.75C793.362 141.456 792.531 140.986 791.579 140.986C789.814 140.986 788.709 142.376 788.709 144.464C788.709 146.534 789.801 147.898 791.566 147.898C792.518 147.898 793.28 147.486 793.699 146.737H793.8V148.063C793.8 148.997 793.127 149.555 791.991 149.555C791.071 149.555 790.493 149.225 790.379 148.705H788.982C789.128 149.866 790.246 150.634 791.972 150.634ZM791.953 146.769C790.779 146.769 790.119 145.874 790.119 144.464C790.119 143.055 790.779 142.154 791.953 142.154C793.115 142.154 793.826 143.055 793.826 144.464C793.826 145.874 793.121 146.769 791.953 146.769ZM799.056 148.114C799.964 148.114 800.719 147.721 801.132 147.022H801.24V148H802.554V143.284C802.554 141.836 801.576 140.973 799.843 140.973C798.275 140.973 797.158 141.729 797.019 142.89H798.339C798.491 142.389 799.018 142.103 799.78 142.103C800.713 142.103 801.195 142.528 801.195 143.284V143.887L799.323 144.001C797.679 144.103 796.752 144.82 796.752 146.058C796.752 147.314 797.723 148.114 799.056 148.114ZM799.405 147.016C798.663 147.016 798.123 146.642 798.123 146C798.123 145.372 798.555 145.036 799.507 144.972L801.195 144.858V145.455C801.195 146.343 800.434 147.016 799.405 147.016ZM807.41 150.634C809.365 150.634 810.603 149.638 810.603 148.07V141.106H809.295V142.205H809.187C808.8 141.456 807.968 140.986 807.016 140.986C805.251 140.986 804.147 142.376 804.147 144.464C804.147 146.534 805.239 147.898 807.003 147.898C807.956 147.898 808.717 147.486 809.136 146.737H809.238V148.063C809.238 148.997 808.565 149.555 807.429 149.555C806.508 149.555 805.931 149.225 805.816 148.705H804.42C804.566 149.866 805.683 150.634 807.41 150.634ZM807.391 146.769C806.216 146.769 805.556 145.874 805.556 144.464C805.556 143.055 806.216 142.154 807.391 142.154C808.552 142.154 809.263 143.055 809.263 144.464C809.263 145.874 808.559 146.769 807.391 146.769ZM817.115 146.153C816.861 146.711 816.296 147.016 815.471 147.016C814.379 147.016 813.675 146.229 813.63 144.979V144.915H818.512V144.445C818.512 142.287 817.35 140.973 815.427 140.973C813.478 140.973 812.24 142.376 812.24 144.566C812.24 146.769 813.453 148.133 815.433 148.133C817.014 148.133 818.131 147.372 818.429 146.153H817.115ZM815.42 142.084C816.43 142.084 817.09 142.814 817.122 143.931H813.63C813.707 142.82 814.411 142.084 815.42 142.084ZM822.676 148.114C823.628 148.114 824.434 147.664 824.847 146.908H824.955V148H826.262V138.402H824.897V142.198H824.796C824.421 141.443 823.622 140.986 822.676 140.986C820.93 140.986 819.807 142.376 819.807 144.547C819.807 146.73 820.917 148.114 822.676 148.114ZM823.063 142.154C824.206 142.154 824.923 143.081 824.923 144.553C824.923 146.039 824.212 146.946 823.063 146.946C821.908 146.946 821.216 146.051 821.216 144.553C821.216 143.062 821.914 142.154 823.063 142.154Z" fill="#0C0C0E"/>
<g filter="url(#filter3_ddd_640_83411)">
<rect x="626" y="168" width="580" height="76" rx="6" fill="white"/>
<rect x="638.5" y="180.5" width="511" height="51" rx="5.5" fill="#FFD8D8"/>
<path d="M831.949 210.812C831.219 211.059 830.523 211.182 829.863 211.182C829.207 211.182 828.623 211.031 828.111 210.73C827.604 210.426 827.207 210.016 826.922 209.5C826.637 208.98 826.494 208.391 826.494 207.73C826.494 206.738 826.816 205.914 827.461 205.258C828.109 204.602 828.891 204.273 829.805 204.273C830.48 204.273 831.195 204.4 831.949 204.654V205.703C831.188 205.355 830.506 205.182 829.904 205.182C829.506 205.182 829.131 205.281 828.779 205.48C828.428 205.676 828.156 205.982 827.965 206.4C827.773 206.818 827.678 207.248 827.678 207.689C827.678 208.279 827.861 208.842 828.229 209.377C828.6 209.912 829.18 210.18 829.969 210.18C830.207 210.18 830.441 210.164 830.672 210.133C830.902 210.098 831.328 209.975 831.949 209.764V210.812ZM836.344 211.182C835.406 211.182 834.656 210.855 834.094 210.203C833.531 209.547 833.25 208.721 833.25 207.725C833.25 206.729 833.531 205.904 834.094 205.252C834.656 204.6 835.406 204.273 836.344 204.273C837.277 204.273 838.025 204.6 838.588 205.252C839.15 205.904 839.432 206.729 839.432 207.725C839.432 208.721 839.15 209.547 838.588 210.203C838.025 210.855 837.277 211.182 836.344 211.182ZM836.344 210.273C836.926 210.273 837.389 210.047 837.732 209.594C838.076 209.141 838.248 208.518 838.248 207.725C838.248 206.936 838.076 206.314 837.732 205.861C837.389 205.408 836.926 205.182 836.344 205.182C835.758 205.182 835.293 205.408 834.949 205.861C834.605 206.314 834.434 206.936 834.434 207.725C834.434 208.518 834.605 209.141 834.949 209.594C835.293 210.047 835.758 210.273 836.344 210.273ZM840.855 211V204.455H841.945V205.885C842.258 205.381 842.635 204.986 843.076 204.701C843.518 204.416 843.959 204.273 844.4 204.273C844.787 204.273 845.139 204.377 845.455 204.584C845.771 204.787 845.992 205.055 846.117 205.387C846.246 205.719 846.311 206.371 846.311 207.344V211H845.221V207.209C845.221 206.58 845.189 206.166 845.127 205.967C845.068 205.764 844.957 205.598 844.793 205.469C844.633 205.34 844.457 205.275 844.266 205.275C843.883 205.275 843.471 205.457 843.029 205.82C842.592 206.184 842.23 206.639 841.945 207.186V211H840.855ZM853.535 210.736C853.023 210.951 852.652 211.078 852.422 211.117C852.191 211.16 851.969 211.182 851.754 211.182C851.297 211.182 850.879 211.094 850.5 210.918C850.121 210.742 849.834 210.482 849.639 210.139C849.447 209.795 849.352 209.264 849.352 208.545V205.908H847.717V205H849.352V202.363H850.441V205H853.354V205.908H850.441V208.527C850.441 209.055 850.504 209.428 850.629 209.646C850.754 209.861 850.92 210.02 851.127 210.121C851.338 210.223 851.586 210.273 851.871 210.273C852.398 210.273 852.953 210.107 853.535 209.775V210.736ZM860.713 210.566C859.842 210.98 859.018 211.188 858.24 211.188C857.65 211.188 857.123 211.041 856.658 210.748C856.193 210.455 855.82 210.037 855.539 209.494C855.262 208.947 855.123 208.363 855.123 207.742C855.123 207.145 855.256 206.57 855.521 206.02C855.787 205.469 856.158 205.041 856.635 204.736C857.111 204.428 857.643 204.273 858.229 204.273C859.006 204.273 859.629 204.551 860.098 205.105C860.57 205.66 860.807 206.516 860.807 207.672V207.906H856.295C856.295 208.359 856.389 208.773 856.576 209.148C856.768 209.523 857.018 209.805 857.326 209.992C857.635 210.18 857.986 210.273 858.381 210.273C859.084 210.273 859.861 210.039 860.713 209.57V210.566ZM856.359 207.092H859.623V206.934C859.623 206.398 859.492 205.973 859.23 205.656C858.969 205.34 858.619 205.182 858.182 205.182C857.74 205.182 857.357 205.344 857.033 205.668C856.713 205.988 856.488 206.463 856.359 207.092ZM862.477 211V204.455H863.566V205.885C863.879 205.381 864.256 204.986 864.697 204.701C865.139 204.416 865.58 204.273 866.021 204.273C866.408 204.273 866.76 204.377 867.076 204.584C867.393 204.787 867.613 205.055 867.738 205.387C867.867 205.719 867.932 206.371 867.932 207.344V211H866.842V207.209C866.842 206.58 866.811 206.166 866.748 205.967C866.689 205.764 866.578 205.598 866.414 205.469C866.254 205.34 866.078 205.275 865.887 205.275C865.504 205.275 865.092 205.457 864.65 205.82C864.213 206.184 863.852 206.639 863.566 207.186V211H862.477ZM875.156 210.736C874.645 210.951 874.273 211.078 874.043 211.117C873.812 211.16 873.59 211.182 873.375 211.182C872.918 211.182 872.5 211.094 872.121 210.918C871.742 210.742 871.455 210.482 871.26 210.139C871.068 209.795 870.973 209.264 870.973 208.545V205.908H869.338V205H870.973V202.363H872.062V205H874.975V205.908H872.062V208.527C872.062 209.055 872.125 209.428 872.25 209.646C872.375 209.861 872.541 210.02 872.748 210.121C872.959 210.223 873.207 210.273 873.492 210.273C874.02 210.273 874.574 210.107 875.156 209.775V210.736ZM885.105 205.926C885.441 205.379 885.842 204.967 886.307 204.689C886.771 204.412 887.199 204.273 887.59 204.273C888.137 204.273 888.629 204.51 889.066 204.982C889.504 205.455 889.723 206.172 889.723 207.133C889.723 207.891 889.576 208.568 889.283 209.166C888.994 209.76 888.607 210.23 888.123 210.578C887.639 210.922 887.039 211.094 886.324 211.094C886.121 211.094 885.809 211.072 885.387 211.029C885.324 211.021 885.23 211.012 885.105 211V213.543H884.016V204.455H885.105V205.926ZM885.105 207.221V210.027C885.5 210.129 885.863 210.18 886.195 210.18C886.855 210.18 887.41 209.922 887.859 209.406C888.312 208.887 888.539 208.178 888.539 207.279C888.539 206.627 888.416 206.137 888.17 205.809C887.924 205.48 887.645 205.316 887.332 205.316C886.992 205.316 886.617 205.488 886.207 205.832C885.801 206.176 885.434 206.639 885.105 207.221ZM893.062 211V202.457H891.105V201.543H894.152V210.092H896.197V211H893.062ZM902.812 209.529C902.48 210.076 902.08 210.488 901.611 210.766C901.146 211.043 900.719 211.182 900.328 211.182C899.781 211.182 899.289 210.945 898.852 210.473C898.418 210 898.201 209.283 898.201 208.322C898.201 207.564 898.346 206.889 898.635 206.295C898.924 205.697 899.311 205.227 899.795 204.883C900.279 204.535 900.879 204.361 901.594 204.361C901.801 204.361 902.113 204.383 902.531 204.426C902.594 204.434 902.688 204.443 902.812 204.455H903.908V209.078C903.908 209.867 903.99 210.508 904.154 211H903.018C902.932 210.641 902.863 210.15 902.812 209.529ZM902.812 208.234V205.428C902.426 205.326 902.066 205.275 901.734 205.275C901.062 205.275 900.502 205.535 900.053 206.055C899.607 206.574 899.385 207.281 899.385 208.176C899.385 208.824 899.506 209.314 899.748 209.646C899.994 209.975 900.273 210.139 900.586 210.139C900.926 210.139 901.301 209.967 901.711 209.623C902.121 209.279 902.488 208.816 902.812 208.234ZM911.227 210.812C910.496 211.059 909.801 211.182 909.141 211.182C908.484 211.182 907.9 211.031 907.389 210.73C906.881 210.426 906.484 210.016 906.199 209.5C905.914 208.98 905.771 208.391 905.771 207.73C905.771 206.738 906.094 205.914 906.738 205.258C907.387 204.602 908.168 204.273 909.082 204.273C909.758 204.273 910.473 204.4 911.227 204.654V205.703C910.465 205.355 909.783 205.182 909.182 205.182C908.783 205.182 908.408 205.281 908.057 205.48C907.705 205.676 907.434 205.982 907.242 206.4C907.051 206.818 906.955 207.248 906.955 207.689C906.955 208.279 907.139 208.842 907.506 209.377C907.877 209.912 908.457 210.18 909.246 210.18C909.484 210.18 909.719 210.164 909.949 210.133C910.18 210.098 910.605 209.975 911.227 209.764V210.812ZM918.369 210.566C917.498 210.98 916.674 211.188 915.896 211.188C915.307 211.188 914.779 211.041 914.314 210.748C913.85 210.455 913.477 210.037 913.195 209.494C912.918 208.947 912.779 208.363 912.779 207.742C912.779 207.145 912.912 206.57 913.178 206.02C913.443 205.469 913.814 205.041 914.291 204.736C914.768 204.428 915.299 204.273 915.885 204.273C916.662 204.273 917.285 204.551 917.754 205.105C918.227 205.66 918.463 206.516 918.463 207.672V207.906H913.951C913.951 208.359 914.045 208.773 914.232 209.148C914.424 209.523 914.674 209.805 914.982 209.992C915.291 210.18 915.643 210.273 916.037 210.273C916.74 210.273 917.518 210.039 918.369 209.57V210.566ZM914.016 207.092H917.279V206.934C917.279 206.398 917.148 205.973 916.887 205.656C916.625 205.34 916.275 205.182 915.838 205.182C915.396 205.182 915.014 205.344 914.689 205.668C914.369 205.988 914.145 206.463 914.016 207.092ZM920.133 211V201.543H921.223V205.885C921.535 205.381 921.912 204.986 922.354 204.701C922.795 204.416 923.236 204.273 923.678 204.273C924.049 204.273 924.387 204.369 924.691 204.561C925 204.748 925.215 204.977 925.336 205.246C925.434 205.453 925.5 205.674 925.535 205.908C925.57 206.139 925.588 206.617 925.588 207.344V211H924.498V207.209C924.498 206.58 924.467 206.166 924.404 205.967C924.346 205.764 924.234 205.598 924.07 205.469C923.91 205.34 923.734 205.275 923.543 205.275C923.16 205.275 922.748 205.457 922.307 205.82C921.869 206.184 921.508 206.639 921.223 207.186V211H920.133ZM930.035 211.182C929.098 211.182 928.348 210.855 927.785 210.203C927.223 209.547 926.941 208.721 926.941 207.725C926.941 206.729 927.223 205.904 927.785 205.252C928.348 204.6 929.098 204.273 930.035 204.273C930.969 204.273 931.717 204.6 932.279 205.252C932.842 205.904 933.123 206.729 933.123 207.725C933.123 208.721 932.842 209.547 932.279 210.203C931.717 210.855 930.969 211.182 930.035 211.182ZM930.035 210.273C930.617 210.273 931.08 210.047 931.424 209.594C931.768 209.141 931.939 208.518 931.939 207.725C931.939 206.936 931.768 206.314 931.424 205.861C931.08 205.408 930.617 205.182 930.035 205.182C929.449 205.182 928.984 205.408 928.641 205.861C928.297 206.314 928.125 206.936 928.125 207.725C928.125 208.518 928.297 209.141 928.641 209.594C928.984 210.047 929.449 210.273 930.035 210.273ZM936.305 211V202.457H934.348V201.543H937.395V210.092H939.439V211H936.305ZM946.125 209.529C945.793 210.076 945.393 210.488 944.924 210.766C944.459 211.043 944.031 211.182 943.641 211.182C943.094 211.182 942.602 210.945 942.164 210.473C941.73 210 941.514 209.283 941.514 208.322C941.514 207.564 941.658 206.889 941.947 206.295C942.236 205.697 942.623 205.227 943.107 204.883C943.592 204.535 944.191 204.361 944.906 204.361C945.113 204.361 945.426 204.383 945.844 204.426C945.906 204.434 946 204.443 946.125 204.455V201.543H947.221V211H946.125V209.529ZM946.125 208.234V205.428C945.738 205.326 945.379 205.275 945.047 205.275C944.375 205.275 943.814 205.535 943.365 206.055C942.92 206.574 942.697 207.281 942.697 208.176C942.697 208.824 942.818 209.314 943.061 209.646C943.307 209.975 943.586 210.139 943.898 210.139C944.238 210.139 944.613 209.967 945.023 209.623C945.434 209.279 945.801 208.816 946.125 208.234ZM954.404 210.566C953.533 210.98 952.709 211.188 951.932 211.188C951.342 211.188 950.814 211.041 950.35 210.748C949.885 210.455 949.512 210.037 949.23 209.494C948.953 208.947 948.814 208.363 948.814 207.742C948.814 207.145 948.947 206.57 949.213 206.02C949.479 205.469 949.85 205.041 950.326 204.736C950.803 204.428 951.334 204.273 951.92 204.273C952.697 204.273 953.32 204.551 953.789 205.105C954.262 205.66 954.498 206.516 954.498 207.672V207.906H949.986C949.986 208.359 950.08 208.773 950.268 209.148C950.459 209.523 950.709 209.805 951.018 209.992C951.326 210.18 951.678 210.273 952.072 210.273C952.775 210.273 953.553 210.039 954.404 209.57V210.566ZM950.051 207.092H953.314V206.934C953.314 206.398 953.184 205.973 952.922 205.656C952.66 205.34 952.311 205.182 951.873 205.182C951.432 205.182 951.049 205.344 950.725 205.668C950.404 205.988 950.18 206.463 950.051 207.092ZM956.725 211V204.455H957.814V205.885C958.154 205.346 958.543 204.943 958.98 204.678C959.422 204.408 959.912 204.273 960.451 204.273C960.846 204.273 961.24 204.334 961.635 204.455V206.816H960.586V205.322C960.402 205.291 960.258 205.275 960.152 205.275C959.746 205.275 959.348 205.436 958.957 205.756C958.566 206.076 958.186 206.557 957.814 207.197V211H956.725Z" fill="#C70000"/>
<rect x="638.5" y="180.5" width="511" height="51" rx="5.5" stroke="#C70000" stroke-dasharray="2 2"/>
<rect x="1158" y="188" width="36" height="36" rx="5" fill="#FAFAFA"/>
<path d="M1169 204C1167.9 204 1167 204.895 1167 206C1167 207.105 1167.9 208 1169 208C1170.1 208 1171 207.105 1171 206C1171 204.895 1170.1 204 1169 204Z" fill="#0C0C0E"/>
<path d="M1176 204C1174.9 204 1174 204.895 1174 206C1174 207.105 1174.9 208 1176 208C1177.1 208 1178 207.105 1178 206C1178 204.895 1177.1 204 1176 204Z" fill="#0C0C0E"/>
<path d="M1183 204C1181.9 204 1181 204.895 1181 206C1181 207.105 1181.9 208 1183 208C1184.1 208 1185 207.105 1185 206C1185 204.895 1184.1 204 1183 204Z" fill="#0C0C0E"/>
<rect x="1158.5" y="188.5" width="35" height="35" rx="4.5" stroke="#3B3D45" stroke-opacity="0.4"/>
</g>
<rect x="1158" y="188" width="36" height="36" rx="5" fill="#FAFAFA"/>
<path d="M1169 204C1167.9 204 1167 204.895 1167 206C1167 207.105 1167.9 208 1169 208C1170.1 208 1171 207.105 1171 206C1171 204.895 1170.1 204 1169 204Z" fill="#0C0C0E"/>
<path d="M1176 204C1174.9 204 1174 204.895 1174 206C1174 207.105 1174.9 208 1176 208C1177.1 208 1178 207.105 1178 206C1178 204.895 1177.1 204 1176 204Z" fill="#0C0C0E"/>
<path d="M1183 204C1181.9 204 1181 204.895 1181 206C1181 207.105 1181.9 208 1183 208C1184.1 208 1185 207.105 1185 206C1185 204.895 1184.1 204 1183 204Z" fill="#0C0C0E"/>
<rect x="1158.5" y="188.5" width="35" height="35" rx="4.5" stroke="#3B3D45" stroke-opacity="0.4"/>
<g filter="url(#filter4_ddd_640_83411)">
<rect x="994" y="228" width="200" height="80" rx="6" fill="white"/>
<path fill-rule="evenodd" clip-rule="evenodd" d="M1021.44 243.005C1022.06 242.265 1023.16 242.168 1023.9 242.79L1024.6 243.379C1025.34 244 1025.44 245.104 1024.82 245.844L1019.12 252.642C1018.7 253.135 1018.19 253.539 1017.62 253.829L1015.05 255.128C1014.78 255.263 1014.46 255.226 1014.23 255.033C1014 254.84 1013.9 254.529 1013.99 254.242L1014.82 251.483C1015.01 250.868 1015.32 250.296 1015.73 249.803L1021.44 243.005ZM1022.94 243.939C1022.83 243.85 1022.67 243.864 1022.59 243.97L1022.05 244.602L1023.14 245.516L1023.67 244.88C1023.76 244.774 1023.75 244.617 1023.64 244.528L1022.94 243.939ZM1022.17 246.665L1021.09 245.751L1016.88 250.767C1016.6 251.105 1016.39 251.496 1016.26 251.917L1015.93 253L1016.94 252.49C1017.34 252.291 1017.68 252.015 1017.97 251.678L1022.17 246.665Z" fill="#3B3D45"/>
<path d="M1013.25 245.5C1012.84 245.5 1012.5 245.836 1012.5 246.25V255.75C1012.5 256.164 1012.84 256.5 1013.25 256.5H1022.75C1023.16 256.5 1023.5 256.164 1023.5 255.75V251C1023.5 250.586 1023.84 250.25 1024.25 250.25C1024.66 250.25 1025 250.586 1025 251V255.75C1025 256.993 1023.99 258 1022.75 258H1013.25C1012.01 258 1011 256.993 1011 255.75V246.25C1011 245.007 1012.01 244 1013.25 244H1016C1016.41 244 1016.75 244.336 1016.75 244.75C1016.75 245.164 1016.41 245.5 1016 245.5H1013.25Z" fill="#3B3D45"/>
<path d="M1041.5 253.681V255H1035.24V245.136H1041.5V246.455H1036.77V249.34H1041.25V250.611H1036.77V253.681H1041.5ZM1046.26 255.123C1044.37 255.123 1043.17 253.633 1043.17 251.281C1043.17 248.943 1044.38 247.446 1046.26 247.446C1047.28 247.446 1048.14 247.938 1048.55 248.752H1048.66V244.664H1050.13V255H1048.72V253.824H1048.6C1048.16 254.638 1047.29 255.123 1046.26 255.123ZM1046.68 248.704C1045.44 248.704 1044.69 249.682 1044.69 251.288C1044.69 252.901 1045.44 253.865 1046.68 253.865C1047.92 253.865 1048.68 252.888 1048.68 251.288C1048.68 249.702 1047.91 248.704 1046.68 248.704ZM1053.09 246.25C1052.58 246.25 1052.16 245.833 1052.16 245.327C1052.16 244.814 1052.58 244.397 1053.09 244.397C1053.61 244.397 1054.02 244.814 1054.02 245.327C1054.02 245.833 1053.61 246.25 1053.09 246.25ZM1052.36 255V247.576H1053.82V255H1052.36ZM1056.5 245.703H1057.97V247.597H1059.59V248.772H1057.97V252.689C1057.97 253.489 1058.29 253.838 1059.03 253.838C1059.25 253.838 1059.38 253.824 1059.59 253.804V254.973C1059.35 255.014 1059.07 255.048 1058.79 255.048C1057.15 255.048 1056.5 254.474 1056.5 253.045V248.772H1055.32V247.597H1056.5V245.703Z" fill="#3B3D45"/>
<path fill-rule="evenodd" clip-rule="evenodd" d="M1016.83 278.33C1017.55 277.895 1018.45 277.895 1019.17 278.33L1024.42 281.512C1025.09 281.919 1025.5 282.649 1025.5 283.436V288.564C1025.5 289.351 1025.09 290.081 1024.42 290.488L1019.17 293.67C1018.45 294.105 1017.55 294.105 1016.83 293.67L1011.58 290.488C1010.91 290.081 1010.5 289.351 1010.5 288.564V283.436C1010.5 282.649 1010.91 281.919 1011.58 281.512L1016.83 278.33ZM1018.39 279.613C1018.15 279.468 1017.85 279.468 1017.61 279.613L1012.36 282.794C1012.14 282.93 1012 283.174 1012 283.436V288.564C1012 288.826 1012.14 289.07 1012.36 289.206L1017.61 292.387C1017.85 292.532 1018.15 292.532 1018.39 292.387L1023.64 289.206C1023.86 289.07 1024 288.826 1024 288.564V283.436C1024 283.174 1023.86 282.93 1023.64 282.794L1018.39 279.613Z" fill="#E62228"/>
<path d="M1035.24 281.136H1038.8C1041.72 281.136 1043.44 282.94 1043.44 286.044C1043.44 289.182 1041.74 291 1038.8 291H1035.24V281.136ZM1036.77 282.455V289.681H1038.63C1040.69 289.681 1041.88 288.361 1041.88 286.064C1041.88 283.788 1040.67 282.455 1038.63 282.455H1036.77ZM1050.23 289.011H1051.64C1051.32 290.323 1050.12 291.144 1048.42 291.144C1046.28 291.144 1044.98 289.674 1044.98 287.302C1044.98 284.943 1046.31 283.433 1048.41 283.433C1050.48 283.433 1051.73 284.848 1051.73 287.172V287.678H1046.48V287.746C1046.52 289.093 1047.28 289.94 1048.46 289.94C1049.35 289.94 1049.96 289.612 1050.23 289.011ZM1048.4 284.629C1047.32 284.629 1046.56 285.422 1046.48 286.618H1050.24C1050.2 285.415 1049.49 284.629 1048.4 284.629ZM1053.56 291V280.664H1055.03V291H1053.56ZM1062.12 289.011H1063.54C1063.22 290.323 1062.01 291.144 1060.31 291.144C1058.18 291.144 1056.87 289.674 1056.87 287.302C1056.87 284.943 1058.21 283.433 1060.3 283.433C1062.38 283.433 1063.63 284.848 1063.63 287.172V287.678H1058.37V287.746C1058.42 289.093 1059.18 289.94 1060.35 289.94C1061.24 289.94 1061.85 289.612 1062.12 289.011ZM1060.3 284.629C1059.21 284.629 1058.45 285.422 1058.37 286.618H1062.13C1062.1 285.415 1061.38 284.629 1060.3 284.629ZM1065.91 281.703H1067.38V283.597H1068.99V284.772H1067.38V288.689C1067.38 289.489 1067.7 289.838 1068.43 289.838C1068.66 289.838 1068.79 289.824 1068.99 289.804V290.973C1068.75 291.014 1068.48 291.048 1068.19 291.048C1066.56 291.048 1065.91 290.474 1065.91 289.045V284.772H1064.73V283.597H1065.91V281.703ZM1075.52 289.011H1076.94C1076.62 290.323 1075.41 291.144 1073.71 291.144C1071.58 291.144 1070.27 289.674 1070.27 287.302C1070.27 284.943 1071.6 283.433 1073.7 283.433C1075.77 283.433 1077.03 284.848 1077.03 287.172V287.678H1071.77V287.746C1071.82 289.093 1072.58 289.94 1073.75 289.94C1074.64 289.94 1075.25 289.612 1075.52 289.011ZM1073.7 284.629C1072.61 284.629 1071.85 285.422 1071.77 286.618H1075.53C1075.49 285.415 1074.78 284.629 1073.7 284.629Z" fill="#E62228"/>
</g>
<path d="M10.9067 282.222C12.9507 282.222 14.4551 281.048 14.709 279.264H13.2935C13.0396 280.305 12.1191 280.959 10.9067 280.959C9.25635 280.959 8.22803 279.601 8.22803 277.423C8.22803 275.246 9.25635 273.881 10.9004 273.881C12.1064 273.881 13.0269 274.605 13.2935 275.741H14.709C14.4805 273.907 12.9189 272.618 10.9004 272.618C8.35498 272.618 6.77441 274.459 6.77441 277.423C6.77441 280.381 8.36133 282.222 10.9067 282.222ZM22.25 275.106H20.8853V279.15C20.8853 280.261 20.2822 280.934 19.1777 280.934C18.1748 280.934 17.7241 280.388 17.7241 279.245V275.106H16.3594V279.582C16.3594 281.2 17.21 282.133 18.7397 282.133C19.7871 282.133 20.4917 281.689 20.8281 280.908H20.936V282H22.25V275.106ZM24.0718 277.036C24.0718 278.058 24.6812 278.642 25.9951 278.947L27.2012 279.232C27.8931 279.397 28.2168 279.677 28.2168 280.108C28.2168 280.673 27.6138 281.067 26.7632 281.067C25.938 281.067 25.4302 280.73 25.2588 280.191H23.894C24.0146 281.391 25.0874 282.133 26.7314 282.133C28.3818 282.133 29.5942 281.264 29.5942 279.981C29.5942 278.979 28.9785 278.414 27.6646 278.109L26.5156 277.842C25.7666 277.665 25.4175 277.398 25.4175 276.973C25.4175 276.414 25.9951 276.04 26.7568 276.04C27.5312 276.04 28.0264 276.376 28.1533 276.89H29.4609C29.3276 275.697 28.312 274.973 26.7568 274.973C25.1953 274.973 24.0718 275.836 24.0718 277.036ZM31.6699 273.367V275.125H30.5718V276.217H31.6699V280.185C31.6699 281.511 32.2729 282.044 33.79 282.044C34.0566 282.044 34.3105 282.013 34.5327 281.975V280.889C34.3423 280.908 34.2217 280.921 34.0122 280.921C33.333 280.921 33.0347 280.597 33.0347 279.854V276.217H34.5327V275.125H33.0347V273.367H31.6699ZM38.9824 282.133C41.001 282.133 42.2388 280.781 42.2388 278.553C42.2388 276.325 40.9946 274.973 38.9824 274.973C36.9639 274.973 35.7197 276.332 35.7197 278.553C35.7197 280.781 36.9575 282.133 38.9824 282.133ZM38.9824 280.972C37.7954 280.972 37.1289 280.089 37.1289 278.553C37.1289 277.017 37.7954 276.128 38.9824 276.128C40.1631 276.128 40.8359 277.017 40.8359 278.553C40.8359 280.083 40.1631 280.972 38.9824 280.972ZM43.8828 282H45.2476V277.766C45.2476 276.865 45.876 276.16 46.7075 276.16C47.52 276.16 48.0405 276.649 48.0405 277.436V282H49.3799V277.639C49.3799 276.808 49.9575 276.16 50.8398 276.16C51.7349 276.16 52.1792 276.624 52.1792 277.576V282H53.5439V277.246C53.5439 275.811 52.7314 274.973 51.335 274.973C50.3765 274.973 49.583 275.462 49.2339 276.205H49.126C48.8213 275.462 48.1675 274.973 47.2217 274.973C46.3013 274.973 45.603 275.43 45.2983 276.205H45.1968V275.106H43.8828V282Z" fill="#0C0C0E"/>
<g filter="url(#filter5_ddd_640_83411)">
<rect x="6" y="302" width="580" height="76" rx="6" fill="white"/>
<rect x="18.5" y="314.5" width="523" height="51" rx="5.5" fill="#FFD8D8"/>
<path d="M217.949 344.812C217.219 345.059 216.523 345.182 215.863 345.182C215.207 345.182 214.623 345.031 214.111 344.73C213.604 344.426 213.207 344.016 212.922 343.5C212.637 342.98 212.494 342.391 212.494 341.73C212.494 340.738 212.816 339.914 213.461 339.258C214.109 338.602 214.891 338.273 215.805 338.273C216.48 338.273 217.195 338.4 217.949 338.654V339.703C217.188 339.355 216.506 339.182 215.904 339.182C215.506 339.182 215.131 339.281 214.779 339.48C214.428 339.676 214.156 339.982 213.965 340.4C213.773 340.818 213.678 341.248 213.678 341.689C213.678 342.279 213.861 342.842 214.229 343.377C214.6 343.912 215.18 344.18 215.969 344.18C216.207 344.18 216.441 344.164 216.672 344.133C216.902 344.098 217.328 343.975 217.949 343.764V344.812ZM222.344 345.182C221.406 345.182 220.656 344.855 220.094 344.203C219.531 343.547 219.25 342.721 219.25 341.725C219.25 340.729 219.531 339.904 220.094 339.252C220.656 338.6 221.406 338.273 222.344 338.273C223.277 338.273 224.025 338.6 224.588 339.252C225.15 339.904 225.432 340.729 225.432 341.725C225.432 342.721 225.15 343.547 224.588 344.203C224.025 344.855 223.277 345.182 222.344 345.182ZM222.344 344.273C222.926 344.273 223.389 344.047 223.732 343.594C224.076 343.141 224.248 342.518 224.248 341.725C224.248 340.936 224.076 340.314 223.732 339.861C223.389 339.408 222.926 339.182 222.344 339.182C221.758 339.182 221.293 339.408 220.949 339.861C220.605 340.314 220.434 340.936 220.434 341.725C220.434 342.518 220.605 343.141 220.949 343.594C221.293 344.047 221.758 344.273 222.344 344.273ZM226.855 345V338.455H227.945V339.885C228.258 339.381 228.635 338.986 229.076 338.701C229.518 338.416 229.959 338.273 230.4 338.273C230.787 338.273 231.139 338.377 231.455 338.584C231.771 338.787 231.992 339.055 232.117 339.387C232.246 339.719 232.311 340.371 232.311 341.344V345H231.221V341.209C231.221 340.58 231.189 340.166 231.127 339.967C231.068 339.764 230.957 339.598 230.793 339.469C230.633 339.34 230.457 339.275 230.266 339.275C229.883 339.275 229.471 339.457 229.029 339.82C228.592 340.184 228.23 340.639 227.945 341.186V345H226.855ZM239.535 344.736C239.023 344.951 238.652 345.078 238.422 345.117C238.191 345.16 237.969 345.182 237.754 345.182C237.297 345.182 236.879 345.094 236.5 344.918C236.121 344.742 235.834 344.482 235.639 344.139C235.447 343.795 235.352 343.264 235.352 342.545V339.908H233.717V339H235.352V336.363H236.441V339H239.354V339.908H236.441V342.527C236.441 343.055 236.504 343.428 236.629 343.646C236.754 343.861 236.92 344.02 237.127 344.121C237.338 344.223 237.586 344.273 237.871 344.273C238.398 344.273 238.953 344.107 239.535 343.775V344.736ZM246.713 344.566C245.842 344.98 245.018 345.188 244.24 345.188C243.65 345.188 243.123 345.041 242.658 344.748C242.193 344.455 241.82 344.037 241.539 343.494C241.262 342.947 241.123 342.363 241.123 341.742C241.123 341.145 241.256 340.57 241.521 340.02C241.787 339.469 242.158 339.041 242.635 338.736C243.111 338.428 243.643 338.273 244.229 338.273C245.006 338.273 245.629 338.551 246.098 339.105C246.57 339.66 246.807 340.516 246.807 341.672V341.906H242.295C242.295 342.359 242.389 342.773 242.576 343.148C242.768 343.523 243.018 343.805 243.326 343.992C243.635 344.18 243.986 344.273 244.381 344.273C245.084 344.273 245.861 344.039 246.713 343.57V344.566ZM242.359 341.092H245.623V340.934C245.623 340.398 245.492 339.973 245.23 339.656C244.969 339.34 244.619 339.182 244.182 339.182C243.74 339.182 243.357 339.344 243.033 339.668C242.713 339.988 242.488 340.463 242.359 341.092ZM248.477 345V338.455H249.566V339.885C249.879 339.381 250.256 338.986 250.697 338.701C251.139 338.416 251.58 338.273 252.021 338.273C252.408 338.273 252.76 338.377 253.076 338.584C253.393 338.787 253.613 339.055 253.738 339.387C253.867 339.719 253.932 340.371 253.932 341.344V345H252.842V341.209C252.842 340.58 252.811 340.166 252.748 339.967C252.689 339.764 252.578 339.598 252.414 339.469C252.254 339.34 252.078 339.275 251.887 339.275C251.504 339.275 251.092 339.457 250.65 339.82C250.213 340.184 249.852 340.639 249.566 341.186V345H248.477ZM261.156 344.736C260.645 344.951 260.273 345.078 260.043 345.117C259.812 345.16 259.59 345.182 259.375 345.182C258.918 345.182 258.5 345.094 258.121 344.918C257.742 344.742 257.455 344.482 257.26 344.139C257.068 343.795 256.973 343.264 256.973 342.545V339.908H255.338V339H256.973V336.363H258.062V339H260.975V339.908H258.062V342.527C258.062 343.055 258.125 343.428 258.25 343.646C258.375 343.861 258.541 344.02 258.748 344.121C258.959 344.223 259.207 344.273 259.492 344.273C260.02 344.273 260.574 344.107 261.156 343.775V344.736ZM271.105 339.926C271.441 339.379 271.842 338.967 272.307 338.689C272.771 338.412 273.199 338.273 273.59 338.273C274.137 338.273 274.629 338.51 275.066 338.982C275.504 339.455 275.723 340.172 275.723 341.133C275.723 341.891 275.576 342.568 275.283 343.166C274.994 343.76 274.607 344.23 274.123 344.578C273.639 344.922 273.039 345.094 272.324 345.094C272.121 345.094 271.809 345.072 271.387 345.029C271.324 345.021 271.23 345.012 271.105 345V347.543H270.016V338.455H271.105V339.926ZM271.105 341.221V344.027C271.5 344.129 271.863 344.18 272.195 344.18C272.855 344.18 273.41 343.922 273.859 343.406C274.312 342.887 274.539 342.178 274.539 341.279C274.539 340.627 274.416 340.137 274.17 339.809C273.924 339.48 273.645 339.316 273.332 339.316C272.992 339.316 272.617 339.488 272.207 339.832C271.801 340.176 271.434 340.639 271.105 341.221ZM279.062 345V336.457H277.105V335.543H280.152V344.092H282.197V345H279.062ZM288.812 343.529C288.48 344.076 288.08 344.488 287.611 344.766C287.146 345.043 286.719 345.182 286.328 345.182C285.781 345.182 285.289 344.945 284.852 344.473C284.418 344 284.201 343.283 284.201 342.322C284.201 341.564 284.346 340.889 284.635 340.295C284.924 339.697 285.311 339.227 285.795 338.883C286.279 338.535 286.879 338.361 287.594 338.361C287.801 338.361 288.113 338.383 288.531 338.426C288.594 338.434 288.688 338.443 288.812 338.455H289.908V343.078C289.908 343.867 289.99 344.508 290.154 345H289.018C288.932 344.641 288.863 344.15 288.812 343.529ZM288.812 342.234V339.428C288.426 339.326 288.066 339.275 287.734 339.275C287.062 339.275 286.502 339.535 286.053 340.055C285.607 340.574 285.385 341.281 285.385 342.176C285.385 342.824 285.506 343.314 285.748 343.646C285.994 343.975 286.273 344.139 286.586 344.139C286.926 344.139 287.301 343.967 287.711 343.623C288.121 343.279 288.488 342.816 288.812 342.234ZM297.227 344.812C296.496 345.059 295.801 345.182 295.141 345.182C294.484 345.182 293.9 345.031 293.389 344.73C292.881 344.426 292.484 344.016 292.199 343.5C291.914 342.98 291.771 342.391 291.771 341.73C291.771 340.738 292.094 339.914 292.738 339.258C293.387 338.602 294.168 338.273 295.082 338.273C295.758 338.273 296.473 338.4 297.227 338.654V339.703C296.465 339.355 295.783 339.182 295.182 339.182C294.783 339.182 294.408 339.281 294.057 339.48C293.705 339.676 293.434 339.982 293.242 340.4C293.051 340.818 292.955 341.248 292.955 341.689C292.955 342.279 293.139 342.842 293.506 343.377C293.877 343.912 294.457 344.18 295.246 344.18C295.484 344.18 295.719 344.164 295.949 344.133C296.18 344.098 296.605 343.975 297.227 343.764V344.812ZM304.369 344.566C303.498 344.98 302.674 345.188 301.896 345.188C301.307 345.188 300.779 345.041 300.314 344.748C299.85 344.455 299.477 344.037 299.195 343.494C298.918 342.947 298.779 342.363 298.779 341.742C298.779 341.145 298.912 340.57 299.178 340.02C299.443 339.469 299.814 339.041 300.291 338.736C300.768 338.428 301.299 338.273 301.885 338.273C302.662 338.273 303.285 338.551 303.754 339.105C304.227 339.66 304.463 340.516 304.463 341.672V341.906H299.951C299.951 342.359 300.045 342.773 300.232 343.148C300.424 343.523 300.674 343.805 300.982 343.992C301.291 344.18 301.643 344.273 302.037 344.273C302.74 344.273 303.518 344.039 304.369 343.57V344.566ZM300.016 341.092H303.279V340.934C303.279 340.398 303.148 339.973 302.887 339.656C302.625 339.34 302.275 339.182 301.838 339.182C301.396 339.182 301.014 339.344 300.689 339.668C300.369 339.988 300.145 340.463 300.016 341.092ZM306.133 345V335.543H307.223V339.885C307.535 339.381 307.912 338.986 308.354 338.701C308.795 338.416 309.236 338.273 309.678 338.273C310.049 338.273 310.387 338.369 310.691 338.561C311 338.748 311.215 338.977 311.336 339.246C311.434 339.453 311.5 339.674 311.535 339.908C311.57 340.139 311.588 340.617 311.588 341.344V345H310.498V341.209C310.498 340.58 310.467 340.166 310.404 339.967C310.346 339.764 310.234 339.598 310.07 339.469C309.91 339.34 309.734 339.275 309.543 339.275C309.16 339.275 308.748 339.457 308.307 339.82C307.869 340.184 307.508 340.639 307.223 341.186V345H306.133ZM316.035 345.182C315.098 345.182 314.348 344.855 313.785 344.203C313.223 343.547 312.941 342.721 312.941 341.725C312.941 340.729 313.223 339.904 313.785 339.252C314.348 338.6 315.098 338.273 316.035 338.273C316.969 338.273 317.717 338.6 318.279 339.252C318.842 339.904 319.123 340.729 319.123 341.725C319.123 342.721 318.842 343.547 318.279 344.203C317.717 344.855 316.969 345.182 316.035 345.182ZM316.035 344.273C316.617 344.273 317.08 344.047 317.424 343.594C317.768 343.141 317.939 342.518 317.939 341.725C317.939 340.936 317.768 340.314 317.424 339.861C317.08 339.408 316.617 339.182 316.035 339.182C315.449 339.182 314.984 339.408 314.641 339.861C314.297 340.314 314.125 340.936 314.125 341.725C314.125 342.518 314.297 343.141 314.641 343.594C314.984 344.047 315.449 344.273 316.035 344.273ZM322.305 345V336.457H320.348V335.543H323.395V344.092H325.439V345H322.305ZM332.125 343.529C331.793 344.076 331.393 344.488 330.924 344.766C330.459 345.043 330.031 345.182 329.641 345.182C329.094 345.182 328.602 344.945 328.164 344.473C327.73 344 327.514 343.283 327.514 342.322C327.514 341.564 327.658 340.889 327.947 340.295C328.236 339.697 328.623 339.227 329.107 338.883C329.592 338.535 330.191 338.361 330.906 338.361C331.113 338.361 331.426 338.383 331.844 338.426C331.906 338.434 332 338.443 332.125 338.455V335.543H333.221V345H332.125V343.529ZM332.125 342.234V339.428C331.738 339.326 331.379 339.275 331.047 339.275C330.375 339.275 329.814 339.535 329.365 340.055C328.92 340.574 328.697 341.281 328.697 342.176C328.697 342.824 328.818 343.314 329.061 343.646C329.307 343.975 329.586 344.139 329.898 344.139C330.238 344.139 330.613 343.967 331.023 343.623C331.434 343.279 331.801 342.816 332.125 342.234ZM340.404 344.566C339.533 344.98 338.709 345.188 337.932 345.188C337.342 345.188 336.814 345.041 336.35 344.748C335.885 344.455 335.512 344.037 335.23 343.494C334.953 342.947 334.814 342.363 334.814 341.742C334.814 341.145 334.947 340.57 335.213 340.02C335.479 339.469 335.85 339.041 336.326 338.736C336.803 338.428 337.334 338.273 337.92 338.273C338.697 338.273 339.32 338.551 339.789 339.105C340.262 339.66 340.498 340.516 340.498 341.672V341.906H335.986C335.986 342.359 336.08 342.773 336.268 343.148C336.459 343.523 336.709 343.805 337.018 343.992C337.326 344.18 337.678 344.273 338.072 344.273C338.775 344.273 339.553 344.039 340.404 343.57V344.566ZM336.051 341.092H339.314V340.934C339.314 340.398 339.184 339.973 338.922 339.656C338.66 339.34 338.311 339.182 337.873 339.182C337.432 339.182 337.049 339.344 336.725 339.668C336.404 339.988 336.18 340.463 336.051 341.092ZM342.725 345V338.455H343.814V339.885C344.154 339.346 344.543 338.943 344.98 338.678C345.422 338.408 345.912 338.273 346.451 338.273C346.846 338.273 347.24 338.334 347.635 338.455V340.816H346.586V339.322C346.402 339.291 346.258 339.275 346.152 339.275C345.746 339.275 345.348 339.436 344.957 339.756C344.566 340.076 344.186 340.557 343.814 341.197V345H342.725Z" fill="#C70000"/>
<rect x="18.5" y="314.5" width="523" height="51" rx="5.5" stroke="#C70000" stroke-dasharray="2 2"/>
<path fill-rule="evenodd" clip-rule="evenodd" d="M560.559 329.006C561.443 328.462 562.557 328.462 563.441 329.006L571.191 333.776C572.005 334.276 572.5 335.163 572.5 336.118V343.882C572.5 344.837 572.005 345.724 571.191 346.224L563.441 350.994C562.557 351.538 561.443 351.538 560.559 350.994L552.809 346.224C551.995 345.724 551.5 344.837 551.5 343.882V336.118C551.5 335.163 551.995 334.276 552.809 333.776L560.559 329.006ZM562.655 330.284C562.253 330.037 561.747 330.037 561.345 330.284L553.595 335.053C553.225 335.281 553 335.684 553 336.118V343.882C553 344.316 553.225 344.719 553.595 344.947L561.345 349.716C561.747 349.963 562.253 349.963 562.655 349.716L570.405 344.947C570.775 344.719 571 344.316 571 343.882V336.118C571 335.684 570.775 335.281 570.405 335.053L562.655 330.284Z" fill="#1060FF"/>
</g>
<rect x="986.75" y="180.75" width="214.5" height="132.5" rx="5.25" stroke="#911CED" stroke-width="1.5" stroke-dasharray="2 2"/>
<rect x="992" y="304" width="184" height="20" rx="5" fill="#F9F2FF"/>
<path d="M998.972 310.25V318H1001.77C1004.08 318 1005.42 316.571 1005.42 314.106C1005.42 311.667 1004.07 310.25 1001.77 310.25H998.972ZM1000.18 311.286H1001.64C1003.24 311.286 1004.19 312.333 1004.19 314.122C1004.19 315.927 1003.26 316.963 1001.64 316.963H1000.18V311.286ZM1006.92 318H1008.07V314.514C1008.07 313.692 1008.69 313.128 1009.56 313.128C1009.77 313.128 1010.11 313.166 1010.21 313.193V312.108C1010.08 312.081 1009.86 312.065 1009.69 312.065C1008.93 312.065 1008.28 312.479 1008.11 313.053H1008.03V312.167H1006.92V318ZM1013.64 318.113C1015.35 318.113 1016.4 316.969 1016.4 315.083C1016.4 313.198 1015.34 312.054 1013.64 312.054C1011.93 312.054 1010.88 313.204 1010.88 315.083C1010.88 316.969 1011.93 318.113 1013.64 318.113ZM1013.64 317.13C1012.64 317.13 1012.07 316.383 1012.07 315.083C1012.07 313.784 1012.64 313.032 1013.64 313.032C1014.64 313.032 1015.21 313.784 1015.21 315.083C1015.21 316.378 1014.64 317.13 1013.64 317.13ZM1020.82 312.065C1020.03 312.065 1019.34 312.468 1018.98 313.134H1018.9V312.167H1017.79V319.944H1018.94V317.119H1019.03C1019.34 317.737 1020 318.097 1020.83 318.097C1022.31 318.097 1023.25 316.926 1023.25 315.083C1023.25 313.23 1022.31 312.065 1020.82 312.065ZM1020.49 317.108C1019.53 317.108 1018.92 316.33 1018.92 315.083C1018.92 313.832 1019.53 313.053 1020.5 313.053C1021.48 313.053 1022.06 313.816 1022.06 315.083C1022.06 316.351 1021.48 317.108 1020.49 317.108ZM1026.78 318.097C1027.58 318.097 1028.27 317.715 1028.62 317.076H1028.71V318H1029.81V309.879H1028.66V313.091H1028.57C1028.26 312.452 1027.58 312.065 1026.78 312.065C1025.3 312.065 1024.35 313.241 1024.35 315.078C1024.35 316.926 1025.29 318.097 1026.78 318.097ZM1027.11 313.053C1028.07 313.053 1028.68 313.837 1028.68 315.083C1028.68 316.34 1028.08 317.108 1027.11 317.108C1026.13 317.108 1025.54 316.351 1025.54 315.083C1025.54 313.821 1026.13 313.053 1027.11 313.053ZM1034.02 318.113C1035.73 318.113 1036.77 316.969 1036.77 315.083C1036.77 313.198 1035.72 312.054 1034.02 312.054C1032.31 312.054 1031.26 313.204 1031.26 315.083C1031.26 316.969 1032.31 318.113 1034.02 318.113ZM1034.02 317.13C1033.01 317.13 1032.45 316.383 1032.45 315.083C1032.45 313.784 1033.01 313.032 1034.02 313.032C1035.02 313.032 1035.59 313.784 1035.59 315.083C1035.59 316.378 1035.02 317.13 1034.02 317.13ZM1045.56 312.167H1044.4L1043.36 316.668H1043.27L1042.06 312.167H1040.96L1039.75 316.668H1039.67L1038.62 312.167H1037.45L1039.06 318H1040.25L1041.45 313.649H1041.54L1042.75 318H1043.95L1045.56 312.167ZM1046.75 318H1047.9V314.579C1047.9 313.639 1048.45 313.059 1049.3 313.059C1050.15 313.059 1050.56 313.531 1050.56 314.498V318H1051.72V314.224C1051.72 312.833 1051 312.054 1049.69 312.054C1048.81 312.054 1048.23 312.446 1047.95 313.091H1047.86V312.167H1046.75V318ZM1056.95 311.125C1057.35 311.125 1057.68 310.797 1057.68 310.4C1057.68 309.997 1057.35 309.669 1056.95 309.669C1056.54 309.669 1056.22 309.997 1056.22 310.4C1056.22 310.797 1056.54 311.125 1056.95 311.125ZM1056.37 318H1057.52V312.167H1056.37V318ZM1059.09 313.8C1059.09 314.665 1059.6 315.159 1060.71 315.417L1061.73 315.658C1062.32 315.798 1062.59 316.034 1062.59 316.399C1062.59 316.877 1062.08 317.21 1061.36 317.21C1060.66 317.21 1060.23 316.926 1060.09 316.469H1058.94C1059.04 317.484 1059.94 318.113 1061.34 318.113C1062.73 318.113 1063.76 317.377 1063.76 316.292C1063.76 315.443 1063.24 314.965 1062.13 314.708L1061.15 314.482C1060.52 314.332 1060.22 314.106 1060.22 313.746C1060.22 313.273 1060.71 312.957 1061.36 312.957C1062.01 312.957 1062.43 313.241 1062.54 313.676H1063.65C1063.53 312.667 1062.67 312.054 1061.36 312.054C1060.04 312.054 1059.09 312.785 1059.09 313.8ZM1069.77 318.097C1070.54 318.097 1071.18 317.764 1071.53 317.173H1071.62V318H1072.73V314.009C1072.73 312.785 1071.91 312.054 1070.44 312.054C1069.11 312.054 1068.17 312.693 1068.05 313.676H1069.17C1069.3 313.252 1069.74 313.01 1070.39 313.01C1071.18 313.01 1071.58 313.37 1071.58 314.009V314.52L1070 314.616C1068.61 314.702 1067.82 315.309 1067.82 316.356C1067.82 317.42 1068.65 318.097 1069.77 318.097ZM1070.07 317.167C1069.44 317.167 1068.98 316.851 1068.98 316.308C1068.98 315.776 1069.35 315.492 1070.16 315.438L1071.58 315.341V315.846C1071.58 316.598 1070.94 317.167 1070.07 317.167ZM1074.38 318H1075.53V314.579C1075.53 313.639 1076.07 313.059 1076.93 313.059C1077.78 313.059 1078.19 313.531 1078.19 314.498V318H1079.35V314.224C1079.35 312.833 1078.63 312.054 1077.32 312.054C1076.44 312.054 1075.86 312.446 1075.57 313.091H1075.49V312.167H1074.38V318ZM1090.5 318V310.25H1089.3V313.526H1085.32V310.25H1084.11V318H1085.32V314.568H1089.3V318H1090.5ZM1092.44 310.25V318H1095.24C1097.55 318 1098.89 316.571 1098.89 314.106C1098.89 311.667 1097.54 310.25 1095.24 310.25H1092.44ZM1093.64 311.286H1095.1C1096.71 311.286 1097.66 312.333 1097.66 314.122C1097.66 315.927 1096.73 316.963 1095.1 316.963H1093.64V311.286ZM1100.15 315.932C1100.24 317.307 1101.39 318.188 1103.11 318.188C1104.95 318.188 1106.1 317.264 1106.1 315.798C1106.1 314.638 1105.44 313.999 1103.85 313.617L1103 313.408C1101.99 313.161 1101.58 312.838 1101.58 312.274C1101.58 311.549 1102.22 311.082 1103.17 311.082C1104.07 311.082 1104.69 311.533 1104.8 312.269H1105.98C1105.91 310.975 1104.76 310.062 1103.18 310.062C1101.49 310.062 1100.36 310.975 1100.36 312.339C1100.36 313.467 1101 314.133 1102.4 314.471L1103.4 314.713C1104.43 314.96 1104.88 315.336 1104.88 315.943C1104.88 316.652 1104.17 317.162 1103.2 317.162C1102.17 317.162 1101.45 316.684 1101.35 315.932H1100.15ZM1115.51 314.042C1115.36 312.908 1114.47 312.054 1113.01 312.054C1111.3 312.054 1110.27 313.209 1110.27 315.062C1110.27 316.953 1111.31 318.113 1113.01 318.113C1114.46 318.113 1115.36 317.302 1115.51 316.152H1114.39C1114.24 316.786 1113.74 317.13 1113.01 317.13C1112.04 317.13 1111.45 316.351 1111.45 315.062C1111.45 313.8 1112.04 313.037 1113.01 313.037C1113.78 313.037 1114.25 313.472 1114.39 314.042H1115.51ZM1119.3 318.113C1121.01 318.113 1122.06 316.969 1122.06 315.083C1122.06 313.198 1121 312.054 1119.3 312.054C1117.59 312.054 1116.54 313.204 1116.54 315.083C1116.54 316.969 1117.59 318.113 1119.3 318.113ZM1119.3 317.13C1118.3 317.13 1117.73 316.383 1117.73 315.083C1117.73 313.784 1118.3 313.032 1119.3 313.032C1120.3 313.032 1120.87 313.784 1120.87 315.083C1120.87 316.378 1120.3 317.13 1119.3 317.13ZM1123.45 318H1124.6V314.417C1124.6 313.655 1125.13 313.059 1125.84 313.059C1126.52 313.059 1126.97 313.472 1126.97 314.138V318H1128.1V314.31C1128.1 313.606 1128.59 313.059 1129.33 313.059C1130.09 313.059 1130.47 313.451 1130.47 314.256V318H1131.62V313.977C1131.62 312.763 1130.93 312.054 1129.75 312.054C1128.94 312.054 1128.27 312.468 1127.98 313.096H1127.88C1127.63 312.468 1127.07 312.054 1126.27 312.054C1125.49 312.054 1124.9 312.441 1124.65 313.096H1124.56V312.167H1123.45V318ZM1136.28 312.065C1135.48 312.065 1134.8 312.468 1134.44 313.134H1134.36V312.167H1133.24V319.944H1134.4V317.119H1134.49C1134.8 317.737 1135.46 318.097 1136.29 318.097C1137.77 318.097 1138.71 316.926 1138.71 315.083C1138.71 313.23 1137.77 312.065 1136.28 312.065ZM1135.95 317.108C1134.98 317.108 1134.38 316.33 1134.38 315.083C1134.38 313.832 1134.98 313.053 1135.96 313.053C1136.93 313.053 1137.52 313.816 1137.52 315.083C1137.52 316.351 1136.93 317.108 1135.95 317.108ZM1142.57 318.113C1144.28 318.113 1145.32 316.969 1145.32 315.083C1145.32 313.198 1144.27 312.054 1142.57 312.054C1140.86 312.054 1139.81 313.204 1139.81 315.083C1139.81 316.969 1140.85 318.113 1142.57 318.113ZM1142.57 317.13C1141.56 317.13 1141 316.383 1141 315.083C1141 313.784 1141.56 313.032 1142.57 313.032C1143.57 313.032 1144.14 313.784 1144.14 315.083C1144.14 316.378 1143.57 317.13 1142.57 317.13ZM1146.71 318H1147.87V314.579C1147.87 313.639 1148.41 313.059 1149.27 313.059C1150.12 313.059 1150.53 313.531 1150.53 314.498V318H1151.68V314.224C1151.68 312.833 1150.96 312.054 1149.66 312.054C1148.78 312.054 1148.2 312.446 1147.91 313.091H1147.83V312.167H1146.71V318ZM1157.15 316.437C1156.93 316.91 1156.45 317.167 1155.75 317.167C1154.83 317.167 1154.23 316.501 1154.2 315.443V315.39H1158.33V314.992C1158.33 313.166 1157.34 312.054 1155.72 312.054C1154.07 312.054 1153.02 313.241 1153.02 315.094C1153.02 316.958 1154.05 318.113 1155.72 318.113C1157.06 318.113 1158 317.468 1158.26 316.437H1157.15ZM1155.71 312.994C1156.57 312.994 1157.12 313.612 1157.15 314.557H1154.2C1154.26 313.617 1154.86 312.994 1155.71 312.994ZM1159.71 318H1160.87V314.579C1160.87 313.639 1161.41 313.059 1162.26 313.059C1163.12 313.059 1163.53 313.531 1163.53 314.498V318H1164.68V314.224C1164.68 312.833 1163.96 312.054 1162.66 312.054C1161.78 312.054 1161.2 312.446 1160.91 313.091H1160.82V312.167H1159.71V318ZM1166.72 310.695V312.183H1165.79V313.107H1166.72V316.464C1166.72 317.586 1167.23 318.038 1168.51 318.038C1168.74 318.038 1168.95 318.011 1169.14 317.979V317.06C1168.98 317.076 1168.88 317.087 1168.7 317.087C1168.12 317.087 1167.87 316.813 1167.87 316.185V313.107H1169.14V312.183H1167.87V310.695H1166.72Z" fill="#911CED"/>
<defs>
<filter id="filter0_ddd_640_83411" x="0" y="33" width="592" height="91" filterUnits="userSpaceOnUse" color-interpolation-filters="sRGB">
<feFlood flood-opacity="0" result="BackgroundImageFix"/>
<feColorMatrix in="SourceAlpha" type="matrix" values="0 0 0 0 0 0 0 0 0 0 0 0 0 0 0 0 0 0 127 0" result="hardAlpha"/>
<feMorphology radius="10" operator="erode" in="SourceAlpha" result="effect1_dropShadow_640_83411"/>
<feOffset dy="8"/>
<feGaussianBlur stdDeviation="8"/>
<feColorMatrix type="matrix" values="0 0 0 0 0.396078 0 0 0 0 0.415686 0 0 0 0 0.462745 0 0 0 0.2 0"/>
<feBlend mode="normal" in2="BackgroundImageFix" result="effect1_dropShadow_640_83411"/>
<feColorMatrix in="SourceAlpha" type="matrix" values="0 0 0 0 0 0 0 0 0 0 0 0 0 0 0 0 0 0 127 0" result="hardAlpha"/>
<feOffset dy="2"/>
<feGaussianBlur stdDeviation="1.5"/>
<feColorMatrix type="matrix" values="0 0 0 0 0.396078 0 0 0 0 0.415686 0 0 0 0 0.462745 0 0 0 0.1 0"/>
<feBlend mode="normal" in2="effect1_dropShadow_640_83411" result="effect2_dropShadow_640_83411"/>
<feColorMatrix in="SourceAlpha" type="matrix" values="0 0 0 0 0 0 0 0 0 0 0 0 0 0 0 0 0 0 127 0" result="hardAlpha"/>
<feMorphology radius="1" operator="dilate" in="SourceAlpha" result="effect3_dropShadow_640_83411"/>
<feOffset/>
<feColorMatrix type="matrix" values="0 0 0 0 0.396078 0 0 0 0 0.415686 0 0 0 0 0.462745 0 0 0 0.15 0"/>
<feBlend mode="normal" in2="effect2_dropShadow_640_83411" result="effect3_dropShadow_640_83411"/>
<feBlend mode="normal" in="SourceGraphic" in2="effect3_dropShadow_640_83411" result="shape"/>
</filter>
<filter id="filter1_dd_640_83411" x="506" y="58" width="70" height="32" filterUnits="userSpaceOnUse" color-interpolation-filters="sRGB">
<feFlood flood-opacity="0" result="BackgroundImageFix"/>
<feColorMatrix in="SourceAlpha" type="matrix" values="0 0 0 0 0 0 0 0 0 0 0 0 0 0 0 0 0 0 127 0" result="hardAlpha"/>
<feOffset dy="2"/>
<feGaussianBlur stdDeviation="1"/>
<feColorMatrix type="matrix" values="0 0 0 0 0.396078 0 0 0 0 0.415686 0 0 0 0 0.462745 0 0 0 0.05 0"/>
<feBlend mode="normal" in2="BackgroundImageFix" result="effect1_dropShadow_640_83411"/>
<feColorMatrix in="SourceAlpha" type="matrix" values="0 0 0 0 0 0 0 0 0 0 0 0 0 0 0 0 0 0 127 0" result="hardAlpha"/>
<feOffset dy="1"/>
<feGaussianBlur stdDeviation="0.5"/>
<feColorMatrix type="matrix" values="0 0 0 0 0.396078 0 0 0 0 0.415686 0 0 0 0 0.462745 0 0 0 0.05 0"/>
<feBlend mode="normal" in2="effect1_dropShadow_640_83411" result="effect2_dropShadow_640_83411"/>
<feBlend mode="normal" in="SourceGraphic" in2="effect2_dropShadow_640_83411" result="shape"/>
</filter>
<filter id="filter2_ddd_640_83411" x="0" y="167" width="592" height="91" filterUnits="userSpaceOnUse" color-interpolation-filters="sRGB">
<feFlood flood-opacity="0" result="BackgroundImageFix"/>
<feColorMatrix in="SourceAlpha" type="matrix" values="0 0 0 0 0 0 0 0 0 0 0 0 0 0 0 0 0 0 127 0" result="hardAlpha"/>
<feMorphology radius="10" operator="erode" in="SourceAlpha" result="effect1_dropShadow_640_83411"/>
<feOffset dy="8"/>
<feGaussianBlur stdDeviation="8"/>
<feColorMatrix type="matrix" values="0 0 0 0 0.396078 0 0 0 0 0.415686 0 0 0 0 0.462745 0 0 0 0.2 0"/>
<feBlend mode="normal" in2="BackgroundImageFix" result="effect1_dropShadow_640_83411"/>
<feColorMatrix in="SourceAlpha" type="matrix" values="0 0 0 0 0 0 0 0 0 0 0 0 0 0 0 0 0 0 127 0" result="hardAlpha"/>
<feOffset dy="2"/>
<feGaussianBlur stdDeviation="1.5"/>
<feColorMatrix type="matrix" values="0 0 0 0 0.396078 0 0 0 0 0.415686 0 0 0 0 0.462745 0 0 0 0.1 0"/>
<feBlend mode="normal" in2="effect1_dropShadow_640_83411" result="effect2_dropShadow_640_83411"/>
<feColorMatrix in="SourceAlpha" type="matrix" values="0 0 0 0 0 0 0 0 0 0 0 0 0 0 0 0 0 0 127 0" result="hardAlpha"/>
<feMorphology radius="1" operator="dilate" in="SourceAlpha" result="effect3_dropShadow_640_83411"/>
<feOffset/>
<feColorMatrix type="matrix" values="0 0 0 0 0.396078 0 0 0 0 0.415686 0 0 0 0 0.462745 0 0 0 0.15 0"/>
<feBlend mode="normal" in2="effect2_dropShadow_640_83411" result="effect3_dropShadow_640_83411"/>
<feBlend mode="normal" in="SourceGraphic" in2="effect3_dropShadow_640_83411" result="shape"/>
</filter>
<filter id="filter3_ddd_640_83411" x="620" y="167" width="592" height="91" filterUnits="userSpaceOnUse" color-interpolation-filters="sRGB">
<feFlood flood-opacity="0" result="BackgroundImageFix"/>
<feColorMatrix in="SourceAlpha" type="matrix" values="0 0 0 0 0 0 0 0 0 0 0 0 0 0 0 0 0 0 127 0" result="hardAlpha"/>
<feMorphology radius="10" operator="erode" in="SourceAlpha" result="effect1_dropShadow_640_83411"/>
<feOffset dy="8"/>
<feGaussianBlur stdDeviation="8"/>
<feColorMatrix type="matrix" values="0 0 0 0 0.396078 0 0 0 0 0.415686 0 0 0 0 0.462745 0 0 0 0.2 0"/>
<feBlend mode="normal" in2="BackgroundImageFix" result="effect1_dropShadow_640_83411"/>
<feColorMatrix in="SourceAlpha" type="matrix" values="0 0 0 0 0 0 0 0 0 0 0 0 0 0 0 0 0 0 127 0" result="hardAlpha"/>
<feOffset dy="2"/>
<feGaussianBlur stdDeviation="1.5"/>
<feColorMatrix type="matrix" values="0 0 0 0 0.396078 0 0 0 0 0.415686 0 0 0 0 0.462745 0 0 0 0.1 0"/>
<feBlend mode="normal" in2="effect1_dropShadow_640_83411" result="effect2_dropShadow_640_83411"/>
<feColorMatrix in="SourceAlpha" type="matrix" values="0 0 0 0 0 0 0 0 0 0 0 0 0 0 0 0 0 0 127 0" result="hardAlpha"/>
<feMorphology radius="1" operator="dilate" in="SourceAlpha" result="effect3_dropShadow_640_83411"/>
<feOffset/>
<feColorMatrix type="matrix" values="0 0 0 0 0.396078 0 0 0 0 0.415686 0 0 0 0 0.462745 0 0 0 0.15 0"/>
<feBlend mode="normal" in2="effect2_dropShadow_640_83411" result="effect3_dropShadow_640_83411"/>
<feBlend mode="normal" in="SourceGraphic" in2="effect3_dropShadow_640_83411" result="shape"/>
</filter>
<filter id="filter4_ddd_640_83411" x="988" y="227" width="212" height="103" filterUnits="userSpaceOnUse" color-interpolation-filters="sRGB">
<feFlood flood-opacity="0" result="BackgroundImageFix"/>
<feColorMatrix in="SourceAlpha" type="matrix" values="0 0 0 0 0 0 0 0 0 0 0 0 0 0 0 0 0 0 127 0" result="hardAlpha"/>
<feMorphology radius="10" operator="erode" in="SourceAlpha" result="effect1_dropShadow_640_83411"/>
<feOffset dy="16"/>
<feGaussianBlur stdDeviation="8"/>
<feColorMatrix type="matrix" values="0 0 0 0 0.396078 0 0 0 0 0.415686 0 0 0 0 0.462745 0 0 0 0.2 0"/>
<feBlend mode="normal" in2="BackgroundImageFix" result="effect1_dropShadow_640_83411"/>
<feColorMatrix in="SourceAlpha" type="matrix" values="0 0 0 0 0 0 0 0 0 0 0 0 0 0 0 0 0 0 127 0" result="hardAlpha"/>
<feOffset dy="2"/>
<feGaussianBlur stdDeviation="1.5"/>
<feColorMatrix type="matrix" values="0 0 0 0 0.396078 0 0 0 0 0.415686 0 0 0 0 0.462745 0 0 0 0.15 0"/>
<feBlend mode="normal" in2="effect1_dropShadow_640_83411" result="effect2_dropShadow_640_83411"/>
<feColorMatrix in="SourceAlpha" type="matrix" values="0 0 0 0 0 0 0 0 0 0 0 0 0 0 0 0 0 0 127 0" result="hardAlpha"/>
<feMorphology radius="1" operator="dilate" in="SourceAlpha" result="effect3_dropShadow_640_83411"/>
<feOffset/>
<feColorMatrix type="matrix" values="0 0 0 0 0.396078 0 0 0 0 0.415686 0 0 0 0 0.462745 0 0 0 0.25 0"/>
<feBlend mode="normal" in2="effect2_dropShadow_640_83411" result="effect3_dropShadow_640_83411"/>
<feBlend mode="normal" in="SourceGraphic" in2="effect3_dropShadow_640_83411" result="shape"/>
</filter>
<filter id="filter5_ddd_640_83411" x="0" y="301" width="592" height="91" filterUnits="userSpaceOnUse" color-interpolation-filters="sRGB">
<feFlood flood-opacity="0" result="BackgroundImageFix"/>
<feColorMatrix in="SourceAlpha" type="matrix" values="0 0 0 0 0 0 0 0 0 0 0 0 0 0 0 0 0 0 127 0" result="hardAlpha"/>
<feMorphology radius="10" operator="erode" in="SourceAlpha" result="effect1_dropShadow_640_83411"/>
<feOffset dy="8"/>
<feGaussianBlur stdDeviation="8"/>
<feColorMatrix type="matrix" values="0 0 0 0 0.396078 0 0 0 0 0.415686 0 0 0 0 0.462745 0 0 0 0.2 0"/>
<feBlend mode="normal" in2="BackgroundImageFix" result="effect1_dropShadow_640_83411"/>
<feColorMatrix in="SourceAlpha" type="matrix" values="0 0 0 0 0 0 0 0 0 0 0 0 0 0 0 0 0 0 127 0" result="hardAlpha"/>
<feOffset dy="2"/>
<feGaussianBlur stdDeviation="1.5"/>
<feColorMatrix type="matrix" values="0 0 0 0 0.396078 0 0 0 0 0.415686 0 0 0 0 0.462745 0 0 0 0.1 0"/>
<feBlend mode="normal" in2="effect1_dropShadow_640_83411" result="effect2_dropShadow_640_83411"/>
<feColorMatrix in="SourceAlpha" type="matrix" values="0 0 0 0 0 0 0 0 0 0 0 0 0 0 0 0 0 0 127 0" result="hardAlpha"/>
<feMorphology radius="1" operator="dilate" in="SourceAlpha" result="effect3_dropShadow_640_83411"/>
<feOffset/>
<feColorMatrix type="matrix" values="0 0 0 0 0.396078 0 0 0 0 0.415686 0 0 0 0 0.462745 0 0 0 0.15 0"/>
<feBlend mode="normal" in2="effect2_dropShadow_640_83411" result="effect3_dropShadow_640_83411"/>
<feBlend mode="normal" in="SourceGraphic" in2="effect3_dropShadow_640_83411" result="shape"/>
</filter>
</defs>
</svg>
