<svg fill="none" height="833" viewBox="0 0 1280 833" width="1280" xmlns="http://www.w3.org/2000/svg" xmlns:xlink="http://www.w3.org/1999/xlink"><filter id="a" color-interpolation-filters="sRGB" filterUnits="userSpaceOnUse" height="37" width="200" x="320" y="148.788"><feFlood flood-opacity="0" result="BackgroundImageFix"/><feBlend in="SourceGraphic" in2="BackgroundImageFix" mode="normal" result="shape"/><feColorMatrix in="SourceAlpha" result="hardAlpha" type="matrix" values="0 0 0 0 0 0 0 0 0 0 0 0 0 0 0 0 0 0 127 0"/><feMorphology in="SourceAlpha" operator="erode" radius="1" result="effect1_innerShadow_642_109330"/><feOffset dy="1"/><feGaussianBlur stdDeviation="1"/><feComposite in2="hardAlpha" k2="-1" k3="1" operator="arithmetic"/><feColorMatrix type="matrix" values="0 0 0 0 0.396078 0 0 0 0 0.415686 0 0 0 0 0.462745 0 0 0 0.1 0"/><feBlend in2="shape" mode="normal" result="effect1_innerShadow_642_109330"/></filter><filter id="b" color-interpolation-filters="sRGB" filterUnits="userSpaceOnUse" height="40" width="101" x="517" y="148.788"><feFlood flood-opacity="0" result="BackgroundImageFix"/><feColorMatrix in="SourceAlpha" result="hardAlpha" type="matrix" values="0 0 0 0 0 0 0 0 0 0 0 0 0 0 0 0 0 0 127 0"/><feOffset dy="2"/><feGaussianBlur stdDeviation="1"/><feColorMatrix type="matrix" values="0 0 0 0 0.396078 0 0 0 0 0.415686 0 0 0 0 0.462745 0 0 0 0.05 0"/><feBlend in2="BackgroundImageFix" mode="normal" result="effect1_dropShadow_642_109330"/><feColorMatrix in="SourceAlpha" result="hardAlpha" type="matrix" values="0 0 0 0 0 0 0 0 0 0 0 0 0 0 0 0 0 0 127 0"/><feOffset dy="1"/><feGaussianBlur stdDeviation=".5"/><feColorMatrix type="matrix" values="0 0 0 0 0.396078 0 0 0 0 0.415686 0 0 0 0 0.462745 0 0 0 0.05 0"/><feBlend in2="effect1_dropShadow_642_109330" mode="normal" result="effect2_dropShadow_642_109330"/><feBlend in="SourceGraphic" in2="effect2_dropShadow_642_109330" mode="normal" result="shape"/></filter><filter id="c" color-interpolation-filters="sRGB" filterUnits="userSpaceOnUse" height="40" width="89" x="630" y="148.788"><feFlood flood-opacity="0" result="BackgroundImageFix"/><feColorMatrix in="SourceAlpha" result="hardAlpha" type="matrix" values="0 0 0 0 0 0 0 0 0 0 0 0 0 0 0 0 0 0 127 0"/><feOffset dy="2"/><feGaussianBlur stdDeviation="1"/><feColorMatrix type="matrix" values="0 0 0 0 0.396078 0 0 0 0 0.415686 0 0 0 0 0.462745 0 0 0 0.05 0"/><feBlend in2="BackgroundImageFix" mode="normal" result="effect1_dropShadow_642_109330"/><feColorMatrix in="SourceAlpha" result="hardAlpha" type="matrix" values="0 0 0 0 0 0 0 0 0 0 0 0 0 0 0 0 0 0 127 0"/><feOffset dy="1"/><feGaussianBlur stdDeviation=".5"/><feColorMatrix type="matrix" values="0 0 0 0 0.396078 0 0 0 0 0.415686 0 0 0 0 0.462745 0 0 0 0.05 0"/><feBlend in2="effect1_dropShadow_642_109330" mode="normal" result="effect2_dropShadow_642_109330"/><feBlend in="SourceGraphic" in2="effect2_dropShadow_642_109330" mode="normal" result="shape"/></filter><filter id="d" color-interpolation-filters="sRGB" filterUnits="userSpaceOnUse" height="40" width="89" x="714" y="148.788"><feFlood flood-opacity="0" result="BackgroundImageFix"/><feColorMatrix in="SourceAlpha" result="hardAlpha" type="matrix" values="0 0 0 0 0 0 0 0 0 0 0 0 0 0 0 0 0 0 127 0"/><feOffset dy="2"/><feGaussianBlur stdDeviation="1"/><feColorMatrix type="matrix" values="0 0 0 0 0.396078 0 0 0 0 0.415686 0 0 0 0 0.462745 0 0 0 0.05 0"/><feBlend in2="BackgroundImageFix" mode="normal" result="effect1_dropShadow_642_109330"/><feColorMatrix in="SourceAlpha" result="hardAlpha" type="matrix" values="0 0 0 0 0 0 0 0 0 0 0 0 0 0 0 0 0 0 127 0"/><feOffset dy="1"/><feGaussianBlur stdDeviation=".5"/><feColorMatrix type="matrix" values="0 0 0 0 0.396078 0 0 0 0 0.415686 0 0 0 0 0.462745 0 0 0 0.05 0"/><feBlend in2="effect1_dropShadow_642_109330" mode="normal" result="effect2_dropShadow_642_109330"/><feBlend in="SourceGraphic" in2="effect2_dropShadow_642_109330" mode="normal" result="shape"/></filter><filter id="e" color-interpolation-filters="sRGB" filterUnits="userSpaceOnUse" height="40" width="89" x="798" y="148.788"><feFlood flood-opacity="0" result="BackgroundImageFix"/><feColorMatrix in="SourceAlpha" result="hardAlpha" type="matrix" values="0 0 0 0 0 0 0 0 0 0 0 0 0 0 0 0 0 0 127 0"/><feOffset dy="2"/><feGaussianBlur stdDeviation="1"/><feColorMatrix type="matrix" values="0 0 0 0 0.396078 0 0 0 0 0.415686 0 0 0 0 0.462745 0 0 0 0.05 0"/><feBlend in2="BackgroundImageFix" mode="normal" result="effect1_dropShadow_642_109330"/><feColorMatrix in="SourceAlpha" result="hardAlpha" type="matrix" values="0 0 0 0 0 0 0 0 0 0 0 0 0 0 0 0 0 0 127 0"/><feOffset dy="1"/><feGaussianBlur stdDeviation=".5"/><feColorMatrix type="matrix" values="0 0 0 0 0.396078 0 0 0 0 0.415686 0 0 0 0 0.462745 0 0 0 0.05 0"/><feBlend in2="effect1_dropShadow_642_109330" mode="normal" result="effect2_dropShadow_642_109330"/><feBlend in="SourceGraphic" in2="effect2_dropShadow_642_109330" mode="normal" result="shape"/></filter><filter id="f" color-interpolation-filters="sRGB" filterUnits="userSpaceOnUse" height="40" width="136" x="985" y="148.788"><feFlood flood-opacity="0" result="BackgroundImageFix"/><feColorMatrix in="SourceAlpha" result="hardAlpha" type="matrix" values="0 0 0 0 0 0 0 0 0 0 0 0 0 0 0 0 0 0 127 0"/><feOffset dy="2"/><feGaussianBlur stdDeviation="1"/><feColorMatrix type="matrix" values="0 0 0 0 0.396078 0 0 0 0 0.415686 0 0 0 0 0.462745 0 0 0 0.05 0"/><feBlend in2="BackgroundImageFix" mode="normal" result="effect1_dropShadow_642_109330"/><feColorMatrix in="SourceAlpha" result="hardAlpha" type="matrix" values="0 0 0 0 0 0 0 0 0 0 0 0 0 0 0 0 0 0 127 0"/><feOffset dy="1"/><feGaussianBlur stdDeviation=".5"/><feColorMatrix type="matrix" values="0 0 0 0 0.396078 0 0 0 0 0.415686 0 0 0 0 0.462745 0 0 0 0.05 0"/><feBlend in2="effect1_dropShadow_642_109330" mode="normal" result="effect2_dropShadow_642_109330"/><feBlend in="SourceGraphic" in2="effect2_dropShadow_642_109330" mode="normal" result="shape"/></filter><filter id="g" color-interpolation-filters="sRGB" filterUnits="userSpaceOnUse" height="40" width="126" x="1116" y="148.788"><feFlood flood-opacity="0" result="BackgroundImageFix"/><feColorMatrix in="SourceAlpha" result="hardAlpha" type="matrix" values="0 0 0 0 0 0 0 0 0 0 0 0 0 0 0 0 0 0 127 0"/><feOffset dy="2"/><feGaussianBlur stdDeviation="1"/><feColorMatrix type="matrix" values="0 0 0 0 0.396078 0 0 0 0 0.415686 0 0 0 0 0.462745 0 0 0 0.05 0"/><feBlend in2="BackgroundImageFix" mode="normal" result="effect1_dropShadow_642_109330"/><feColorMatrix in="SourceAlpha" result="hardAlpha" type="matrix" values="0 0 0 0 0 0 0 0 0 0 0 0 0 0 0 0 0 0 127 0"/><feOffset dy="1"/><feGaussianBlur stdDeviation=".5"/><feColorMatrix type="matrix" values="0 0 0 0 0.396078 0 0 0 0 0.415686 0 0 0 0 0.462745 0 0 0 0.05 0"/><feBlend in2="effect1_dropShadow_642_109330" mode="normal" result="effect2_dropShadow_642_109330"/><feBlend in="SourceGraphic" in2="effect2_dropShadow_642_109330" mode="normal" result="shape"/></filter><filter id="h" color-interpolation-filters="sRGB" filterUnits="userSpaceOnUse" height="95" width="932" x="314" y="148.788"><feFlood flood-opacity="0" result="BackgroundImageFix"/><feColorMatrix in="SourceAlpha" result="hardAlpha" type="matrix" values="0 0 0 0 0 0 0 0 0 0 0 0 0 0 0 0 0 0 127 0"/><feMorphology in="SourceAlpha" operator="erode" radius="10" result="effect1_dropShadow_642_109330"/><feOffset dy="8"/><feGaussianBlur stdDeviation="8"/><feColorMatrix type="matrix" values="0 0 0 0 0.396078 0 0 0 0 0.415686 0 0 0 0 0.462745 0 0 0 0.2 0"/><feBlend in2="BackgroundImageFix" mode="normal" result="effect1_dropShadow_642_109330"/><feColorMatrix in="SourceAlpha" result="hardAlpha" type="matrix" values="0 0 0 0 0 0 0 0 0 0 0 0 0 0 0 0 0 0 127 0"/><feOffset dy="2"/><feGaussianBlur stdDeviation="1.5"/><feColorMatrix type="matrix" values="0 0 0 0 0.396078 0 0 0 0 0.415686 0 0 0 0 0.462745 0 0 0 0.1 0"/><feBlend in2="effect1_dropShadow_642_109330" mode="normal" result="effect2_dropShadow_642_109330"/><feColorMatrix in="SourceAlpha" result="hardAlpha" type="matrix" values="0 0 0 0 0 0 0 0 0 0 0 0 0 0 0 0 0 0 127 0"/><feMorphology in="SourceAlpha" operator="dilate" radius="1" result="effect3_dropShadow_642_109330"/><feOffset/><feColorMatrix type="matrix" values="0 0 0 0 0.396078 0 0 0 0 0.415686 0 0 0 0 0.462745 0 0 0 0.15 0"/><feBlend in2="effect2_dropShadow_642_109330" mode="normal" result="effect3_dropShadow_642_109330"/><feBlend in="SourceGraphic" in2="effect3_dropShadow_642_109330" mode="normal" result="shape"/></filter><filter id="i" color-interpolation-filters="sRGB" filterUnits="userSpaceOnUse" height="95" width="932" x="314" y="240.788"><feFlood flood-opacity="0" result="BackgroundImageFix"/><feColorMatrix in="SourceAlpha" result="hardAlpha" type="matrix" values="0 0 0 0 0 0 0 0 0 0 0 0 0 0 0 0 0 0 127 0"/><feMorphology in="SourceAlpha" operator="erode" radius="10" result="effect1_dropShadow_642_109330"/><feOffset dy="8"/><feGaussianBlur stdDeviation="8"/><feColorMatrix type="matrix" values="0 0 0 0 0.396078 0 0 0 0 0.415686 0 0 0 0 0.462745 0 0 0 0.2 0"/><feBlend in2="BackgroundImageFix" mode="normal" result="effect1_dropShadow_642_109330"/><feColorMatrix in="SourceAlpha" result="hardAlpha" type="matrix" values="0 0 0 0 0 0 0 0 0 0 0 0 0 0 0 0 0 0 127 0"/><feOffset dy="2"/><feGaussianBlur stdDeviation="1.5"/><feColorMatrix type="matrix" values="0 0 0 0 0.396078 0 0 0 0 0.415686 0 0 0 0 0.462745 0 0 0 0.1 0"/><feBlend in2="effect1_dropShadow_642_109330" mode="normal" result="effect2_dropShadow_642_109330"/><feColorMatrix in="SourceAlpha" result="hardAlpha" type="matrix" values="0 0 0 0 0 0 0 0 0 0 0 0 0 0 0 0 0 0 127 0"/><feMorphology in="SourceAlpha" operator="dilate" radius="1" result="effect3_dropShadow_642_109330"/><feOffset/><feColorMatrix type="matrix" values="0 0 0 0 0.396078 0 0 0 0 0.415686 0 0 0 0 0.462745 0 0 0 0.15 0"/><feBlend in2="effect2_dropShadow_642_109330" mode="normal" result="effect3_dropShadow_642_109330"/><feBlend in="SourceGraphic" in2="effect3_dropShadow_642_109330" mode="normal" result="shape"/></filter><filter id="j" color-interpolation-filters="sRGB" filterUnits="userSpaceOnUse" height="95" width="932" x="314" y="332.788"><feFlood flood-opacity="0" result="BackgroundImageFix"/><feColorMatrix in="SourceAlpha" result="hardAlpha" type="matrix" values="0 0 0 0 0 0 0 0 0 0 0 0 0 0 0 0 0 0 127 0"/><feMorphology in="SourceAlpha" operator="erode" radius="10" result="effect1_dropShadow_642_109330"/><feOffset dy="8"/><feGaussianBlur stdDeviation="8"/><feColorMatrix type="matrix" values="0 0 0 0 0.396078 0 0 0 0 0.415686 0 0 0 0 0.462745 0 0 0 0.2 0"/><feBlend in2="BackgroundImageFix" mode="normal" result="effect1_dropShadow_642_109330"/><feColorMatrix in="SourceAlpha" result="hardAlpha" type="matrix" values="0 0 0 0 0 0 0 0 0 0 0 0 0 0 0 0 0 0 127 0"/><feOffset dy="2"/><feGaussianBlur stdDeviation="1.5"/><feColorMatrix type="matrix" values="0 0 0 0 0.396078 0 0 0 0 0.415686 0 0 0 0 0.462745 0 0 0 0.1 0"/><feBlend in2="effect1_dropShadow_642_109330" mode="normal" result="effect2_dropShadow_642_109330"/><feColorMatrix in="SourceAlpha" result="hardAlpha" type="matrix" values="0 0 0 0 0 0 0 0 0 0 0 0 0 0 0 0 0 0 127 0"/><feMorphology in="SourceAlpha" operator="dilate" radius="1" result="effect3_dropShadow_642_109330"/><feOffset/><feColorMatrix type="matrix" values="0 0 0 0 0.396078 0 0 0 0 0.415686 0 0 0 0 0.462745 0 0 0 0.15 0"/><feBlend in2="effect2_dropShadow_642_109330" mode="normal" result="effect3_dropShadow_642_109330"/><feBlend in="SourceGraphic" in2="effect3_dropShadow_642_109330" mode="normal" result="shape"/></filter><filter id="k" color-interpolation-filters="sRGB" filterUnits="userSpaceOnUse" height="95" width="932" x="314" y="424.788"><feFlood flood-opacity="0" result="BackgroundImageFix"/><feColorMatrix in="SourceAlpha" result="hardAlpha" type="matrix" values="0 0 0 0 0 0 0 0 0 0 0 0 0 0 0 0 0 0 127 0"/><feMorphology in="SourceAlpha" operator="erode" radius="10" result="effect1_dropShadow_642_109330"/><feOffset dy="8"/><feGaussianBlur stdDeviation="8"/><feColorMatrix type="matrix" values="0 0 0 0 0.396078 0 0 0 0 0.415686 0 0 0 0 0.462745 0 0 0 0.2 0"/><feBlend in2="BackgroundImageFix" mode="normal" result="effect1_dropShadow_642_109330"/><feColorMatrix in="SourceAlpha" result="hardAlpha" type="matrix" values="0 0 0 0 0 0 0 0 0 0 0 0 0 0 0 0 0 0 127 0"/><feOffset dy="2"/><feGaussianBlur stdDeviation="1.5"/><feColorMatrix type="matrix" values="0 0 0 0 0.396078 0 0 0 0 0.415686 0 0 0 0 0.462745 0 0 0 0.1 0"/><feBlend in2="effect1_dropShadow_642_109330" mode="normal" result="effect2_dropShadow_642_109330"/><feColorMatrix in="SourceAlpha" result="hardAlpha" type="matrix" values="0 0 0 0 0 0 0 0 0 0 0 0 0 0 0 0 0 0 127 0"/><feMorphology in="SourceAlpha" operator="dilate" radius="1" result="effect3_dropShadow_642_109330"/><feOffset/><feColorMatrix type="matrix" values="0 0 0 0 0.396078 0 0 0 0 0.415686 0 0 0 0 0.462745 0 0 0 0.15 0"/><feBlend in2="effect2_dropShadow_642_109330" mode="normal" result="effect3_dropShadow_642_109330"/><feBlend in="SourceGraphic" in2="effect3_dropShadow_642_109330" mode="normal" result="shape"/></filter><filter id="l" color-interpolation-filters="sRGB" filterUnits="userSpaceOnUse" height="95" width="932" x="314" y="516.788"><feFlood flood-opacity="0" result="BackgroundImageFix"/><feColorMatrix in="SourceAlpha" result="hardAlpha" type="matrix" values="0 0 0 0 0 0 0 0 0 0 0 0 0 0 0 0 0 0 127 0"/><feMorphology in="SourceAlpha" operator="erode" radius="10" result="effect1_dropShadow_642_109330"/><feOffset dy="8"/><feGaussianBlur stdDeviation="8"/><feColorMatrix type="matrix" values="0 0 0 0 0.396078 0 0 0 0 0.415686 0 0 0 0 0.462745 0 0 0 0.2 0"/><feBlend in2="BackgroundImageFix" mode="normal" result="effect1_dropShadow_642_109330"/><feColorMatrix in="SourceAlpha" result="hardAlpha" type="matrix" values="0 0 0 0 0 0 0 0 0 0 0 0 0 0 0 0 0 0 127 0"/><feOffset dy="2"/><feGaussianBlur stdDeviation="1.5"/><feColorMatrix type="matrix" values="0 0 0 0 0.396078 0 0 0 0 0.415686 0 0 0 0 0.462745 0 0 0 0.1 0"/><feBlend in2="effect1_dropShadow_642_109330" mode="normal" result="effect2_dropShadow_642_109330"/><feColorMatrix in="SourceAlpha" result="hardAlpha" type="matrix" values="0 0 0 0 0 0 0 0 0 0 0 0 0 0 0 0 0 0 127 0"/><feMorphology in="SourceAlpha" operator="dilate" radius="1" result="effect3_dropShadow_642_109330"/><feOffset/><feColorMatrix type="matrix" values="0 0 0 0 0.396078 0 0 0 0 0.415686 0 0 0 0 0.462745 0 0 0 0.15 0"/><feBlend in2="effect2_dropShadow_642_109330" mode="normal" result="effect3_dropShadow_642_109330"/><feBlend in="SourceGraphic" in2="effect3_dropShadow_642_109330" mode="normal" result="shape"/></filter><filter id="m" color-interpolation-filters="sRGB" filterUnits="userSpaceOnUse" height="95" width="932" x="314" y="608.788"><feFlood flood-opacity="0" result="BackgroundImageFix"/><feColorMatrix in="SourceAlpha" result="hardAlpha" type="matrix" values="0 0 0 0 0 0 0 0 0 0 0 0 0 0 0 0 0 0 127 0"/><feMorphology in="SourceAlpha" operator="erode" radius="10" result="effect1_dropShadow_642_109330"/><feOffset dy="8"/><feGaussianBlur stdDeviation="8"/><feColorMatrix type="matrix" values="0 0 0 0 0.396078 0 0 0 0 0.415686 0 0 0 0 0.462745 0 0 0 0.2 0"/><feBlend in2="BackgroundImageFix" mode="normal" result="effect1_dropShadow_642_109330"/><feColorMatrix in="SourceAlpha" result="hardAlpha" type="matrix" values="0 0 0 0 0 0 0 0 0 0 0 0 0 0 0 0 0 0 127 0"/><feOffset dy="2"/><feGaussianBlur stdDeviation="1.5"/><feColorMatrix type="matrix" values="0 0 0 0 0.396078 0 0 0 0 0.415686 0 0 0 0 0.462745 0 0 0 0.1 0"/><feBlend in2="effect1_dropShadow_642_109330" mode="normal" result="effect2_dropShadow_642_109330"/><feColorMatrix in="SourceAlpha" result="hardAlpha" type="matrix" values="0 0 0 0 0 0 0 0 0 0 0 0 0 0 0 0 0 0 127 0"/><feMorphology in="SourceAlpha" operator="dilate" radius="1" result="effect3_dropShadow_642_109330"/><feOffset/><feColorMatrix type="matrix" values="0 0 0 0 0.396078 0 0 0 0 0.415686 0 0 0 0 0.462745 0 0 0 0.15 0"/><feBlend in2="effect2_dropShadow_642_109330" mode="normal" result="effect3_dropShadow_642_109330"/><feBlend in="SourceGraphic" in2="effect3_dropShadow_642_109330" mode="normal" result="shape"/></filter><filter id="n" color-interpolation-filters="sRGB" filterUnits="userSpaceOnUse" height="95" width="932" x="314" y="700.788"><feFlood flood-opacity="0" result="BackgroundImageFix"/><feColorMatrix in="SourceAlpha" result="hardAlpha" type="matrix" values="0 0 0 0 0 0 0 0 0 0 0 0 0 0 0 0 0 0 127 0"/><feMorphology in="SourceAlpha" operator="erode" radius="10" result="effect1_dropShadow_642_109330"/><feOffset dy="8"/><feGaussianBlur stdDeviation="8"/><feColorMatrix type="matrix" values="0 0 0 0 0.396078 0 0 0 0 0.415686 0 0 0 0 0.462745 0 0 0 0.2 0"/><feBlend in2="BackgroundImageFix" mode="normal" result="effect1_dropShadow_642_109330"/><feColorMatrix in="SourceAlpha" result="hardAlpha" type="matrix" values="0 0 0 0 0 0 0 0 0 0 0 0 0 0 0 0 0 0 127 0"/><feOffset dy="2"/><feGaussianBlur stdDeviation="1.5"/><feColorMatrix type="matrix" values="0 0 0 0 0.396078 0 0 0 0 0.415686 0 0 0 0 0.462745 0 0 0 0.1 0"/><feBlend in2="effect1_dropShadow_642_109330" mode="normal" result="effect2_dropShadow_642_109330"/><feColorMatrix in="SourceAlpha" result="hardAlpha" type="matrix" values="0 0 0 0 0 0 0 0 0 0 0 0 0 0 0 0 0 0 127 0"/><feMorphology in="SourceAlpha" operator="dilate" radius="1" result="effect3_dropShadow_642_109330"/><feOffset/><feColorMatrix type="matrix" values="0 0 0 0 0.396078 0 0 0 0 0.415686 0 0 0 0 0.462745 0 0 0 0.15 0"/><feBlend in2="effect2_dropShadow_642_109330" mode="normal" result="effect3_dropShadow_642_109330"/><feBlend in="SourceGraphic" in2="effect3_dropShadow_642_109330" mode="normal" result="shape"/></filter><filter id="o" color-interpolation-filters="sRGB" filterUnits="userSpaceOnUse" height="95" width="932" x="314" y="792.788"><feFlood flood-opacity="0" result="BackgroundImageFix"/><feColorMatrix in="SourceAlpha" result="hardAlpha" type="matrix" values="0 0 0 0 0 0 0 0 0 0 0 0 0 0 0 0 0 0 127 0"/><feMorphology in="SourceAlpha" operator="erode" radius="10" result="effect1_dropShadow_642_109330"/><feOffset dy="8"/><feGaussianBlur stdDeviation="8"/><feColorMatrix type="matrix" values="0 0 0 0 0.396078 0 0 0 0 0.415686 0 0 0 0 0.462745 0 0 0 0.2 0"/><feBlend in2="BackgroundImageFix" mode="normal" result="effect1_dropShadow_642_109330"/><feColorMatrix in="SourceAlpha" result="hardAlpha" type="matrix" values="0 0 0 0 0 0 0 0 0 0 0 0 0 0 0 0 0 0 127 0"/><feOffset dy="2"/><feGaussianBlur stdDeviation="1.5"/><feColorMatrix type="matrix" values="0 0 0 0 0.396078 0 0 0 0 0.415686 0 0 0 0 0.462745 0 0 0 0.1 0"/><feBlend in2="effect1_dropShadow_642_109330" mode="normal" result="effect2_dropShadow_642_109330"/><feColorMatrix in="SourceAlpha" result="hardAlpha" type="matrix" values="0 0 0 0 0 0 0 0 0 0 0 0 0 0 0 0 0 0 127 0"/><feMorphology in="SourceAlpha" operator="dilate" radius="1" result="effect3_dropShadow_642_109330"/><feOffset/><feColorMatrix type="matrix" values="0 0 0 0 0.396078 0 0 0 0 0.415686 0 0 0 0 0.462745 0 0 0 0.15 0"/><feBlend in2="effect2_dropShadow_642_109330" mode="normal" result="effect3_dropShadow_642_109330"/><feBlend in="SourceGraphic" in2="effect3_dropShadow_642_109330" mode="normal" result="shape"/></filter><linearGradient id="p" gradientUnits="userSpaceOnUse" x1="-23.3329" x2="-640.636" y1="275.136" y2="1344.54"><stop offset=".5374" stop-color="#fff" stop-opacity="0"/><stop offset="1" stop-color="#fff" stop-opacity=".4"/></linearGradient><linearGradient id="q" gradientUnits="userSpaceOnUse" x1="-160.124" x2="-743.912" y1="1364.51" y2="353.158"><stop offset=".024" stop-color="#fff" stop-opacity=".7"/><stop offset=".3648" stop-color="#fff" stop-opacity="0"/></linearGradient><linearGradient id="r" gradientUnits="userSpaceOnUse" x1="-290.522" x2="14.3581" y1="307.463" y2="1145.28"><stop offset=".1604" stop-color="#fff" stop-opacity="0"/><stop offset="1" stop-color="#fff"/></linearGradient><clipPath id="s"><path d="m0 .787842h1280v832h-1280z"/></clipPath><clipPath id="t"><path d="m0 63.2031h280v769.585h-280z"/></clipPath><clipPath id="u"><path d="m0 63.2031h280v770h-280z"/></clipPath><clipPath id="v"><path d="m0 452.203h300v381h-300z"/></clipPath><clipPath id="w"><path d="m320 148.788h200v36h-200z"/></clipPath><clipPath id="x"><path d="m590 158.788h16v16h-16z"/></clipPath><clipPath id="y"><path d="m691 158.788h16v16h-16z"/></clipPath><clipPath id="z"><path d="m775 158.788h16v16h-16z"/></clipPath><clipPath id="A"><path d="m859 158.788h16v16h-16z"/></clipPath><clipPath id="B"><path d="m1134 158.788h16v16h-16z"/></clipPath><clipPath id="C"><path d="m1214 158.788h16v16h-16z"/></clipPath><clipPath id="D"><path d="m332 161.788h852v56h-852z"/></clipPath><clipPath id="E"><path d="m332 253.788h852v56h-852z"/></clipPath><clipPath id="F"><path d="m332 345.788h852v56h-852z"/></clipPath><clipPath id="G"><path d="m332 437.788h852v56h-852z"/></clipPath><clipPath id="H"><path d="m332 529.788h852v56h-852z"/></clipPath><clipPath id="I"><path d="m332 621.788h852v56h-852z"/></clipPath><clipPath id="J"><path d="m332 713.788h852v56h-852z"/></clipPath><clipPath id="K"><path d="m332 805.788h852v56h-852z"/></clipPath><g clip-path="url(#s)"><path d="m0 0h1280v832h-1280z" fill="#fff" transform="translate(0 .787842)"/><g opacity=".8"><path d="m0 0h1280v62.4152h-1280z" fill="#000" transform="translate(0 .787842)"/><g clip-path="url(#t)"><g clip-path="url(#u)"><path d="m0 0h280v770h-280z" fill="#15171c" transform="translate(0 63.2031)"/><g clip-path="url(#v)" opacity=".05" stroke-miterlimit="10" stroke-width="1.5"><path d="m-929.519 1155.47 1206.209-696.267m-220.9813 0-985.2277 568.707zm165.7373 0-1150.965 664.377zm-239.396 0-911.569 526.19zm55.244 0-966.813 558.077zm-18.4146 0-948.3984 547.457zm-92.0792 0-856.3192 494.299zm-18.4146 0-837.9046 483.671zm55.2498 0-893.1544 515.562zm239.3966 0-1132.551 653.747zm-257.8171 0-874.7339 504.928zm184.1521 0-1058.886 611.227zm18.421 0-1077.307 621.857zm-257.817 0-819.49 473.037zm294.646 0-1114.136 643.117zm-18.415 0-1095.721 632.487zm-92.0787 0-1003.6423 579.337zm18.4147 0-1022.057 589.967zm18.415 0-1040.472 600.597zm-110.488285 0-929.983715 536.818zm300.314285 113.654-1056.051 609.593zm0-21.257-1092.881 630.86zm0 31.891-1037.637 598.959zm0-21.262-1074.466 620.221zm0 31.89-1019.222 588.331zm0 31.89-963.978 556.451zm0-21.262-1000.807 577.703zm0 10.628-982.393 567.075zm0-127.556-1203.375 694.631zm-5.674-28.616-1224.624 706.897zm5.674 17.982-1221.789 705.265zm0-10.628-1230.298 710.173zm0 74.409-1111.295 641.484zm0-42.518-1184.96 684.002zm0 10.628-1166.545 673.374zm0 21.262-1129.71 652.112zm0-10.628-1148.131 662.74zm-60.918-60.507-1169.38 675.007zm18.415 0-1187.795 685.647z" stroke="url(#p)"/><path d="m-213.474 1182.45-716.306-413.481m0-233.856 1093.125 630.987zm1093.119 556.577-1093.119-630.992zm0 21.26-1093.119-630.99zm-1093.119-641.618 1093.125 630.998zm1093.119 662.878-1093.119-630.987zm-1093.119-620.359 1093.125 630.999zm0-21.262 1093.119 630.991zm1093.119 662.881-1093.119-630.991zm-266.32 26.98-826.799-477.262zm-826.799-487.89 845.2198 487.89zm863.6286 487.89-863.6286-498.518zm-863.6286-424.109 734.726 424.109zm900.458 424.109-900.458-519.781zm-147.323 0-753.135-434.738zm-753.135-466.628 808.385 466.638zm0 21.256 771.555 445.372zm0-85.037 918.8784 530.409zm789.97 530.409-789.97-456zm-789.97-509.147 882.0491 509.157zm0-85.043 1029.3664 594.19zm1047.781 594.19-1047.781-604.818zm-1047.781-615.446 1066.201 615.456zm1084.61 615.446-1084.61-626.08zm-1084.61-636.709 1093.125 630.989zm0 85.038 955.7077 551.671zm937.29305 551.671-937.29305-541.037zm73.65865 0-1010.9517-583.562zm-1010.9517-572.928 992.5371 572.938zm974.1224 572.928-974.1224-562.299zm-974.1224-339.072 587.403 339.072zm0-42.519 661.062 381.591zm679.476 381.591-679.476-392.219zm-73.658 0-605.818-349.7zm-605.818-360.328 624.232 360.328zm642.647 360.328-642.647-370.962zm-642.647-402.847 697.897 402.857zm568.982 402.847-568.982-328.438zm-568.982-317.81 550.574 317.81z" stroke="url(#q)"/><path d="m-467.292 459.203 768.072 443.361m-510.255-443.361 510.26 294.542zm36.829 0 473.426 273.28zm-147.323 0 620.749 358.317zm165.738 0 455.011 262.652zm36.829 0 418.182 241.39zm-165.738 0 583.92 337.061zm-18.414 0 602.334 347.689zm55.25 0 547.089 315.799zm-18.421 0 565.505 326.427zm36.835 0 528.675 305.17zm92.074 0 436.596 252.018zm36.8288 0 399.7672 230.761zm36.8352 0 362.937 209.499zm-18.4205 0 381.3525 220.127zm381.3525 188.237-326.1027-188.237zm-344.5173-188.237 344.5223 198.871zm-147.3227 0 491.84 283.908zm-423.555 0 915.395 528.398zm-36.829 0 952.224 549.657zm18.414 0 933.81 539.032zm55.25 0 878.565 507.142zm18.415 0 860.15 496.507zm-36.835 0 896.98 517.77zm589.29192 0 307.68808 177.609zm-681.36592 0 989.054 570.927zm-18.414 0 1007.468 581.547zm36.829 0 970.639 560.287zm184.152 0 786.487 453.989zm73.665 0 712.827 411.47zm18.415 0 694.412 400.842zm36.829 0 657.578 379.58zm-73.665 0 731.243 422.098zm55.25 0 675.993 390.208zm-165.737 0 841.73 485.879zm36.829 0 804.901 464.617zm-18.415 0 823.316 475.251zm73.659 0 749.657 432.732zm110.494 0 639.163 368.951z" stroke="url(#r)"/></g></g></g></g><path d="m0 0h1000v86h-1000z" fill="#fff" transform="translate(280 62.7878)"/><path d="m321.758 95.6501h8.598c4.336 0 7.325 2.8858 7.325 7.2359 0 4.336-3.091 7.237-7.544 7.237h-3.955v6.665h-4.424zm4.424 3.501v7.5149h2.988c2.534 0 4.014-1.348 4.014-3.765 0-2.402-1.465-3.7499-3.999-3.7499zm17.387 17.8859c-2.988 0-5.258-1.934-5.258-4.761 0-2.856 2.197-4.512 6.108-4.746l3.955-.234v-1.04c0-1.465-1.025-2.315-2.637-2.315-1.596 0-2.607.791-2.812 1.948h-3.911c.161-3.046 2.754-5.141 6.914-5.141 4.028 0 6.65 2.08 6.65 5.244v10.796h-4.131v-2.403h-.088c-.879 1.67-2.827 2.652-4.79 2.652zm1.407-3.091c1.86 0 3.398-1.216 3.398-2.915v-1.143l-3.311.206c-1.596.117-2.504.834-2.504 1.948 0 1.172.966 1.904 2.417 1.904zm17.548 8.76c-4.13 0-6.928-2.007-7.265-4.805h4.189c.337 1.084 1.568 1.817 3.194 1.817 2.212 0 3.442-1.216 3.442-3.033v-2.754h-.088c-.732 1.67-2.578 2.813-4.849 2.813-3.837 0-6.372-2.959-6.372-7.866 0-4.981 2.461-8.042 6.446-8.042 2.256 0 4.028 1.186 4.848 2.988h.074v-2.739h4.218v15.483c0 3.735-3.134 6.138-7.837 6.138zm.074-9.258c2.138 0 3.501-1.699 3.501-4.541 0-2.827-1.363-4.644-3.501-4.644-2.11 0-3.443 1.788-3.443 4.644 0 2.871 1.319 4.541 3.443 4.541zm20.962-1.465h3.925c-.468 3.076-3.281 5.142-7.163 5.142-4.834 0-7.734-3.091-7.734-8.115 0-5.01 2.93-8.262 7.573-8.262 4.57 0 7.456 3.091 7.456 7.866v1.304h-10.825v.263c0 2.242 1.421 3.78 3.604 3.78 1.567 0 2.768-.777 3.164-1.978zm-3.355-8.071c-1.875 0-3.223 1.421-3.369 3.384h6.665c-.088-2.007-1.392-3.384-3.296-3.384z" fill="#0c0c0e"/><g clip-path="url(#w)"><g filter="url(#a)"><path d="m320 153.788c0-2.762 2.239-5 5-5h195v36h-195c-2.761 0-5-2.239-5-5z" fill="#fff"/><path clip-rule="evenodd" d="m335.25 160.788c-2.899 0-5.25 2.35-5.25 5.25 0 2.899 2.351 5.25 5.25 5.25 1.179 0 2.268-.389 3.144-1.045l2.326 2.325c.293.293.767.293 1.06 0s.293-.768 0-1.06l-2.325-2.326c.656-.876 1.045-1.965 1.045-3.144 0-2.9-2.351-5.25-5.25-5.25zm-3.75 5.25c0-2.071 1.679-3.75 3.75-3.75s3.75 1.679 3.75 3.75-1.679 3.75-3.75 3.75-3.75-1.679-3.75-3.75z" fill="#656a76" fill-rule="evenodd"/><path d="m352.786 169.211h1.244c.151 1.032 1.135 1.688 2.536 1.688 1.327 0 2.304-.718 2.304-1.695 0-.841-.615-1.374-1.975-1.716l-1.265-.328c-1.784-.451-2.557-1.258-2.557-2.659 0-1.675 1.402-2.81 3.487-2.81 1.907 0 3.329 1.135 3.431 2.728h-1.237c-.171-1.012-1.005-1.614-2.235-1.614-1.313 0-2.181.657-2.181 1.655 0 .772.54 1.217 1.9 1.565l1.033.274c2.043.512 2.864 1.305 2.864 2.754 0 1.812-1.429 2.967-3.685 2.967-2.092 0-3.534-1.107-3.664-2.809zm14.13.67h1.176c-.342 1.257-1.49 2.037-3.104 2.037-2.044 0-3.322-1.477-3.322-3.808 0-2.317 1.299-3.821 3.322-3.821 1.99 0 3.2 1.415 3.2 3.705v.451h-5.298v.055c.061 1.456.875 2.379 2.126 2.379.95 0 1.592-.349 1.9-.998zm-1.941-4.553c-1.176 0-1.996.861-2.085 2.167h4.06c-.027-1.306-.806-2.167-1.975-2.167zm7.109 6.59c-1.429 0-2.488-.848-2.488-2.195 0-1.319.97-2.078 2.686-2.18l2.126-.13v-.67c0-.909-.567-1.408-1.668-1.408-.882 0-1.497.335-1.661.916h-1.189c.157-1.183 1.319-1.962 2.891-1.962 1.798 0 2.803.923 2.803 2.454v5.045h-1.121v-1.087h-.109c-.479.786-1.286 1.217-2.27 1.217zm.219-1.033c1.21 0 2.105-.792 2.105-1.845v-.677l-1.982.13c-1.121.075-1.614.465-1.614 1.203 0 .752.636 1.189 1.491 1.189zm5.455.903v-7.369h1.121v1.093h.109c.219-.717 1.067-1.223 2.044-1.223.192 0 .438.013.588.034v1.176c-.096-.028-.519-.069-.752-.069-1.121 0-1.934.752-1.934 1.791v4.567zm11.224-5.113h-1.189c-.191-.732-.841-1.327-1.9-1.327-1.327 0-2.161 1.06-2.161 2.728 0 1.702.848 2.782 2.161 2.782.991 0 1.681-.458 1.9-1.292h1.189c-.211 1.354-1.312 2.352-3.083 2.352-2.064 0-3.383-1.497-3.383-3.842 0-2.297 1.312-3.787 3.377-3.787 1.791 0 2.884 1.073 3.089 2.386zm1.805 5.113v-10.295h1.176v4.088h.109c.369-.814 1.142-1.292 2.27-1.292 1.558 0 2.543.998 2.543 2.727v4.772h-1.176v-4.485c0-1.305-.588-1.955-1.702-1.955-1.319 0-2.044.834-2.044 2.079v4.361z" fill="#656a76"/><path d="m320.5 153.788c0-2.485 2.015-4.5 4.5-4.5h194.5v35h-194.5c-2.485 0-4.5-2.015-4.5-4.5z" stroke="#8c909c"/></g></g><g filter="url(#b)"><path d="m519 148.788h92c2.761 0 5 2.238 5 5v26c0 2.761-2.239 5-5 5h-92z" fill="#fafafa"/><path d="m543.071 171.788-.902-2.666h-3.76l-.909 2.666h-1.572l3.561-9.864h1.648l3.561 9.864zm-2.837-8.121-1.435 4.224h2.98l-1.428-4.224zm11.909 3.083h-1.429c-.171-.725-.773-1.279-1.757-1.279-1.23 0-1.982.971-1.982 2.578 0 1.64.758 2.631 1.982 2.631.93 0 1.565-.437 1.757-1.244h1.429c-.192 1.463-1.34 2.495-3.179 2.495-2.167 0-3.493-1.476-3.493-3.882 0-2.359 1.319-3.829 3.486-3.829 1.866 0 2.994 1.087 3.186 2.53zm1.681 5.038v-7.424h1.415v1.128h.11c.212-.732 1.039-1.258 2.009-1.258.219 0 .499.021.657.055v1.381c-.123-.035-.561-.082-.821-.082-1.114 0-1.9.717-1.9 1.763v4.437zm8.559.143c-2.181 0-3.514-1.456-3.514-3.855 0-2.393 1.34-3.856 3.514-3.856 2.167 0 3.507 1.457 3.507 3.856s-1.333 3.855-3.507 3.855zm0-1.251c1.271 0 1.996-.957 1.996-2.604 0-1.654-.725-2.611-1.996-2.611-1.279 0-1.996.957-1.996 2.611s.717 2.604 1.996 2.604zm5.106-4.238c0-1.292 1.21-2.222 2.892-2.222 1.675 0 2.768.78 2.912 2.065h-1.408c-.137-.554-.67-.916-1.504-.916-.82 0-1.443.403-1.443 1.005 0 .458.376.745 1.183.936l1.237.287c1.415.329 2.079.937 2.079 2.017 0 1.381-1.306 2.317-3.083 2.317-1.771 0-2.926-.799-3.056-2.091h1.47c.184.581.731.943 1.62.943.916 0 1.565-.424 1.565-1.032 0-.465-.349-.766-1.094-.944l-1.298-.307c-1.415-.328-2.072-.957-2.072-2.058zm7.41 0c0-1.292 1.21-2.222 2.892-2.222 1.675 0 2.769.78 2.912 2.065h-1.408c-.137-.554-.67-.916-1.504-.916-.82 0-1.442.403-1.442 1.005 0 .458.376.745 1.182.936l1.238.287c1.415.329 2.078.937 2.078 2.017 0 1.381-1.306 2.317-3.083 2.317-1.771 0-2.926-.799-3.056-2.091h1.47c.184.581.731.943 1.62.943.916 0 1.565-.424 1.565-1.032 0-.465-.348-.766-1.093-.944l-1.299-.307c-1.415-.328-2.072-.957-2.072-2.058z" fill="#3b3d45"/><g clip-path="url(#x)"><path clip-rule="evenodd" d="m593.235 163.993c.301-.285.776-.271 1.06.03l3.705 3.923 3.705-3.923c.284-.301.759-.315 1.06-.03.301.284.315.759.03 1.06l-4.25 4.5c-.141.15-.339.235-.545.235s-.404-.085-.545-.235l-4.25-4.5c-.285-.301-.271-.776.03-1.06z" fill="#3b3d45" fill-rule="evenodd"/></g><path d="m519.5 149.288h91.5c2.485 0 4.5 2.015 4.5 4.5v26c0 2.485-2.015 4.5-4.5 4.5h-91.5z" stroke="#3b3d45" stroke-opacity=".4"/></g><g filter="url(#c)"><path d="m632 153.788c0-2.762 2.239-5 5-5h80v36h-80c-2.761 0-5-2.239-5-5z" fill="#fafafa"/><path d="m650.994 171.788h-1.531v-9.864h6.159v1.319h-4.628v3.124h4.238v1.292h-4.238zm7.205-8.75c-.512 0-.929-.417-.929-.923 0-.513.417-.93.929-.93.513 0 .93.417.93.93 0 .506-.417.923-.93.923zm-.731 8.75v-7.424h1.463v7.424zm3.691 0v-10.336h1.47v10.336zm4.197-9.297h1.47v1.894h1.613v1.175h-1.613v3.917c0 .8.321 1.149 1.053 1.149.225 0 .355-.014.56-.034v1.168c-.239.042-.512.076-.799.076-1.634 0-2.284-.575-2.284-2.003v-4.273h-1.182v-1.175h1.182zm9.612 7.308h1.415c-.321 1.312-1.525 2.132-3.227 2.132-2.133 0-3.438-1.469-3.438-3.841 0-2.359 1.333-3.87 3.431-3.87 2.072 0 3.323 1.415 3.323 3.74v.506h-5.257v.068c.048 1.347.806 2.194 1.982 2.194.889 0 1.497-.328 1.771-.929zm-1.825-4.382c-1.087 0-1.846.793-1.928 1.989h3.76c-.035-1.203-.746-1.989-1.832-1.989zm5.092 6.371v-7.424h1.415v1.128h.11c.212-.732 1.039-1.258 2.01-1.258.218 0 .499.021.656.055v1.381c-.123-.035-.561-.082-.821-.082-1.114 0-1.9.717-1.9 1.763v4.437z" fill="#3b3d45"/><g clip-path="url(#y)"><path clip-rule="evenodd" d="m694.235 163.993c.301-.285.776-.271 1.06.03l3.705 3.923 3.705-3.923c.284-.301.759-.315 1.06-.03.301.284.315.759.03 1.06l-4.25 4.5c-.141.15-.339.235-.545.235s-.404-.085-.545-.235l-4.25-4.5c-.285-.301-.271-.776.03-1.06z" fill="#3b3d45" fill-rule="evenodd"/></g><path d="m632.5 153.788c0-2.485 2.015-4.5 4.5-4.5h79.5v35h-79.5c-2.485 0-4.5-2.015-4.5-4.5z" stroke="#3b3d45" stroke-opacity=".4"/></g><g filter="url(#d)"><path d="m716 148.788h85v36h-85z" fill="#fafafa"/><path d="m734.994 171.788h-1.531v-9.864h6.159v1.319h-4.628v3.124h4.238v1.292h-4.238zm7.205-8.75c-.512 0-.929-.417-.929-.923 0-.513.417-.93.929-.93.513 0 .93.417.93.93 0 .506-.417.923-.93.923zm-.731 8.75v-7.424h1.463v7.424zm3.691 0v-10.336h1.47v10.336zm4.197-9.297h1.47v1.894h1.613v1.175h-1.613v3.917c0 .8.321 1.149 1.053 1.149.225 0 .355-.014.56-.034v1.168c-.239.042-.512.076-.799.076-1.634 0-2.284-.575-2.284-2.003v-4.273h-1.182v-1.175h1.182zm9.612 7.308h1.415c-.321 1.312-1.525 2.132-3.227 2.132-2.133 0-3.438-1.469-3.438-3.841 0-2.359 1.333-3.87 3.431-3.87 2.072 0 3.323 1.415 3.323 3.74v.506h-5.257v.068c.048 1.347.806 2.194 1.982 2.194.889 0 1.497-.328 1.771-.929zm-1.825-4.382c-1.087 0-1.846.793-1.928 1.989h3.76c-.035-1.203-.746-1.989-1.832-1.989zm5.092 6.371v-7.424h1.415v1.128h.11c.212-.732 1.039-1.258 2.01-1.258.218 0 .499.021.656.055v1.381c-.123-.035-.561-.082-.821-.082-1.114 0-1.9.717-1.9 1.763v4.437z" fill="#3b3d45"/><g clip-path="url(#z)"><path clip-rule="evenodd" d="m778.235 163.993c.301-.285.776-.271 1.06.03l3.705 3.923 3.705-3.923c.284-.301.759-.315 1.06-.03.301.284.315.759.03 1.06l-4.25 4.5c-.141.15-.339.235-.545.235s-.404-.085-.545-.235l-4.25-4.5c-.285-.301-.271-.776.03-1.06z" fill="#3b3d45" fill-rule="evenodd"/></g><path d="m716.5 149.288h84v35h-84z" stroke="#3b3d45" stroke-opacity=".4"/></g><g filter="url(#e)"><path d="m800 148.788h80c2.761 0 5 2.238 5 5v26c0 2.761-2.239 5-5 5h-80z" fill="#fafafa"/><path d="m818.994 171.788h-1.531v-9.864h6.159v1.319h-4.628v3.124h4.238v1.292h-4.238zm7.205-8.75c-.512 0-.929-.417-.929-.923 0-.513.417-.93.929-.93.513 0 .93.417.93.93 0 .506-.417.923-.93.923zm-.731 8.75v-7.424h1.463v7.424zm3.691 0v-10.336h1.47v10.336zm4.197-9.297h1.47v1.894h1.613v1.175h-1.613v3.917c0 .8.321 1.149 1.053 1.149.225 0 .355-.014.56-.034v1.168c-.239.042-.512.076-.799.076-1.634 0-2.284-.575-2.284-2.003v-4.273h-1.182v-1.175h1.182zm9.612 7.308h1.415c-.321 1.312-1.525 2.132-3.227 2.132-2.133 0-3.438-1.469-3.438-3.841 0-2.359 1.333-3.87 3.431-3.87 2.072 0 3.323 1.415 3.323 3.74v.506h-5.257v.068c.048 1.347.806 2.194 1.982 2.194.889 0 1.497-.328 1.771-.929zm-1.825-4.382c-1.087 0-1.846.793-1.928 1.989h3.76c-.035-1.203-.746-1.989-1.832-1.989zm5.092 6.371v-7.424h1.415v1.128h.11c.212-.732 1.039-1.258 2.01-1.258.218 0 .499.021.656.055v1.381c-.123-.035-.561-.082-.821-.082-1.114 0-1.9.717-1.9 1.763v4.437z" fill="#3b3d45"/><g clip-path="url(#A)"><path clip-rule="evenodd" d="m862.235 163.993c.301-.285.776-.271 1.06.03l3.705 3.923 3.705-3.923c.284-.301.759-.315 1.06-.03.301.284.315.759.03 1.06l-4.25 4.5c-.141.15-.339.235-.545.235s-.404-.085-.545-.235l-4.25-4.5c-.285-.301-.271-.776.03-1.06z" fill="#3b3d45" fill-rule="evenodd"/></g><path d="m800.5 149.288h79.5c2.485 0 4.5 2.015 4.5 4.5v26c0 2.485-2.015 4.5-4.5 4.5h-79.5z" stroke="#3b3d45" stroke-opacity=".4"/></g><g filter="url(#f)"><path d="m987 153.788c0-2.762 2.239-5 5-5h127v36h-127c-2.761 0-5-2.239-5-5z" fill="#fafafa"/><g fill="#3b3d45"><path d="m1004 162.538c0-.414.34-.75.75-.75h12.5c.41 0 .75.336.75.75s-.34.75-.75.75h-12.5c-.41 0-.75-.336-.75-.75z"/><path d="m1006.5 166.538c0-.414.34-.75.75-.75h7.5c.41 0 .75.336.75.75s-.34.75-.75.75h-7.5c-.41 0-.75-.336-.75-.75z"/><path d="m1009.75 169.788c-.41 0-.75.336-.75.75s.34.75.75.75h2.5c.41 0 .75-.336.75-.75s-.34-.75-.75-.75z"/><path d="m1036.53 171.788h-1.42v-7.226h-.09l-2.9 7.048h-1.16l-2.89-7.048h-.1v7.226h-1.42v-9.864h1.79l3.14 7.717h.12l3.14-7.717h1.79zm5.45.143c-2.18 0-3.51-1.456-3.51-3.855 0-2.393 1.34-3.856 3.51-3.856s3.51 1.457 3.51 3.856-1.33 3.855-3.51 3.855zm0-1.251c1.27 0 2-.957 2-2.604 0-1.654-.73-2.611-2-2.611-1.28 0-1.99.957-1.99 2.611s.71 2.604 1.99 2.604zm5.28 1.108v-7.424h1.41v1.128h.11c.22-.732 1.04-1.258 2.01-1.258.22 0 .5.021.66.055v1.381c-.12-.035-.56-.082-.82-.082-1.12 0-1.9.717-1.9 1.763v4.437zm10.29-1.989h1.42c-.32 1.312-1.53 2.132-3.23 2.132-2.13 0-3.44-1.469-3.44-3.841 0-2.359 1.34-3.87 3.44-3.87 2.07 0 3.32 1.415 3.32 3.74v.506h-5.26v.068c.05 1.347.81 2.194 1.98 2.194.89 0 1.5-.328 1.77-.929zm-1.82-4.382c-1.09 0-1.85.793-1.93 1.989h3.76c-.03-1.203-.74-1.989-1.83-1.989zm9.45 6.371v-6.228h-1.23v-1.175h1.23v-.8c0-1.477.75-2.201 2.29-2.201.34 0 .62.027.88.068v1.107c-.14-.02-.34-.034-.57-.034-.82 0-1.16.376-1.16 1.128v.732h1.67v1.175h-1.64v6.228zm5.53-8.75c-.51 0-.93-.417-.93-.923 0-.513.42-.93.93-.93.52 0 .93.417.93.93 0 .506-.41.923-.93.923zm-.73 8.75v-7.424h1.46v7.424zm3.69 0v-10.336h1.47v10.336zm4.2-9.297h1.47v1.894h1.61v1.175h-1.61v3.917c0 .8.32 1.149 1.05 1.149.23 0 .36-.014.56-.034v1.168c-.24.042-.51.076-.8.076-1.63 0-2.28-.575-2.28-2.003v-4.273h-1.18v-1.175h1.18zm9.61 7.308h1.42c-.32 1.312-1.53 2.132-3.23 2.132-2.13 0-3.44-1.469-3.44-3.841 0-2.359 1.33-3.87 3.43-3.87 2.07 0 3.33 1.415 3.33 3.74v.506h-5.26v.068c.05 1.347.81 2.194 1.98 2.194.89 0 1.5-.328 1.77-.929zm-1.82-4.382c-1.09 0-1.85.793-1.93 1.989h3.76c-.04-1.203-.75-1.989-1.83-1.989zm5.09 6.371v-7.424h1.41v1.128h.11c.22-.732 1.04-1.258 2.01-1.258.22 0 .5.021.66.055v1.381c-.12-.035-.56-.082-.82-.082-1.12 0-1.9.717-1.9 1.763v4.437zm5.28-5.346c0-1.292 1.21-2.222 2.89-2.222s2.77.78 2.92 2.065h-1.41c-.14-.554-.67-.916-1.51-.916-.82 0-1.44.403-1.44 1.005 0 .458.38.745 1.19.936l1.23.287c1.42.329 2.08.937 2.08 2.017 0 1.381-1.31 2.317-3.08 2.317s-2.93-.799-3.06-2.091h1.47c.19.581.73.943 1.62.943.92 0 1.57-.424 1.57-1.032 0-.465-.35-.766-1.1-.944l-1.3-.307c-1.41-.328-2.07-.957-2.07-2.058z"/></g><path d="m987.5 153.788c0-2.485 2.015-4.5 4.5-4.5h126.5v35h-126.5c-2.485 0-4.5-2.015-4.5-4.5z" stroke="#3b3d45" stroke-opacity=".4"/></g><g filter="url(#g)"><path d="m1118 148.788h117c2.76 0 5 2.238 5 5v26c0 2.761-2.24 5-5 5h-117z" fill="#fafafa"/><g clip-path="url(#B)" fill="#3b3d45"><path d="m1136.25 162.538c0-.414.34-.75.75-.75h10c.41 0 .75.336.75.75s-.34.75-.75.75h-10c-.41 0-.75-.336-.75-.75z"/><path d="m1137 164.788c-.41 0-.75.336-.75.75s.34.75.75.75h6c.41 0 .75-.336.75-.75s-.34-.75-.75-.75z"/><path d="m1145.96 172.731c.09.037.19.057.29.057s.2-.02.29-.057.17-.091.24-.163l3-3c.29-.293.29-.768 0-1.06-.29-.293-.77-.293-1.06 0l-1.72 1.719v-4.689c0-.414-.34-.75-.75-.75s-.75.336-.75.75v4.689l-1.72-1.719c-.29-.293-.77-.293-1.06 0-.29.292-.29.767 0 1.06l3 3c.07.072.15.126.24.163z"/><path d="m1137 167.788c-.41 0-.75.336-.75.75s.34.75.75.75h3c.41 0 .75-.336.75-.75s-.34-.75-.75-.75z"/><path d="m1136.25 171.538c0-.414.34-.75.75-.75h3c.41 0 .75.336.75.75s-.34.75-.75.75h-3c-.41 0-.75-.336-.75-.75z"/></g><path d="m1157.24 169.156h1.52c.13.957 1.04 1.565 2.36 1.565 1.23 0 2.13-.649 2.13-1.551 0-.773-.57-1.251-1.88-1.566l-1.27-.307c-1.78-.431-2.6-1.279-2.6-2.714 0-1.737 1.44-2.899 3.59-2.899 2.01 0 3.47 1.162 3.56 2.81h-1.49c-.15-.937-.94-1.511-2.09-1.511-1.21 0-2.01.595-2.01 1.518 0 .718.52 1.128 1.8 1.442l1.09.267c2.02.485 2.86 1.299 2.86 2.775 0 1.866-1.47 3.042-3.81 3.042-2.18 0-3.65-1.121-3.76-2.871zm12.56 2.775c-2.18 0-3.52-1.456-3.52-3.855 0-2.393 1.34-3.856 3.52-3.856 2.16 0 3.5 1.457 3.5 3.856s-1.33 3.855-3.5 3.855zm0-1.251c1.27 0 1.99-.957 1.99-2.604 0-1.654-.72-2.611-1.99-2.611-1.28 0-2 .957-2 2.611s.72 2.604 2 2.604zm5.27 1.108v-7.424h1.42v1.128h.11c.21-.732 1.04-1.258 2.01-1.258.22 0 .5.021.65.055v1.381c-.12-.035-.56-.082-.82-.082-1.11 0-1.9.717-1.9 1.763v4.437zm6.51-9.297h1.47v1.894h1.61v1.175h-1.61v3.917c0 .8.32 1.149 1.05 1.149.23 0 .36-.014.56-.034v1.168c-.24.042-.51.076-.8.076-1.63 0-2.28-.575-2.28-2.003v-4.273h-1.18v-1.175h1.18zm12.59 9.42c-1.04 0-1.91-.479-2.36-1.299h-.1v1.176h-1.42v-10.336h1.47v4.088h.12c.39-.807 1.27-1.306 2.29-1.306 1.88 0 3.07 1.484 3.07 3.842 0 2.338-1.19 3.835-3.07 3.835zm-.43-6.419c-1.23 0-2 .991-2.01 2.584.01 1.593.77 2.577 2.01 2.577 1.25 0 1.99-.971 1.99-2.577 0-1.607-.74-2.584-1.99-2.584zm5.72 8.989c-.12 0-.47-.013-.6-.034v-1.203c.11.02.34.027.47.027.7 0 1.1-.294 1.35-1.08l.11-.383-2.69-7.444h1.6l1.86 5.947h.12l1.86-5.947h1.56l-2.78 7.766c-.63 1.784-1.34 2.351-2.86 2.351z" fill="#3b3d45"/><g clip-path="url(#C)"><path clip-rule="evenodd" d="m1217.24 163.993c.3-.285.77-.271 1.06.03l3.7 3.923 3.7-3.923c.29-.301.76-.315 1.06-.03.31.284.32.759.04 1.06l-4.25 4.5c-.15.15-.34.235-.55.235s-.4-.085-.55-.235l-4.25-4.5c-.28-.301-.27-.776.04-1.06z" fill="#3b3d45" fill-rule="evenodd"/></g><path d="m1118.5 149.288h116.5c2.49 0 4.5 2.015 4.5 4.5v26c0 2.485-2.01 4.5-4.5 4.5h-116.5z" stroke="#3b3d45" stroke-opacity=".4"/></g><g opacity=".9"><path d="m280.5 63.2878h39v769h-39z" fill="#f9f2ff"/><path d="m297.807 445.035-2.07 3.468h2.07zm-.145-.808h1.029v4.276h.874v.72h-.874v1.565h-.884v-1.565h-2.782v-.839zm5.045-.097c.7 0 1.229.286 1.587.857.36.571.54 1.417.54 2.536s-.18 1.964-.54 2.535c-.358.572-.887.857-1.587.857s-1.229-.285-1.586-.857c-.358-.571-.536-1.416-.536-2.535s.178-1.965.536-2.536c.357-.571.886-.857 1.586-.857zm0 6.082c.416 0 .725-.221.927-.663.205-.443.308-1.118.308-2.026 0-.484-.029-.92-.088-1.31l-2.092 3.274c.22.483.535.725.945.725zm0-5.379c-.413 0-.722.221-.927.664-.202.442-.303 1.118-.303 2.026 0 .413.027.8.083 1.16l2.048-3.265c-.223-.39-.523-.585-.901-.585z" fill="#7b00db"/><path d="m280.5 63.2878h39v769h-39z" stroke="#ead2fe"/></g><g opacity=".9"><path d="m1240.5 63.2878h39v769h-39z" fill="#f9f2ff"/><path d="m1257.81 445.035-2.07 3.468h2.07zm-.15-.808h1.03v4.276h.88v.72h-.88v1.565h-.88v-1.565h-2.78v-.839zm5.05-.097c.7 0 1.23.286 1.58.857.36.571.54 1.417.54 2.536s-.18 1.964-.54 2.535c-.35.572-.88.857-1.58.857s-1.23-.285-1.59-.857c-.36-.571-.54-1.416-.54-2.535s.18-1.965.54-2.536.89-.857 1.59-.857zm0 6.082c.41 0 .72-.221.92-.663.21-.443.31-1.118.31-2.026 0-.484-.03-.92-.09-1.31l-2.09 3.274c.22.483.54.725.95.725zm0-5.379c-.42 0-.73.221-.93.664-.2.442-.3 1.118-.3 2.026 0 .413.02.8.08 1.16l2.05-3.265c-.22-.39-.52-.585-.9-.585z" fill="#7b00db"/><path d="m1240.5 63.2878h39v769h-39z" stroke="#ead2fe"/></g><g opacity=".9"><path d="m320.5 126.288h919v23h-919z" fill="#f9f2ff"/><path d="m776.216 140.041h3.015v.747h-3.986v-.747c.548-.577 1.027-1.087 1.437-1.53.41-.442.693-.754.848-.936.293-.357.491-.646.594-.865.102-.223.153-.45.153-.681 0-.367-.108-.654-.325-.862-.214-.208-.508-.312-.883-.312-.267 0-.547.049-.84.145-.292.097-.603.243-.931.44v-.897c.302-.143.598-.252.888-.325.293-.073.581-.11.865-.11.642 0 1.157.172 1.547.514.393.34.589.787.589 1.341 0 .281-.066.562-.198.843-.129.282-.34.592-.633.932-.164.19-.402.454-.716.791-.31.337-.785.841-1.424 1.512zm7.014-5.006-2.07 3.468h2.07zm-.145-.808h1.028v4.276h.875v.72h-.875v1.565h-.883v-1.565h-2.782v-.839z" fill="#7b00db"/><path d="m320.5 126.288h919v23h-919z" stroke="#ead2fe"/></g><g filter="url(#h)"><rect fill="#fff" height="80" rx="6" width="920" x="320" y="149.788"/><g clip-path="url(#D)"><path clip-rule="evenodd" d="m338.834 166.118c.717-.435 1.615-.435 2.332 0l5.25 3.181c.673.408 1.084 1.138 1.084 1.925v5.128c0 .787-.411 1.516-1.084 1.924l-5.25 3.182c-.717.435-1.615.435-2.332 0l-5.25-3.182c-.673-.408-1.084-1.137-1.084-1.924v-5.128c0-.787.411-1.517 1.084-1.925zm1.555 1.282c-.239-.144-.539-.144-.778 0l-5.25 3.182c-.224.136-.361.379-.361.642v5.128c0 .262.137.506.361.641l5.25 3.182c.239.145.539.145.778 0l5.25-3.182c.224-.135.361-.379.361-.641v-5.128c0-.263-.137-.506-.361-.642z" fill="#000001" fill-rule="evenodd"/><path d="m364.211 179.788h-2.016v-9.578h-3.468v-1.696h8.961v1.696h-3.477zm6.211-9.969c-.633 0-1.156-.508-1.156-1.148 0-.633.523-1.149 1.156-1.149.64 0 1.164.516 1.164 1.149 0 .64-.524 1.148-1.164 1.148zm-.961 9.969v-8.539h1.93v8.539zm4.953-10.633h1.93v2.148h1.828v1.508h-1.828v4.25c0 .852.359 1.235 1.172 1.235.273 0 .422-.016.656-.039v1.484c-.281.055-.641.086-1.016.086-1.961 0-2.742-.656-2.742-2.305v-4.711h-1.352v-1.508h1.352zm5.774 10.633v-11.844h1.937v11.844zm9.96-2.336h1.836c-.351 1.539-1.781 2.508-3.796 2.508-2.516 0-4.032-1.672-4.032-4.407 0-2.742 1.539-4.468 4.016-4.468 2.437 0 3.898 1.617 3.898 4.297v.617h-5.968v.101c.046 1.446.867 2.352 2.14 2.352.961 0 1.625-.359 1.906-1zm-1.984-4.859c-1.156 0-1.969.835-2.055 2.117h4.024c-.039-1.297-.805-2.117-1.969-2.117z" fill="#0c0c0e"/><g fill="#656a76"><path clip-rule="evenodd" d="m339.125 200.035c.538-.326 1.212-.326 1.75 0l3.937 2.386c.505.306.813.854.813 1.444v3.846c0 .59-.308 1.137-.813 1.443l-3.937 2.386c-.538.326-1.212.326-1.75 0l-3.937-2.386c-.505-.306-.813-.853-.813-1.443v-3.846c0-.59.308-1.138.813-1.444zm1.167.962c-.18-.108-.404-.108-.584 0l-3.937 2.387c-.168.102-.271.284-.271.481v3.846c0 .197.103.379.271.481l3.937 2.386c.18.109.404.109.584 0l3.937-2.386c.168-.102.271-.284.271-.481v-3.846c0-.197-.103-.379-.271-.481z" fill-rule="evenodd"/><path d="m352.488 210.788h-1.23v-9.864h1.23zm8.463-5.113h-1.189c-.192-.732-.841-1.327-1.901-1.327-1.326 0-2.16 1.06-2.16 2.728 0 1.702.848 2.782 2.16 2.782.992 0 1.682-.458 1.901-1.292h1.189c-.212 1.354-1.312 2.352-3.083 2.352-2.064 0-3.384-1.497-3.384-3.842 0-2.297 1.313-3.787 3.377-3.787 1.791 0 2.885 1.073 3.09 2.386zm4.765 5.243c-2.099 0-3.398-1.449-3.398-3.815 0-2.372 1.299-3.814 3.398-3.814 2.098 0 3.397 1.442 3.397 3.814 0 2.366-1.299 3.815-3.397 3.815zm0-1.06c1.394 0 2.18-1.012 2.18-2.755 0-1.75-.786-2.755-2.18-2.755-1.395 0-2.181 1.005-2.181 2.755 0 1.743.786 2.755 2.181 2.755zm5.243.93v-7.369h1.121v1.162h.109c.37-.814 1.087-1.292 2.215-1.292 1.655 0 2.577.977 2.577 2.727v4.772h-1.175v-4.485c0-1.326-.561-1.955-1.737-1.955-1.175 0-1.934.787-1.934 2.079v4.361zm14.314-1.108v1.108h-5.988v-9.864h1.231v8.756zm3.87 1.238c-1.429 0-2.489-.848-2.489-2.195 0-1.319.971-2.078 2.687-2.18l2.126-.13v-.67c0-.909-.568-1.408-1.668-1.408-.882 0-1.497.335-1.661.916h-1.19c.157-1.183 1.32-1.962 2.892-1.962 1.798 0 2.803.923 2.803 2.454v5.045h-1.122v-1.087h-.109c-.478.786-1.285 1.217-2.269 1.217zm.218-1.033c1.21 0 2.106-.792 2.106-1.845v-.677l-1.983.13c-1.121.075-1.613.465-1.613 1.203 0 .752.636 1.189 1.49 1.189zm9.119 1.033c-1.025 0-1.9-.486-2.365-1.306h-.109v1.176h-1.121v-10.295h1.176v4.088h.109c.403-.793 1.299-1.292 2.31-1.292 1.874 0 3.09 1.497 3.09 3.814 0 2.304-1.223 3.815-3.09 3.815zm-.273-6.57c-1.34 0-2.174 1.053-2.174 2.755s.834 2.755 2.174 2.755c1.347 0 2.147-1.032 2.147-2.755 0-1.722-.8-2.755-2.147-2.755zm10.09 4.533h1.176c-.342 1.257-1.491 2.037-3.104 2.037-2.044 0-3.322-1.477-3.322-3.808 0-2.317 1.299-3.821 3.322-3.821 1.989 0 3.199 1.415 3.199 3.705v.451h-5.297v.055c.061 1.456.875 2.379 2.125 2.379.951 0 1.593-.349 1.901-.998zm-1.942-4.553c-1.175 0-1.996.861-2.084 2.167h4.06c-.027-1.306-.807-2.167-1.976-2.167zm5.127 6.46v-10.295h1.176v10.295z"/><path clip-rule="evenodd" d="m427.125 200.035c.538-.326 1.212-.326 1.75 0l3.937 2.386c.505.306.813.854.813 1.444v3.846c0 .59-.308 1.137-.813 1.443l-3.937 2.386c-.538.326-1.212.326-1.75 0l-3.937-2.386c-.505-.306-.813-.853-.813-1.443v-3.846c0-.59.308-1.138.813-1.444zm1.167.962c-.18-.108-.404-.108-.584 0l-3.937 2.387c-.168.102-.271.284-.271.481v3.846c0 .197.103.379.271.481l3.937 2.386c.18.109.404.109.584 0l3.937-2.386c.168-.102.271-.284.271-.481v-3.846c0-.197-.103-.379-.271-.481z" fill-rule="evenodd"/><path d="m440.488 210.788h-1.23v-9.864h1.23zm8.463-5.113h-1.189c-.192-.732-.841-1.327-1.901-1.327-1.326 0-2.16 1.06-2.16 2.728 0 1.702.848 2.782 2.16 2.782.992 0 1.682-.458 1.901-1.292h1.189c-.212 1.354-1.312 2.352-3.083 2.352-2.064 0-3.384-1.497-3.384-3.842 0-2.297 1.313-3.787 3.377-3.787 1.791 0 2.885 1.073 3.09 2.386zm4.765 5.243c-2.099 0-3.398-1.449-3.398-3.815 0-2.372 1.299-3.814 3.398-3.814 2.098 0 3.397 1.442 3.397 3.814 0 2.366-1.299 3.815-3.397 3.815zm0-1.06c1.394 0 2.18-1.012 2.18-2.755 0-1.75-.786-2.755-2.18-2.755-1.395 0-2.181 1.005-2.181 2.755 0 1.743.786 2.755 2.181 2.755zm5.243.93v-7.369h1.121v1.162h.109c.37-.814 1.087-1.292 2.215-1.292 1.655 0 2.577.977 2.577 2.727v4.772h-1.175v-4.485c0-1.326-.561-1.955-1.737-1.955-1.175 0-1.934.787-1.934 2.079v4.361zm14.314-1.108v1.108h-5.988v-9.864h1.231v8.756zm3.87 1.238c-1.429 0-2.489-.848-2.489-2.195 0-1.319.971-2.078 2.687-2.18l2.126-.13v-.67c0-.909-.568-1.408-1.668-1.408-.882 0-1.497.335-1.661.916h-1.19c.157-1.183 1.32-1.962 2.892-1.962 1.798 0 2.803.923 2.803 2.454v5.045h-1.122v-1.087h-.109c-.478.786-1.285 1.217-2.269 1.217zm.218-1.033c1.21 0 2.106-.792 2.106-1.845v-.677l-1.983.13c-1.121.075-1.613.465-1.613 1.203 0 .752.636 1.189 1.49 1.189zm9.119 1.033c-1.025 0-1.9-.486-2.365-1.306h-.109v1.176h-1.121v-10.295h1.176v4.088h.109c.403-.793 1.299-1.292 2.31-1.292 1.874 0 3.09 1.497 3.09 3.814 0 2.304-1.223 3.815-3.09 3.815zm-.273-6.57c-1.34 0-2.174 1.053-2.174 2.755s.834 2.755 2.174 2.755c1.347 0 2.147-1.032 2.147-2.755 0-1.722-.8-2.755-2.147-2.755zm10.09 4.533h1.176c-.342 1.257-1.491 2.037-3.104 2.037-2.044 0-3.322-1.477-3.322-3.808 0-2.317 1.299-3.821 3.322-3.821 1.989 0 3.199 1.415 3.199 3.705v.451h-5.297v.055c.061 1.456.875 2.379 2.125 2.379.951 0 1.593-.349 1.901-.998zm-1.942-4.553c-1.175 0-1.996.861-2.084 2.167h4.06c-.027-1.306-.807-2.167-1.976-2.167zm5.127 6.46v-10.295h1.176v10.295z"/></g></g><rect fill="#fafafa" height="36" rx="5" width="36" x="1192" y="171.788"/><g fill="#0c0c0e"><path d="m1203 187.788c-1.1 0-2 .895-2 2 0 1.104.9 2 2 2s2-.896 2-2c0-1.105-.9-2-2-2z"/><path d="m1210 187.788c-1.1 0-2 .895-2 2 0 1.104.9 2 2 2s2-.896 2-2c0-1.105-.9-2-2-2z"/><path d="m1217 187.788c-1.1 0-2 .895-2 2 0 1.104.9 2 2 2s2-.896 2-2c0-1.105-.9-2-2-2z"/></g><rect height="35" rx="4.5" stroke="#3b3d45" stroke-opacity=".4" width="35" x="1192.5" y="172.288"/></g><g opacity=".9"><path d="m320.5 230.288h919v11h-919z" fill="#f9f2ff"/><path d="m775.764 238.045h1.38v-4.957l-1.653.796v-.853l1.644-.782h.887v5.796h1.363v.743h-3.621zm5.875-.004h3.015v.747h-3.986v-.747c.548-.577 1.027-1.087 1.437-1.53.41-.442.693-.754.848-.936.293-.357.491-.646.593-.865.103-.223.154-.45.154-.681 0-.367-.108-.654-.325-.862-.214-.208-.508-.312-.883-.312-.267 0-.547.049-.84.145-.293.097-.603.243-.931.44v-.897c.301-.143.597-.252.887-.325.293-.073.582-.11.866-.11.642 0 1.157.172 1.547.514.393.34.589.787.589 1.341 0 .281-.066.562-.198.843-.129.282-.34.592-.633.932-.164.19-.403.454-.716.791-.311.337-.785.841-1.424 1.512z" fill="#7b00db"/><path d="m320.5 230.288h919v11h-919z" stroke="#ead2fe"/></g><g filter="url(#i)"><rect fill="#fff" height="80" rx="6" width="920" x="320" y="241.788"/><g clip-path="url(#E)"><path clip-rule="evenodd" d="m338.834 258.118c.717-.435 1.615-.435 2.332 0l5.25 3.181c.673.408 1.084 1.138 1.084 1.925v5.128c0 .787-.411 1.516-1.084 1.924l-5.25 3.182c-.717.435-1.615.435-2.332 0l-5.25-3.182c-.673-.408-1.084-1.137-1.084-1.924v-5.128c0-.787.411-1.517 1.084-1.925zm1.555 1.282c-.239-.144-.539-.144-.778 0l-5.25 3.182c-.224.136-.361.379-.361.642v5.128c0 .262.137.506.361.641l5.25 3.182c.239.145.539.145.778 0l5.25-3.182c.224-.135.361-.379.361-.641v-5.128c0-.263-.137-.506-.361-.642z" fill="#000001" fill-rule="evenodd"/><path d="m364.211 271.788h-2.016v-9.578h-3.468v-1.696h8.961v1.696h-3.477zm6.211-9.969c-.633 0-1.156-.508-1.156-1.148 0-.633.523-1.149 1.156-1.149.64 0 1.164.516 1.164 1.149 0 .64-.524 1.148-1.164 1.148zm-.961 9.969v-8.539h1.93v8.539zm4.953-10.633h1.93v2.148h1.828v1.508h-1.828v4.25c0 .852.359 1.235 1.172 1.235.273 0 .422-.016.656-.039v1.484c-.281.055-.641.086-1.016.086-1.961 0-2.742-.656-2.742-2.305v-4.711h-1.352v-1.508h1.352zm5.774 10.633v-11.844h1.937v11.844zm9.96-2.336h1.836c-.351 1.539-1.781 2.508-3.796 2.508-2.516 0-4.032-1.672-4.032-4.407 0-2.742 1.539-4.468 4.016-4.468 2.437 0 3.898 1.617 3.898 4.297v.617h-5.968v.101c.046 1.446.867 2.352 2.14 2.352.961 0 1.625-.359 1.906-1zm-1.984-4.859c-1.156 0-1.969.835-2.055 2.117h4.024c-.039-1.297-.805-2.117-1.969-2.117z" fill="#0c0c0e"/><g fill="#656a76"><path clip-rule="evenodd" d="m339.125 292.035c.538-.326 1.212-.326 1.75 0l3.937 2.386c.505.306.813.854.813 1.444v3.846c0 .59-.308 1.137-.813 1.443l-3.937 2.386c-.538.326-1.212.326-1.75 0l-3.937-2.386c-.505-.306-.813-.853-.813-1.443v-3.846c0-.59.308-1.138.813-1.444zm1.167.962c-.18-.108-.404-.108-.584 0l-3.937 2.387c-.168.102-.271.284-.271.481v3.846c0 .197.103.379.271.481l3.937 2.386c.18.109.404.109.584 0l3.937-2.386c.168-.102.271-.284.271-.481v-3.846c0-.197-.103-.379-.271-.481z" fill-rule="evenodd"/><path d="m352.488 302.788h-1.23v-9.864h1.23zm8.463-5.113h-1.189c-.192-.732-.841-1.327-1.901-1.327-1.326 0-2.16 1.06-2.16 2.728 0 1.702.848 2.782 2.16 2.782.992 0 1.682-.458 1.901-1.292h1.189c-.212 1.354-1.312 2.352-3.083 2.352-2.064 0-3.384-1.497-3.384-3.842 0-2.297 1.313-3.787 3.377-3.787 1.791 0 2.885 1.073 3.09 2.386zm4.765 5.243c-2.099 0-3.398-1.449-3.398-3.815 0-2.372 1.299-3.814 3.398-3.814 2.098 0 3.397 1.442 3.397 3.814 0 2.366-1.299 3.815-3.397 3.815zm0-1.06c1.394 0 2.18-1.012 2.18-2.755 0-1.75-.786-2.755-2.18-2.755-1.395 0-2.181 1.005-2.181 2.755 0 1.743.786 2.755 2.181 2.755zm5.243.93v-7.369h1.121v1.162h.109c.37-.814 1.087-1.292 2.215-1.292 1.655 0 2.577.977 2.577 2.727v4.772h-1.175v-4.485c0-1.326-.561-1.955-1.737-1.955-1.175 0-1.934.787-1.934 2.079v4.361zm14.314-1.108v1.108h-5.988v-9.864h1.231v8.756zm3.87 1.238c-1.429 0-2.489-.848-2.489-2.195 0-1.319.971-2.078 2.687-2.18l2.126-.13v-.67c0-.909-.568-1.408-1.668-1.408-.882 0-1.497.335-1.661.916h-1.19c.157-1.183 1.32-1.962 2.892-1.962 1.798 0 2.803.923 2.803 2.454v5.045h-1.122v-1.087h-.109c-.478.786-1.285 1.217-2.269 1.217zm.218-1.033c1.21 0 2.106-.792 2.106-1.845v-.677l-1.983.13c-1.121.075-1.613.465-1.613 1.203 0 .752.636 1.189 1.49 1.189zm9.119 1.033c-1.025 0-1.9-.486-2.365-1.306h-.109v1.176h-1.121v-10.295h1.176v4.088h.109c.403-.793 1.299-1.292 2.31-1.292 1.874 0 3.09 1.497 3.09 3.814 0 2.304-1.223 3.815-3.09 3.815zm-.273-6.57c-1.34 0-2.174 1.053-2.174 2.755s.834 2.755 2.174 2.755c1.347 0 2.147-1.032 2.147-2.755 0-1.722-.8-2.755-2.147-2.755zm10.09 4.533h1.176c-.342 1.257-1.491 2.037-3.104 2.037-2.044 0-3.322-1.477-3.322-3.808 0-2.317 1.299-3.821 3.322-3.821 1.989 0 3.199 1.415 3.199 3.705v.451h-5.297v.055c.061 1.456.875 2.379 2.125 2.379.951 0 1.593-.349 1.901-.998zm-1.942-4.553c-1.175 0-1.996.861-2.084 2.167h4.06c-.027-1.306-.807-2.167-1.976-2.167zm5.127 6.46v-10.295h1.176v10.295z"/><path clip-rule="evenodd" d="m427.125 292.035c.538-.326 1.212-.326 1.75 0l3.937 2.386c.505.306.813.854.813 1.444v3.846c0 .59-.308 1.137-.813 1.443l-3.937 2.386c-.538.326-1.212.326-1.75 0l-3.937-2.386c-.505-.306-.813-.853-.813-1.443v-3.846c0-.59.308-1.138.813-1.444zm1.167.962c-.18-.108-.404-.108-.584 0l-3.937 2.387c-.168.102-.271.284-.271.481v3.846c0 .197.103.379.271.481l3.937 2.386c.18.109.404.109.584 0l3.937-2.386c.168-.102.271-.284.271-.481v-3.846c0-.197-.103-.379-.271-.481z" fill-rule="evenodd"/><path d="m440.488 302.788h-1.23v-9.864h1.23zm8.463-5.113h-1.189c-.192-.732-.841-1.327-1.901-1.327-1.326 0-2.16 1.06-2.16 2.728 0 1.702.848 2.782 2.16 2.782.992 0 1.682-.458 1.901-1.292h1.189c-.212 1.354-1.312 2.352-3.083 2.352-2.064 0-3.384-1.497-3.384-3.842 0-2.297 1.313-3.787 3.377-3.787 1.791 0 2.885 1.073 3.09 2.386zm4.765 5.243c-2.099 0-3.398-1.449-3.398-3.815 0-2.372 1.299-3.814 3.398-3.814 2.098 0 3.397 1.442 3.397 3.814 0 2.366-1.299 3.815-3.397 3.815zm0-1.06c1.394 0 2.18-1.012 2.18-2.755 0-1.75-.786-2.755-2.18-2.755-1.395 0-2.181 1.005-2.181 2.755 0 1.743.786 2.755 2.181 2.755zm5.243.93v-7.369h1.121v1.162h.109c.37-.814 1.087-1.292 2.215-1.292 1.655 0 2.577.977 2.577 2.727v4.772h-1.175v-4.485c0-1.326-.561-1.955-1.737-1.955-1.175 0-1.934.787-1.934 2.079v4.361zm14.314-1.108v1.108h-5.988v-9.864h1.231v8.756zm3.87 1.238c-1.429 0-2.489-.848-2.489-2.195 0-1.319.971-2.078 2.687-2.18l2.126-.13v-.67c0-.909-.568-1.408-1.668-1.408-.882 0-1.497.335-1.661.916h-1.19c.157-1.183 1.32-1.962 2.892-1.962 1.798 0 2.803.923 2.803 2.454v5.045h-1.122v-1.087h-.109c-.478.786-1.285 1.217-2.269 1.217zm.218-1.033c1.21 0 2.106-.792 2.106-1.845v-.677l-1.983.13c-1.121.075-1.613.465-1.613 1.203 0 .752.636 1.189 1.49 1.189zm9.119 1.033c-1.025 0-1.9-.486-2.365-1.306h-.109v1.176h-1.121v-10.295h1.176v4.088h.109c.403-.793 1.299-1.292 2.31-1.292 1.874 0 3.09 1.497 3.09 3.814 0 2.304-1.223 3.815-3.09 3.815zm-.273-6.57c-1.34 0-2.174 1.053-2.174 2.755s.834 2.755 2.174 2.755c1.347 0 2.147-1.032 2.147-2.755 0-1.722-.8-2.755-2.147-2.755zm10.09 4.533h1.176c-.342 1.257-1.491 2.037-3.104 2.037-2.044 0-3.322-1.477-3.322-3.808 0-2.317 1.299-3.821 3.322-3.821 1.989 0 3.199 1.415 3.199 3.705v.451h-5.297v.055c.061 1.456.875 2.379 2.125 2.379.951 0 1.593-.349 1.901-.998zm-1.942-4.553c-1.175 0-1.996.861-2.084 2.167h4.06c-.027-1.306-.807-2.167-1.976-2.167zm5.127 6.46v-10.295h1.176v10.295z"/></g></g><rect fill="#fafafa" height="36" rx="5" width="36" x="1192" y="263.788"/><g fill="#0c0c0e"><path d="m1203 279.788c-1.1 0-2 .895-2 2 0 1.104.9 2 2 2s2-.896 2-2c0-1.105-.9-2-2-2z"/><path d="m1210 279.788c-1.1 0-2 .895-2 2 0 1.104.9 2 2 2s2-.896 2-2c0-1.105-.9-2-2-2z"/><path d="m1217 279.788c-1.1 0-2 .895-2 2 0 1.104.9 2 2 2s2-.896 2-2c0-1.105-.9-2-2-2z"/></g><rect height="35" rx="4.5" stroke="#3b3d45" stroke-opacity=".4" width="35" x="1192.5" y="264.288"/></g><g opacity=".9"><path d="m320.5 322.288h919v11h-919z" fill="#f9f2ff"/><path d="m775.764 330.045h1.38v-4.957l-1.653.796v-.853l1.644-.782h.887v5.796h1.363v.743h-3.621zm5.875-.004h3.015v.747h-3.986v-.747c.548-.577 1.027-1.087 1.437-1.53.41-.442.693-.754.848-.936.293-.357.491-.646.593-.865.103-.223.154-.45.154-.681 0-.367-.108-.654-.325-.862-.214-.208-.508-.312-.883-.312-.267 0-.547.049-.84.145-.293.097-.603.243-.931.44v-.897c.301-.143.597-.252.887-.325.293-.073.582-.11.866-.11.642 0 1.157.172 1.547.514.393.34.589.787.589 1.341 0 .281-.066.562-.198.843-.129.282-.34.592-.633.932-.164.19-.403.454-.716.791-.311.337-.785.841-1.424 1.512z" fill="#7b00db"/><path d="m320.5 322.288h919v11h-919z" stroke="#ead2fe"/></g><g filter="url(#j)"><rect fill="#fff" height="80" rx="6" width="920" x="320" y="333.788"/><g clip-path="url(#F)"><path clip-rule="evenodd" d="m338.834 350.118c.717-.435 1.615-.435 2.332 0l5.25 3.181c.673.408 1.084 1.138 1.084 1.925v5.128c0 .787-.411 1.516-1.084 1.924l-5.25 3.182c-.717.435-1.615.435-2.332 0l-5.25-3.182c-.673-.408-1.084-1.137-1.084-1.924v-5.128c0-.787.411-1.517 1.084-1.925zm1.555 1.282c-.239-.144-.539-.144-.778 0l-5.25 3.182c-.224.136-.361.379-.361.642v5.128c0 .262.137.506.361.641l5.25 3.182c.239.145.539.145.778 0l5.25-3.182c.224-.135.361-.379.361-.641v-5.128c0-.263-.137-.506-.361-.642z" fill="#000001" fill-rule="evenodd"/><path d="m364.211 363.788h-2.016v-9.578h-3.468v-1.696h8.961v1.696h-3.477zm6.211-9.969c-.633 0-1.156-.508-1.156-1.148 0-.633.523-1.149 1.156-1.149.64 0 1.164.516 1.164 1.149 0 .64-.524 1.148-1.164 1.148zm-.961 9.969v-8.539h1.93v8.539zm4.953-10.633h1.93v2.148h1.828v1.508h-1.828v4.25c0 .852.359 1.235 1.172 1.235.273 0 .422-.016.656-.039v1.484c-.281.055-.641.086-1.016.086-1.961 0-2.742-.656-2.742-2.305v-4.711h-1.352v-1.508h1.352zm5.774 10.633v-11.844h1.937v11.844zm9.96-2.336h1.836c-.351 1.539-1.781 2.508-3.796 2.508-2.516 0-4.032-1.672-4.032-4.407 0-2.742 1.539-4.468 4.016-4.468 2.437 0 3.898 1.617 3.898 4.297v.617h-5.968v.101c.046 1.446.867 2.352 2.14 2.352.961 0 1.625-.359 1.906-1zm-1.984-4.859c-1.156 0-1.969.835-2.055 2.117h4.024c-.039-1.297-.805-2.117-1.969-2.117z" fill="#0c0c0e"/><g fill="#656a76"><path clip-rule="evenodd" d="m339.125 384.035c.538-.326 1.212-.326 1.75 0l3.937 2.386c.505.306.813.854.813 1.444v3.846c0 .59-.308 1.137-.813 1.443l-3.937 2.386c-.538.326-1.212.326-1.75 0l-3.937-2.386c-.505-.306-.813-.853-.813-1.443v-3.846c0-.59.308-1.138.813-1.444zm1.167.962c-.18-.108-.404-.108-.584 0l-3.937 2.387c-.168.102-.271.284-.271.481v3.846c0 .197.103.379.271.481l3.937 2.386c.18.109.404.109.584 0l3.937-2.386c.168-.102.271-.284.271-.481v-3.846c0-.197-.103-.379-.271-.481z" fill-rule="evenodd"/><path d="m352.488 394.788h-1.23v-9.864h1.23zm8.463-5.113h-1.189c-.192-.732-.841-1.327-1.901-1.327-1.326 0-2.16 1.06-2.16 2.728 0 1.702.848 2.782 2.16 2.782.992 0 1.682-.458 1.901-1.292h1.189c-.212 1.354-1.312 2.352-3.083 2.352-2.064 0-3.384-1.497-3.384-3.842 0-2.297 1.313-3.787 3.377-3.787 1.791 0 2.885 1.073 3.09 2.386zm4.765 5.243c-2.099 0-3.398-1.449-3.398-3.815 0-2.372 1.299-3.814 3.398-3.814 2.098 0 3.397 1.442 3.397 3.814 0 2.366-1.299 3.815-3.397 3.815zm0-1.06c1.394 0 2.18-1.012 2.18-2.755 0-1.75-.786-2.755-2.18-2.755-1.395 0-2.181 1.005-2.181 2.755 0 1.743.786 2.755 2.181 2.755zm5.243.93v-7.369h1.121v1.162h.109c.37-.814 1.087-1.292 2.215-1.292 1.655 0 2.577.977 2.577 2.727v4.772h-1.175v-4.485c0-1.326-.561-1.955-1.737-1.955-1.175 0-1.934.787-1.934 2.079v4.361zm14.314-1.108v1.108h-5.988v-9.864h1.231v8.756zm3.87 1.238c-1.429 0-2.489-.848-2.489-2.195 0-1.319.971-2.078 2.687-2.18l2.126-.13v-.67c0-.909-.568-1.408-1.668-1.408-.882 0-1.497.335-1.661.916h-1.19c.157-1.183 1.32-1.962 2.892-1.962 1.798 0 2.803.923 2.803 2.454v5.045h-1.122v-1.087h-.109c-.478.786-1.285 1.217-2.269 1.217zm.218-1.033c1.21 0 2.106-.792 2.106-1.845v-.677l-1.983.13c-1.121.075-1.613.465-1.613 1.203 0 .752.636 1.189 1.49 1.189zm9.119 1.033c-1.025 0-1.9-.486-2.365-1.306h-.109v1.176h-1.121v-10.295h1.176v4.088h.109c.403-.793 1.299-1.292 2.31-1.292 1.874 0 3.09 1.497 3.09 3.814 0 2.304-1.223 3.815-3.09 3.815zm-.273-6.57c-1.34 0-2.174 1.053-2.174 2.755s.834 2.755 2.174 2.755c1.347 0 2.147-1.032 2.147-2.755 0-1.722-.8-2.755-2.147-2.755zm10.09 4.533h1.176c-.342 1.257-1.491 2.037-3.104 2.037-2.044 0-3.322-1.477-3.322-3.808 0-2.317 1.299-3.821 3.322-3.821 1.989 0 3.199 1.415 3.199 3.705v.451h-5.297v.055c.061 1.456.875 2.379 2.125 2.379.951 0 1.593-.349 1.901-.998zm-1.942-4.553c-1.175 0-1.996.861-2.084 2.167h4.06c-.027-1.306-.807-2.167-1.976-2.167zm5.127 6.46v-10.295h1.176v10.295z"/><path clip-rule="evenodd" d="m427.125 384.035c.538-.326 1.212-.326 1.75 0l3.937 2.386c.505.306.813.854.813 1.444v3.846c0 .59-.308 1.137-.813 1.443l-3.937 2.386c-.538.326-1.212.326-1.75 0l-3.937-2.386c-.505-.306-.813-.853-.813-1.443v-3.846c0-.59.308-1.138.813-1.444zm1.167.962c-.18-.108-.404-.108-.584 0l-3.937 2.387c-.168.102-.271.284-.271.481v3.846c0 .197.103.379.271.481l3.937 2.386c.18.109.404.109.584 0l3.937-2.386c.168-.102.271-.284.271-.481v-3.846c0-.197-.103-.379-.271-.481z" fill-rule="evenodd"/><path d="m440.488 394.788h-1.23v-9.864h1.23zm8.463-5.113h-1.189c-.192-.732-.841-1.327-1.901-1.327-1.326 0-2.16 1.06-2.16 2.728 0 1.702.848 2.782 2.16 2.782.992 0 1.682-.458 1.901-1.292h1.189c-.212 1.354-1.312 2.352-3.083 2.352-2.064 0-3.384-1.497-3.384-3.842 0-2.297 1.313-3.787 3.377-3.787 1.791 0 2.885 1.073 3.09 2.386zm4.765 5.243c-2.099 0-3.398-1.449-3.398-3.815 0-2.372 1.299-3.814 3.398-3.814 2.098 0 3.397 1.442 3.397 3.814 0 2.366-1.299 3.815-3.397 3.815zm0-1.06c1.394 0 2.18-1.012 2.18-2.755 0-1.75-.786-2.755-2.18-2.755-1.395 0-2.181 1.005-2.181 2.755 0 1.743.786 2.755 2.181 2.755zm5.243.93v-7.369h1.121v1.162h.109c.37-.814 1.087-1.292 2.215-1.292 1.655 0 2.577.977 2.577 2.727v4.772h-1.175v-4.485c0-1.326-.561-1.955-1.737-1.955-1.175 0-1.934.787-1.934 2.079v4.361zm14.314-1.108v1.108h-5.988v-9.864h1.231v8.756zm3.87 1.238c-1.429 0-2.489-.848-2.489-2.195 0-1.319.971-2.078 2.687-2.18l2.126-.13v-.67c0-.909-.568-1.408-1.668-1.408-.882 0-1.497.335-1.661.916h-1.19c.157-1.183 1.32-1.962 2.892-1.962 1.798 0 2.803.923 2.803 2.454v5.045h-1.122v-1.087h-.109c-.478.786-1.285 1.217-2.269 1.217zm.218-1.033c1.21 0 2.106-.792 2.106-1.845v-.677l-1.983.13c-1.121.075-1.613.465-1.613 1.203 0 .752.636 1.189 1.49 1.189zm9.119 1.033c-1.025 0-1.9-.486-2.365-1.306h-.109v1.176h-1.121v-10.295h1.176v4.088h.109c.403-.793 1.299-1.292 2.31-1.292 1.874 0 3.09 1.497 3.09 3.814 0 2.304-1.223 3.815-3.09 3.815zm-.273-6.57c-1.34 0-2.174 1.053-2.174 2.755s.834 2.755 2.174 2.755c1.347 0 2.147-1.032 2.147-2.755 0-1.722-.8-2.755-2.147-2.755zm10.09 4.533h1.176c-.342 1.257-1.491 2.037-3.104 2.037-2.044 0-3.322-1.477-3.322-3.808 0-2.317 1.299-3.821 3.322-3.821 1.989 0 3.199 1.415 3.199 3.705v.451h-5.297v.055c.061 1.456.875 2.379 2.125 2.379.951 0 1.593-.349 1.901-.998zm-1.942-4.553c-1.175 0-1.996.861-2.084 2.167h4.06c-.027-1.306-.807-2.167-1.976-2.167zm5.127 6.46v-10.295h1.176v10.295z"/></g></g><rect fill="#fafafa" height="36" rx="5" width="36" x="1192" y="355.788"/><g fill="#0c0c0e"><path d="m1203 371.788c-1.1 0-2 .895-2 2 0 1.104.9 2 2 2s2-.896 2-2c0-1.105-.9-2-2-2z"/><path d="m1210 371.788c-1.1 0-2 .895-2 2 0 1.104.9 2 2 2s2-.896 2-2c0-1.105-.9-2-2-2z"/><path d="m1217 371.788c-1.1 0-2 .895-2 2 0 1.104.9 2 2 2s2-.896 2-2c0-1.105-.9-2-2-2z"/></g><rect height="35" rx="4.5" stroke="#3b3d45" stroke-opacity=".4" width="35" x="1192.5" y="356.288"/></g><g opacity=".9"><path d="m320.5 414.288h919v11h-919z" fill="#f9f2ff"/><path d="m775.764 422.045h1.38v-4.957l-1.653.796v-.853l1.644-.782h.887v5.796h1.363v.743h-3.621zm5.875-.004h3.015v.747h-3.986v-.747c.548-.577 1.027-1.087 1.437-1.53.41-.442.693-.754.848-.936.293-.357.491-.646.593-.865.103-.223.154-.45.154-.681 0-.367-.108-.654-.325-.862-.214-.208-.508-.312-.883-.312-.267 0-.547.049-.84.145-.293.097-.603.243-.931.44v-.897c.301-.143.597-.252.887-.325.293-.073.582-.11.866-.11.642 0 1.157.172 1.547.514.393.34.589.787.589 1.341 0 .281-.066.562-.198.843-.129.282-.34.592-.633.932-.164.19-.403.454-.716.791-.311.337-.785.841-1.424 1.512z" fill="#7b00db"/><path d="m320.5 414.288h919v11h-919z" stroke="#ead2fe"/></g><g filter="url(#k)"><rect fill="#fff" height="80" rx="6" width="920" x="320" y="425.788"/><g clip-path="url(#G)"><path clip-rule="evenodd" d="m338.834 442.118c.717-.435 1.615-.435 2.332 0l5.25 3.181c.673.408 1.084 1.138 1.084 1.925v5.128c0 .787-.411 1.516-1.084 1.924l-5.25 3.182c-.717.435-1.615.435-2.332 0l-5.25-3.182c-.673-.408-1.084-1.137-1.084-1.924v-5.128c0-.787.411-1.517 1.084-1.925zm1.555 1.282c-.239-.144-.539-.144-.778 0l-5.25 3.182c-.224.136-.361.379-.361.642v5.128c0 .262.137.506.361.641l5.25 3.182c.239.145.539.145.778 0l5.25-3.182c.224-.135.361-.379.361-.641v-5.128c0-.263-.137-.506-.361-.642z" fill="#000001" fill-rule="evenodd"/><path d="m364.211 455.788h-2.016v-9.578h-3.468v-1.696h8.961v1.696h-3.477zm6.211-9.969c-.633 0-1.156-.508-1.156-1.148 0-.633.523-1.149 1.156-1.149.64 0 1.164.516 1.164 1.149 0 .64-.524 1.148-1.164 1.148zm-.961 9.969v-8.539h1.93v8.539zm4.953-10.633h1.93v2.148h1.828v1.508h-1.828v4.25c0 .852.359 1.235 1.172 1.235.273 0 .422-.016.656-.039v1.484c-.281.055-.641.086-1.016.086-1.961 0-2.742-.656-2.742-2.305v-4.711h-1.352v-1.508h1.352zm5.774 10.633v-11.844h1.937v11.844zm9.96-2.336h1.836c-.351 1.539-1.781 2.508-3.796 2.508-2.516 0-4.032-1.672-4.032-4.407 0-2.742 1.539-4.468 4.016-4.468 2.437 0 3.898 1.617 3.898 4.297v.617h-5.968v.101c.046 1.446.867 2.352 2.14 2.352.961 0 1.625-.359 1.906-1zm-1.984-4.859c-1.156 0-1.969.835-2.055 2.117h4.024c-.039-1.297-.805-2.117-1.969-2.117z" fill="#0c0c0e"/><g fill="#656a76"><path clip-rule="evenodd" d="m339.125 476.035c.538-.326 1.212-.326 1.75 0l3.937 2.386c.505.306.813.854.813 1.444v3.846c0 .59-.308 1.137-.813 1.443l-3.937 2.386c-.538.326-1.212.326-1.75 0l-3.937-2.386c-.505-.306-.813-.853-.813-1.443v-3.846c0-.59.308-1.138.813-1.444zm1.167.962c-.18-.108-.404-.108-.584 0l-3.937 2.387c-.168.102-.271.284-.271.481v3.846c0 .197.103.379.271.481l3.937 2.386c.18.109.404.109.584 0l3.937-2.386c.168-.102.271-.284.271-.481v-3.846c0-.197-.103-.379-.271-.481z" fill-rule="evenodd"/><path d="m352.488 486.788h-1.23v-9.864h1.23zm8.463-5.113h-1.189c-.192-.732-.841-1.327-1.901-1.327-1.326 0-2.16 1.06-2.16 2.728 0 1.702.848 2.782 2.16 2.782.992 0 1.682-.458 1.901-1.292h1.189c-.212 1.354-1.312 2.352-3.083 2.352-2.064 0-3.384-1.497-3.384-3.842 0-2.297 1.313-3.787 3.377-3.787 1.791 0 2.885 1.073 3.09 2.386zm4.765 5.243c-2.099 0-3.398-1.449-3.398-3.815 0-2.372 1.299-3.814 3.398-3.814 2.098 0 3.397 1.442 3.397 3.814 0 2.366-1.299 3.815-3.397 3.815zm0-1.06c1.394 0 2.18-1.012 2.18-2.755 0-1.75-.786-2.755-2.18-2.755-1.395 0-2.181 1.005-2.181 2.755 0 1.743.786 2.755 2.181 2.755zm5.243.93v-7.369h1.121v1.162h.109c.37-.814 1.087-1.292 2.215-1.292 1.655 0 2.577.977 2.577 2.727v4.772h-1.175v-4.485c0-1.326-.561-1.955-1.737-1.955-1.175 0-1.934.787-1.934 2.079v4.361zm14.314-1.108v1.108h-5.988v-9.864h1.231v8.756zm3.87 1.238c-1.429 0-2.489-.848-2.489-2.195 0-1.319.971-2.078 2.687-2.18l2.126-.13v-.67c0-.909-.568-1.408-1.668-1.408-.882 0-1.497.335-1.661.916h-1.19c.157-1.183 1.32-1.962 2.892-1.962 1.798 0 2.803.923 2.803 2.454v5.045h-1.122v-1.087h-.109c-.478.786-1.285 1.217-2.269 1.217zm.218-1.033c1.21 0 2.106-.792 2.106-1.845v-.677l-1.983.13c-1.121.075-1.613.465-1.613 1.203 0 .752.636 1.189 1.49 1.189zm9.119 1.033c-1.025 0-1.9-.486-2.365-1.306h-.109v1.176h-1.121v-10.295h1.176v4.088h.109c.403-.793 1.299-1.292 2.31-1.292 1.874 0 3.09 1.497 3.09 3.814 0 2.304-1.223 3.815-3.09 3.815zm-.273-6.57c-1.34 0-2.174 1.053-2.174 2.755s.834 2.755 2.174 2.755c1.347 0 2.147-1.032 2.147-2.755 0-1.722-.8-2.755-2.147-2.755zm10.09 4.533h1.176c-.342 1.257-1.491 2.037-3.104 2.037-2.044 0-3.322-1.477-3.322-3.808 0-2.317 1.299-3.821 3.322-3.821 1.989 0 3.199 1.415 3.199 3.705v.451h-5.297v.055c.061 1.456.875 2.379 2.125 2.379.951 0 1.593-.349 1.901-.998zm-1.942-4.553c-1.175 0-1.996.861-2.084 2.167h4.06c-.027-1.306-.807-2.167-1.976-2.167zm5.127 6.46v-10.295h1.176v10.295z"/><path clip-rule="evenodd" d="m427.125 476.035c.538-.326 1.212-.326 1.75 0l3.937 2.386c.505.306.813.854.813 1.444v3.846c0 .59-.308 1.137-.813 1.443l-3.937 2.386c-.538.326-1.212.326-1.75 0l-3.937-2.386c-.505-.306-.813-.853-.813-1.443v-3.846c0-.59.308-1.138.813-1.444zm1.167.962c-.18-.108-.404-.108-.584 0l-3.937 2.387c-.168.102-.271.284-.271.481v3.846c0 .197.103.379.271.481l3.937 2.386c.18.109.404.109.584 0l3.937-2.386c.168-.102.271-.284.271-.481v-3.846c0-.197-.103-.379-.271-.481z" fill-rule="evenodd"/><path d="m440.488 486.788h-1.23v-9.864h1.23zm8.463-5.113h-1.189c-.192-.732-.841-1.327-1.901-1.327-1.326 0-2.16 1.06-2.16 2.728 0 1.702.848 2.782 2.16 2.782.992 0 1.682-.458 1.901-1.292h1.189c-.212 1.354-1.312 2.352-3.083 2.352-2.064 0-3.384-1.497-3.384-3.842 0-2.297 1.313-3.787 3.377-3.787 1.791 0 2.885 1.073 3.09 2.386zm4.765 5.243c-2.099 0-3.398-1.449-3.398-3.815 0-2.372 1.299-3.814 3.398-3.814 2.098 0 3.397 1.442 3.397 3.814 0 2.366-1.299 3.815-3.397 3.815zm0-1.06c1.394 0 2.18-1.012 2.18-2.755 0-1.75-.786-2.755-2.18-2.755-1.395 0-2.181 1.005-2.181 2.755 0 1.743.786 2.755 2.181 2.755zm5.243.93v-7.369h1.121v1.162h.109c.37-.814 1.087-1.292 2.215-1.292 1.655 0 2.577.977 2.577 2.727v4.772h-1.175v-4.485c0-1.326-.561-1.955-1.737-1.955-1.175 0-1.934.787-1.934 2.079v4.361zm14.314-1.108v1.108h-5.988v-9.864h1.231v8.756zm3.87 1.238c-1.429 0-2.489-.848-2.489-2.195 0-1.319.971-2.078 2.687-2.18l2.126-.13v-.67c0-.909-.568-1.408-1.668-1.408-.882 0-1.497.335-1.661.916h-1.19c.157-1.183 1.32-1.962 2.892-1.962 1.798 0 2.803.923 2.803 2.454v5.045h-1.122v-1.087h-.109c-.478.786-1.285 1.217-2.269 1.217zm.218-1.033c1.21 0 2.106-.792 2.106-1.845v-.677l-1.983.13c-1.121.075-1.613.465-1.613 1.203 0 .752.636 1.189 1.49 1.189zm9.119 1.033c-1.025 0-1.9-.486-2.365-1.306h-.109v1.176h-1.121v-10.295h1.176v4.088h.109c.403-.793 1.299-1.292 2.31-1.292 1.874 0 3.09 1.497 3.09 3.814 0 2.304-1.223 3.815-3.09 3.815zm-.273-6.57c-1.34 0-2.174 1.053-2.174 2.755s.834 2.755 2.174 2.755c1.347 0 2.147-1.032 2.147-2.755 0-1.722-.8-2.755-2.147-2.755zm10.09 4.533h1.176c-.342 1.257-1.491 2.037-3.104 2.037-2.044 0-3.322-1.477-3.322-3.808 0-2.317 1.299-3.821 3.322-3.821 1.989 0 3.199 1.415 3.199 3.705v.451h-5.297v.055c.061 1.456.875 2.379 2.125 2.379.951 0 1.593-.349 1.901-.998zm-1.942-4.553c-1.175 0-1.996.861-2.084 2.167h4.06c-.027-1.306-.807-2.167-1.976-2.167zm5.127 6.46v-10.295h1.176v10.295z"/></g></g><rect fill="#fafafa" height="36" rx="5" width="36" x="1192" y="447.788"/><g fill="#0c0c0e"><path d="m1203 463.788c-1.1 0-2 .895-2 2 0 1.104.9 2 2 2s2-.896 2-2c0-1.105-.9-2-2-2z"/><path d="m1210 463.788c-1.1 0-2 .895-2 2 0 1.104.9 2 2 2s2-.896 2-2c0-1.105-.9-2-2-2z"/><path d="m1217 463.788c-1.1 0-2 .895-2 2 0 1.104.9 2 2 2s2-.896 2-2c0-1.105-.9-2-2-2z"/></g><rect height="35" rx="4.5" stroke="#3b3d45" stroke-opacity=".4" width="35" x="1192.5" y="448.288"/></g><g opacity=".9"><path d="m320.5 506.288h919v11h-919z" fill="#f9f2ff"/><path d="m775.764 514.045h1.38v-4.957l-1.653.796v-.853l1.644-.782h.887v5.796h1.363v.743h-3.621zm5.875-.004h3.015v.747h-3.986v-.747c.548-.577 1.027-1.087 1.437-1.53.41-.442.693-.754.848-.936.293-.357.491-.646.593-.865.103-.223.154-.45.154-.681 0-.367-.108-.654-.325-.862-.214-.208-.508-.312-.883-.312-.267 0-.547.049-.84.145-.293.097-.603.243-.931.44v-.897c.301-.143.597-.252.887-.325.293-.073.582-.11.866-.11.642 0 1.157.172 1.547.514.393.34.589.787.589 1.341 0 .281-.066.562-.198.843-.129.282-.34.592-.633.932-.164.19-.403.454-.716.791-.311.337-.785.841-1.424 1.512z" fill="#7b00db"/><path d="m320.5 506.288h919v11h-919z" stroke="#ead2fe"/></g><g filter="url(#l)"><rect fill="#fff" height="80" rx="6" width="920" x="320" y="517.788"/><g clip-path="url(#H)"><path clip-rule="evenodd" d="m338.834 534.118c.717-.435 1.615-.435 2.332 0l5.25 3.181c.673.408 1.084 1.138 1.084 1.925v5.128c0 .787-.411 1.516-1.084 1.924l-5.25 3.182c-.717.435-1.615.435-2.332 0l-5.25-3.182c-.673-.408-1.084-1.137-1.084-1.924v-5.128c0-.787.411-1.517 1.084-1.925zm1.555 1.282c-.239-.144-.539-.144-.778 0l-5.25 3.182c-.224.136-.361.379-.361.642v5.128c0 .262.137.506.361.641l5.25 3.182c.239.145.539.145.778 0l5.25-3.182c.224-.135.361-.379.361-.641v-5.128c0-.263-.137-.506-.361-.642z" fill="#000001" fill-rule="evenodd"/><path d="m364.211 547.788h-2.016v-9.578h-3.468v-1.696h8.961v1.696h-3.477zm6.211-9.969c-.633 0-1.156-.508-1.156-1.148 0-.633.523-1.149 1.156-1.149.64 0 1.164.516 1.164 1.149 0 .64-.524 1.148-1.164 1.148zm-.961 9.969v-8.539h1.93v8.539zm4.953-10.633h1.93v2.148h1.828v1.508h-1.828v4.25c0 .852.359 1.235 1.172 1.235.273 0 .422-.016.656-.039v1.484c-.281.055-.641.086-1.016.086-1.961 0-2.742-.656-2.742-2.305v-4.711h-1.352v-1.508h1.352zm5.774 10.633v-11.844h1.937v11.844zm9.96-2.336h1.836c-.351 1.539-1.781 2.508-3.796 2.508-2.516 0-4.032-1.672-4.032-4.407 0-2.742 1.539-4.468 4.016-4.468 2.437 0 3.898 1.617 3.898 4.297v.617h-5.968v.101c.046 1.446.867 2.352 2.14 2.352.961 0 1.625-.359 1.906-1zm-1.984-4.859c-1.156 0-1.969.835-2.055 2.117h4.024c-.039-1.297-.805-2.117-1.969-2.117z" fill="#0c0c0e"/><g fill="#656a76"><path clip-rule="evenodd" d="m339.125 568.035c.538-.326 1.212-.326 1.75 0l3.937 2.386c.505.306.813.854.813 1.444v3.846c0 .59-.308 1.137-.813 1.443l-3.937 2.386c-.538.326-1.212.326-1.75 0l-3.937-2.386c-.505-.306-.813-.853-.813-1.443v-3.846c0-.59.308-1.138.813-1.444zm1.167.962c-.18-.108-.404-.108-.584 0l-3.937 2.387c-.168.102-.271.284-.271.481v3.846c0 .197.103.379.271.481l3.937 2.386c.18.109.404.109.584 0l3.937-2.386c.168-.102.271-.284.271-.481v-3.846c0-.197-.103-.379-.271-.481z" fill-rule="evenodd"/><path d="m352.488 578.788h-1.23v-9.864h1.23zm8.463-5.113h-1.189c-.192-.732-.841-1.327-1.901-1.327-1.326 0-2.16 1.06-2.16 2.728 0 1.702.848 2.782 2.16 2.782.992 0 1.682-.458 1.901-1.292h1.189c-.212 1.354-1.312 2.352-3.083 2.352-2.064 0-3.384-1.497-3.384-3.842 0-2.297 1.313-3.787 3.377-3.787 1.791 0 2.885 1.073 3.09 2.386zm4.765 5.243c-2.099 0-3.398-1.449-3.398-3.815 0-2.372 1.299-3.814 3.398-3.814 2.098 0 3.397 1.442 3.397 3.814 0 2.366-1.299 3.815-3.397 3.815zm0-1.06c1.394 0 2.18-1.012 2.18-2.755 0-1.75-.786-2.755-2.18-2.755-1.395 0-2.181 1.005-2.181 2.755 0 1.743.786 2.755 2.181 2.755zm5.243.93v-7.369h1.121v1.162h.109c.37-.814 1.087-1.292 2.215-1.292 1.655 0 2.577.977 2.577 2.727v4.772h-1.175v-4.485c0-1.326-.561-1.955-1.737-1.955-1.175 0-1.934.787-1.934 2.079v4.361zm14.314-1.108v1.108h-5.988v-9.864h1.231v8.756zm3.87 1.238c-1.429 0-2.489-.848-2.489-2.195 0-1.319.971-2.078 2.687-2.18l2.126-.13v-.67c0-.909-.568-1.408-1.668-1.408-.882 0-1.497.335-1.661.916h-1.19c.157-1.183 1.32-1.962 2.892-1.962 1.798 0 2.803.923 2.803 2.454v5.045h-1.122v-1.087h-.109c-.478.786-1.285 1.217-2.269 1.217zm.218-1.033c1.21 0 2.106-.792 2.106-1.845v-.677l-1.983.13c-1.121.075-1.613.465-1.613 1.203 0 .752.636 1.189 1.49 1.189zm9.119 1.033c-1.025 0-1.9-.486-2.365-1.306h-.109v1.176h-1.121v-10.295h1.176v4.088h.109c.403-.793 1.299-1.292 2.31-1.292 1.874 0 3.09 1.497 3.09 3.814 0 2.304-1.223 3.815-3.09 3.815zm-.273-6.57c-1.34 0-2.174 1.053-2.174 2.755s.834 2.755 2.174 2.755c1.347 0 2.147-1.032 2.147-2.755 0-1.722-.8-2.755-2.147-2.755zm10.09 4.533h1.176c-.342 1.257-1.491 2.037-3.104 2.037-2.044 0-3.322-1.477-3.322-3.808 0-2.317 1.299-3.821 3.322-3.821 1.989 0 3.199 1.415 3.199 3.705v.451h-5.297v.055c.061 1.456.875 2.379 2.125 2.379.951 0 1.593-.349 1.901-.998zm-1.942-4.553c-1.175 0-1.996.861-2.084 2.167h4.06c-.027-1.306-.807-2.167-1.976-2.167zm5.127 6.46v-10.295h1.176v10.295z"/><path clip-rule="evenodd" d="m427.125 568.035c.538-.326 1.212-.326 1.75 0l3.937 2.386c.505.306.813.854.813 1.444v3.846c0 .59-.308 1.137-.813 1.443l-3.937 2.386c-.538.326-1.212.326-1.75 0l-3.937-2.386c-.505-.306-.813-.853-.813-1.443v-3.846c0-.59.308-1.138.813-1.444zm1.167.962c-.18-.108-.404-.108-.584 0l-3.937 2.387c-.168.102-.271.284-.271.481v3.846c0 .197.103.379.271.481l3.937 2.386c.18.109.404.109.584 0l3.937-2.386c.168-.102.271-.284.271-.481v-3.846c0-.197-.103-.379-.271-.481z" fill-rule="evenodd"/><path d="m440.488 578.788h-1.23v-9.864h1.23zm8.463-5.113h-1.189c-.192-.732-.841-1.327-1.901-1.327-1.326 0-2.16 1.06-2.16 2.728 0 1.702.848 2.782 2.16 2.782.992 0 1.682-.458 1.901-1.292h1.189c-.212 1.354-1.312 2.352-3.083 2.352-2.064 0-3.384-1.497-3.384-3.842 0-2.297 1.313-3.787 3.377-3.787 1.791 0 2.885 1.073 3.09 2.386zm4.765 5.243c-2.099 0-3.398-1.449-3.398-3.815 0-2.372 1.299-3.814 3.398-3.814 2.098 0 3.397 1.442 3.397 3.814 0 2.366-1.299 3.815-3.397 3.815zm0-1.06c1.394 0 2.18-1.012 2.18-2.755 0-1.75-.786-2.755-2.18-2.755-1.395 0-2.181 1.005-2.181 2.755 0 1.743.786 2.755 2.181 2.755zm5.243.93v-7.369h1.121v1.162h.109c.37-.814 1.087-1.292 2.215-1.292 1.655 0 2.577.977 2.577 2.727v4.772h-1.175v-4.485c0-1.326-.561-1.955-1.737-1.955-1.175 0-1.934.787-1.934 2.079v4.361zm14.314-1.108v1.108h-5.988v-9.864h1.231v8.756zm3.87 1.238c-1.429 0-2.489-.848-2.489-2.195 0-1.319.971-2.078 2.687-2.18l2.126-.13v-.67c0-.909-.568-1.408-1.668-1.408-.882 0-1.497.335-1.661.916h-1.19c.157-1.183 1.32-1.962 2.892-1.962 1.798 0 2.803.923 2.803 2.454v5.045h-1.122v-1.087h-.109c-.478.786-1.285 1.217-2.269 1.217zm.218-1.033c1.21 0 2.106-.792 2.106-1.845v-.677l-1.983.13c-1.121.075-1.613.465-1.613 1.203 0 .752.636 1.189 1.49 1.189zm9.119 1.033c-1.025 0-1.9-.486-2.365-1.306h-.109v1.176h-1.121v-10.295h1.176v4.088h.109c.403-.793 1.299-1.292 2.31-1.292 1.874 0 3.09 1.497 3.09 3.814 0 2.304-1.223 3.815-3.09 3.815zm-.273-6.57c-1.34 0-2.174 1.053-2.174 2.755s.834 2.755 2.174 2.755c1.347 0 2.147-1.032 2.147-2.755 0-1.722-.8-2.755-2.147-2.755zm10.09 4.533h1.176c-.342 1.257-1.491 2.037-3.104 2.037-2.044 0-3.322-1.477-3.322-3.808 0-2.317 1.299-3.821 3.322-3.821 1.989 0 3.199 1.415 3.199 3.705v.451h-5.297v.055c.061 1.456.875 2.379 2.125 2.379.951 0 1.593-.349 1.901-.998zm-1.942-4.553c-1.175 0-1.996.861-2.084 2.167h4.06c-.027-1.306-.807-2.167-1.976-2.167zm5.127 6.46v-10.295h1.176v10.295z"/></g></g><rect fill="#fafafa" height="36" rx="5" width="36" x="1192" y="539.788"/><g fill="#0c0c0e"><path d="m1203 555.788c-1.1 0-2 .895-2 2 0 1.104.9 2 2 2s2-.896 2-2c0-1.105-.9-2-2-2z"/><path d="m1210 555.788c-1.1 0-2 .895-2 2 0 1.104.9 2 2 2s2-.896 2-2c0-1.105-.9-2-2-2z"/><path d="m1217 555.788c-1.1 0-2 .895-2 2 0 1.104.9 2 2 2s2-.896 2-2c0-1.105-.9-2-2-2z"/></g><rect height="35" rx="4.5" stroke="#3b3d45" stroke-opacity=".4" width="35" x="1192.5" y="540.288"/></g><g opacity=".9"><path d="m320.5 598.288h919v11h-919z" fill="#f9f2ff"/><path d="m775.764 606.045h1.38v-4.957l-1.653.796v-.853l1.644-.782h.887v5.796h1.363v.743h-3.621zm5.875-.004h3.015v.747h-3.986v-.747c.548-.577 1.027-1.087 1.437-1.53.41-.442.693-.754.848-.936.293-.357.491-.646.593-.865.103-.223.154-.45.154-.681 0-.367-.108-.654-.325-.862-.214-.208-.508-.312-.883-.312-.267 0-.547.049-.84.145-.293.097-.603.243-.931.44v-.897c.301-.143.597-.252.887-.325.293-.073.582-.11.866-.11.642 0 1.157.172 1.547.514.393.34.589.787.589 1.341 0 .281-.066.562-.198.843-.129.282-.34.592-.633.932-.164.19-.403.454-.716.791-.311.337-.785.841-1.424 1.512z" fill="#7b00db"/><path d="m320.5 598.288h919v11h-919z" stroke="#ead2fe"/></g><g filter="url(#m)"><rect fill="#fff" height="80" rx="6" width="920" x="320" y="609.788"/><g clip-path="url(#I)"><path clip-rule="evenodd" d="m338.834 626.118c.717-.435 1.615-.435 2.332 0l5.25 3.181c.673.408 1.084 1.138 1.084 1.925v5.128c0 .787-.411 1.516-1.084 1.924l-5.25 3.182c-.717.435-1.615.435-2.332 0l-5.25-3.182c-.673-.408-1.084-1.137-1.084-1.924v-5.128c0-.787.411-1.517 1.084-1.925zm1.555 1.282c-.239-.144-.539-.144-.778 0l-5.25 3.182c-.224.136-.361.379-.361.642v5.128c0 .262.137.506.361.641l5.25 3.182c.239.145.539.145.778 0l5.25-3.182c.224-.135.361-.379.361-.641v-5.128c0-.263-.137-.506-.361-.642z" fill="#000001" fill-rule="evenodd"/><path d="m364.211 639.788h-2.016v-9.578h-3.468v-1.696h8.961v1.696h-3.477zm6.211-9.969c-.633 0-1.156-.508-1.156-1.148 0-.633.523-1.149 1.156-1.149.64 0 1.164.516 1.164 1.149 0 .64-.524 1.148-1.164 1.148zm-.961 9.969v-8.539h1.93v8.539zm4.953-10.633h1.93v2.148h1.828v1.508h-1.828v4.25c0 .852.359 1.235 1.172 1.235.273 0 .422-.016.656-.039v1.484c-.281.055-.641.086-1.016.086-1.961 0-2.742-.656-2.742-2.305v-4.711h-1.352v-1.508h1.352zm5.774 10.633v-11.844h1.937v11.844zm9.96-2.336h1.836c-.351 1.539-1.781 2.508-3.796 2.508-2.516 0-4.032-1.672-4.032-4.407 0-2.742 1.539-4.468 4.016-4.468 2.437 0 3.898 1.617 3.898 4.297v.617h-5.968v.101c.046 1.446.867 2.352 2.14 2.352.961 0 1.625-.359 1.906-1zm-1.984-4.859c-1.156 0-1.969.835-2.055 2.117h4.024c-.039-1.297-.805-2.117-1.969-2.117z" fill="#0c0c0e"/><g fill="#656a76"><path clip-rule="evenodd" d="m339.125 660.035c.538-.326 1.212-.326 1.75 0l3.937 2.386c.505.306.813.854.813 1.444v3.846c0 .59-.308 1.137-.813 1.443l-3.937 2.386c-.538.326-1.212.326-1.75 0l-3.937-2.386c-.505-.306-.813-.853-.813-1.443v-3.846c0-.59.308-1.138.813-1.444zm1.167.962c-.18-.108-.404-.108-.584 0l-3.937 2.387c-.168.102-.271.284-.271.481v3.846c0 .197.103.379.271.481l3.937 2.386c.18.109.404.109.584 0l3.937-2.386c.168-.102.271-.284.271-.481v-3.846c0-.197-.103-.379-.271-.481z" fill-rule="evenodd"/><path d="m352.488 670.788h-1.23v-9.864h1.23zm8.463-5.113h-1.189c-.192-.732-.841-1.327-1.901-1.327-1.326 0-2.16 1.06-2.16 2.728 0 1.702.848 2.782 2.16 2.782.992 0 1.682-.458 1.901-1.292h1.189c-.212 1.354-1.312 2.352-3.083 2.352-2.064 0-3.384-1.497-3.384-3.842 0-2.297 1.313-3.787 3.377-3.787 1.791 0 2.885 1.073 3.09 2.386zm4.765 5.243c-2.099 0-3.398-1.449-3.398-3.815 0-2.372 1.299-3.814 3.398-3.814 2.098 0 3.397 1.442 3.397 3.814 0 2.366-1.299 3.815-3.397 3.815zm0-1.06c1.394 0 2.18-1.012 2.18-2.755 0-1.75-.786-2.755-2.18-2.755-1.395 0-2.181 1.005-2.181 2.755 0 1.743.786 2.755 2.181 2.755zm5.243.93v-7.369h1.121v1.162h.109c.37-.814 1.087-1.292 2.215-1.292 1.655 0 2.577.977 2.577 2.727v4.772h-1.175v-4.485c0-1.326-.561-1.955-1.737-1.955-1.175 0-1.934.787-1.934 2.079v4.361zm14.314-1.108v1.108h-5.988v-9.864h1.231v8.756zm3.87 1.238c-1.429 0-2.489-.848-2.489-2.195 0-1.319.971-2.078 2.687-2.18l2.126-.13v-.67c0-.909-.568-1.408-1.668-1.408-.882 0-1.497.335-1.661.916h-1.19c.157-1.183 1.32-1.962 2.892-1.962 1.798 0 2.803.923 2.803 2.454v5.045h-1.122v-1.087h-.109c-.478.786-1.285 1.217-2.269 1.217zm.218-1.033c1.21 0 2.106-.792 2.106-1.845v-.677l-1.983.13c-1.121.075-1.613.465-1.613 1.203 0 .752.636 1.189 1.49 1.189zm9.119 1.033c-1.025 0-1.9-.486-2.365-1.306h-.109v1.176h-1.121v-10.295h1.176v4.088h.109c.403-.793 1.299-1.292 2.31-1.292 1.874 0 3.09 1.497 3.09 3.814 0 2.304-1.223 3.815-3.09 3.815zm-.273-6.57c-1.34 0-2.174 1.053-2.174 2.755s.834 2.755 2.174 2.755c1.347 0 2.147-1.032 2.147-2.755 0-1.722-.8-2.755-2.147-2.755zm10.09 4.533h1.176c-.342 1.257-1.491 2.037-3.104 2.037-2.044 0-3.322-1.477-3.322-3.808 0-2.317 1.299-3.821 3.322-3.821 1.989 0 3.199 1.415 3.199 3.705v.451h-5.297v.055c.061 1.456.875 2.379 2.125 2.379.951 0 1.593-.349 1.901-.998zm-1.942-4.553c-1.175 0-1.996.861-2.084 2.167h4.06c-.027-1.306-.807-2.167-1.976-2.167zm5.127 6.46v-10.295h1.176v10.295z"/><path clip-rule="evenodd" d="m427.125 660.035c.538-.326 1.212-.326 1.75 0l3.937 2.386c.505.306.813.854.813 1.444v3.846c0 .59-.308 1.137-.813 1.443l-3.937 2.386c-.538.326-1.212.326-1.75 0l-3.937-2.386c-.505-.306-.813-.853-.813-1.443v-3.846c0-.59.308-1.138.813-1.444zm1.167.962c-.18-.108-.404-.108-.584 0l-3.937 2.387c-.168.102-.271.284-.271.481v3.846c0 .197.103.379.271.481l3.937 2.386c.18.109.404.109.584 0l3.937-2.386c.168-.102.271-.284.271-.481v-3.846c0-.197-.103-.379-.271-.481z" fill-rule="evenodd"/><path d="m440.488 670.788h-1.23v-9.864h1.23zm8.463-5.113h-1.189c-.192-.732-.841-1.327-1.901-1.327-1.326 0-2.16 1.06-2.16 2.728 0 1.702.848 2.782 2.16 2.782.992 0 1.682-.458 1.901-1.292h1.189c-.212 1.354-1.312 2.352-3.083 2.352-2.064 0-3.384-1.497-3.384-3.842 0-2.297 1.313-3.787 3.377-3.787 1.791 0 2.885 1.073 3.09 2.386zm4.765 5.243c-2.099 0-3.398-1.449-3.398-3.815 0-2.372 1.299-3.814 3.398-3.814 2.098 0 3.397 1.442 3.397 3.814 0 2.366-1.299 3.815-3.397 3.815zm0-1.06c1.394 0 2.18-1.012 2.18-2.755 0-1.75-.786-2.755-2.18-2.755-1.395 0-2.181 1.005-2.181 2.755 0 1.743.786 2.755 2.181 2.755zm5.243.93v-7.369h1.121v1.162h.109c.37-.814 1.087-1.292 2.215-1.292 1.655 0 2.577.977 2.577 2.727v4.772h-1.175v-4.485c0-1.326-.561-1.955-1.737-1.955-1.175 0-1.934.787-1.934 2.079v4.361zm14.314-1.108v1.108h-5.988v-9.864h1.231v8.756zm3.87 1.238c-1.429 0-2.489-.848-2.489-2.195 0-1.319.971-2.078 2.687-2.18l2.126-.13v-.67c0-.909-.568-1.408-1.668-1.408-.882 0-1.497.335-1.661.916h-1.19c.157-1.183 1.32-1.962 2.892-1.962 1.798 0 2.803.923 2.803 2.454v5.045h-1.122v-1.087h-.109c-.478.786-1.285 1.217-2.269 1.217zm.218-1.033c1.21 0 2.106-.792 2.106-1.845v-.677l-1.983.13c-1.121.075-1.613.465-1.613 1.203 0 .752.636 1.189 1.49 1.189zm9.119 1.033c-1.025 0-1.9-.486-2.365-1.306h-.109v1.176h-1.121v-10.295h1.176v4.088h.109c.403-.793 1.299-1.292 2.31-1.292 1.874 0 3.09 1.497 3.09 3.814 0 2.304-1.223 3.815-3.09 3.815zm-.273-6.57c-1.34 0-2.174 1.053-2.174 2.755s.834 2.755 2.174 2.755c1.347 0 2.147-1.032 2.147-2.755 0-1.722-.8-2.755-2.147-2.755zm10.09 4.533h1.176c-.342 1.257-1.491 2.037-3.104 2.037-2.044 0-3.322-1.477-3.322-3.808 0-2.317 1.299-3.821 3.322-3.821 1.989 0 3.199 1.415 3.199 3.705v.451h-5.297v.055c.061 1.456.875 2.379 2.125 2.379.951 0 1.593-.349 1.901-.998zm-1.942-4.553c-1.175 0-1.996.861-2.084 2.167h4.06c-.027-1.306-.807-2.167-1.976-2.167zm5.127 6.46v-10.295h1.176v10.295z"/></g></g><rect fill="#fafafa" height="36" rx="5" width="36" x="1192" y="631.788"/><g fill="#0c0c0e"><path d="m1203 647.788c-1.1 0-2 .895-2 2 0 1.104.9 2 2 2s2-.896 2-2c0-1.105-.9-2-2-2z"/><path d="m1210 647.788c-1.1 0-2 .895-2 2 0 1.104.9 2 2 2s2-.896 2-2c0-1.105-.9-2-2-2z"/><path d="m1217 647.788c-1.1 0-2 .895-2 2 0 1.104.9 2 2 2s2-.896 2-2c0-1.105-.9-2-2-2z"/></g><rect height="35" rx="4.5" stroke="#3b3d45" stroke-opacity=".4" width="35" x="1192.5" y="632.288"/></g><g opacity=".9"><path d="m320.5 690.288h919v11h-919z" fill="#f9f2ff"/><path d="m775.764 698.045h1.38v-4.957l-1.653.796v-.853l1.644-.782h.887v5.796h1.363v.743h-3.621zm5.875-.004h3.015v.747h-3.986v-.747c.548-.577 1.027-1.087 1.437-1.53.41-.442.693-.754.848-.936.293-.357.491-.646.593-.865.103-.223.154-.45.154-.681 0-.367-.108-.654-.325-.862-.214-.208-.508-.312-.883-.312-.267 0-.547.049-.84.145-.293.097-.603.243-.931.44v-.897c.301-.143.597-.252.887-.325.293-.073.582-.11.866-.11.642 0 1.157.172 1.547.514.393.34.589.787.589 1.341 0 .281-.066.562-.198.843-.129.282-.34.592-.633.932-.164.19-.403.454-.716.791-.311.337-.785.841-1.424 1.512z" fill="#7b00db"/><path d="m320.5 690.288h919v11h-919z" stroke="#ead2fe"/></g><g filter="url(#n)"><rect fill="#fff" height="80" rx="6" width="920" x="320" y="701.788"/><g clip-path="url(#J)"><path clip-rule="evenodd" d="m338.834 718.118c.717-.435 1.615-.435 2.332 0l5.25 3.181c.673.408 1.084 1.138 1.084 1.925v5.128c0 .787-.411 1.516-1.084 1.924l-5.25 3.182c-.717.435-1.615.435-2.332 0l-5.25-3.182c-.673-.408-1.084-1.137-1.084-1.924v-5.128c0-.787.411-1.517 1.084-1.925zm1.555 1.282c-.239-.144-.539-.144-.778 0l-5.25 3.182c-.224.136-.361.379-.361.642v5.128c0 .262.137.506.361.641l5.25 3.182c.239.145.539.145.778 0l5.25-3.182c.224-.135.361-.379.361-.641v-5.128c0-.263-.137-.506-.361-.642z" fill="#000001" fill-rule="evenodd"/><path d="m364.211 731.788h-2.016v-9.578h-3.468v-1.696h8.961v1.696h-3.477zm6.211-9.969c-.633 0-1.156-.508-1.156-1.148 0-.633.523-1.149 1.156-1.149.64 0 1.164.516 1.164 1.149 0 .64-.524 1.148-1.164 1.148zm-.961 9.969v-8.539h1.93v8.539zm4.953-10.633h1.93v2.148h1.828v1.508h-1.828v4.25c0 .852.359 1.235 1.172 1.235.273 0 .422-.016.656-.039v1.484c-.281.055-.641.086-1.016.086-1.961 0-2.742-.656-2.742-2.305v-4.711h-1.352v-1.508h1.352zm5.774 10.633v-11.844h1.937v11.844zm9.96-2.336h1.836c-.351 1.539-1.781 2.508-3.796 2.508-2.516 0-4.032-1.672-4.032-4.407 0-2.742 1.539-4.468 4.016-4.468 2.437 0 3.898 1.617 3.898 4.297v.617h-5.968v.101c.046 1.446.867 2.352 2.14 2.352.961 0 1.625-.359 1.906-1zm-1.984-4.859c-1.156 0-1.969.835-2.055 2.117h4.024c-.039-1.297-.805-2.117-1.969-2.117z" fill="#0c0c0e"/><g fill="#656a76"><path clip-rule="evenodd" d="m339.125 752.035c.538-.326 1.212-.326 1.75 0l3.937 2.386c.505.306.813.854.813 1.444v3.846c0 .59-.308 1.137-.813 1.443l-3.937 2.386c-.538.326-1.212.326-1.75 0l-3.937-2.386c-.505-.306-.813-.853-.813-1.443v-3.846c0-.59.308-1.138.813-1.444zm1.167.962c-.18-.108-.404-.108-.584 0l-3.937 2.387c-.168.102-.271.284-.271.481v3.846c0 .197.103.379.271.481l3.937 2.386c.18.109.404.109.584 0l3.937-2.386c.168-.102.271-.284.271-.481v-3.846c0-.197-.103-.379-.271-.481z" fill-rule="evenodd"/><path d="m352.488 762.788h-1.23v-9.864h1.23zm8.463-5.113h-1.189c-.192-.732-.841-1.327-1.901-1.327-1.326 0-2.16 1.06-2.16 2.728 0 1.702.848 2.782 2.16 2.782.992 0 1.682-.458 1.901-1.292h1.189c-.212 1.354-1.312 2.352-3.083 2.352-2.064 0-3.384-1.497-3.384-3.842 0-2.297 1.313-3.787 3.377-3.787 1.791 0 2.885 1.073 3.09 2.386zm4.765 5.243c-2.099 0-3.398-1.449-3.398-3.815 0-2.372 1.299-3.814 3.398-3.814 2.098 0 3.397 1.442 3.397 3.814 0 2.366-1.299 3.815-3.397 3.815zm0-1.06c1.394 0 2.18-1.012 2.18-2.755 0-1.75-.786-2.755-2.18-2.755-1.395 0-2.181 1.005-2.181 2.755 0 1.743.786 2.755 2.181 2.755zm5.243.93v-7.369h1.121v1.162h.109c.37-.814 1.087-1.292 2.215-1.292 1.655 0 2.577.977 2.577 2.727v4.772h-1.175v-4.485c0-1.326-.561-1.955-1.737-1.955-1.175 0-1.934.787-1.934 2.079v4.361zm14.314-1.108v1.108h-5.988v-9.864h1.231v8.756zm3.87 1.238c-1.429 0-2.489-.848-2.489-2.195 0-1.319.971-2.078 2.687-2.18l2.126-.13v-.67c0-.909-.568-1.408-1.668-1.408-.882 0-1.497.335-1.661.916h-1.19c.157-1.183 1.32-1.962 2.892-1.962 1.798 0 2.803.923 2.803 2.454v5.045h-1.122v-1.087h-.109c-.478.786-1.285 1.217-2.269 1.217zm.218-1.033c1.21 0 2.106-.792 2.106-1.845v-.677l-1.983.13c-1.121.075-1.613.465-1.613 1.203 0 .752.636 1.189 1.49 1.189zm9.119 1.033c-1.025 0-1.9-.486-2.365-1.306h-.109v1.176h-1.121v-10.295h1.176v4.088h.109c.403-.793 1.299-1.292 2.31-1.292 1.874 0 3.09 1.497 3.09 3.814 0 2.304-1.223 3.815-3.09 3.815zm-.273-6.57c-1.34 0-2.174 1.053-2.174 2.755s.834 2.755 2.174 2.755c1.347 0 2.147-1.032 2.147-2.755 0-1.722-.8-2.755-2.147-2.755zm10.09 4.533h1.176c-.342 1.257-1.491 2.037-3.104 2.037-2.044 0-3.322-1.477-3.322-3.808 0-2.317 1.299-3.821 3.322-3.821 1.989 0 3.199 1.415 3.199 3.705v.451h-5.297v.055c.061 1.456.875 2.379 2.125 2.379.951 0 1.593-.349 1.901-.998zm-1.942-4.553c-1.175 0-1.996.861-2.084 2.167h4.06c-.027-1.306-.807-2.167-1.976-2.167zm5.127 6.46v-10.295h1.176v10.295z"/><path clip-rule="evenodd" d="m427.125 752.035c.538-.326 1.212-.326 1.75 0l3.937 2.386c.505.306.813.854.813 1.444v3.846c0 .59-.308 1.137-.813 1.443l-3.937 2.386c-.538.326-1.212.326-1.75 0l-3.937-2.386c-.505-.306-.813-.853-.813-1.443v-3.846c0-.59.308-1.138.813-1.444zm1.167.962c-.18-.108-.404-.108-.584 0l-3.937 2.387c-.168.102-.271.284-.271.481v3.846c0 .197.103.379.271.481l3.937 2.386c.18.109.404.109.584 0l3.937-2.386c.168-.102.271-.284.271-.481v-3.846c0-.197-.103-.379-.271-.481z" fill-rule="evenodd"/><path d="m440.488 762.788h-1.23v-9.864h1.23zm8.463-5.113h-1.189c-.192-.732-.841-1.327-1.901-1.327-1.326 0-2.16 1.06-2.16 2.728 0 1.702.848 2.782 2.16 2.782.992 0 1.682-.458 1.901-1.292h1.189c-.212 1.354-1.312 2.352-3.083 2.352-2.064 0-3.384-1.497-3.384-3.842 0-2.297 1.313-3.787 3.377-3.787 1.791 0 2.885 1.073 3.09 2.386zm4.765 5.243c-2.099 0-3.398-1.449-3.398-3.815 0-2.372 1.299-3.814 3.398-3.814 2.098 0 3.397 1.442 3.397 3.814 0 2.366-1.299 3.815-3.397 3.815zm0-1.06c1.394 0 2.18-1.012 2.18-2.755 0-1.75-.786-2.755-2.18-2.755-1.395 0-2.181 1.005-2.181 2.755 0 1.743.786 2.755 2.181 2.755zm5.243.93v-7.369h1.121v1.162h.109c.37-.814 1.087-1.292 2.215-1.292 1.655 0 2.577.977 2.577 2.727v4.772h-1.175v-4.485c0-1.326-.561-1.955-1.737-1.955-1.175 0-1.934.787-1.934 2.079v4.361zm14.314-1.108v1.108h-5.988v-9.864h1.231v8.756zm3.87 1.238c-1.429 0-2.489-.848-2.489-2.195 0-1.319.971-2.078 2.687-2.18l2.126-.13v-.67c0-.909-.568-1.408-1.668-1.408-.882 0-1.497.335-1.661.916h-1.19c.157-1.183 1.32-1.962 2.892-1.962 1.798 0 2.803.923 2.803 2.454v5.045h-1.122v-1.087h-.109c-.478.786-1.285 1.217-2.269 1.217zm.218-1.033c1.21 0 2.106-.792 2.106-1.845v-.677l-1.983.13c-1.121.075-1.613.465-1.613 1.203 0 .752.636 1.189 1.49 1.189zm9.119 1.033c-1.025 0-1.9-.486-2.365-1.306h-.109v1.176h-1.121v-10.295h1.176v4.088h.109c.403-.793 1.299-1.292 2.31-1.292 1.874 0 3.09 1.497 3.09 3.814 0 2.304-1.223 3.815-3.09 3.815zm-.273-6.57c-1.34 0-2.174 1.053-2.174 2.755s.834 2.755 2.174 2.755c1.347 0 2.147-1.032 2.147-2.755 0-1.722-.8-2.755-2.147-2.755zm10.09 4.533h1.176c-.342 1.257-1.491 2.037-3.104 2.037-2.044 0-3.322-1.477-3.322-3.808 0-2.317 1.299-3.821 3.322-3.821 1.989 0 3.199 1.415 3.199 3.705v.451h-5.297v.055c.061 1.456.875 2.379 2.125 2.379.951 0 1.593-.349 1.901-.998zm-1.942-4.553c-1.175 0-1.996.861-2.084 2.167h4.06c-.027-1.306-.807-2.167-1.976-2.167zm5.127 6.46v-10.295h1.176v10.295z"/></g></g><rect fill="#fafafa" height="36" rx="5" width="36" x="1192" y="723.788"/><g fill="#0c0c0e"><path d="m1203 739.788c-1.1 0-2 .895-2 2 0 1.104.9 2 2 2s2-.896 2-2c0-1.105-.9-2-2-2z"/><path d="m1210 739.788c-1.1 0-2 .895-2 2 0 1.104.9 2 2 2s2-.896 2-2c0-1.105-.9-2-2-2z"/><path d="m1217 739.788c-1.1 0-2 .895-2 2 0 1.104.9 2 2 2s2-.896 2-2c0-1.105-.9-2-2-2z"/></g><rect height="35" rx="4.5" stroke="#3b3d45" stroke-opacity=".4" width="35" x="1192.5" y="724.288"/></g><g opacity=".9"><path d="m320.5 782.288h919v11h-919z" fill="#f9f2ff"/><path d="m775.764 790.045h1.38v-4.957l-1.653.796v-.853l1.644-.782h.887v5.796h1.363v.743h-3.621zm5.875-.004h3.015v.747h-3.986v-.747c.548-.577 1.027-1.087 1.437-1.53.41-.442.693-.754.848-.936.293-.357.491-.646.593-.865.103-.223.154-.45.154-.681 0-.367-.108-.654-.325-.862-.214-.208-.508-.312-.883-.312-.267 0-.547.049-.84.145-.293.097-.603.243-.931.44v-.897c.301-.143.597-.252.887-.325.293-.073.582-.11.866-.11.642 0 1.157.172 1.547.514.393.34.589.787.589 1.341 0 .281-.066.562-.198.843-.129.282-.34.592-.633.932-.164.19-.403.454-.716.791-.311.337-.785.841-1.424 1.512z" fill="#7b00db"/><path d="m320.5 782.288h919v11h-919z" stroke="#ead2fe"/></g><g filter="url(#o)"><rect fill="#fff" height="80" rx="6" width="920" x="320" y="793.788"/><g clip-path="url(#K)"><path clip-rule="evenodd" d="m338.834 810.118c.717-.435 1.615-.435 2.332 0l5.25 3.181c.673.408 1.084 1.138 1.084 1.925v5.128c0 .787-.411 1.516-1.084 1.924l-5.25 3.182c-.717.435-1.615.435-2.332 0l-5.25-3.182c-.673-.408-1.084-1.137-1.084-1.924v-5.128c0-.787.411-1.517 1.084-1.925zm1.555 1.282c-.239-.144-.539-.144-.778 0l-5.25 3.182c-.224.136-.361.379-.361.642v5.128c0 .262.137.506.361.641l5.25 3.182c.239.145.539.145.778 0l5.25-3.182c.224-.135.361-.379.361-.641v-5.128c0-.263-.137-.506-.361-.642z" fill="#000001" fill-rule="evenodd"/><path d="m364.211 823.788h-2.016v-9.578h-3.468v-1.696h8.961v1.696h-3.477zm6.211-9.969c-.633 0-1.156-.508-1.156-1.148 0-.633.523-1.149 1.156-1.149.64 0 1.164.516 1.164 1.149 0 .64-.524 1.148-1.164 1.148zm-.961 9.969v-8.539h1.93v8.539zm4.953-10.633h1.93v2.148h1.828v1.508h-1.828v4.25c0 .852.359 1.235 1.172 1.235.273 0 .422-.016.656-.039v1.484c-.281.055-.641.086-1.016.086-1.961 0-2.742-.656-2.742-2.305v-4.711h-1.352v-1.508h1.352zm5.774 10.633v-11.844h1.937v11.844zm9.96-2.336h1.836c-.351 1.539-1.781 2.508-3.796 2.508-2.516 0-4.032-1.672-4.032-4.407 0-2.742 1.539-4.468 4.016-4.468 2.437 0 3.898 1.617 3.898 4.297v.617h-5.968v.101c.046 1.446.867 2.352 2.14 2.352.961 0 1.625-.359 1.906-1zm-1.984-4.859c-1.156 0-1.969.835-2.055 2.117h4.024c-.039-1.297-.805-2.117-1.969-2.117z" fill="#0c0c0e"/></g><rect fill="#fafafa" height="36" rx="5" width="36" x="1192" y="815.788"/><g fill="#0c0c0e"><path d="m1203 831.788c-1.1 0-2 .895-2 2 0 1.104.9 2 2 2s2-.896 2-2c0-1.105-.9-2-2-2z"/><path d="m1210 831.788c-1.1 0-2 .895-2 2 0 1.104.9 2 2 2s2-.896 2-2c0-1.105-.9-2-2-2z"/><path d="m1217 831.788c-1.1 0-2 .895-2 2 0 1.104.9 2 2 2s2-.896 2-2c0-1.105-.9-2-2-2z"/></g><rect height="35" rx="4.5" stroke="#3b3d45" stroke-opacity=".4" width="35" x="1192.5" y="816.288"/></g></g></svg>