<svg fill="none" height="138" viewBox="0 0 394 138" width="394" xmlns="http://www.w3.org/2000/svg"><rect fill="#f2fbf6" height="20" rx="5" width="157" x="109"/><path d="m119.152 14.188c-2.154 0-3.497-1.5576-3.497-4.0606 0-2.50826 1.338-4.06588 3.491-4.06588 1.708 0 3.03 1.09034 3.223 2.64258h-1.198c-.225-.96142-1.004-1.57373-2.025-1.57373-1.391 0-2.261 1.15479-2.261 2.99703 0 1.8423.87 2.9917 2.267 2.9917 1.026 0 1.805-.5532 2.019-1.434h1.198c-.215 1.5092-1.488 2.5029-3.217 2.5029zm7.138-.0752c-1.713 0-2.761-1.144-2.761-3.0293 0-1.87989 1.053-3.0293 2.761-3.0293 1.703 0 2.755 1.14404 2.755 3.0293 0 1.8853-1.047 3.0293-2.755 3.0293zm0-.9829c.999 0 1.568-.752 1.568-2.0464 0-1.29981-.569-2.05176-1.568-2.05176-1.004 0-1.568.75195-1.568 2.05176 0 1.2998.564 2.0464 1.568 2.0464zm4.147.8701v-5.83301h1.111v.92383h.086c.285-.64453.865-1.03662 1.746-1.03662 1.305 0 2.025.77881 2.025 2.1699v3.7759h-1.155v-3.502c0-.96675-.408-1.43941-1.262-1.43941s-1.397.58008-1.397 1.52001v3.4214zm6.595 0v-5.83301h1.112v.92383h.086c.285-.64453.865-1.03662 1.746-1.03662 1.305 0 2.024.77881 2.024 2.1699v3.7759h-1.154v-3.502c0-.96675-.408-1.43941-1.263-1.43941-.854 0-1.396.58008-1.396 1.52001v3.4214zm10.431-1.563h1.112c-.253 1.0313-1.198 1.6758-2.535 1.6758-1.676 0-2.702-1.1548-2.702-3.0186 0-1.85299 1.047-3.04 2.696-3.04 1.628 0 2.611 1.11182 2.611 2.938v.3974h-4.131v.0538c.038 1.0581.634 1.7241 1.558 1.7241.698 0 1.176-.2578 1.391-.7305zm-1.434-3.44286c-.854 0-1.45.62305-1.515 1.56296h2.954c-.027-.94528-.585-1.56296-1.439-1.56296zm8.953 1.04736h-1.122c-.134-.56933-.607-1.00439-1.381-1.00439-.966 0-1.557.76269-1.557 2.02489 0 1.2891.596 2.0679 1.557 2.0679.731 0 1.23-.3438 1.381-.9776h1.122c-.15 1.1495-1.052 1.9605-2.497 1.9605-1.703 0-2.745-1.1602-2.745-3.0508 0-1.85302 1.037-3.0078 2.739-3.0078 1.467 0 2.353.854 2.503 1.9873zm1.816-3.34619h1.155v1.4878h1.267v.92382h-1.267v3.07767c0 .6284.252.9023.827.9023.177 0 .279-.0107.44-.0268v.9184c-.188.0322-.403.0591-.628.0591-1.284 0-1.794-.4512-1.794-1.5737v-3.35697h-.929v-.92382h.929zm4.377.42969c-.403 0-.73-.32764-.73-.7251 0-.40283.327-.73047.73-.73047s.731.32764.731.73047c0 .39746-.328.7251-.731.7251zm-.574 6.875v-5.83301h1.149v5.83301zm5.317.1128c-1.713 0-2.761-1.144-2.761-3.0293 0-1.87989 1.053-3.0293 2.761-3.0293 1.703 0 2.755 1.14404 2.755 3.0293 0 1.8853-1.047 3.0293-2.755 3.0293zm0-.9829c.999 0 1.568-.752 1.568-2.0464 0-1.29981-.569-2.05176-1.568-2.05176-1.004 0-1.568.75195-1.568 2.05176 0 1.2998.564 2.0464 1.568 2.0464zm4.146.8701v-5.83301h1.112v.92383h.086c.285-.64453.865-1.03662 1.746-1.03662 1.305 0 2.025.77881 2.025 2.1699v3.7759h-1.155v-3.502c0-.96675-.408-1.43941-1.262-1.43941s-1.397.58008-1.397 1.52001v3.4214zm17.58 0h-1.117v-5.67725h-.075l-2.272 5.53765h-.913l-2.272-5.53765h-.076v5.67725h-1.117v-7.75049h1.407l2.466 6.06399h.091l2.471-6.06399h1.407zm5.645-1.563h1.112c-.253 1.0313-1.198 1.6758-2.535 1.6758-1.676 0-2.702-1.1548-2.702-3.0186 0-1.85299 1.047-3.04 2.696-3.04 1.628 0 2.611 1.11182 2.611 2.938v.3974h-4.131v.0538c.038 1.0581.634 1.7241 1.558 1.7241.698 0 1.176-.2578 1.391-.7305zm-1.434-3.44286c-.854 0-1.45.62305-1.515 1.56296h2.954c-.026-.94528-.585-1.56296-1.439-1.56296zm4.41-2.29883h1.154v1.4878h1.268v.92382h-1.268v3.07767c0 .6284.253.9023.828.9023.177 0 .279-.0107.44-.0268v.9184c-.188.0322-.403.0591-.628.0591-1.284 0-1.794-.4512-1.794-1.5737v-3.35697h-.93v-.92382h.93zm3.835 7.30469v-8.12109h1.144v3.21728h.091c.285-.6499.902-1.03662 1.783-1.03662 1.246 0 2.014.78955 2.014 2.16993v3.7705h-1.154v-3.4966c0-.96141-.436-1.43944-1.252-1.43944-.945 0-1.472.60694-1.472 1.52004v3.416zm9.13.1128c-1.713 0-2.76-1.144-2.76-3.0293 0-1.87989 1.052-3.0293 2.76-3.0293 1.703 0 2.756 1.14404 2.756 3.0293 0 1.8853-1.048 3.0293-2.756 3.0293zm0-.9829c.999 0 1.569-.752 1.569-2.0464 0-1.29981-.57-2.05176-1.569-2.05176-1.004 0-1.568.75195-1.568 2.05176 0 1.2998.564 2.0464 1.568 2.0464zm6.285.9668c-1.488 0-2.428-1.1709-2.428-3.0186 0-1.83689.951-3.01316 2.428-3.01316.8 0 1.477.38672 1.794 1.02588h.086v-3.21191h1.154v8.12109h-1.106v-.9238h-.091c-.35.6391-1.032 1.0205-1.837 1.0205zm.327-5.04348c-.972 0-1.563.76807-1.563 2.03028 0 1.2676.586 2.0249 1.563 2.0249.972 0 1.574-.7681 1.574-2.0249 0-1.2461-.607-2.03028-1.574-2.03028zm5.339.99368c-.451 0-.789-.3384-.789-.77346s.338-.77344.789-.77344c.457 0 .79.33838.79.77344s-.333.77346-.79.77346zm0 4.0337c-.451 0-.789-.3384-.789-.7735 0-.435.338-.7734.789-.7734.457 0 .79.3384.79.7734 0 .4351-.333.7735-.79.7735zm8.9-.0806h-3.185v-7.75049h3.115c1.456 0 2.331.74121 2.331 1.9336 0 .81103-.596 1.53613-1.359 1.66503v.09131c1.048.11275 1.746.85405 1.746 1.86915 0 1.3643-.994 2.1914-2.648 2.1914zm-1.982-6.76758v2.31494h1.429c1.063 0 1.617-.39746 1.617-1.15478 0-.73584-.521-1.16016-1.413-1.16016zm0 5.78468h1.74c1.085 0 1.66-.4458 1.66-1.2837s-.596-1.2676-1.729-1.2676h-1.671zm7.659 1.0796c-1.128 0-1.949-.6768-1.949-1.7403 0-1.0473.784-1.6543 2.175-1.7402l1.584-.0967v-.5102c0-.63918-.408-.99905-1.197-.99905-.645 0-1.091.2417-1.22.66602h-1.117c.118-.98291 1.064-1.62207 2.39-1.62207 1.467 0 2.294.73047 2.294 1.9551v3.9907h-1.112v-.8271h-.091c-.349.5908-.989.9238-1.757.9238zm.296-.9292c.87 0 1.514-.5694 1.514-1.3213v-.5049l-1.428.0967c-.806.0537-1.171.3384-1.171.8701 0 .5425.456.8594 1.085.8594zm6.445.9292c-1.488 0-2.428-1.1709-2.428-3.0186 0-1.83689.951-3.01316 2.428-3.01316.8 0 1.477.38672 1.794 1.02588h.086v-3.21191h1.155v8.12109h-1.107v-.9238h-.091c-.349.6391-1.031 1.0205-1.837 1.0205zm.328-5.04348c-.973 0-1.563.76807-1.563 2.03028 0 1.2676.585 2.0249 1.563 2.0249.972 0 1.573-.7681 1.573-2.0249 0-1.2461-.607-2.03028-1.573-2.03028zm6.907 7.17578c-1.461 0-2.406-.6499-2.53-1.6328h1.182c.096.4404.585.7197 1.364.7197.961 0 1.531-.4726 1.531-1.2622v-1.1225h-.086c-.355.6337-.999.9829-1.805.9829-1.493 0-2.417-1.1548-2.417-2.9058 0-1.76709.935-2.94336 2.428-2.94336.806 0 1.509.39746 1.837 1.03125h.091v-.9292h1.107v5.89211c0 1.3266-1.048 2.1699-2.702 2.1699zm-.016-3.271c.988 0 1.584-.7573 1.584-1.9497 0-1.19238-.601-1.95508-1.584-1.95508-.994 0-1.552.7627-1.552 1.95508 0 1.1924.558 1.9497 1.552 1.9497zm8.228-.521h1.112c-.252 1.0313-1.198 1.6758-2.535 1.6758-1.676 0-2.702-1.1548-2.702-3.0186 0-1.85299 1.048-3.04 2.697-3.04 1.627 0 2.61 1.11182 2.61 2.938v.3974h-4.13v.0538c.037 1.0581.633 1.7241 1.557 1.7241.698 0 1.176-.2578 1.391-.7305zm-1.434-3.44286c-.854 0-1.45.62305-1.514 1.56296h2.954c-.027-.94528-.586-1.56296-1.44-1.56296z" fill="#00781e"/><path d="m187.5 71.6667c1.473 0 2.667-1.1939 2.667-2.6667s-1.194-2.6667-2.667-2.6667-2.667 1.1939-2.667 2.6667 1.194 2.6667 2.667 2.6667zm-.5-51.6667v49h1v-49z" fill="#00781e"/><path clip-rule="evenodd" d="m10.8338 82.3298c.7168-.4344 1.6156-.4344 2.3324 0l5.25 3.1819c.6728.4077 1.0838 1.1374 1.0838 1.9241v5.1284c0 .7868-.411 1.5165-1.0838 1.9242l-5.25 3.1819c-.7168.4344-1.6156.4344-2.3324 0l-5.24998-3.1819c-.67285-.4077-1.08382-1.1374-1.08382-1.9242v-5.1284c0-.7867.41097-1.5164 1.08382-1.9241zm1.5549 1.2828c-.2389-.1448-.5385-.1448-.7774 0l-5.25003 3.1818c-.22428.136-.36127.3792-.36127.6414v5.1284c0 .2623.13699.5055.36127.6414l5.25003 3.1819c.2389.1448.5385.1448.7774 0l5.25-3.1819c.2243-.1359.3613-.3791.3613-.6414v-5.1284c0-.2622-.137-.5054-.3613-.6414z" fill="#000001" fill-rule="evenodd"/><path d="m36.2109 96h-2.0156v-9.5781h-3.4687v-1.6953h8.9609v1.6953h-3.4766zm6.211-9.9688c-.6328 0-1.1563-.5078-1.1563-1.1484 0-.6328.5235-1.1484 1.1563-1.1484.6406 0 1.164.5156 1.164 1.1484 0 .6406-.5234 1.1484-1.164 1.1484zm-.961 9.9688v-8.5391h1.9297v8.5391zm4.9532-10.6328h1.9297v2.1484h1.8281v1.5078h-1.8281v4.25c0 .8516.3593 1.2344 1.1718 1.2344.2735 0 .4219-.0156.6563-.039v1.4843c-.2813.0547-.6407.086-1.0157.086-1.9609 0-2.7421-.6563-2.7421-2.3047v-4.711h-1.3516v-1.5078h1.3516zm5.7734 10.6328v-11.8438h1.9375v11.8438zm9.9609-2.3359h1.836c-.3516 1.539-1.7813 2.5078-3.7969 2.5078-2.5156 0-4.0313-1.6719-4.0313-4.4063 0-2.7422 1.5391-4.4687 4.0157-4.4687 2.4375 0 3.8984 1.6172 3.8984 4.2969v.6171h-5.9687v.1016c.0468 1.4453.8672 2.3516 2.1406 2.3516.9609 0 1.625-.3594 1.9062-1zm-1.9843-4.8594c-1.1563 0-1.9688.8359-2.0547 2.1172h4.0234c-.039-1.2969-.8047-2.1172-1.9687-2.1172z" fill="#0c0c0e"/><g fill="#656a76"><path d="m13.2461 125.893v1.107h-5.98829v-9.864h1.23047v8.757zm3.8691 1.237c-1.4287 0-2.4882-.848-2.4882-2.194 0-1.32.9707-2.079 2.6865-2.181l2.126-.13v-.67c0-.909-.5674-1.408-1.668-1.408-.8819 0-1.4971.335-1.6611.916h-1.1895c.1572-1.183 1.3193-1.962 2.8916-1.962 1.7979 0 2.8027.923 2.8027 2.454v5.045h-1.1211v-1.087h-.1093c-.4786.786-1.2852 1.217-2.2696 1.217zm.2188-1.032c1.2099 0 2.1055-.793 2.1055-1.846v-.677l-1.9825.13c-1.1211.075-1.6132.465-1.6132 1.203 0 .752.6357 1.19 1.4902 1.19zm9.1191 1.032c-1.0254 0-1.9004-.485-2.3652-1.306h-.1094v1.176h-1.1211v-10.295h1.1758v4.088h.1094c.4033-.793 1.2988-1.292 2.3105-1.292 1.8731 0 3.0899 1.497 3.0899 3.814 0 2.304-1.2237 3.815-3.0899 3.815zm-.2734-6.569c-1.3399 0-2.1738 1.052-2.1738 2.754 0 1.703.8339 2.755 2.1738 2.755 1.3467 0 2.1465-1.032 2.1465-2.755 0-1.722-.7998-2.754-2.1465-2.754zm10.0898 4.532h1.1758c-.3418 1.258-1.4902 2.037-3.1035 2.037-2.0439 0-3.3223-1.477-3.3223-3.808 0-2.317 1.2989-3.821 3.3223-3.821 1.9893 0 3.1992 1.415 3.1992 3.705v.451h-5.2978v.055c.0615 1.456.875 2.379 2.1259 2.379.9502 0 1.5928-.349 1.9004-.998zm-1.9414-4.553c-1.1758 0-1.9961.861-2.0849 2.167h4.0605c-.0273-1.306-.8066-2.167-1.9756-2.167zm5.127 6.46v-10.295h1.1758v10.295z"/><path clip-rule="evenodd" d="m55.1254 116.247c.5375-.326 1.2117-.326 1.7492 0l3.9375 2.387c.5047.305.8129.853.8129 1.443v3.846c0 .59-.3082 1.137-.8129 1.443l-3.9375 2.387c-.5375.325-1.2117.325-1.7492 0l-3.9375-2.387c-.5047-.306-.8129-.853-.8129-1.443v-3.846c0-.59.3082-1.138.8129-1.443zm1.1661.962c-.1791-.108-.4039-.108-.583 0l-3.9375 2.387c-.1683.102-.271.284-.271.481v3.846c0 .197.1027.379.271.481l3.9375 2.387c.1791.108.4039.108.583 0l3.9375-2.387c.1683-.102.271-.284.271-.481v-3.846c0-.197-.1027-.379-.271-.481z" fill-rule="evenodd"/><path d="m68.4883 127h-1.2305v-9.864h1.2305zm8.4629-5.113h-1.1895c-.1914-.732-.8408-1.326-1.9004-1.326-1.3261 0-2.1601 1.059-2.1601 2.727 0 1.702.8476 2.782 2.1601 2.782.9912 0 1.6817-.458 1.9004-1.292h1.1895c-.2119 1.354-1.3125 2.352-3.083 2.352-2.0645 0-3.3838-1.497-3.3838-3.842 0-2.297 1.3125-3.787 3.3769-3.787 1.791 0 2.8848 1.073 3.0899 2.386zm4.7646 5.243c-2.0986 0-3.3974-1.449-3.3974-3.815 0-2.372 1.2988-3.814 3.3974-3.814 2.0987 0 3.3975 1.442 3.3975 3.814 0 2.366-1.2988 3.815-3.3975 3.815zm0-1.06c1.3946 0 2.1807-1.011 2.1807-2.755 0-1.75-.7861-2.754-2.1807-2.754-1.3945 0-2.1806 1.004-2.1806 2.754 0 1.744.7861 2.755 2.1806 2.755zm5.2432.93v-7.369h1.1211v1.162h.1094c.3691-.814 1.0869-1.292 2.2148-1.292 1.6543 0 2.5771.978 2.5771 2.728v4.771h-1.1757v-4.484c0-1.327-.5606-1.955-1.7364-1.955-1.1757 0-1.9345.786-1.9345 2.078v4.361zm14.314-1.107v1.107h-5.9878v-9.864h1.2304v8.757zm3.87 1.237c-1.429 0-2.489-.848-2.489-2.194 0-1.32.971-2.079 2.687-2.181l2.126-.13v-.67c0-.909-.568-1.408-1.668-1.408-.882 0-1.497.335-1.661.916h-1.19c.157-1.183 1.32-1.962 2.892-1.962 1.798 0 2.803.923 2.803 2.454v5.045h-1.122v-1.087h-.109c-.478.786-1.285 1.217-2.269 1.217zm.218-1.032c1.21 0 2.106-.793 2.106-1.846v-.677l-1.983.13c-1.121.075-1.613.465-1.613 1.203 0 .752.636 1.19 1.49 1.19zm9.119 1.032c-1.025 0-1.9-.485-2.365-1.306h-.109v1.176h-1.121v-10.295h1.176v4.088h.109c.403-.793 1.299-1.292 2.31-1.292 1.874 0 3.09 1.497 3.09 3.814 0 2.304-1.223 3.815-3.09 3.815zm-.273-6.569c-1.34 0-2.174 1.052-2.174 2.754 0 1.703.834 2.755 2.174 2.755 1.347 0 2.147-1.032 2.147-2.755 0-1.722-.8-2.754-2.147-2.754zm10.09 4.532h1.176c-.342 1.258-1.491 2.037-3.104 2.037-2.044 0-3.322-1.477-3.322-3.808 0-2.317 1.299-3.821 3.322-3.821 1.989 0 3.199 1.415 3.199 3.705v.451h-5.297v.055c.061 1.456.875 2.379 2.125 2.379.951 0 1.593-.349 1.901-.998zm-1.942-4.553c-1.175 0-1.996.861-2.084 2.167h4.06c-.027-1.306-.807-2.167-1.976-2.167zm5.127 6.46v-10.295h1.176v10.295z"/></g><rect fill="#f1f2f3" height="24" rx="5" width="82" x="148" y="78"/><path clip-rule="evenodd" d="m162.834 82.3298c.717-.4344 1.615-.4344 2.332 0l5.25 3.1819c.673.4077 1.084 1.1374 1.084 1.9241v5.1284c0 .7868-.411 1.5165-1.084 1.9242l-5.25 3.1819c-.717.4344-1.615.4344-2.332 0l-5.25-3.1819c-.673-.4077-1.084-1.1374-1.084-1.9242v-5.1284c0-.7867.411-1.5164 1.084-1.9241zm1.555 1.2828c-.239-.1448-.539-.1448-.778 0l-5.25 3.1818c-.224.136-.361.3792-.361.6414v5.1284c0 .2623.137.5055.361.6414l5.25 3.1819c.239.1448.539.1448.778 0l5.25-3.1819c.224-.1359.361-.3791.361-.6414v-5.1284c0-.2622-.137-.5054-.361-.6414z" fill="#3b3d45" fill-rule="evenodd"/><path d="m177.149 85.8403h3.307c2.717 0 4.31 1.6758 4.31 4.5576 0 2.9136-1.58 4.6021-4.31 4.6021h-3.307zm1.422 1.2251v6.7095h1.726c1.917 0 3.022-1.2251 3.022-3.3579 0-2.1138-1.124-3.3516-3.022-3.3516zm12.498 6.0874h1.314c-.298 1.2188-1.415 1.9805-2.996 1.9805-1.98 0-3.193-1.3647-3.193-3.5674 0-2.1899 1.238-3.5928 3.187-3.5928 1.923 0 3.085 1.314 3.085 3.4722v.4697h-4.882v.0635c.045 1.2505.749 2.0376 1.841 2.0376.825 0 1.39-.3047 1.644-.8633zm-1.694-4.0688c-1.01 0-1.714.7363-1.791 1.8472h3.492c-.032-1.1172-.692-1.8472-1.701-1.8472zm5.217 5.916v-5.7827h-1.136v-1.0918h1.136v-.7427c0-1.3711.699-2.0439 2.133-2.0439.311 0 .578.0254.813.0634v1.0284c-.127-.0191-.311-.0318-.527-.0318-.762 0-1.073.3491-1.073 1.0474v.6792h1.542v1.0918h-1.523v5.7827zm6.145.1143c-1.333 0-2.304-.7998-2.304-2.0567 0-1.2378.926-1.9551 2.57-2.0566l1.873-.1143v-.603c0-.7554-.482-1.1807-1.416-1.1807-.761 0-1.288.2857-1.44.7871h-1.321c.14-1.1616 1.257-1.917 2.825-1.917 1.733 0 2.71.8633 2.71 2.3106v4.7163h-1.314v-.9775h-.108c-.412.6982-1.167 1.0918-2.075 1.0918zm.349-1.0982c1.028 0 1.79-.6728 1.79-1.5615v-.5967l-1.688.1143c-.953.0634-1.384.3999-1.384 1.0283 0 .6411.539 1.0156 1.282 1.0156zm10.918-5.9097v6.8936h-1.314v-1.0918h-.108c-.336.7808-1.041 1.2251-2.088 1.2251-1.53 0-2.381-.9331-2.381-2.5518v-4.4751h1.365v4.1387c0 1.1426.451 1.6885 1.454 1.6885 1.104 0 1.707-.6729 1.707-1.7837v-4.0435zm2.044 6.8936v-9.5977h1.365v9.5977zm3.897-8.6328h1.365v1.7583h1.498v1.0918h-1.498v3.6372c0 .7427.298 1.0664.978 1.0664.209 0 .33-.0127.52-.0317v1.0854c-.222.0381-.476.0698-.743.0698-1.517 0-2.12-.5332-2.12-1.8598v-3.9673h-1.098v-1.0918h1.098z" fill="#3b3d45"/><path clip-rule="evenodd" d="m252.834 82.3298c.717-.4344 1.615-.4344 2.332 0l5.25 3.1819c.673.4077 1.084 1.1374 1.084 1.9241v5.1284c0 .7868-.411 1.5165-1.084 1.9242l-5.25 3.1819c-.717.4344-1.615.4344-2.332 0l-5.25-3.1819c-.673-.4077-1.084-1.1374-1.084-1.9242v-5.1284c0-.7867.411-1.5164 1.084-1.9241zm1.555 1.2828c-.239-.1448-.539-.1448-.778 0l-5.25 3.1818c-.224.136-.361.3792-.361.6414v5.1284c0 .2623.137.5055.361.6414l5.25 3.1819c.239.1448.539.1448.778 0l5.25-3.1819c.224-.1359.361-.3791.361-.6414v-5.1284c0-.2622-.137-.5054-.361-.6414z" fill="#000001" fill-rule="evenodd"/><path d="m278.211 96h-2.016v-9.5781h-3.468v-1.6953h8.961v1.6953h-3.477zm6.211-9.9688c-.633 0-1.156-.5078-1.156-1.1484 0-.6328.523-1.1484 1.156-1.1484.64 0 1.164.5156 1.164 1.1484 0 .6406-.524 1.1484-1.164 1.1484zm-.961 9.9688v-8.5391h1.93v8.5391zm4.953-10.6328h1.93v2.1484h1.828v1.5078h-1.828v4.25c0 .8516.359 1.2344 1.172 1.2344.273 0 .422-.0156.656-.039v1.4843c-.281.0547-.641.086-1.016.086-1.961 0-2.742-.6563-2.742-2.3047v-4.711h-1.352v-1.5078h1.352zm5.774 10.6328v-11.8438h1.937v11.8438zm9.96-2.3359h1.836c-.351 1.539-1.781 2.5078-3.796 2.5078-2.516 0-4.032-1.6719-4.032-4.4063 0-2.7422 1.539-4.4687 4.016-4.4687 2.437 0 3.898 1.6172 3.898 4.2969v.6171h-5.968v.1016c.046 1.4453.867 2.3516 2.14 2.3516.961 0 1.625-.3594 1.906-1zm-1.984-4.8594c-1.156 0-1.969.8359-2.055 2.1172h4.024c-.039-1.2969-.805-2.1172-1.969-2.1172z" fill="#0c0c0e"/><path d="m255.246 125.893v1.107h-5.988v-9.864h1.23v8.757zm3.869 1.237c-1.428 0-2.488-.848-2.488-2.194 0-1.32.971-2.079 2.686-2.181l2.126-.13v-.67c0-.909-.567-1.408-1.668-1.408-.881 0-1.497.335-1.661.916h-1.189c.157-1.183 1.319-1.962 2.891-1.962 1.798 0 2.803.923 2.803 2.454v5.045h-1.121v-1.087h-.109c-.479.786-1.285 1.217-2.27 1.217zm.219-1.032c1.21 0 2.105-.793 2.105-1.846v-.677l-1.982.13c-1.121.075-1.613.465-1.613 1.203 0 .752.635 1.19 1.49 1.19zm9.119 1.032c-1.025 0-1.9-.485-2.365-1.306h-.109v1.176h-1.122v-10.295h1.176v4.088h.11c.403-.793 1.298-1.292 2.31-1.292 1.873 0 3.09 1.497 3.09 3.814 0 2.304-1.224 3.815-3.09 3.815zm-.273-6.569c-1.34 0-2.174 1.052-2.174 2.754 0 1.703.834 2.755 2.174 2.755 1.346 0 2.146-1.032 2.146-2.755 0-1.722-.8-2.754-2.146-2.754zm10.09 4.532h1.175c-.341 1.258-1.49 2.037-3.103 2.037-2.044 0-3.322-1.477-3.322-3.808 0-2.317 1.298-3.821 3.322-3.821 1.989 0 3.199 1.415 3.199 3.705v.451h-5.298v.055c.062 1.456.875 2.379 2.126 2.379.95 0 1.593-.349 1.901-.998zm-1.942-4.553c-1.176 0-1.996.861-2.085 2.167h4.061c-.028-1.306-.807-2.167-1.976-2.167zm5.127 6.46v-10.295h1.176v10.295z" fill="#656a76"/><rect fill="#f1f2f3" height="24" rx="5" width="76" x="292" y="110"/><path clip-rule="evenodd" d="m306.834 114.33c.717-.435 1.615-.435 2.332 0l5.25 3.182c.673.407 1.084 1.137 1.084 1.924v5.128c0 .787-.411 1.517-1.084 1.924l-5.25 3.182c-.717.435-1.615.435-2.332 0l-5.25-3.182c-.673-.407-1.084-1.137-1.084-1.924v-5.128c0-.787.411-1.517 1.084-1.924zm1.555 1.283c-.239-.145-.539-.145-.778 0l-5.25 3.181c-.224.136-.361.38-.361.642v5.128c0 .263.137.506.361.642l5.25 3.181c.239.145.539.145.778 0l5.25-3.181c.224-.136.361-.379.361-.642v-5.128c0-.262-.137-.506-.361-.642z" fill="#656a76" fill-rule="evenodd"/><path d="m324.913 127h-3.764v-9.16h3.682c1.72 0 2.754.876 2.754 2.285 0 .959-.704 1.816-1.606 1.968v.108c1.238.133 2.063 1.009 2.063 2.209 0 1.612-1.174 2.59-3.129 2.59zm-2.342-7.998v2.736h1.688c1.257 0 1.911-.47 1.911-1.365 0-.87-.616-1.371-1.67-1.371zm0 6.836h2.056c1.283 0 1.962-.526 1.962-1.517 0-.99-.705-1.498-2.044-1.498h-1.974zm9.052 1.276c-1.333 0-2.305-.8-2.305-2.056 0-1.238.927-1.955 2.571-2.057l1.873-.114v-.603c0-.756-.483-1.181-1.416-1.181-.762 0-1.288.286-1.441.787h-1.32c.14-1.161 1.257-1.917 2.825-1.917 1.733 0 2.71.863 2.71 2.311v4.716h-1.314v-.978h-.108c-.412.699-1.168 1.092-2.075 1.092zm.349-1.098c1.028 0 1.79-.673 1.79-1.561v-.597l-1.689.114c-.952.064-1.384.4-1.384 1.028 0 .642.54 1.016 1.283 1.016zm7.617 1.098c-1.758 0-2.869-1.384-2.869-3.567 0-2.171 1.123-3.561 2.869-3.561.946 0 1.745.457 2.12 1.212h.102v-3.796h1.364v9.598h-1.307v-1.092h-.108c-.413.756-1.219 1.206-2.171 1.206zm.387-5.96c-1.149 0-1.847.908-1.847 2.399 0 1.498.692 2.393 1.847 2.393 1.149 0 1.86-.907 1.86-2.393 0-1.472-.717-2.399-1.86-2.399zm8.163 8.48c-1.726 0-2.844-.768-2.99-1.929h1.397c.114.52.692.85 1.612.85 1.136 0 1.809-.558 1.809-1.492v-1.326h-.101c-.419.749-1.181 1.161-2.133 1.161-1.765 0-2.857-1.364-2.857-3.434 0-2.088 1.105-3.478 2.87-3.478.952 0 1.783.47 2.171 1.219h.107v-1.099h1.308v6.964c0 1.568-1.238 2.564-3.193 2.564zm-.019-3.865c1.168 0 1.873-.895 1.873-2.305 0-1.409-.711-2.31-1.873-2.31-1.174 0-1.834.901-1.834 2.31 0 1.41.66 2.305 1.834 2.305zm9.725-.616h1.314c-.299 1.219-1.416 1.98-2.996 1.98-1.981 0-3.193-1.364-3.193-3.567 0-2.19 1.238-3.593 3.186-3.593 1.924 0 3.085 1.314 3.085 3.472v.47h-4.881v.064c.044 1.25.749 2.037 1.841 2.037.825 0 1.39-.305 1.644-.863zm-1.695-4.069c-1.009 0-1.714.736-1.79 1.847h3.491c-.032-1.117-.692-1.847-1.701-1.847z" fill="#656a76"/><path clip-rule="evenodd" d="m381.125 116.247c.538-.326 1.212-.326 1.75 0l3.937 2.387c.505.305.813.853.813 1.443v3.846c0 .59-.308 1.137-.813 1.443l-3.937 2.387c-.538.325-1.212.325-1.75 0l-3.937-2.387c-.505-.306-.813-.853-.813-1.443v-3.846c0-.59.308-1.138.813-1.443zm1.167.962c-.18-.108-.404-.108-.584 0l-3.937 2.387c-.168.102-.271.284-.271.481v3.846c0 .197.103.379.271.481l3.937 2.387c.18.108.404.108.584 0l3.937-2.387c.168-.102.271-.284.271-.481v-3.846c0-.197-.103-.379-.271-.481z" fill="#656a76" fill-rule="evenodd"/><rect height="29" rx="6" stroke="#00781e" stroke-dasharray="2 2" stroke-width="1.5" width="90" x="144" y="75"/></svg>